<?xml version="1.0" encoding="UTF-8" standalone="no"?>
<!-- Created with Inkscape (http://www.inkscape.org/) -->

<svg
   version="1.1"
   id="svg2"
   xml:space="preserve"
   width="224"
   height="262.66666"
   viewBox="0 0 224 262.66666"
   sodipodi:docname="acrobot.eps"
   inkscape:version="1.1.2 (1:1.1+202202050950+0a00cf5339)"
   xmlns:inkscape="http://www.inkscape.org/namespaces/inkscape"
   xmlns:sodipodi="http://sodipodi.sourceforge.net/DTD/sodipodi-0.dtd"
   xmlns="http://www.w3.org/2000/svg"
   xmlns:svg="http://www.w3.org/2000/svg"><defs
     id="defs6"><clipPath
       clipPathUnits="userSpaceOnUse"
       id="clipPath20"><path
         d="m 970,30 h 370 V 440 H 970 Z"
         id="path18" /></clipPath><clipPath
       clipPathUnits="userSpaceOnUse"
       id="clipPath44"><path
         d="m 30,830 h 500 v 240 H 30 Z"
         id="path42" /></clipPath><clipPath
       clipPathUnits="userSpaceOnUse"
       id="clipPath64"><path
         d="m 240,1210 h 440 v 640 H 240 Z"
         id="path62" /></clipPath><clipPath
       clipPathUnits="userSpaceOnUse"
       id="clipPath82"><path
         d="m 490,940 h 700 V 1970 H 490 Z"
         id="path80" /></clipPath><clipPath
       clipPathUnits="userSpaceOnUse"
       id="clipPath116"><path
         d="m 1540,1320 h 20 v 520 h -20 z"
         id="path114" /></clipPath><clipPath
       clipPathUnits="userSpaceOnUse"
       id="clipPath172"><path
         d="M 470,520 H 910 V 930 H 470 Z"
         id="path170" /></clipPath></defs><sodipodi:namedview
     id="namedview4"
     pagecolor="#ffffff"
     bordercolor="#999999"
     borderopacity="1"
     inkscape:pageshadow="0"
     inkscape:pageopacity="0"
     inkscape:pagecheckerboard="0"
     showgrid="false"
     inkscape:zoom="2.7373098"
     inkscape:cx="123.4789"
     inkscape:cy="127.49745"
     inkscape:window-width="2560"
     inkscape:window-height="1413"
     inkscape:window-x="2560"
     inkscape:window-y="27"
     inkscape:window-maximized="0"
     inkscape:current-layer="g8" /><g
     id="g8"
     inkscape:groupmode="layer"
     inkscape:label="ink_ext_XXXXXX"
     transform="matrix(1.3333333,0,0,-1.3333333,0,262.66667)"><path
       d="m 2.5,176.199 c -0.99219,0 -1.801172,-0.804 -1.801172,-1.801 V 160 c 0,-0.992 0.808982,-1.801 1.801172,-1.801 h 18.898 c 0.9969,0 1.8008,0.809 1.8008,1.801 v 14.398 c 0,0.997 -0.8039,1.801 -1.8008,1.801 z"
       style="fill:none;stroke:#000000;stroke-width:0.45;stroke-linecap:butt;stroke-linejoin:miter;stroke-miterlimit:10;stroke-dasharray:none;stroke-opacity:1"
       id="path12" /><g
       id="g14"
       transform="scale(0.1)"><g
         id="g16"
         clip-path="url(#clipPath20)"><path
           d="m 1042.03,96.9883 c 117.5,43.8317 203.09,146.5317 225,269.9997"
           style="fill:none;stroke:#000000;stroke-width:4.5;stroke-linecap:butt;stroke-linejoin:miter;stroke-miterlimit:10;stroke-dasharray:none;stroke-opacity:1"
           id="path22" /><path
           d="m 1106.21,150.391 -55.82,-49.18 71.99,16.801 -16.17,32.379"
           style="fill:#000000;fill-opacity:1;fill-rule:evenodd;stroke:none"
           id="path24" /><path
           d="m 1106.21,150.391 -55.82,-49.18 71.99,16.801 z"
           style="fill:none;stroke:#000000;stroke-width:4.5;stroke-linecap:butt;stroke-linejoin:miter;stroke-miterlimit:10;stroke-dasharray:none;stroke-opacity:1"
           id="path26" /><path
           d="m 1259.8,284.18 4.18,73.832 -38.39,-63.602 34.21,-10.23"
           style="fill:#000000;fill-opacity:1;fill-rule:evenodd;stroke:none"
           id="path28" /><path
           d="m 1259.8,284.18 4.18,73.832 -38.39,-63.602 z"
           style="fill:none;stroke:#000000;stroke-width:4.5;stroke-linecap:butt;stroke-linejoin:miter;stroke-miterlimit:10;stroke-dasharray:none;stroke-opacity:1"
           id="path30" /></g></g><path
       d="M 25.7301,96.527 H 25.434 c -0.6719,0 -0.9219,0.0468 -0.907,0.375 0,0.0628 0.016,0.141 0.0468,0.2031 l 2.9852,10.5319 h -1.5942 l -0.2968,-0.985 h 0.266 c -0.282,0.828 -0.766,1.25 -1.516,1.25 -2.375,0 -5.4059,-3.453 -5.4059,-6.187 0,-1.281 0.843,-2.2189 1.968,-2.2189 1.282,0 2.2039,0.7029 3.7969,2.9999 l -0.234,0.078 -1.5942,-5.265 c -0.234,-0.7192 -0.375,-0.7192 -1.6867,-0.8289 V 95.934 h 4.593 v 0.593 z m -1.25,10.719 c 0.5937,0 0.9219,-0.359 0.9219,-0.984 0,-1.485 -1.1872,-3.953 -2.4219,-4.985 -0.468,-0.39 -0.843,-0.547 -1.2813,-0.547 -0.609,0 -0.875,0.391 -0.875,1.235 0,1.328 0.9063,3.25 2.0633,4.437 0.5617,0.547 1.0617,0.844 1.593,0.844 z"
       style="fill:#000000;fill-opacity:1;fill-rule:nonzero;stroke:none;stroke-width:0.1"
       id="path32" /><path
       d="m 135.027,6.74609 c -0.234,-0.5 -0.281,-0.45312 -0.812,-0.45312 h -1.75 V 6.10508 l 1.875,1.875 c 1.172,1.17187 1.547,1.78203 1.547,2.43792 0,0.9691 -0.875,1.875 -1.782,1.875 -0.359,0 -0.859,-0.1559 -1.156,-0.3129 -0.515,-0.2813 -0.828,-0.734 -1.156,-1.5621 l 0.484,-0.1559 c 0.407,0.734 0.735,0.968 1.328,0.968 0.719,0 1.079,-0.359 1.079,-1.0621 0,-0.20316 -0.032,-0.40589 -0.079,-0.53089 -0.25,-0.53203 -0.64,-1.04727 -1.312,-1.75 L 131.152,5.60508 V 5.19883 h 3.813 l 0.594,1.56328 -0.422,0.18672 z"
       style="fill:#000000;fill-opacity:1;fill-rule:nonzero;stroke:none;stroke-width:0.1"
       id="path34" /><path
       d="m 28.184,95.1988 h 2.9531 v 0.4852 h -0.3133 c -0.5,0 -0.5468,-0.0789 -0.5468,0.1398 0,0.0942 0.0468,0.2813 0.125,0.5313 0.016,0.0789 0.032,0.141 0.0468,0.157 l 0.016,0.0617 1.4223,5.1882 c 0.0469,0.14 0.0617,0.234 0.0617,0.281 0,0.047 -0.1867,0.25 -0.2027,0.25 l 0.109,-0.281 c 0,0 -0.25,0.234 -0.234,0.25 l -0.7031,-0.125 -0.9059,-0.188 c -0.016,0 -0.0941,-0.015 -0.375,-0.062 v -0.469 l 0.75,0.031 c 0.218,0.016 0.2027,0.047 0.2027,-0.156 0,-0.047 -0.016,-0.156 -0.0777,-0.328 l -1.375,-4.922 c -0.125,-0.375 -0.157,-0.2969 -1.125,-0.391 v -0.4532 z"
       style="fill:#000000;fill-opacity:1;fill-rule:nonzero;stroke:none;stroke-width:0.1"
       id="path36" /><g
       id="g38"
       transform="scale(0.1)"><g
         id="g40"
         clip-path="url(#clipPath44)"><path
           d="m 96.9883,906.988 c 29.5707,-6.558 59.7307,-9.879 89.9997,-9.879 99.063,0 194.813,35.43 270.043,99.879"
           style="fill:none;stroke:#000000;stroke-width:4.5;stroke-linecap:butt;stroke-linejoin:miter;stroke-miterlimit:10;stroke-dasharray:none;stroke-opacity:1"
           id="path46" /><path
           d="m 179.801,915.391 -73.199,-9.571 68.988,-26.41 4.211,35.981"
           style="fill:#000000;fill-opacity:1;fill-rule:evenodd;stroke:none"
           id="path48" /><path
           d="M 179.801,915.391 106.602,905.82 175.59,879.41 Z"
           style="fill:none;stroke:#000000;stroke-width:4.5;stroke-linecap:butt;stroke-linejoin:miter;stroke-miterlimit:10;stroke-dasharray:none;stroke-opacity:1"
           id="path50" /><path
           d="m 400,935.82 49.18,55.782 -69.571,-25.782 20.391,-30"
           style="fill:#000000;fill-opacity:1;fill-rule:evenodd;stroke:none"
           id="path52" /><path
           d="m 400,935.82 49.18,55.782 -69.571,-25.782 z"
           style="fill:none;stroke:#000000;stroke-width:4.5;stroke-linecap:butt;stroke-linejoin:miter;stroke-miterlimit:10;stroke-dasharray:none;stroke-opacity:1"
           id="path54" /></g></g><path
       d="M 9.69883,45.6988 V 162.699"
       style="fill:none;stroke:#000000;stroke-width:0.45;stroke-linecap:butt;stroke-linejoin:miter;stroke-miterlimit:10;stroke-dasharray:1.35, 0.45;stroke-dashoffset:0;stroke-opacity:1"
       id="path56" /><g
       id="g58"
       transform="scale(0.1)"><g
         id="g60"
         clip-path="url(#clipPath64)"><path
           d="M 304.609,1784.22 606.988,1280.2"
           style="fill:none;stroke:#000000;stroke-width:4.5;stroke-linecap:butt;stroke-linejoin:miter;stroke-miterlimit:10;stroke-dasharray:none;stroke-opacity:1"
           id="path66" /><path
           d="m 361.602,1723.59 -52.192,52.19 21.61,-70.78 30.582,18.59"
           style="fill:#000000;fill-opacity:1;fill-rule:evenodd;stroke:none"
           id="path68" /><path
           d="M 361.602,1723.59 309.41,1775.78 331.02,1705 Z"
           style="fill:none;stroke:#000000;stroke-width:4.5;stroke-linecap:butt;stroke-linejoin:miter;stroke-miterlimit:10;stroke-dasharray:none;stroke-opacity:1"
           id="path70" /><path
           d="M 549.41,1341.41 602.191,1288.59 580,1360 549.41,1341.41"
           style="fill:#000000;fill-opacity:1;fill-rule:evenodd;stroke:none"
           id="path72" /><path
           d="M 549.41,1341.41 602.191,1288.59 580,1360 Z"
           style="fill:none;stroke:#000000;stroke-width:4.5;stroke-linecap:butt;stroke-linejoin:miter;stroke-miterlimit:10;stroke-dasharray:none;stroke-opacity:1"
           id="path74" /></g></g><g
       id="g76"
       transform="scale(0.1)"><g
         id="g78"
         clip-path="url(#clipPath82)"><path
           d="M 560.82,1944.41 1122.38,1008.4"
           style="fill:none;stroke:#000000;stroke-width:4.5;stroke-linecap:butt;stroke-linejoin:miter;stroke-miterlimit:10;stroke-dasharray:none;stroke-opacity:1"
           id="path84" /><path
           d="m 617.809,1883.79 -52.219,52.23 21.601,-70.82 30.618,18.59"
           style="fill:#000000;fill-opacity:1;fill-rule:evenodd;stroke:none"
           id="path86" /><path
           d="m 617.809,1883.79 -52.219,52.23 21.601,-70.82 z"
           style="fill:none;stroke:#000000;stroke-width:4.5;stroke-linecap:butt;stroke-linejoin:miter;stroke-miterlimit:10;stroke-dasharray:none;stroke-opacity:1"
           id="path88" /><path
           d="m 1064.8,1069.61 52.82,-52.81 -22.23,71.4 -30.59,-18.59"
           style="fill:#000000;fill-opacity:1;fill-rule:evenodd;stroke:none"
           id="path90" /><path
           d="m 1064.8,1069.61 52.82,-52.81 -22.23,71.4 z"
           style="fill:none;stroke:#000000;stroke-width:4.5;stroke-linecap:butt;stroke-linejoin:miter;stroke-miterlimit:10;stroke-dasharray:none;stroke-opacity:1"
           id="path92" /><path
           d="m 499.609,1205.2 135,90"
           style="fill:none;stroke:#000000;stroke-width:4.5;stroke-linecap:butt;stroke-linejoin:miter;stroke-miterlimit:10;stroke-dasharray:none;stroke-opacity:1"
           id="path94" /></g></g><path
       d="M 115.238,101.5 70.2379,74.5"
       style="fill:none;stroke:#000000;stroke-width:0.45;stroke-linecap:butt;stroke-linejoin:miter;stroke-miterlimit:10;stroke-dasharray:none;stroke-opacity:1"
       id="path96" /><path
       d="M 108.699,0.698828 68.1988,68.1988"
       style="fill:none;stroke:#000000;stroke-width:0.45;stroke-linecap:butt;stroke-linejoin:miter;stroke-miterlimit:10;stroke-dasharray:1.8, 0.45;stroke-dashoffset:0;stroke-opacity:1"
       id="path98" /><path
       d="m 8.31992,167.078 5.76208,3.363 54,-93.6012 -5.7621,-3.2378 -31.5,54.476 z"
       style="fill:#ffffff;fill-opacity:1;fill-rule:nonzero;stroke:none;stroke-width:0.1"
       id="path100" /><path
       d="m 8.31992,167.078 5.76208,3.363 54,-93.6012 -5.7621,-3.2378 -31.5,54.476 z"
       style="fill:none;stroke:#000000;stroke-width:0.9;stroke-linecap:butt;stroke-linejoin:round;stroke-miterlimit:10;stroke-dasharray:none;stroke-opacity:1"
       id="path102" /><path
       d="M 62.5,71.859 65.8012,77.6801 159.398,23.6211 156.039,17.918 101.5,49.359 Z"
       style="fill:#ffffff;fill-opacity:1;fill-rule:nonzero;stroke:none;stroke-width:0.1"
       id="path104" /><path
       d="M 62.5,71.859 65.8012,77.6801 159.398,23.6211 156.039,17.918 101.5,49.359 Z"
       style="fill:none;stroke:#000000;stroke-width:0.9;stroke-linecap:butt;stroke-linejoin:round;stroke-miterlimit:10;stroke-dasharray:none;stroke-opacity:1"
       id="path106" /><path
       d="m 56.6211,196.238 -45,-27"
       style="fill:none;stroke:#000000;stroke-width:0.45;stroke-linecap:butt;stroke-linejoin:miter;stroke-miterlimit:10;stroke-dasharray:none;stroke-opacity:1"
       id="path108" /><g
       id="g110"
       transform="scale(0.1)"><g
         id="g112"
         clip-path="url(#clipPath116)"><path
           d="M 1548.98,1831.02 V 1326.99"
           style="fill:none;stroke:#000000;stroke-width:4.5;stroke-linecap:butt;stroke-linejoin:miter;stroke-miterlimit:10;stroke-dasharray:none;stroke-opacity:1"
           id="path118" /></g></g><path
       d="m 153.102,140.859 1.796,-7.199 1.801,7.199 h -3.597"
       style="fill:#000000;fill-opacity:1;fill-rule:evenodd;stroke:none;stroke-width:0.1"
       id="path120" /><path
       d="m 153.102,140.859 1.796,-7.199 1.801,7.199 z"
       style="fill:none;stroke:#000000;stroke-width:0.45;stroke-linecap:butt;stroke-linejoin:miter;stroke-miterlimit:10;stroke-dasharray:none;stroke-opacity:1"
       id="path122" /><path
       d="m 92.602,153.438 c -0.1719,-0.204 -0.329,-0.407 -0.4848,-0.626 -0.5781,-0.75 -0.8121,-0.968 -1.1402,-0.968 -0.1719,0 -0.1411,-0.016 -0.1411,0.187 0,0.125 0.0469,0.344 0.1411,0.703 0.0152,0.047 0,0.047 0.0621,0.157 l 2.7339,10.5 -0.2031,0.171 c -1.0929,-0.234 -1.7808,-0.359 -2.984,-0.5 v -0.546 c 1,0 1.2192,0 1.2192,-0.282 0,-0.062 -0.016,-0.172 -0.0781,-0.328 l -2.454,-9.5 c -0.0621,-0.203 -0.0929,-0.375 -0.0929,-0.468 0,-0.657 0.4527,-1.141 1.0308,-1.141 0.9219,0 1.6563,0.562 2.9063,2.422 l -0.4531,0.297 z"
       style="fill:#000000;fill-opacity:1;fill-rule:nonzero;stroke:none;stroke-width:0.1"
       id="path124" /><path
       d="m 52.398,156.137 c -0.171,-0.203 -0.3281,-0.407 -0.4839,-0.625 -0.5782,-0.75 -0.8121,-0.969 -1.1411,-0.969 -0.171,0 -0.1402,-0.016 -0.1402,0.187 0,0.125 0.0473,0.344 0.1402,0.704 0.0161,0.046 0,0.046 0.0629,0.156 l 2.734,10.5 -0.2027,0.172 c -1.0942,-0.235 -1.7813,-0.36 -2.9844,-0.5 v -0.547 c 1,0 1.2192,0 1.2192,-0.281 0,-0.063 -0.0161,-0.172 -0.079,-0.329 l -2.4531,-9.5 c -0.0621,-0.203 -0.0929,-0.375 -0.0929,-0.468 0,-0.657 0.4531,-1.141 1.0308,-1.141 0.9223,0 1.6563,0.563 2.9063,2.422 l -0.4532,0.297 z"
       style="fill:#000000;fill-opacity:1;fill-rule:nonzero;stroke:none;stroke-width:0.1"
       id="path126" /><path
       d="m 92.8629,147.762 h 2.9531 v 0.484 h -0.3121 c -0.5,0 -0.5469,-0.078 -0.5469,0.141 0,0.093 0.0469,0.281 0.125,0.531 0.016,0.078 0.0309,0.141 0.0469,0.156 l 0.016,0.063 1.4211,5.187 c 0.0469,0.141 0.0629,0.235 0.0629,0.281 0,0.047 -0.1879,0.25 -0.2027,0.25 l 0.109,-0.281 c 0,0 -0.25,0.235 -0.234,0.25 l -0.7032,-0.125 -0.907,-0.187 c -0.0148,0 -0.093,-0.016 -0.375,-0.063 v -0.469 l 0.75,0.032 c 0.2192,0.015 0.2039,0.047 0.2039,-0.157 0,-0.046 -0.016,-0.156 -0.0789,-0.328 l -1.375,-4.922 c -0.125,-0.375 -0.1558,-0.296 -1.125,-0.39 v -0.453 z"
       style="fill:#000000;fill-opacity:1;fill-rule:nonzero;stroke:none;stroke-width:0.1"
       id="path128" /><path
       d="m 55.5551,152.105 c -0.5473,-0.593 -0.8129,-0.765 -1.3129,-0.765 -0.5621,0 -0.75,0.265 -0.75,0.969 0,0.859 0.3129,1.64 0.875,2.218 0.2808,0.297 0.5777,0.438 0.9687,0.438 0.2192,0 0.2032,0.078 0.2032,-0.047 0,-0.047 -0.0161,-0.094 0.016,-0.016 -0.0942,-0.187 -0.1723,-0.375 -0.1723,-0.453 0,-0.25 0.3281,-0.547 0.5621,-0.547 0.2821,0 0.641,0.36 0.641,0.625 0,0.453 -0.6089,0.969 -1.2031,0.969 -1.5,0 -3.0777,-1.625 -3.0777,-3.187 0,-0.954 0.7179,-1.657 1.6398,-1.657 0.75,0 1.4071,0.36 2.141,1.266 l -0.4531,0.281 z"
       style="fill:#000000;fill-opacity:1;fill-rule:nonzero;stroke:none;stroke-width:0.1"
       id="path130" /><path
       d="m 57.1051,150.762 h 2.9539 v 0.484 h -0.3129 c -0.5,0 -0.5473,-0.078 -0.5473,0.141 0,0.093 0.0473,0.281 0.125,0.531 0.016,0.078 0.0313,0.141 0.0473,0.156 l 0.016,0.063 1.4219,5.187 c 0.0461,0.141 0.0621,0.235 0.0621,0.281 0,0.047 -0.1871,0.25 -0.2031,0.25 l 0.109,-0.281 c 0,0 -0.25,0.235 -0.234,0.25 l -0.7032,-0.125 -0.9058,-0.187 c -0.016,0 -0.0942,-0.016 -0.375,-0.063 v -0.469 l 0.75,0.032 c 0.218,0.015 0.2031,0.047 0.2031,-0.157 0,-0.046 -0.016,-0.156 -0.0781,-0.328 l -1.375,-4.922 c -0.125,-0.375 -0.157,-0.296 -1.125,-0.39 v -0.453 z"
       style="fill:#000000;fill-opacity:1;fill-rule:nonzero;stroke:none;stroke-width:0.1"
       id="path132" /><path
       d="m 67.066,109.961 h 2.9539 v 0.484 H 69.707 c -0.5,0 -0.5468,-0.078 -0.5468,0.141 0,0.094 0.0468,0.281 0.125,0.531 0.016,0.078 0.0308,0.141 0.0468,0.156 l 0.016,0.063 1.4219,5.187 c 0.0461,0.141 0.0621,0.235 0.0621,0.282 0,0.047 -0.1871,0.25 -0.2031,0.25 l 0.109,-0.282 c 0,0 -0.25,0.235 -0.234,0.25 l -0.7027,-0.125 -0.9063,-0.187 c -0.016,0 -0.0937,-0.016 -0.375,-0.063 v -0.468 l 0.75,0.031 c 0.218,0.016 0.2031,0.047 0.2031,-0.156 0,-0.047 -0.016,-0.157 -0.0781,-0.328 l -1.375,-4.922 c -0.125,-0.375 -0.157,-0.297 -1.125,-0.391 v -0.453 z"
       style="fill:#000000;fill-opacity:1;fill-rule:nonzero;stroke:none;stroke-width:0.1"
       id="path134" /><path
       d="m 167.602,164.562 h -1.11 c -0.047,0 -0.047,-0.015 -0.187,0.094 -0.485,0.313 -1.172,0.547 -1.86,0.547 -2,0 -3.765,-1.531 -3.765,-3.219 0,-0.937 0.547,-1.593 1.297,-1.953 -0.891,-0.625 -1.25,-1.062 -1.25,-1.5 0,-0.234 0.171,-0.547 0.375,-0.703 -1.641,-1.078 -2,-1.531 -2,-2.359 0,-1.235 1.328,-2.172 3.156,-2.172 2.265,0 3.906,1.187 3.906,2.75 0,1.141 -1,2.062 -2.703,2.515 -0.797,0.204 -1.141,0.344 -1.141,0.61 0,0.281 0.297,0.625 0.532,0.625 0.031,0 0.062,0 0.125,-0.031 0.14,-0.032 0.39,-0.047 0.546,-0.047 1.641,0 3.469,1.578 3.469,2.984 0,0.297 -0.062,0.656 -0.125,0.891 h 0.86 v 0.968 z m -5.844,-7.062 c 0.031,0 -0.047,0.016 0.047,-0.031 0.109,-0.016 0.281,-0.078 0.578,-0.157 1.906,-0.593 2.422,-0.984 2.422,-1.812 0,-0.969 -0.891,-1.547 -2.282,-1.547 -1.437,0 -2.156,0.547 -2.156,1.703 0,0.422 0.063,0.641 0.36,0.985 0.234,0.312 0.89,0.859 1.031,0.859 z m 2.672,7.047 c 0.672,0 0.859,-0.313 0.859,-1.156 0,-0.625 -0.172,-1.329 -0.516,-1.938 -0.39,-0.75 -0.843,-1.094 -1.453,-1.094 -0.687,0 -0.953,0.36 -0.953,1.219 0,1.656 0.891,2.969 2.063,2.969 z"
       style="fill:#000000;fill-opacity:1;fill-rule:nonzero;stroke:none;stroke-width:0.1"
       id="path136" /><path
       d="m 121.707,56.9059 c -0.234,-0.5 -0.281,-0.4528 -0.812,-0.4528 h -1.75 V 56.266 l 1.875,1.875 c 1.171,1.1711 1.546,1.7809 1.546,2.4371 0,0.9688 -0.875,1.875 -1.781,1.875 -0.359,0 -0.859,-0.1562 -1.156,-0.3121 -0.516,-0.282 -0.828,-0.7351 -1.156,-1.5629 l 0.484,-0.1562 c 0.406,0.734 0.734,0.9691 1.328,0.9691 0.719,0 1.078,-0.3601 1.078,-1.0629 0,-0.2031 -0.031,-0.4062 -0.078,-0.5312 -0.25,-0.5309 -0.64,-1.0469 -1.312,-1.75 l -2.141,-2.2809 v -0.407 h 3.813 l 0.593,1.5629 -0.422,0.1871 z"
       style="fill:#000000;fill-opacity:1;fill-rule:nonzero;stroke:none;stroke-width:0.1"
       id="path138" /><path
       d="m 66.9961,115.527 c -0.1871,-0.218 -0.3281,-0.406 -0.375,-0.468 -0.516,-0.657 -0.7813,-0.907 -1.0473,-0.907 -0.1398,0 -0.109,-0.031 -0.109,0.141 0,0.094 0.0622,0.375 0.1723,0.812 l 1.234,4.516 c 0.016,0.078 0.0469,0.406 0.0469,0.516 0,0.64 -0.5782,1.265 -1.1879,1.265 -0.343,0 -0.8121,-0.172 -1.234,-0.437 -0.891,-0.578 -1.625,-1.453 -2.859,-3.422 l 0.218,-0.094 c 0.4539,1.36 0.7347,2.391 0.7347,2.735 0,0.625 -0.5468,1.218 -1.1558,1.218 -1.0942,0 -2.4692,-1.234 -4.125,-3.843 l 0.234,-0.094 1.0621,3.812 -0.1871,0.125 c -1.016,-0.218 -1.391,-0.281 -3.0309,-0.593 v -0.516 h 0.593 c 0.4687,0 0.5629,0 0.5629,-0.266 0,-0.203 -0.4219,-1.843 -1.0629,-4.125 -0.4211,-1.484 -0.468,-1.656 -0.75,-2.703 h 1.625 c 0.907,2.985 1.141,3.563 1.75,4.5 1,1.531 2,2.5 2.6097,2.5 0.234,0 0.2192,-0.031 0.2192,-0.328 0,-0.156 -0.5789,-2.328 -1.75,-6.672 h 1.625 c 0.75,2.938 1.0781,3.75 1.984,5.016 0.891,1.234 1.7031,1.984 2.2191,1.984 0.2027,0 0.218,-0.047 0.218,-0.25 0,-0.094 -0.0313,-0.312 -0.125,-0.625 l -1.0461,-4.14 c -0.157,-0.672 -0.2352,-1.016 -0.2352,-1.188 0,-0.547 0.391,-0.953 0.8602,-0.953 0.843,0 1.734,0.625 2.6871,1.953 l 0.1879,0.25 -0.5,0.391 z"
       style="fill:#000000;fill-opacity:1;fill-rule:nonzero;stroke:none;stroke-width:0.1"
       id="path140" /><path
       d="m 72.8121,110.918 c 1.5,0.844 2.3758,1.937 2.3758,2.953 0,0.719 -0.5789,1.422 -1.1719,1.422 -0.532,0 -1.0629,-0.516 -1.0629,-1 0,-0.297 0.141,-0.594 0.4848,-0.891 0.2652,-0.25 0.3281,-0.312 0.3281,-0.484 0,-0.5 -0.391,-0.891 -1.391,-1.563 l 0.2809,-0.531 z"
       style="fill:#000000;fill-opacity:1;fill-rule:nonzero;stroke:none;stroke-width:0.1"
       id="path142" /><path
       d="m 81.0551,113.199 h 4.5148 v 0.547 c -1.1558,0.141 -1.2179,0.094 -1.2179,0.609 0,0.344 0.0308,0.547 0.1871,1.125 l 2.2187,7.985 c 0.3281,1.031 0.3281,1.015 1.4692,1.219 v 0.546 h -4.704 v -0.562 c 1.1879,-0.125 1.25,-0.141 1.25,-0.656 0,-0.25 -0.0621,-0.657 -0.1871,-1.11 l -2.2187,-7.953 c -0.3281,-1.047 -0.3121,-1.015 -1.4531,-1.234 v -0.516 z"
       style="fill:#000000;fill-opacity:1;fill-rule:nonzero;stroke:none;stroke-width:0.1"
       id="path144" /><path
       d="m 129.23,6.52695 h -0.296 c -0.672,0 -0.922,0.04688 -0.907,0.375 0,0.06289 0.016,0.14102 0.047,0.20313 l 2.985,10.53202 h -1.594 l -0.297,-0.9851 h 0.266 c -0.282,0.8281 -0.766,1.25 -1.516,1.25 -2.375,0 -5.406,-3.4532 -5.406,-6.1872 0,-1.2808 0.843,-2.21871 1.968,-2.21871 1.282,0 2.204,0.70271 3.797,3.00001 l -0.234,0.0777 -1.594,-5.26482 c -0.234,-0.71914 -0.375,-0.71914 -1.687,-0.8289 v -0.5461 h 4.593 v 0.59297 z m -1.25,10.71915 c 0.594,0 0.922,-0.359 0.922,-0.984 0,-1.4851 -1.187,-3.9531 -2.422,-4.9851 -0.468,-0.3899 -0.843,-0.5469 -1.281,-0.5469 -0.609,0 -0.875,0.391 -0.875,1.2347 0,1.3282 0.906,3.25 2.063,4.4372 0.562,0.5468 1.062,0.8441 1.593,0.8441 z"
       style="fill:#000000;fill-opacity:1;fill-rule:nonzero;stroke:none;stroke-width:0.1"
       id="path146" /><path
       d="m 86.684,108.699 h 2.9531 v 0.485 h -0.3133 c -0.5,0 -0.5468,-0.079 -0.5468,0.14 0,0.094 0.0468,0.281 0.125,0.531 0.016,0.079 0.032,0.141 0.0468,0.157 l 0.016,0.062 1.4223,5.188 c 0.0469,0.14 0.0617,0.234 0.0617,0.281 0,0.047 -0.1867,0.25 -0.2027,0.25 l 0.109,-0.281 c 0,0 -0.25,0.234 -0.234,0.25 l -0.7031,-0.125 -0.9059,-0.188 c -0.016,0 -0.0941,-0.015 -0.375,-0.062 v -0.469 l 0.75,0.031 c 0.218,0.016 0.2027,0.047 0.2027,-0.156 0,-0.047 -0.016,-0.156 -0.0777,-0.328 l -1.375,-4.922 c -0.125,-0.375 -0.157,-0.297 -1.125,-0.391 v -0.453 z"
       style="fill:#000000;fill-opacity:1;fill-rule:nonzero;stroke:none;stroke-width:0.1"
       id="path148" /><path
       d="m 140.602,56.2461 c -0.235,-0.5 -0.282,-0.4531 -0.813,-0.4531 h -1.75 v -0.1879 l 1.875,1.875 c 1.172,1.1719 1.547,1.782 1.547,2.4379 0,0.9691 -0.875,1.875 -1.781,1.875 -0.36,0 -0.86,-0.1559 -1.157,-0.3129 -0.515,-0.2813 -0.828,-0.734 -1.156,-1.5621 l 0.485,-0.1559 c 0.406,0.734 0.734,0.968 1.328,0.968 0.718,0 1.078,-0.359 1.078,-1.0621 0,-0.2032 -0.031,-0.4059 -0.078,-0.5309 -0.25,-0.532 -0.641,-1.0473 -1.313,-1.75 l -2.14,-2.282 v -0.4063 h 3.812 l 0.594,1.5633 -0.422,0.1867 z"
       style="fill:#000000;fill-opacity:1;fill-rule:nonzero;stroke:none;stroke-width:0.1"
       id="path150" /><path
       d="m 116.496,61.527 c -0.187,-0.218 -0.328,-0.4059 -0.375,-0.468 -0.516,-0.657 -0.781,-0.907 -1.047,-0.907 -0.14,0 -0.109,-0.0309 -0.109,0.141 0,0.0941 0.062,0.375 0.172,0.8121 l 1.234,4.516 c 0.016,0.0777 0.047,0.4059 0.047,0.516 0,0.6399 -0.578,1.2649 -1.188,1.2649 -0.343,0 -0.812,-0.1719 -1.234,-0.4372 -0.891,-0.5777 -1.625,-1.4527 -2.859,-3.4218 l 0.218,-0.0942 c 0.454,1.3602 0.735,2.391 0.735,2.7352 0,0.625 -0.547,1.218 -1.156,1.218 -1.094,0 -2.469,-1.234 -4.125,-3.843 l 0.234,-0.0942 1.062,3.8122 -0.187,0.125 c -1.016,-0.218 -1.391,-0.2809 -3.031,-0.593 v -0.516 h 0.593 c 0.469,0 0.563,0 0.563,-0.266 0,-0.2032 -0.422,-1.843 -1.063,-4.125 -0.421,-1.484 -0.468,-1.6559 -0.75,-2.7032 h 1.625 c 0.907,2.9852 1.141,3.5633 1.75,4.5 1,1.5313 2,2.5 2.61,2.5 0.234,0 0.219,-0.0308 0.219,-0.3277 0,-0.1563 -0.579,-2.3281 -1.75,-6.6723 h 1.625 c 0.75,2.9383 1.078,3.75 1.984,5.016 0.891,1.234 1.703,1.984 2.219,1.984 0.203,0 0.218,-0.0468 0.218,-0.25 0,-0.0937 -0.031,-0.3117 -0.125,-0.625 l -1.046,-4.1398 c -0.157,-0.6719 -0.235,-1.016 -0.235,-1.1879 0,-0.5473 0.391,-0.9531 0.86,-0.9531 0.843,0 1.734,0.625 2.687,1.9531 l 0.188,0.25 -0.5,0.391 z"
       style="fill:#000000;fill-opacity:1;fill-rule:nonzero;stroke:none;stroke-width:0.1"
       id="path152" /><path
       d="m 124.883,56.918 c 1.5,0.8441 2.375,1.9371 2.375,2.9531 0,0.7187 -0.578,1.4219 -1.172,1.4219 -0.531,0 -1.063,-0.516 -1.063,-1 0,-0.2969 0.141,-0.5942 0.485,-0.891 0.265,-0.25 0.328,-0.3122 0.328,-0.484 0,-0.5 -0.391,-0.891 -1.391,-1.5629 l 0.282,-0.5313 z"
       style="fill:#000000;fill-opacity:1;fill-rule:nonzero;stroke:none;stroke-width:0.1"
       id="path154" /><path
       d="m 131.629,59.1988 h 4.516 v 0.5473 c -1.157,0.141 -1.219,0.0937 -1.219,0.609 0,0.3437 0.031,0.5469 0.187,1.125 l 2.219,7.9847 c 0.328,1.0313 0.328,1.0153 1.469,1.2192 v 0.5461 h -4.703 V 70.668 c 1.187,-0.125 1.25,-0.141 1.25,-0.6559 0,-0.25 -0.063,-0.657 -0.188,-1.1101 l -2.219,-7.9532 c -0.328,-1.0468 -0.312,-1.0148 -1.453,-1.234 v -0.516 z"
       style="fill:#000000;fill-opacity:1;fill-rule:nonzero;stroke:none;stroke-width:0.1"
       id="path156" /><path
       d="m 43.359,116.801 c 0,-1.196 -0.9641,-2.16 -2.1602,-2.16 -1.191,0 -2.1597,0.964 -2.1597,2.16 0,1.191 0.9687,2.16 2.1597,2.16 1.1961,0 2.1602,-0.969 2.1602,-2.16"
       style="fill:#000000;fill-opacity:1;fill-rule:evenodd;stroke:none;stroke-width:0.1"
       id="path158" /><path
       d="m 43.359,116.801 c 0,-1.196 -0.9641,-2.16 -2.1602,-2.16 -1.191,0 -2.1597,0.964 -2.1597,2.16 0,1.191 0.9687,2.16 2.1597,2.16 1.1961,0 2.1602,-0.969 2.1602,-2.16 z"
       style="fill:none;stroke:#000000;stroke-width:0.45;stroke-linecap:butt;stroke-linejoin:miter;stroke-miterlimit:10;stroke-dasharray:none;stroke-opacity:1"
       id="path160" /><path
       d="m 110.859,48.7621 c 0,-1.1961 -0.964,-2.1601 -2.16,-2.1601 -1.191,0 -2.16,0.964 -2.16,2.1601 0,1.191 0.969,2.1559 2.16,2.1559 1.196,0 2.16,-0.9649 2.16,-2.1559"
       style="fill:#000000;fill-opacity:1;fill-rule:evenodd;stroke:none;stroke-width:0.1"
       id="path162" /><path
       d="m 110.859,48.7621 c 0,-1.1961 -0.964,-2.1601 -2.16,-2.1601 -1.191,0 -2.16,0.964 -2.16,2.1601 0,1.191 0.969,2.1559 2.16,2.1559 1.196,0 2.16,-0.9649 2.16,-2.1559 z"
       style="fill:none;stroke:#000000;stroke-width:0.45;stroke-linecap:butt;stroke-linejoin:miter;stroke-miterlimit:10;stroke-dasharray:none;stroke-opacity:1"
       id="path164" /><g
       id="g166"
       transform="scale(0.1)"><g
         id="g168"
         clip-path="url(#clipPath172)"><path
           d="m 546.988,771.988 c -2.457,-10.777 -3.707,-21.789 -3.707,-32.886 0,-81.372 65.981,-147.34 147.34,-147.34 81.41,0 147.391,65.968 147.391,147.34 0,49.449 -24.813,95.589 -66.024,122.886"
           style="fill:none;stroke:#000000;stroke-width:4.5;stroke-linecap:butt;stroke-linejoin:miter;stroke-miterlimit:10;stroke-dasharray:none;stroke-opacity:1"
           id="path174" /><path
           d="m 838.59,812.191 -60,42.61 33.012,-66.012 26.988,23.402"
           style="fill:#000000;fill-opacity:1;fill-rule:evenodd;stroke:none"
           id="path176" /><path
           d="m 838.59,812.191 -60,42.61 33.012,-66.012 z"
           style="fill:none;stroke:#000000;stroke-width:4.5;stroke-linecap:butt;stroke-linejoin:miter;stroke-miterlimit:10;stroke-dasharray:none;stroke-opacity:1"
           id="path178" /></g></g><g
       id="g180"
       transform="translate(-1.7953611,-2.0475123)"><text
         transform="matrix(1,0,0,-1,52.3195,49.8422)"
         style="font-variant:normal;font-weight:normal;font-size:22px;font-family:FreeSerif;-inkscape-font-specification:FreeSerifItalic;writing-mode:lr-tb;fill:#000000;fill-opacity:1;fill-rule:nonzero;stroke:none"
         id="text184"><tspan
           x="0"
           y="0"
           id="tspan182"
           style="font-style:italic;font-variant:normal;font-weight:normal;font-stretch:normal;font-family:'Latin Modern Math', Italics;-inkscape-font-specification:'Latin Modern Math, Italics Italic'">u</tspan></text></g></g></svg>
