<?xml version="1.0" encoding="UTF-8" standalone="no"?>
<!-- Created with Inkscape (http://www.inkscape.org/) -->

<svg
   version="1.1"
   id="svg2"
   xml:space="preserve"
   width="672"
   height="609.33331"
   viewBox="0 0 672 609.33331"
   sodipodi:docname="ball_beam-evolution.eps"
   inkscape:version="1.1.2 (1:1.1+202202050950+0a00cf5339)"
   xmlns:inkscape="http://www.inkscape.org/namespaces/inkscape"
   xmlns:sodipodi="http://sodipodi.sourceforge.net/DTD/sodipodi-0.dtd"
   xmlns="http://www.w3.org/2000/svg"
   xmlns:svg="http://www.w3.org/2000/svg"><defs
     id="defs6"><clipPath
       clipPathUnits="userSpaceOnUse"
       id="clipPath22"><path
         d="m 629.059,263.859 h 4382.58 v 4028.09 H 629.059 Z"
         id="path20" /></clipPath><clipPath
       clipPathUnits="userSpaceOnUse"
       id="clipPath134"><path
         d="m 629.059,263.859 h 4382.58 v 4028.09 H 629.059 Z"
         id="path132" /></clipPath></defs><sodipodi:namedview
     id="namedview4"
     pagecolor="#ffffff"
     bordercolor="#999999"
     borderopacity="1"
     inkscape:pageshadow="0"
     inkscape:pageopacity="0"
     inkscape:pagecheckerboard="0"
     showgrid="false"
     inkscape:zoom="0.29499454"
     inkscape:cx="535.60313"
     inkscape:cy="628.8252"
     inkscape:window-width="1342"
     inkscape:window-height="688"
     inkscape:window-x="2572"
     inkscape:window-y="739"
     inkscape:window-maximized="0"
     inkscape:current-layer="g8" /><g
     id="g8"
     inkscape:groupmode="layer"
     inkscape:label="ink_ext_XXXXXX"
     transform="matrix(1.3333333,0,0,-1.3333333,0,609.33333)"><g
       id="g10"
       transform="scale(0.1)"><path
         d="M 0,0.269531 H 5040 V 4320.2695 H 0 Z"
         style="fill:#ffffff;fill-opacity:1;fill-rule:nonzero;stroke:none"
         id="path12" /><path
         d="m 629.059,263.859 h 4382.58 v 4028.09 H 629.059 Z"
         style="fill:#ffffff;fill-opacity:1;fill-rule:nonzero;stroke:none"
         id="path14" /><g
         id="g16"><g
           id="g18"
           clip-path="url(#clipPath22)"><path
             d="m 753.09,1375.08 8.281,4.18 8.238,12.54 8.282,20.74 8.281,28.79 8.277,36.56 8.25,44.02 16.563,108.83 16.519,133.6 16.52,154.33 24.808,260.43 41.371,471.84 33.079,369.02 24.812,250.7 16.52,148.05 16.519,130.59 16.57,111.01 16.52,90.47 8.28,37.27 8.28,31.21 8.24,26.17 8.29,20.66 8.28,15.16 8.24,9.8 8.28,4.38 8.28,-0.86 8.24,-6.02 8.29,-11.13 8.28,-16.01 8.24,-20.63 8.28,-25.35 8.28,-29.69 16.52,-71.64 16.57,-86.48 16.52,-99.18 24.81,-167.85 33.08,-245.94 49.61,-375.55 24.81,-172.69 16.52,-104.53 16.56,-94.18 16.52,-82.19 16.53,-69.22 16.56,-55.63 8.24,-22.61 8.28,-19.1 8.29,-15.71 8.28,-12.34 8.24,-8.95 8.28,-5.86 8.28,-2.57 8.24,-0.04 8.28,3.04 8.29,5.55 8.24,7.93 8.28,10.12 16.52,25.9 16.57,31.95 24.8,55 41.33,95.19 16.56,34.18 16.52,29.89 16.53,24.37 16.56,17.93 8.24,6.37 8.28,4.49 8.28,2.66 8.29,0.7 8.24,-1.17 8.28,-3.09 8.28,-4.92 8.24,-6.91 8.28,-8.6 16.53,-22.38 16.56,-28.71 16.52,-34.3 16.57,-38.9 24.8,-64.89 90.94,-249.65 24.8,-56.95 16.57,-32.97 16.52,-28.43 16.52,-23.72 16.56,-18.94 16.53,-14.3 16.52,-9.84 16.56,-5.86 16.53,-2.19 16.56,0.78 16.52,3.13 24.81,7.69 57.89,20.28 16.52,3.75 16.56,1.95 16.53,-0.12 16.52,-2.5 16.56,-4.92 16.53,-7.46 16.52,-9.92 16.56,-12.19 16.53,-14.3 24.8,-24.72 33.09,-37.23 74.41,-86.64 24.81,-25.47 24.8,-22.3 16.56,-12.78 24.81,-16.05 24.8,-12.15 24.81,-8.56 24.8,-5.46 24.81,-3.05 33.08,-1.64 82.7,-2.85 33.05,-4.42 24.8,-5.27 33.09,-9.73 33.08,-12.42 41.33,-18.12 82.7,-37.5 33.08,-12.7 33.09,-10.43 33.08,-7.81 33.05,-5.31 33.09,-3.13 41.36,-1.68 148.83,-3.24 49.61,-4.34 66.17,-8.2 99.22,-12.42 49.61,-4.03 49.61,-1.91 57.89,0.12 99.22,3.2 99.22,2.31 99.26,-0.24 140.54,-0.39 90.98,2.19 355.55,11.48 223.28,5.31"
             style="fill:none;stroke:#000000;stroke-width:20;stroke-linecap:butt;stroke-linejoin:round;stroke-miterlimit:4;stroke-dasharray:none;stroke-opacity:1"
             id="path24" /></g></g><path
         d="m 753.09,263.871 v 25"
         style="fill:none;stroke:#000000;stroke-width:5;stroke-linecap:butt;stroke-linejoin:round;stroke-miterlimit:4;stroke-dasharray:none;stroke-opacity:1"
         id="path26" /><path
         d="m 753.09,4291.95 v -25"
         style="fill:none;stroke:#000000;stroke-width:5;stroke-linecap:butt;stroke-linejoin:round;stroke-miterlimit:4;stroke-dasharray:none;stroke-opacity:1"
         id="path28" /><path
         d="m 706.68,147.5 c 0,-16.52 0.859,-36.328 9.922,-53.0078 9.449,-17.8516 25.468,-22.2617 36.289,-22.2617 11.839,0 28.589,4.6484 38.238,25.539 7.07,15.1605 8.172,32.3125 8.172,49.7305 0,17.582 -1.102,35.199 -8.789,51.48 -10.121,21.102 -28.172,24.61 -37.422,24.61 -13.211,0 -29.262,-5.699 -38.289,-26.168 -7.031,-15.192 -8.121,-32.34 -8.121,-49.922 z m 18.242,2.621 c 0,14.059 0,28.59 1.758,40.469 4.218,26.211 20.699,28.199 26.211,28.199 7.23,0 21.757,-3.988 25.937,-25.738 2.223,-12.352 2.223,-29.071 2.223,-42.93 0,-16.492 0,-31.449 -2.461,-45.551 -3.281,-20.8981 -15.82,-27.4997 -25.699,-27.4997 -8.59,0 -21.602,5.5117 -25.551,26.6017 -2.418,13.207 -2.418,33.476 -2.418,46.449 z"
         style="fill:#000000;fill-opacity:1;fill-rule:nonzero;stroke:none"
         id="path30" /><path
         d="m 2131.25,263.871 v 25"
         style="fill:none;stroke:#000000;stroke-width:5;stroke-linecap:butt;stroke-linejoin:round;stroke-miterlimit:4;stroke-dasharray:none;stroke-opacity:1"
         id="path32" /><path
         d="m 2131.25,4291.95 v -25"
         style="fill:none;stroke:#000000;stroke-width:5;stroke-linecap:butt;stroke-linejoin:round;stroke-miterlimit:4;stroke-dasharray:none;stroke-opacity:1"
         id="path34" /><path
         d="m 2087.27,112.5 c 0,-18.9102 15.19,-40.2695 39.8,-40.2695 25.55,0 48.01,21.1289 48.01,49.0585 0,26.211 -18.05,48.203 -41.84,48.203 -10.58,0 -20.04,-3.512 -27.93,-11.211 v 42.891 c 4.42,-1.332 11.64,-2.891 18.71,-2.891 27.03,0 42.46,20.039 42.46,22.891 0,1.328 -0.66,2.418 -2.22,2.418 -0.2,0 -0.67,0 -1.76,-0.66 -4.38,-1.95 -15.2,-6.371 -29.92,-6.371 -8.79,0 -18.91,1.531 -29.26,6.171 -1.76,0.668 -2.19,0.668 -2.66,0.668 -2.18,0 -2.18,-1.757 -2.18,-5.308 v -65.121 c 0,-3.949 0,-5.699 3.08,-5.699 1.56,0 1.99,0.66 2.85,1.949 2.47,3.551 10.55,15.429 28.4,15.429 11.45,0 16.96,-10.117 18.71,-14.058 3.48,-8.168 3.95,-16.758 3.95,-27.738 0,-7.731 0,-20.903 -5.31,-30.1528 -5.24,-8.5586 -13.4,-14.3008 -23.52,-14.3008 -16.05,0 -28.59,11.6836 -32.34,24.6526 0.66,-0.242 1.32,-0.469 3.75,-0.469 7.26,0 11.01,5.508 11.01,10.816 0,5.274 -3.75,10.782 -11.01,10.782 -3.09,0 -10.78,-1.559 -10.78,-11.68 z"
         style="fill:#000000;fill-opacity:1;fill-rule:nonzero;stroke:none"
         id="path36" /><path
         d="m 3509.45,263.871 v 25"
         style="fill:none;stroke:#000000;stroke-width:5;stroke-linecap:butt;stroke-linejoin:round;stroke-miterlimit:4;stroke-dasharray:none;stroke-opacity:1"
         id="path38" /><path
         d="m 3509.45,4291.95 v -25"
         style="fill:none;stroke:#000000;stroke-width:5;stroke-linecap:butt;stroke-linejoin:round;stroke-miterlimit:4;stroke-dasharray:none;stroke-opacity:1"
         id="path40" /><path
         d="m 3419.02,202.699 c 4.42,0 17.39,0 28.83,5.742 V 94.4922 c 0,-7.9727 -0.66,-10.582 -20.47,-10.582 h -7.03 v -6.8399 c 7.7,0.6602 26.84,0.6602 35.63,0.6602 8.82,0 27.97,0 35.66,-0.6602 v 6.8399 h -7.07 c -19.77,0 -20.43,2.4218 -20.43,10.582 V 217.891 c 0,5.269 0,5.699 -5.08,5.699 -13.63,-14.059 -33.01,-14.059 -40.04,-14.059 z"
         style="fill:#000000;fill-opacity:1;fill-rule:nonzero;stroke:none"
         id="path42" /><path
         d="m 3518.05,147.5 c 0,-16.52 0.86,-36.328 9.88,-53.0078 9.45,-17.8516 25.51,-22.2617 36.29,-22.2617 11.87,0 28.63,4.6484 38.28,25.539 7.03,15.1605 8.12,32.3125 8.12,49.7305 0,17.582 -1.09,35.199 -8.78,51.48 -10.12,21.102 -28.17,24.61 -37.39,24.61 -13.2,0 -29.25,-5.699 -38.32,-26.168 -6.99,-15.192 -8.08,-32.34 -8.08,-49.922 z m 18.24,2.621 c 0,14.059 0,28.59 1.76,40.469 4.18,26.211 20.7,28.199 26.17,28.199 7.26,0 21.76,-3.988 25.98,-25.738 2.18,-12.352 2.18,-29.071 2.18,-42.93 0,-16.492 0,-31.449 -2.42,-45.551 -3.32,-20.8981 -15.82,-27.4997 -25.74,-27.4997 -8.6,0 -21.56,5.5117 -25.51,26.6017 -2.42,13.207 -2.42,33.476 -2.42,46.449 z"
         style="fill:#000000;fill-opacity:1;fill-rule:nonzero;stroke:none"
         id="path44" /><path
         d="m 4887.62,263.871 v 25"
         style="fill:none;stroke:#000000;stroke-width:5;stroke-linecap:butt;stroke-linejoin:round;stroke-miterlimit:4;stroke-dasharray:none;stroke-opacity:1"
         id="path46" /><path
         d="m 4887.62,4291.95 v -25"
         style="fill:none;stroke:#000000;stroke-width:5;stroke-linecap:butt;stroke-linejoin:round;stroke-miterlimit:4;stroke-dasharray:none;stroke-opacity:1"
         id="path48" /><path
         d="m 4797.23,202.699 c 4.37,0 17.34,0 28.79,5.742 V 94.4922 c 0,-7.9727 -0.67,-10.582 -20.47,-10.582 h -7.03 v -6.8399 c 7.69,0.6602 26.83,0.6602 35.66,0.6602 8.79,0 27.93,0 35.62,-0.6602 v 6.8399 h -7.03 c -19.8,0 -20.47,2.4218 -20.47,10.582 V 217.891 c 0,5.269 0,5.699 -5.07,5.699 -13.64,-14.059 -33.01,-14.059 -40,-14.059 z"
         style="fill:#000000;fill-opacity:1;fill-rule:nonzero;stroke:none"
         id="path50" /><path
         d="m 4898.63,112.5 c 0,-18.9102 15.2,-40.2695 39.81,-40.2695 25.51,0 47.97,21.1289 47.97,49.0585 0,26.211 -18.05,48.203 -41.8,48.203 -10.59,0 -20.04,-3.512 -27.93,-11.211 v 42.891 c 4.37,-1.332 11.64,-2.891 18.67,-2.891 27.07,0 42.46,20.039 42.46,22.891 0,1.328 -0.66,2.418 -2.19,2.418 -0.19,0 -0.66,0 -1.75,-0.66 -4.42,-1.95 -15.2,-6.371 -29.96,-6.371 -8.79,0 -18.91,1.531 -29.22,6.171 -1.76,0.668 -2.23,0.668 -2.66,0.668 -2.23,0 -2.23,-1.757 -2.23,-5.308 v -65.121 c 0,-3.949 0,-5.699 3.13,-5.699 1.52,0 1.99,0.66 2.85,1.949 2.42,3.551 10.55,15.429 28.4,15.429 11.44,0 16.91,-10.117 18.67,-14.058 3.52,-8.168 3.99,-16.758 3.99,-27.738 0,-7.731 0,-20.903 -5.32,-30.1528 -5.27,-8.5586 -13.4,-14.3008 -23.51,-14.3008 -16.1,0 -28.6,11.6836 -32.35,24.6526 0.67,-0.242 1.29,-0.469 3.75,-0.469 7.27,0 11.02,5.508 11.02,10.816 0,5.274 -3.75,10.782 -11.02,10.782 -3.08,0 -10.78,-1.559 -10.78,-11.68 z"
         style="fill:#000000;fill-opacity:1;fill-rule:nonzero;stroke:none"
         id="path52" /><path
         d="m 629.059,680.59 h 25"
         style="fill:none;stroke:#000000;stroke-width:5;stroke-linecap:butt;stroke-linejoin:round;stroke-miterlimit:4;stroke-dasharray:none;stroke-opacity:1"
         id="path54" /><path
         d="m 5011.64,680.59 h -25"
         style="fill:none;stroke:#000000;stroke-width:5;stroke-linecap:butt;stroke-linejoin:round;stroke-miterlimit:4;stroke-dasharray:none;stroke-opacity:1"
         id="path56" /><path
         d="m 43.3984,659.922 c 0,-2.192 3.75,-2.461 5.7032,-2.461 h 1.0976 c 1.75,0 3.3203,0.269 5.0703,0.269 H 179.141 c 1.328,0 2.418,-0.269 3.711,-0.269 h 0.468 c 2.418,0 5.739,0.269 5.739,2.66 0,2.848 -3.547,2.418 -6.399,2.418 H 47.8086 c -2.457,0 -4.4102,-0.43 -4.4102,-2.617 z"
         style="fill:#000000;fill-opacity:1;fill-rule:nonzero;stroke:none"
         id="path58" /><path
         d="m 210.621,675.512 c 0,-16.492 0.859,-36.293 9.891,-53.012 9.449,-17.809 25.508,-22.23 36.289,-22.23 11.871,0 28.59,4.652 38.277,25.55 7.031,15.16 8.121,32.301 8.121,49.692 0,17.609 -1.09,35.226 -8.789,51.519 -10.109,21.09 -28.16,24.61 -37.379,24.61 -13.203,0 -29.261,-5.7 -38.32,-26.172 -6.992,-15.199 -8.09,-32.348 -8.09,-49.957 z m 18.25,2.648 c 0,14.07 0,28.602 1.75,40.469 4.18,26.172 20.668,28.211 26.18,28.211 7.258,0 21.75,-4.031 25.969,-25.789 2.191,-12.34 2.191,-29.02 2.191,-42.891 0,-16.48 0,-31.441 -2.461,-45.539 -3.281,-20.902 -15.781,-27.5 -25.699,-27.5 -8.602,0 -21.571,5.5 -25.551,26.598 -2.379,13.203 -2.379,33.48 -2.379,46.441 z"
         style="fill:#000000;fill-opacity:1;fill-rule:nonzero;stroke:none"
         id="path60" /><path
         d="m 330.699,616.762 c 0,-5.942 4.852,-11.641 11.68,-11.641 5.742,0 11.449,4.84 11.449,11.641 0,6.867 -5.308,11.476 -11.449,11.476 -6.828,0 -11.68,-5.508 -11.68,-11.476 z"
         style="fill:#000000;fill-opacity:1;fill-rule:nonzero;stroke:none"
         id="path62" /><path
         d="m 384.18,605.121 h 81.601 l 6.168,38.277 h -5.469 c -1.128,-6.558 -2.652,-16.289 -4.878,-19.566 -1.524,-1.762 -16.012,-1.762 -20.903,-1.762 h -39.57 l 23.281,22.66 c 34.34,30.352 47.539,42.219 47.539,64.25 0,25.04 -19.801,42.661 -46.64,42.661 -24.84,0 -41.129,-20.231 -41.129,-39.801 0,-12.309 10.98,-12.309 11.64,-12.309 3.75,0 11.45,2.617 11.45,11.641 0,5.707 -3.95,11.449 -11.649,11.449 -1.75,0 -2.18,0 -2.851,-0.242 5.039,14.301 16.921,22.422 29.691,22.422 20,0 29.449,-17.77 29.449,-35.821 0,-17.609 -10.969,-35 -23.082,-48.671 l -42.269,-47.028 c -2.379,-2.461 -2.379,-2.851 -2.379,-8.16 z"
         style="fill:#000000;fill-opacity:1;fill-rule:nonzero;stroke:none"
         id="path64" /><path
         d="m 494.18,640.551 c 0,-18.91 15.199,-40.281 39.8,-40.281 25.551,0 47.969,21.14 47.969,49.07 0,26.172 -18.039,48.199 -41.789,48.199 -10.59,0 -20.039,-3.519 -27.93,-11.207 v 42.887 c 4.372,-1.328 11.641,-2.887 18.711,-2.887 27.028,0 42.418,20.039 42.418,22.887 0,1.332 -0.629,2.422 -2.187,2.422 -0.192,0 -0.66,0 -1.762,-0.661 -4.371,-1.96 -15.191,-6.371 -29.922,-6.371 -8.828,0 -18.898,1.52 -29.258,6.172 -1.75,0.629 -2.218,0.629 -2.652,0.629 -2.187,0 -2.187,-1.719 -2.187,-5.281 V 681.02 c 0,-3.95 0,-5.711 3.089,-5.711 1.559,0 1.989,0.671 2.848,1.961 2.422,3.55 10.551,15.429 28.402,15.429 11.442,0 16.95,-10.117 18.711,-14.07 3.469,-8.16 3.938,-16.75 3.938,-27.77 0,-7.699 0,-20.898 -5.309,-30.121 -5.23,-8.547 -13.398,-14.289 -23.519,-14.289 -16.09,0 -28.59,11.672 -32.34,24.641 0.668,-0.231 1.328,-0.469 3.75,-0.469 7.269,0 11.019,5.508 11.019,10.789 0,5.309 -3.75,10.82 -11.019,10.82 -3.082,0 -10.781,-1.57 -10.781,-11.679 z"
         style="fill:#000000;fill-opacity:1;fill-rule:nonzero;stroke:none"
         id="path66" /><path
         d="m 629.059,1375.08 h 25"
         style="fill:none;stroke:#000000;stroke-width:5;stroke-linecap:butt;stroke-linejoin:round;stroke-miterlimit:4;stroke-dasharray:none;stroke-opacity:1"
         id="path68" /><path
         d="m 5011.64,1375.08 h -25"
         style="fill:none;stroke:#000000;stroke-width:5;stroke-linecap:butt;stroke-linejoin:round;stroke-miterlimit:4;stroke-dasharray:none;stroke-opacity:1"
         id="path70" /><path
         d="m 211.051,1370 c 0,-16.48 0.859,-36.29 9.89,-53.01 9.45,-17.81 25.508,-22.22 36.329,-22.22 11.832,0 28.589,4.64 38.242,25.54 7.027,15.16 8.16,32.31 8.16,49.69 0,17.62 -1.133,35.23 -8.832,51.52 -10.07,21.1 -28.121,24.61 -37.379,24.61 -13.199,0 -29.262,-5.7 -38.32,-26.17 -6.993,-15.19 -8.09,-32.34 -8.09,-49.96 z m 18.25,2.66 c 0,14.06 0,28.59 1.75,40.46 4.179,26.22 20.711,28.21 26.219,28.21 7.218,0 21.75,-4.03 25.929,-25.78 2.192,-12.31 2.192,-29.03 2.192,-42.89 0,-16.49 0,-31.45 -2.422,-45.55 -3.321,-20.9 -15.821,-27.5 -25.699,-27.5 -8.598,0 -21.61,5.51 -25.551,26.6 -2.418,13.2 -2.418,33.48 -2.418,46.45 z"
         style="fill:#000000;fill-opacity:1;fill-rule:nonzero;stroke:none"
         id="path72" /><path
         d="m 331.172,1311.29 c 0,-5.98 4.848,-11.68 11.637,-11.68 5.742,0 11.453,4.84 11.453,11.68 0,6.83 -5.313,11.44 -11.453,11.44 -6.789,0 -11.637,-5.5 -11.637,-11.44 z"
         style="fill:#000000;fill-opacity:1;fill-rule:nonzero;stroke:none"
         id="path74" /><path
         d="m 382.191,1370 c 0,-16.48 0.86,-36.29 9.918,-53.01 9.45,-17.81 25.512,-22.22 36.289,-22.22 11.872,0 28.59,4.64 38.282,25.54 7.031,15.16 8.121,32.31 8.121,49.69 0,17.62 -1.09,35.23 -8.781,51.52 -10.122,21.1 -28.168,24.61 -37.43,24.61 -13.16,0 -29.211,-5.7 -38.281,-26.17 -6.989,-15.19 -8.118,-32.34 -8.118,-49.96 z m 18.278,2.66 c 0,14.06 0,28.59 1.761,40.46 4.18,26.22 20.661,28.21 26.168,28.21 7.262,0 21.762,-4.03 25.981,-25.78 2.18,-12.31 2.18,-29.03 2.18,-42.89 0,-16.49 0,-31.45 -2.457,-45.55 -3.282,-20.9 -15.782,-27.5 -25.704,-27.5 -8.597,0 -21.558,5.51 -25.546,26.6 -2.383,13.2 -2.383,33.48 -2.383,46.45 z"
         style="fill:#000000;fill-opacity:1;fill-rule:nonzero;stroke:none"
         id="path76" /><path
         d="m 492.191,1370 c 0,-16.48 0.86,-36.29 9.918,-53.01 9.45,-17.81 25.512,-22.22 36.289,-22.22 11.872,0 28.59,4.64 38.282,25.54 7.031,15.16 8.121,32.31 8.121,49.69 0,17.62 -1.09,35.23 -8.781,51.52 -10.122,21.1 -28.168,24.61 -37.43,24.61 -13.16,0 -29.211,-5.7 -38.281,-26.17 -6.989,-15.19 -8.118,-32.34 -8.118,-49.96 z m 18.278,2.66 c 0,14.06 0,28.59 1.761,40.46 4.18,26.22 20.661,28.21 26.168,28.21 7.262,0 21.762,-4.03 25.981,-25.78 2.18,-12.31 2.18,-29.03 2.18,-42.89 0,-16.49 0,-31.45 -2.457,-45.55 -3.282,-20.9 -15.782,-27.5 -25.704,-27.5 -8.597,0 -21.558,5.51 -25.546,26.6 -2.383,13.2 -2.383,33.48 -2.383,46.45 z"
         style="fill:#000000;fill-opacity:1;fill-rule:nonzero;stroke:none"
         id="path78" /><path
         d="m 629.059,2069.57 h 25"
         style="fill:none;stroke:#000000;stroke-width:5;stroke-linecap:butt;stroke-linejoin:round;stroke-miterlimit:4;stroke-dasharray:none;stroke-opacity:1"
         id="path80" /><path
         d="m 5011.64,2069.57 h -25"
         style="fill:none;stroke:#000000;stroke-width:5;stroke-linecap:butt;stroke-linejoin:round;stroke-miterlimit:4;stroke-dasharray:none;stroke-opacity:1"
         id="path82" /><path
         d="m 211.051,2064.49 c 0,-16.48 0.859,-36.29 9.89,-53.01 9.45,-17.81 25.508,-22.22 36.329,-22.22 11.832,0 28.589,4.65 38.242,25.54 7.027,15.16 8.16,32.31 8.16,49.69 0,17.62 -1.133,35.24 -8.832,51.53 -10.07,21.09 -28.121,24.6 -37.379,24.6 -13.199,0 -29.262,-5.7 -38.32,-26.17 -6.993,-15.19 -8.09,-32.34 -8.09,-49.96 z m 18.25,2.66 c 0,14.06 0,28.59 1.75,40.47 4.179,26.21 20.711,28.2 26.219,28.2 7.218,0 21.75,-4.02 25.929,-25.78 2.192,-12.31 2.192,-29.02 2.192,-42.89 0,-16.49 0,-31.45 -2.422,-45.55 -3.321,-20.9 -15.821,-27.5 -25.699,-27.5 -8.598,0 -21.61,5.51 -25.551,26.6 -2.418,13.21 -2.418,33.48 -2.418,46.45 z"
         style="fill:#000000;fill-opacity:1;fill-rule:nonzero;stroke:none"
         id="path84" /><path
         d="m 331.172,2005.78 c 0,-5.98 4.848,-11.68 11.637,-11.68 5.742,0 11.453,4.85 11.453,11.68 0,6.84 -5.313,11.45 -11.453,11.45 -6.789,0 -11.637,-5.51 -11.637,-11.45 z"
         style="fill:#000000;fill-opacity:1;fill-rule:nonzero;stroke:none"
         id="path86" /><path
         d="m 384.609,1994.1 h 81.602 l 6.211,38.32 h -5.512 c -1.09,-6.6 -2.648,-16.33 -4.84,-19.61 -1.558,-1.76 -16.05,-1.76 -20.898,-1.76 h -39.613 l 23.32,22.66 c 34.34,30.35 47.543,42.23 47.543,64.26 0,25.04 -19.801,42.65 -46.684,42.65 -24.84,0 -41.129,-20.23 -41.129,-39.8 0,-12.3 11.012,-12.3 11.641,-12.3 3.75,0 11.449,2.61 11.449,11.64 0,5.7 -3.949,11.44 -11.648,11.44 -1.75,0 -2.18,0 -2.852,-0.23 5.039,14.29 16.922,22.46 29.692,22.46 20.039,0 29.488,-17.81 29.488,-35.86 0,-17.62 -11.008,-35 -23.117,-48.67 l -42.231,-47.03 c -2.422,-2.47 -2.422,-2.86 -2.422,-8.17 z"
         style="fill:#000000;fill-opacity:1;fill-rule:nonzero;stroke:none"
         id="path88" /><path
         d="m 494.609,2029.53 c 0,-18.91 15.192,-40.27 39.801,-40.27 25.551,0 48.012,21.13 48.012,49.06 0,26.17 -18.043,48.2 -41.801,48.2 -10.621,0 -20.07,-3.51 -27.961,-11.21 v 42.89 c 4.41,-1.32 11.641,-2.89 18.711,-2.89 27.027,0 42.457,20.04 42.457,22.89 0,1.33 -0.668,2.42 -2.226,2.42 -0.192,0 -0.622,0 -1.762,-0.66 -4.371,-1.95 -15.192,-6.37 -29.918,-6.37 -8.793,0 -18.902,1.53 -29.262,6.18 -1.75,0.62 -2.18,0.62 -2.648,0.62 -2.192,0 -2.192,-1.72 -2.192,-5.27 V 2070 c 0,-3.95 0,-5.7 3.09,-5.7 1.559,0 1.988,0.66 2.852,1.95 2.457,3.55 10.539,15.43 28.398,15.43 11.442,0 16.949,-10.12 18.711,-14.06 3.508,-8.17 3.938,-16.76 3.938,-27.78 0,-7.69 0,-20.89 -5.309,-30.11 -5.23,-8.56 -13.398,-14.3 -23.48,-14.3 -16.09,0 -28.629,11.68 -32.379,24.65 0.66,-0.24 1.328,-0.47 3.75,-0.47 7.269,0 11.019,5.51 11.019,10.78 0,5.31 -3.75,10.82 -11.019,10.82 -3.09,0 -10.782,-1.56 -10.782,-11.68 z"
         style="fill:#000000;fill-opacity:1;fill-rule:nonzero;stroke:none"
         id="path90" /><path
         d="m 629.059,2764.06 h 25"
         style="fill:none;stroke:#000000;stroke-width:5;stroke-linecap:butt;stroke-linejoin:round;stroke-miterlimit:4;stroke-dasharray:none;stroke-opacity:1"
         id="path92" /><path
         d="m 5011.64,2764.06 h -25"
         style="fill:none;stroke:#000000;stroke-width:5;stroke-linecap:butt;stroke-linejoin:round;stroke-miterlimit:4;stroke-dasharray:none;stroke-opacity:1"
         id="path94" /><path
         d="m 211.051,2758.98 c 0,-16.48 0.859,-36.28 9.89,-53 9.45,-17.82 25.508,-22.23 36.329,-22.23 11.832,0 28.589,4.65 38.242,25.55 7.027,15.15 8.16,32.3 8.16,49.68 0,17.62 -1.133,35.24 -8.832,51.53 -10.07,21.09 -28.121,24.61 -37.379,24.61 -13.199,0 -29.262,-5.71 -38.32,-26.17 -6.993,-15.2 -8.09,-32.35 -8.09,-49.97 z m 18.25,2.66 c 0,14.06 0,28.59 1.75,40.47 4.179,26.21 20.711,28.2 26.219,28.2 7.218,0 21.75,-4.02 25.929,-25.78 2.192,-12.3 2.192,-29.02 2.192,-42.89 0,-16.48 0,-31.44 -2.422,-45.55 -3.321,-20.89 -15.821,-27.5 -25.699,-27.5 -8.598,0 -21.61,5.51 -25.551,26.61 -2.418,13.2 -2.418,33.47 -2.418,46.44 z"
         style="fill:#000000;fill-opacity:1;fill-rule:nonzero;stroke:none"
         id="path96" /><path
         d="m 331.172,2700.27 c 0,-5.97 4.848,-11.68 11.637,-11.68 5.742,0 11.453,4.85 11.453,11.68 0,6.84 -5.313,11.45 -11.453,11.45 -6.789,0 -11.637,-5.51 -11.637,-11.45 z"
         style="fill:#000000;fill-opacity:1;fill-rule:nonzero;stroke:none"
         id="path98" /><path
         d="m 384.609,2724.02 c 0,-18.9 15.192,-40.27 39.801,-40.27 25.551,0 48.012,21.13 48.012,49.06 0,26.17 -18.043,48.21 -41.801,48.21 -10.621,0 -20.07,-3.52 -27.961,-11.22 v 42.9 c 4.41,-1.33 11.641,-2.9 18.711,-2.9 27.027,0 42.457,20.04 42.457,22.9 0,1.32 -0.668,2.42 -2.226,2.42 -0.192,0 -0.622,0 -1.762,-0.67 -4.371,-1.95 -15.192,-6.36 -29.918,-6.36 -8.793,0 -18.902,1.52 -29.262,6.17 -1.75,0.62 -2.18,0.62 -2.648,0.62 -2.192,0 -2.192,-1.72 -2.192,-5.27 v -65.12 c 0,-3.94 0,-5.7 3.09,-5.7 1.559,0 1.988,0.66 2.852,1.95 2.457,3.56 10.539,15.43 28.398,15.43 11.442,0 16.949,-10.12 18.711,-14.06 3.508,-8.16 3.938,-16.76 3.938,-27.77 0,-7.7 0,-20.9 -5.309,-30.12 -5.23,-8.56 -13.398,-14.3 -23.48,-14.3 -16.09,0 -28.629,11.68 -32.379,24.65 0.66,-0.23 1.328,-0.47 3.75,-0.47 7.269,0 11.019,5.51 11.019,10.78 0,5.32 -3.75,10.82 -11.019,10.82 -3.09,0 -10.782,-1.56 -10.782,-11.68 z"
         style="fill:#000000;fill-opacity:1;fill-rule:nonzero;stroke:none"
         id="path100" /><path
         d="m 492.191,2758.98 c 0,-16.48 0.86,-36.28 9.918,-53 9.45,-17.82 25.512,-22.23 36.289,-22.23 11.872,0 28.59,4.65 38.282,25.55 7.031,15.15 8.121,32.3 8.121,49.68 0,17.62 -1.09,35.24 -8.781,51.53 -10.122,21.09 -28.168,24.61 -37.43,24.61 -13.16,0 -29.211,-5.71 -38.281,-26.17 -6.989,-15.2 -8.118,-32.35 -8.118,-49.97 z m 18.278,2.66 c 0,14.06 0,28.59 1.761,40.47 4.18,26.21 20.661,28.2 26.168,28.2 7.262,0 21.762,-4.02 25.981,-25.78 2.18,-12.3 2.18,-29.02 2.18,-42.89 0,-16.48 0,-31.44 -2.457,-45.55 -3.282,-20.89 -15.782,-27.5 -25.704,-27.5 -8.597,0 -21.558,5.51 -25.546,26.61 -2.383,13.2 -2.383,33.47 -2.383,46.44 z"
         style="fill:#000000;fill-opacity:1;fill-rule:nonzero;stroke:none"
         id="path102" /><path
         d="m 629.059,3458.55 h 25"
         style="fill:none;stroke:#000000;stroke-width:5;stroke-linecap:butt;stroke-linejoin:round;stroke-miterlimit:4;stroke-dasharray:none;stroke-opacity:1"
         id="path104" /><path
         d="m 5011.64,3458.55 h -25"
         style="fill:none;stroke:#000000;stroke-width:5;stroke-linecap:butt;stroke-linejoin:round;stroke-miterlimit:4;stroke-dasharray:none;stroke-opacity:1"
         id="path106" /><path
         d="m 211.051,3453.48 c 0,-16.49 0.859,-36.29 9.89,-52.97 9.45,-17.85 25.508,-22.27 36.329,-22.27 11.832,0 28.589,4.65 38.242,25.55 7.027,15.16 8.16,32.3 8.16,49.69 0,17.61 -1.133,35.23 -8.832,51.52 -10.07,21.09 -28.121,24.61 -37.379,24.61 -13.199,0 -29.262,-5.7 -38.32,-26.17 -6.993,-15.2 -8.09,-32.35 -8.09,-49.96 z m 18.25,2.65 c 0,14.07 0,28.6 1.75,40.47 4.179,26.21 20.711,28.2 26.219,28.2 7.218,0 21.75,-3.98 25.929,-25.78 2.192,-12.3 2.192,-29.02 2.192,-42.89 0,-16.48 0,-31.44 -2.422,-45.54 -3.321,-20.9 -15.821,-27.5 -25.699,-27.5 -8.598,0 -21.61,5.5 -25.551,26.6 -2.418,13.2 -2.418,33.47 -2.418,46.44 z"
         style="fill:#000000;fill-opacity:1;fill-rule:nonzero;stroke:none"
         id="path108" /><path
         d="m 331.172,3394.77 c 0,-5.98 4.848,-11.68 11.637,-11.68 5.742,0 11.453,4.84 11.453,11.68 0,6.83 -5.313,11.44 -11.453,11.44 -6.789,0 -11.637,-5.51 -11.637,-11.44 z"
         style="fill:#000000;fill-opacity:1;fill-rule:nonzero;stroke:none"
         id="path110" /><path
         d="m 385.941,3486.48 h 5.469 c 0.699,3.52 2.649,17.43 5.5,20 1.57,1.37 18.711,1.37 21.61,1.37 h 45.5 c -2.418,-3.55 -19.801,-27.5 -24.61,-34.76 -19.801,-29.69 -27.109,-60.28 -27.109,-82.74 0,-2.19 0,-12.11 10.16,-12.11 10.117,0 10.117,9.92 10.117,12.11 v 11.25 c 0,12.07 0.621,24.18 2.422,36.06 0.859,5.04 3.949,23.98 13.629,37.61 l 29.691,41.8 c 1.989,2.62 1.989,3.09 1.989,7.73 h -53.43 c -26.879,0 -27.309,2.86 -28.168,7 h -5.512 z"
         style="fill:#000000;fill-opacity:1;fill-rule:nonzero;stroke:none"
         id="path112" /><path
         d="m 494.609,3418.52 c 0,-18.91 15.192,-40.28 39.801,-40.28 25.551,0 48.012,21.14 48.012,49.06 0,26.18 -18.043,48.21 -41.801,48.21 -10.621,0 -20.07,-3.52 -27.961,-11.21 v 42.89 c 4.41,-1.33 11.641,-2.89 18.711,-2.89 27.027,0 42.457,20.04 42.457,22.89 0,1.33 -0.668,2.42 -2.226,2.42 -0.192,0 -0.622,0 -1.762,-0.66 -4.371,-1.96 -15.192,-6.37 -29.918,-6.37 -8.793,0 -18.902,1.52 -29.262,6.17 -1.75,0.66 -2.18,0.66 -2.648,0.66 -2.192,0 -2.192,-1.75 -2.192,-5.31 v -65.12 c 0,-3.94 0,-5.7 3.09,-5.7 1.559,0 1.988,0.67 2.852,1.95 2.457,3.56 10.539,15.43 28.398,15.43 11.442,0 16.949,-10.11 18.711,-14.06 3.508,-8.16 3.938,-16.76 3.938,-27.73 0,-7.74 0,-20.94 -5.309,-30.16 -5.23,-8.55 -13.398,-14.3 -23.48,-14.3 -16.09,0 -28.629,11.68 -32.379,24.65 0.66,-0.23 1.328,-0.47 3.75,-0.47 7.269,0 11.019,5.51 11.019,10.82 0,5.28 -3.75,10.79 -11.019,10.79 -3.09,0 -10.782,-1.57 -10.782,-11.68 z"
         style="fill:#000000;fill-opacity:1;fill-rule:nonzero;stroke:none"
         id="path114" /><path
         d="m 629.059,4153.05 h 25"
         style="fill:none;stroke:#000000;stroke-width:5;stroke-linecap:butt;stroke-linejoin:round;stroke-miterlimit:4;stroke-dasharray:none;stroke-opacity:1"
         id="path116" /><path
         d="m 5011.64,4153.05 h -25"
         style="fill:none;stroke:#000000;stroke-width:5;stroke-linecap:butt;stroke-linejoin:round;stroke-miterlimit:4;stroke-dasharray:none;stroke-opacity:1"
         id="path118" /><path
         d="m 222.031,4203.2 c 4.418,0 17.379,0 28.828,5.75 V 4095 c 0,-7.97 -0.66,-10.62 -20.468,-10.62 h -7.032 v -6.8 c 7.692,0.66 26.84,0.66 35.621,0.66 8.829,0 27.969,0 35.668,-0.66 v 6.8 h -7.027 c -19.812,0 -20.473,2.46 -20.473,10.62 v 123.4 c 0,5.27 0,5.7 -5.078,5.7 -13.629,-14.06 -33.011,-14.06 -40.039,-14.06 z"
         style="fill:#000000;fill-opacity:1;fill-rule:nonzero;stroke:none"
         id="path120" /><path
         d="m 331.172,4089.26 c 0,-5.98 4.848,-11.68 11.637,-11.68 5.742,0 11.453,4.84 11.453,11.68 0,6.83 -5.313,11.44 -11.453,11.44 -6.789,0 -11.637,-5.5 -11.637,-11.44 z"
         style="fill:#000000;fill-opacity:1;fill-rule:nonzero;stroke:none"
         id="path122" /><path
         d="m 382.191,4147.97 c 0,-16.49 0.86,-36.29 9.918,-52.97 9.45,-17.85 25.512,-22.27 36.289,-22.27 11.872,0 28.59,4.65 38.282,25.55 7.031,15.16 8.121,32.31 8.121,49.69 0,17.62 -1.09,35.23 -8.781,51.52 -10.122,21.1 -28.168,24.61 -37.43,24.61 -13.16,0 -29.211,-5.7 -38.281,-26.17 -6.989,-15.2 -8.118,-32.34 -8.118,-49.96 z m 18.278,2.65 c 0,14.07 0,28.6 1.761,40.47 4.18,26.21 20.661,28.21 26.168,28.21 7.262,0 21.762,-3.99 25.981,-25.78 2.18,-12.31 2.18,-29.03 2.18,-42.9 0,-16.48 0,-31.44 -2.457,-45.54 -3.282,-20.9 -15.782,-27.5 -25.704,-27.5 -8.597,0 -21.558,5.51 -25.546,26.6 -2.383,13.2 -2.383,33.48 -2.383,46.44 z"
         style="fill:#000000;fill-opacity:1;fill-rule:nonzero;stroke:none"
         id="path124" /><path
         d="m 492.191,4147.97 c 0,-16.49 0.86,-36.29 9.918,-52.97 9.45,-17.85 25.512,-22.27 36.289,-22.27 11.872,0 28.59,4.65 38.282,25.55 7.031,15.16 8.121,32.31 8.121,49.69 0,17.62 -1.09,35.23 -8.781,51.52 -10.122,21.1 -28.168,24.61 -37.43,24.61 -13.16,0 -29.211,-5.7 -38.281,-26.17 -6.989,-15.2 -8.118,-32.34 -8.118,-49.96 z m 18.278,2.65 c 0,14.07 0,28.6 1.761,40.47 4.18,26.21 20.661,28.21 26.168,28.21 7.262,0 21.762,-3.99 25.981,-25.78 2.18,-12.31 2.18,-29.03 2.18,-42.9 0,-16.48 0,-31.44 -2.457,-45.54 -3.282,-20.9 -15.782,-27.5 -25.704,-27.5 -8.597,0 -21.558,5.51 -25.546,26.6 -2.383,13.2 -2.383,33.48 -2.383,46.44 z"
         style="fill:#000000;fill-opacity:1;fill-rule:nonzero;stroke:none"
         id="path126" /><g
         id="g128"><g
           id="g130"
           clip-path="url(#clipPath134)"><path
             d="m 753.09,405.391 8.281,4.839 8.238,14.379 8.282,23.442 8.281,31.91 8.277,39.879 8.25,47.07 16.563,112.969 16.519,132.269 33.09,293.752 24.801,218.16 16.527,133.83 16.563,120.47 16.519,104.41 16.52,88.4 16.57,72.5 16.52,57.11 8.279,23.28 8.24,19.96 8.29,16.72 8.28,13.67 8.24,10.79 8.28,8.04 8.28,5.39 8.28,2.74 8.24,0.39 8.29,-1.96 8.28,-4.18 8.24,-6.36 8.28,-8.44 8.28,-10.47 16.53,-26.83 16.52,-34.38 16.56,-41.37 16.52,-48.16 16.57,-54.53 24.8,-92.54 24.81,-103.36 33.04,-147.81 41.37,-183.25 16.52,-66.28 16.57,-59.11 16.52,-50.07 16.52,-38.99 8.28,-15.08 8.29,-11.988 8.24,-8.832 8.28,-5.579 8.28,-2.39 8.24,0.789 8.28,3.898 8.29,6.883 8.28,9.759 8.24,12.5 8.28,15 16.52,36.68 16.57,44.18 24.8,75.98 66.13,212.62 16.57,46.17 16.52,41.13 16.52,34.65 16.57,28.2 16.52,21.21 8.28,7.97 8.24,6.17 8.28,4.46 8.28,2.73 8.29,1.02 8.24,-0.63 8.28,-2.19 8.28,-3.71 16.52,-11.91 16.53,-17.07 16.56,-21.64 16.52,-25.35 24.81,-43.17 74.41,-135.7 16.56,-25.27 16.53,-21.88 16.56,-17.77 16.52,-13.36 16.53,-8.63 8.28,-2.5 8.28,-1.37 8.24,-0.2 16.56,2.97 16.53,7.15 16.52,10.74 16.56,13.87 24.81,25.08 41.33,47.38 33.08,36.64 24.81,23.71 16.56,13.21 16.52,10.58 16.53,7.89 16.56,5.16 16.52,2.34 16.53,-0.35 16.56,-2.93 16.52,-5.16 16.56,-7.18 24.81,-13.64 33.05,-21.56 49.61,-32.85 24.84,-13.98 24.8,-11.06 16.53,-5.39 16.52,-3.75 16.56,-2.03 16.53,-0.43 16.52,1.21 24.84,4.49 24.81,7.07 33.05,12.15 74.45,28.91 33.05,9.53 24.8,4.84 24.81,2.62 24.8,0.39 24.84,-1.64 33.05,-4.81 41.37,-8.71 74.41,-16.48 33.09,-5.2 33.04,-3 33.09,-0.63 33.09,1.52 41.32,4.22 140.59,17.46 41.37,1.96 41.33,-0.2 49.61,-2.5 165.39,-10.43 h 57.89 l 66.13,2.35 148.87,6.13 74.41,0.12 115.74,-2.7 107.5,-1.6 107.5,0.98 190.2,2.22 181.91,-1.29 165.39,-0.04 24.81,0.12"
             style="fill:none;stroke:#000000;stroke-width:20;stroke-linecap:butt;stroke-linejoin:round;stroke-miterlimit:4;stroke-dasharray:74, 32;stroke-dashoffset:0;stroke-opacity:1"
             id="path136" /></g></g><path
         d="M 629.059,263.871 V 4291.95"
         style="fill:none;stroke:#000000;stroke-width:10;stroke-linecap:square;stroke-linejoin:miter;stroke-miterlimit:4;stroke-dasharray:none;stroke-opacity:1"
         id="path138" /><path
         d="M 5011.64,263.871 V 4291.95"
         style="fill:none;stroke:#000000;stroke-width:10;stroke-linecap:square;stroke-linejoin:miter;stroke-miterlimit:4;stroke-dasharray:none;stroke-opacity:1"
         id="path140" /><path
         d="M 629.059,263.871 H 5011.64"
         style="fill:none;stroke:#000000;stroke-width:10;stroke-linecap:square;stroke-linejoin:miter;stroke-miterlimit:4;stroke-dasharray:none;stroke-opacity:1"
         id="path142" /><path
         d="M 629.059,4291.95 H 5011.64"
         style="fill:none;stroke:#000000;stroke-width:10;stroke-linecap:square;stroke-linejoin:miter;stroke-miterlimit:4;stroke-dasharray:none;stroke-opacity:1"
         id="path144" /><path
         d="m 3929.84,3474.8 h 991.801 v 727.148 H 3929.84 Z"
         style="fill:#ffffff;fill-opacity:1;fill-rule:nonzero;stroke:none"
         id="path146" /><path
         d="m 3929.84,3474.8 h 991.801 v 727.148 H 3929.84 Z"
         style="fill:none;stroke:#000000;stroke-width:10;stroke-linecap:butt;stroke-linejoin:miter;stroke-miterlimit:4;stroke-dasharray:none;stroke-opacity:1"
         id="path148" /><path
         d="m 4073.87,3984.18 h 360"
         style="fill:none;stroke:#000000;stroke-width:22.5;stroke-linecap:butt;stroke-linejoin:miter;stroke-miterlimit:4;stroke-dasharray:none;stroke-opacity:1"
         id="path150" /><path
         d="m 4652.93,3935.94 c -4.34,-5.71 -9.45,-10 -15.35,-12.93 -5.9,-2.93 -12.42,-4.42 -19.57,-4.42 -9.96,0 -17.78,3.36 -23.44,10.08 -5.62,6.72 -8.44,15.98 -8.44,27.74 0,9.49 1.72,18.67 5.24,27.5 3.47,8.86 8.47,16.79 14.96,23.82 4.22,4.57 9.06,8.09 14.57,10.55 5.47,2.46 11.21,3.67 17.26,3.67 7.23,0 13.21,-1.4 17.89,-4.29 4.69,-2.86 8.09,-7.19 10.24,-12.97 l 2.81,14.76 h 16.25 l -26.29,-135.39 h -16.25 z m -50,22.85 c 0,-8.67 1.8,-15.27 5.43,-19.81 3.63,-4.57 8.87,-6.83 15.74,-6.83 10.2,0 18.91,4.88 26.1,14.65 7.18,9.72 10.78,21.6 10.78,35.54 0,8.44 -1.84,14.89 -5.59,19.38 -3.71,4.49 -9.06,6.72 -16.01,6.72 -5.08,0 -9.81,-1.17 -14.15,-3.56 -4.33,-2.38 -8.12,-5.86 -11.36,-10.43 -3.4,-4.8 -6.06,-10.43 -8.05,-16.87 -1.91,-6.41 -2.89,-12.7 -2.89,-18.79 z"
         style="fill:#000000;fill-opacity:1;fill-rule:nonzero;stroke:none"
         id="path152" /><path
         d="m 4707.73,3902.07 h 20.32 v 70.12 l -22.11,-4.46 v 11.33 l 21.99,4.46 h 12.42 v -81.45 h 20.27 v -10.43 h -52.89 z"
         style="fill:#000000;fill-opacity:1;fill-rule:nonzero;stroke:none"
         id="path154" /><path
         d="m 4073.87,3719.61 h 360"
         style="fill:none;stroke:#000000;stroke-width:22.5;stroke-linecap:butt;stroke-linejoin:miter;stroke-miterlimit:4;stroke-dasharray:83.25, 36;stroke-dashoffset:0;stroke-opacity:1"
         id="path156" /><path
         d="m 4652.93,3671.37 c -4.34,-5.71 -9.45,-10 -15.35,-12.93 -5.9,-2.93 -12.42,-4.42 -19.57,-4.42 -9.96,0 -17.78,3.36 -23.44,10.08 -5.62,6.72 -8.44,15.98 -8.44,27.74 0,9.49 1.72,18.67 5.24,27.5 3.47,8.86 8.47,16.79 14.96,23.82 4.22,4.57 9.06,8.09 14.57,10.55 5.47,2.46 11.21,3.67 17.26,3.67 7.23,0 13.21,-1.4 17.89,-4.29 4.69,-2.86 8.09,-7.19 10.24,-12.97 l 2.81,14.76 h 16.25 l -26.29,-135.39 h -16.25 z m -50,22.85 c 0,-8.67 1.8,-15.27 5.43,-19.81 3.63,-4.57 8.87,-6.83 15.74,-6.83 10.2,0 18.91,4.88 26.1,14.65 7.18,9.72 10.78,21.6 10.78,35.54 0,8.44 -1.84,14.89 -5.59,19.38 -3.71,4.49 -9.06,6.72 -16.01,6.72 -5.08,0 -9.81,-1.17 -14.15,-3.56 -4.33,-2.38 -8.12,-5.86 -11.36,-10.43 -3.4,-4.8 -6.06,-10.43 -8.05,-16.87 -1.91,-6.41 -2.89,-12.7 -2.89,-18.79 z"
         style="fill:#000000;fill-opacity:1;fill-rule:nonzero;stroke:none"
         id="path158" /><path
         d="m 4716.29,3637.5 h 43.36 v -10.43 h -58.32 v 10.43 c 4.72,4.88 11.17,11.45 19.29,19.65 8.13,8.24 13.29,13.55 15.36,15.94 3.98,4.45 6.75,8.24 8.32,11.32 1.6,3.13 2.38,6.18 2.38,9.14 0,4.89 -1.72,8.87 -5.12,11.96 -3.44,3.08 -7.89,4.61 -13.4,4.61 -3.9,0 -8,-0.67 -12.34,-2.03 -4.34,-1.33 -8.94,-3.4 -13.87,-6.14 v 12.54 c 5,2.03 9.69,3.52 14.03,4.57 4.33,1.02 8.32,1.53 11.95,1.53 9.49,0 17.11,-2.39 22.73,-7.15 5.67,-4.77 8.52,-11.1 8.52,-19.06 0,-3.79 -0.7,-7.35 -2.15,-10.75 -1.41,-3.4 -3.98,-7.38 -7.69,-11.95 -1.06,-1.21 -4.3,-4.65 -9.81,-10.31 -5.47,-5.71 -13.24,-13.64 -23.24,-23.87 z"
         style="fill:#000000;fill-opacity:1;fill-rule:nonzero;stroke:none"
         id="path160" /><path
         d="m 1774.65,4503.52 c 0,25.86 -25.86,48.82 -61.56,48.82 h -92.74 v -8.2 h 6.56 c 20.12,0 20.51,-2.85 20.51,-12.3 v -137.89 c 0,-9.46 -0.39,-12.31 -20.51,-12.31 h -6.56 v -8.2 c 9.45,0.82 28.71,0.82 38.6,0.82 9.84,0 29.53,0 38.98,-0.82 v 8.2 h -6.56 c -20.12,0 -20.55,2.85 -20.55,12.31 v 62.38 h 44.34 c 31.17,0 59.49,20.94 59.49,47.19 z m -27.07,0 c 0,-12.31 0,-40.63 -41.45,-40.63 H 1670 v 70.59 c 0,9.02 0.43,10.66 12.73,10.66 h 23.4 c 41.45,0 41.45,-27.89 41.45,-40.62 z"
         style="fill:#000000;fill-opacity:1;fill-rule:nonzero;stroke:none"
         id="path162" /><path
         d="m 1905.31,4429.65 c 0,33.24 -25.86,61.13 -57.46,61.13 -32.81,0 -58.28,-28.71 -58.28,-61.13 0,-34.06 27.11,-59.1 57.89,-59.1 31.6,0 57.85,25.86 57.85,59.1 z m -21.33,2.07 c 0,-9.45 0,-23.83 -5.74,-35.31 -6.17,-11.92 -17.65,-19.3 -30.39,-19.3 -11.48,0 -22.97,5.35 -29.96,17.66 -6.56,11.48 -6.56,27.5 -6.56,36.95 0,10.23 0,24.18 6.17,35.7 6.95,11.88 19.3,17.62 29.96,17.62 11.49,0 22.58,-5.74 29.53,-17.23 6.99,-11.09 6.99,-26.25 6.99,-36.09 z"
         style="fill:#000000;fill-opacity:1;fill-rule:nonzero;stroke:none"
         id="path164" /><path
         d="m 2007.42,4407.07 c 0,13.55 -7.81,21.76 -11.09,24.65 -8.63,8.59 -18.87,10.66 -29.96,12.69 -14.77,2.89 -31.99,6.18 -31.99,21.37 0,9.42 6.56,20.08 29.14,20.08 28.71,0 30.35,-23.79 30.78,-31.6 0,-2.46 2.85,-2.46 2.85,-2.46 3.71,0 3.71,1.25 3.71,6.17 v 26.68 c 0,4.1 0,6.13 -2.89,6.13 -1.21,0 -2.03,0 -5.31,-3.28 -0.82,-0.82 -3.28,-3.28 -4.54,-4.1 -9.84,7.38 -20.5,7.38 -24.6,7.38 -32.04,0 -41.88,-17.62 -41.88,-32.42 0,-9.02 4.1,-16.41 11.09,-22.15 8.6,-6.56 15.98,-8.2 34.89,-11.91 5.74,-1.21 27.07,-5.32 27.07,-24.18 0,-13.17 -9.03,-23.83 -29.53,-23.83 -22.19,0 -31.61,14.76 -36.53,37.34 -0.82,3.28 -0.82,4.1 -3.71,4.1 -3.28,0 -3.28,-1.64 -3.28,-6.13 v -34.88 c 0,-4.53 0,-6.17 2.89,-6.17 1.21,0 1.64,0.43 6.56,5.35 0.39,0.39 0.39,0.82 5.32,5.74 11.48,-10.66 23.39,-11.09 28.75,-11.09 29.96,0 42.26,17.65 42.26,36.52 z"
         style="fill:#000000;fill-opacity:1;fill-rule:nonzero;stroke:none"
         id="path166" /><path
         d="m 2080.94,4373.44 v 8.2 c -17.62,0 -18.44,1.21 -18.44,11.48 v 96.02 l -36.52,-2.85 v -8.2 c 16.79,0 19.25,-1.64 19.25,-14.38 v -70.59 c 0,-11.48 -2.85,-11.48 -20.5,-11.48 v -8.2 l 28.75,0.82 c 9.41,0 18.43,-0.43 27.46,-0.82 z m -14.77,157.97 c 0,7.42 -5.74,13.98 -13.51,13.98 -9.07,0 -14.38,-7.38 -14.38,-13.98 0,-6.96 6.13,-13.52 13.95,-13.52 9.02,0 13.94,6.95 13.94,13.52 z"
         style="fill:#000000;fill-opacity:1;fill-rule:nonzero;stroke:none"
         id="path168" /><path
         d="m 2175.86,4405.86 v 14.76 h -6.56 v -14.37 c 0,-19.3 -7.82,-29.14 -17.66,-29.14 -17.62,0 -17.62,23.83 -17.62,28.32 v 72.66 h 37.74 v 8.2 h -37.74 v 48.01 h -6.6 c 0,-21.33 -7.77,-49.26 -33.63,-50.47 v -5.74 h 22.15 v -72.23 c 0,-32.03 24.65,-35.31 34.06,-35.31 18.48,0 25.86,18.47 25.86,35.31 z"
         style="fill:#000000;fill-opacity:1;fill-rule:nonzero;stroke:none"
         id="path170" /><path
         d="m 2255.47,4373.44 v 8.2 c -17.62,0 -18.44,1.21 -18.44,11.48 v 96.02 l -36.52,-2.85 v -8.2 c 16.79,0 19.26,-1.64 19.26,-14.38 v -70.59 c 0,-11.48 -2.86,-11.48 -20.51,-11.48 v -8.2 l 28.71,0.82 c 9.45,0 18.48,-0.43 27.5,-0.82 z m -14.77,157.97 c 0,7.42 -5.74,13.98 -13.55,13.98 -9.03,0 -14.34,-7.38 -14.34,-13.98 0,-6.96 6.14,-13.52 13.95,-13.52 9.02,0 13.94,6.95 13.94,13.52 z"
         style="fill:#000000;fill-opacity:1;fill-rule:nonzero;stroke:none"
         id="path172" /><path
         d="m 2386.52,4429.65 c 0,33.24 -25.86,61.13 -57.46,61.13 -32.85,0 -58.28,-28.71 -58.28,-61.13 0,-34.06 27.07,-59.1 57.85,-59.1 31.6,0 57.89,25.86 57.89,59.1 z m -21.36,2.07 c 0,-9.45 0,-23.83 -5.75,-35.31 -6.13,-11.92 -17.65,-19.3 -30.35,-19.3 -11.48,0 -23.01,5.35 -29.96,17.66 -6.56,11.48 -6.56,27.5 -6.56,36.95 0,10.23 0,24.18 6.13,35.7 6.99,11.88 19.3,17.62 29.96,17.62 11.49,0 22.58,-5.74 29.57,-17.23 6.96,-11.09 6.96,-26.25 6.96,-36.09 z"
         style="fill:#000000;fill-opacity:1;fill-rule:nonzero;stroke:none"
         id="path174" /><path
         d="m 2534.14,4373.44 v 8.2 c -13.52,0 -20.08,0 -20.08,7.77 v 50.08 c 0,22.58 0,30.39 -8.24,39.81 -3.67,4.53 -12.3,9.84 -27.46,9.84 -19.3,0 -31.6,-11.05 -38.98,-27.5 v 27.5 l -36.96,-2.85 v -8.2 c 18.48,0 20.51,-1.64 20.51,-14.81 v -70.16 c 0,-11.48 -2.85,-11.48 -20.51,-11.48 v -8.2 l 29.96,0.82 29.14,-0.82 v 8.2 c -17.65,0 -20.5,0 -20.5,11.48 v 48.44 c 0,27.07 18.86,41.84 35.27,41.84 16.83,0 19.69,-13.95 19.69,-29.14 v -61.14 c 0,-11.48 -2.86,-11.48 -20.51,-11.48 v -8.2 l 29.53,0.82 z"
         style="fill:#000000;fill-opacity:1;fill-rule:nonzero;stroke:none"
         id="path176" /><path
         d="m 2759.8,4478.09 v 8.2 c -6.17,-0.43 -13.55,-0.82 -19.68,-0.82 l -22.58,0.82 v -8.2 c 9.45,0 12.3,-6.18 12.3,-11.1 0,-2.46 -0.39,-3.71 -1.21,-6.56 l -27.11,-66.48 -29.14,73.04 c -1.64,3.28 -1.64,4.53 -1.64,4.53 0,6.57 10.28,6.57 15.2,6.57 v 8.2 l -28.71,-0.82 c -7,0 -17.66,0.39 -25.47,0.82 v -8.2 c 16.4,0 17.65,-1.64 20.94,-9.46 l 37.77,-93.16 c 1.64,-3.67 2.03,-4.92 5.31,-4.92 3.71,0 4.53,2.46 5.74,4.92 l 34.07,84.96 c 2.46,6.17 6.99,17.66 24.21,17.66 z"
         style="fill:#000000;fill-opacity:1;fill-rule:nonzero;stroke:none"
         id="path178" /><path
         d="m 2859.38,4407.07 c 0,13.55 -7.82,21.76 -11.1,24.65 -8.59,8.59 -18.87,10.66 -29.92,12.69 -14.81,2.89 -32.03,6.18 -32.03,21.37 0,9.42 6.56,20.08 29.14,20.08 28.71,0 30.35,-23.79 30.78,-31.6 0,-2.46 2.85,-2.46 2.85,-2.46 3.71,0 3.71,1.25 3.71,6.17 v 26.68 c 0,4.1 0,6.13 -2.89,6.13 -1.21,0 -2.03,0 -5.31,-3.28 -0.82,-0.82 -3.28,-3.28 -4.53,-4.1 -9.85,7.38 -20.51,7.38 -24.61,7.38 -31.99,0 -41.88,-17.62 -41.88,-32.42 0,-9.02 4.11,-16.41 11.1,-22.15 8.63,-6.56 16.01,-8.2 34.88,-11.91 5.74,-1.21 27.07,-5.32 27.07,-24.18 0,-13.17 -9.02,-23.83 -29.53,-23.83 -22.15,0 -31.6,14.76 -36.52,37.34 -0.82,3.28 -0.82,4.1 -3.71,4.1 -3.29,0 -3.29,-1.64 -3.29,-6.13 v -34.88 c 0,-4.53 0,-6.17 2.89,-6.17 1.22,0 1.64,0.43 6.57,5.35 0.43,0.39 0.43,0.82 5.35,5.74 11.48,-10.66 23.36,-11.09 28.71,-11.09 29.96,0 42.27,17.65 42.27,36.52 z"
         style="fill:#000000;fill-opacity:1;fill-rule:nonzero;stroke:none"
         id="path180" /><path
         d="m 2918.16,4387.38 c 0,7.39 -6.13,13.95 -13.51,13.95 -7.81,0 -13.99,-6.56 -13.99,-13.95 0,-7.81 6.18,-13.94 13.99,-13.94 7.38,0 13.51,6.13 13.51,13.94 z"
         style="fill:#000000;fill-opacity:1;fill-rule:nonzero;stroke:none"
         id="path182" /><path
         d="m 3236.37,4491.6 -4.92,59.1 h -160.04 l -4.96,-59.1 h 6.6 c 3.67,42.27 7.38,50.9 47.18,50.9 4.5,0 11.49,0 13.95,-0.39 5.74,-1.25 5.74,-4.1 5.74,-9.88 v -138.28 c 0,-8.64 0,-12.31 -27.5,-12.31 h -10.66 v -8.2 c 10.66,0.82 37.34,0.82 49.65,0.82 11.91,0 38.98,0 49.64,-0.82 v 8.2 h -10.66 c -27.5,0 -27.5,3.67 -27.5,12.31 v 138.28 c 0,4.96 0,8.63 4.92,9.88 2.89,0.39 9.89,0.39 14.81,0.39 39.8,0 43.47,-8.63 47.18,-50.9 z"
         style="fill:#000000;fill-opacity:1;fill-rule:nonzero;stroke:none"
         id="path184" /><path
         d="m 3310.78,4373.44 v 8.2 c -17.66,0 -18.48,1.21 -18.48,11.48 v 96.02 l -36.52,-2.85 v -8.2 c 16.84,0 19.3,-1.64 19.3,-14.38 v -70.59 c 0,-11.48 -2.85,-11.48 -20.51,-11.48 v -8.2 l 28.71,0.82 c 9.45,0 18.48,-0.43 27.5,-0.82 z m -14.76,157.97 c 0,7.42 -5.75,13.98 -13.56,13.98 -9.02,0 -14.34,-7.38 -14.34,-13.98 0,-6.96 6.14,-13.52 13.95,-13.52 9.02,0 13.95,6.95 13.95,13.52 z"
         style="fill:#000000;fill-opacity:1;fill-rule:nonzero;stroke:none"
         id="path186" /><path
         d="m 3531.68,4373.44 v 8.2 c -13.56,0 -20.12,0 -20.55,7.77 v 50.08 c 0,22.58 0,30.39 -8.2,39.81 -3.67,4.53 -12.31,9.84 -27.5,9.84 -21.76,0 -33.63,-15.59 -37.73,-25.86 -3.72,23.01 -23.01,25.86 -34.89,25.86 -19.29,0 -31.6,-11.05 -38.98,-27.5 v 27.5 l -36.95,-2.85 v -8.2 c 18.47,0 20.5,-1.64 20.5,-14.81 v -70.16 c 0,-11.48 -2.85,-11.48 -20.5,-11.48 v -8.2 l 29.96,0.82 29.14,-0.82 v 8.2 c -17.66,0 -20.51,0 -20.51,11.48 v 48.44 c 0,27.07 18.87,41.84 35.27,41.84 16.84,0 19.69,-13.95 19.69,-29.14 v -61.14 c 0,-11.48 -2.85,-11.48 -20.51,-11.48 v -8.2 l 29.57,0.82 29.1,-0.82 v 8.2 c -17.22,0 -20.07,0 -20.07,11.48 v 48.44 c 0,27.07 18.43,41.84 35.27,41.84 16.41,0 19.3,-13.95 19.3,-29.14 v -61.14 c 0,-11.48 -2.89,-11.48 -20.51,-11.48 v -8.2 l 29.53,0.82 z"
         style="fill:#000000;fill-opacity:1;fill-rule:nonzero;stroke:none"
         id="path188" /><path
         d="m 3645.39,4404.61 c 0,2.46 -2.03,3.28 -3.71,3.28 -2.03,0 -2.85,-1.64 -3.28,-3.67 -9.02,-27.11 -32.81,-27.11 -35.28,-27.11 -13.12,0 -23.39,7.81 -29.53,17.66 -7.81,12.3 -7.81,29.53 -7.81,38.98 h 73.05 c 5.74,0 6.56,0 6.56,5.74 0,25.86 -14.37,51.29 -46.8,51.29 -30.35,0 -54.57,-27.07 -54.57,-59.88 0,-34.88 27.5,-60.35 57.46,-60.35 32,0 43.91,29.14 43.91,34.06 z m -17.23,34.88 h -62.38 c 1.64,38.99 23.79,45.55 32.81,45.55 26.68,0 29.57,-35.27 29.57,-45.55 z"
         style="fill:#000000;fill-opacity:1;fill-rule:nonzero;stroke:none"
         id="path190" /><path
         d="m 3826.56,4310.62 c 0,0.83 0,1.26 -4.53,5.75 -32.42,32.85 -41.05,82.5 -41.05,122.73 0,45.55 9.88,91.1 42.26,123.52 3.32,3.28 3.32,3.67 3.32,4.49 0,2.07 -0.82,2.89 -2.46,2.89 -2.89,0 -26.29,-18.05 -41.87,-51.29 -13.13,-28.75 -16.41,-57.89 -16.41,-79.61 0,-20.55 2.85,-52.15 17.23,-82.11 16.01,-31.99 38.16,-49.22 41.05,-49.22 1.64,0 2.46,0.82 2.46,2.85 z"
         style="fill:#000000;fill-opacity:1;fill-rule:nonzero;stroke:none"
         id="path192" /><path
         d="m 3936.13,4407.07 c 0,13.55 -7.77,21.76 -11.05,24.65 -8.63,8.59 -18.91,10.66 -29.96,12.69 -14.81,2.89 -32.03,6.18 -32.03,21.37 0,9.42 6.56,20.08 29.14,20.08 28.75,0 30.39,-23.79 30.78,-31.6 0,-2.46 2.89,-2.46 2.89,-2.46 3.67,0 3.67,1.25 3.67,6.17 v 26.68 c 0,4.1 0,6.13 -2.85,6.13 -1.25,0 -2.07,0 -5.35,-3.28 -0.82,-0.82 -3.28,-3.28 -4.53,-4.1 -9.85,7.38 -20.51,7.38 -24.61,7.38 -32,0 -41.84,-17.62 -41.84,-32.42 0,-9.02 4.1,-16.41 11.06,-22.15 8.63,-6.56 16.01,-8.2 34.88,-11.91 5.74,-1.21 27.11,-5.32 27.11,-24.18 0,-13.17 -9.06,-23.83 -29.57,-23.83 -22.15,0 -31.6,14.76 -36.53,37.34 -0.82,3.28 -0.82,4.1 -3.67,4.1 -3.28,0 -3.28,-1.64 -3.28,-6.13 v -34.88 c 0,-4.53 0,-6.17 2.85,-6.17 1.25,0 1.64,0.43 6.56,5.35 0.43,0.39 0.43,0.82 5.36,5.74 11.48,-10.66 23.39,-11.09 28.71,-11.09 29.96,0 42.26,17.65 42.26,36.52 z"
         style="fill:#000000;fill-opacity:1;fill-rule:nonzero;stroke:none"
         id="path194" /><path
         d="m 4020.35,4439.1 c 0,20.08 -2.85,51.68 -17.23,81.64 -15.58,32.03 -38.16,49.26 -40.62,49.26 -1.64,0 -2.89,-1.25 -2.89,-2.89 0,-0.82 0,-1.21 4.92,-6.13 25.86,-25.86 40.63,-67.31 40.63,-121.88 0,-45.15 -9.42,-91.13 -41.84,-123.94 -3.71,-3.28 -3.71,-3.71 -3.71,-4.54 0,-1.64 1.25,-2.85 2.89,-2.85 2.46,0 26.25,18.05 41.45,51.29 13.55,28.71 16.4,57.85 16.4,80.04 z"
         style="fill:#000000;fill-opacity:1;fill-rule:nonzero;stroke:none"
         id="path196" /></g></g></svg>
