<?xml version="1.0" encoding="UTF-8" standalone="no"?>
<!-- Created with Inkscape (http://www.inkscape.org/) -->

<svg
   version="1.1"
   id="svg2"
   xml:space="preserve"
   width="866.66669"
   height="638.66669"
   viewBox="0 0 866.66669 638.66669"
   sodipodi:docname="ball_beam-Vd-contour-2.eps"
   inkscape:version="1.1.2 (1:1.1+202202050950+0a00cf5339)"
   xmlns:inkscape="http://www.inkscape.org/namespaces/inkscape"
   xmlns:sodipodi="http://sodipodi.sourceforge.net/DTD/sodipodi-0.dtd"
   xmlns="http://www.w3.org/2000/svg"
   xmlns:svg="http://www.w3.org/2000/svg"><defs
     id="defs6"><clipPath
       clipPathUnits="userSpaceOnUse"
       id="clipPath32"><path
         d="m 265.469,206.762 h 5709.84 v 4175.82 H 265.469 Z"
         id="path30" /></clipPath></defs><sodipodi:namedview
     id="namedview4"
     pagecolor="#ffffff"
     bordercolor="#999999"
     borderopacity="1"
     inkscape:pageshadow="0"
     inkscape:pageopacity="0"
     inkscape:pagecheckerboard="0"
     showgrid="false"
     inkscape:zoom="1.1257828"
     inkscape:cx="588.92352"
     inkscape:cy="407.71629"
     inkscape:window-width="2560"
     inkscape:window-height="1413"
     inkscape:window-x="2560"
     inkscape:window-y="27"
     inkscape:window-maximized="0"
     inkscape:current-layer="g10" /><g
     id="g8"
     inkscape:groupmode="layer"
     inkscape:label="ink_ext_XXXXXX"
     transform="matrix(1.3333333,0,0,-1.3333333,0,638.66667)"><g
       id="g10"
       transform="scale(0.1)"><path
         d="m 6368.52,2364.3 c 0,1.75 -1.25,3.59 -3.64,3.59 -4.26,0 -19.96,-15.12 -26.01,-26.64 -8.48,21.21 -23.56,27.27 -36.25,27.27 -45.39,0 -92.54,-56.88 -92.54,-113.13 0,-37.46 22.34,-61.64 50.78,-61.64 16.33,0 31.48,9.02 45.35,22.97 -3.59,-13.32 -16.33,-65.39 -17.54,-68.99 -3.01,-10.85 -6.05,-12.07 -27.81,-12.69 -4.88,0 -8.48,0 -8.48,-7.89 0,0 0,-4.22 4.85,-4.22 12.07,0 26.01,1.21 38.71,1.21 12.69,0 26.64,-1.21 39.88,-1.21 1.84,0 6.68,0 6.68,7.89 0,4.22 -3.63,4.22 -10.27,4.22 -18.17,0 -18.17,2.46 -18.17,6.05 0,3.05 0.63,5.43 1.25,8.48 z m -106.49,-162.11 c -23.55,0 -24.73,29.61 -24.73,36.25 0,18.79 10.86,60.47 17.54,76.83 12.07,28.4 32,44.73 47.78,44.73 25.39,0 30.82,-31.41 30.82,-33.83 0,-2.46 -21.17,-87.11 -22.42,-88.32 -6.02,-10.9 -27.78,-35.66 -48.99,-35.66 z"
         style="fill:#000000;fill-opacity:1;fill-rule:nonzero;stroke:none"
         id="path12" /><path
         d="m 6456.6,2311.84 c 0,7.26 0,7.26 -7.85,7.26 -17.54,-16.91 -41.76,-16.91 -52.62,-16.91 v -9.65 c 6.06,0 24.18,0 38.71,7.23 V 2162.5 c 0,-9.1 0,-12.7 -26.6,-12.7 h -10.27 v -9.64 c 4.8,0 38.05,1.13 47.77,1.13 8.44,0 42.31,-1.13 48.36,-1.13 v 9.64 h -10.27 c -27.23,0 -27.23,3.6 -27.23,12.7 z"
         style="fill:#000000;fill-opacity:1;fill-rule:nonzero;stroke:none"
         id="path14" /><path
         d="m 3147.07,4777.66 c 0,1.72 -1.21,3.36 -3.44,3.36 -3.98,0 -18.71,-14.11 -24.37,-24.89 -7.93,19.81 -22.11,25.51 -33.99,25.51 -42.54,0 -86.75,-53.32 -86.75,-106.05 0,-35.12 20.97,-57.78 47.57,-57.78 15.32,0 29.53,8.52 42.54,21.53 -3.36,-12.46 -15.31,-61.22 -16.44,-64.65 -2.85,-10.16 -5.67,-11.29 -26.1,-11.88 -4.49,0 -7.89,0 -7.89,-7.38 0,0 0,-3.98 4.53,-3.98 11.29,0 24.38,1.13 36.25,1.13 11.96,0 24.97,-1.13 37.47,-1.13 1.67,0 6.17,0 6.17,7.42 0,3.94 -3.36,3.94 -9.61,3.94 -16.99,0 -16.99,2.27 -16.99,5.67 0,2.85 0.54,5.11 1.13,7.93 z m -99.84,-151.92 c -22.03,0 -23.25,27.78 -23.25,33.99 0,17.57 10.24,56.72 16.45,71.99 11.37,26.68 30.04,41.99 44.84,41.99 23.75,0 28.91,-29.53 28.91,-31.76 0,-2.26 -19.88,-81.64 -20.98,-82.81 -5.7,-10.16 -26.09,-33.4 -45.97,-33.4 z"
         style="fill:#000000;fill-opacity:1;fill-rule:nonzero;stroke:none"
         id="path16" /><path
         d="m 3272.7,4613.48 h -8.52 c -0.55,-5.67 -3.4,-20.39 -6.8,-22.66 -1.72,-1.72 -20.93,-1.72 -24.96,-1.72 h -46.48 c 26.68,23.24 35.7,30.63 50.51,42.54 18.67,14.73 36.25,30.55 36.25,54.38 0,30.66 -26.65,49.33 -58.95,49.33 -31.17,0 -52.7,-22.11 -52.7,-45.35 0,-12.5 10.75,-14.14 13.6,-14.14 5.66,0 13.01,4.49 13.01,13.59 0,4.5 -1.72,13.64 -14.73,13.64 7.93,17.53 24.96,23.2 36.84,23.2 25.5,0 38.55,-19.84 38.55,-40.27 0,-22.11 -15.9,-39.07 -23.83,-48.17 l -60.62,-60.62 c -2.82,-2.31 -2.82,-2.85 -2.82,-9.65 h 104.26 z"
         style="fill:#000000;fill-opacity:1;fill-rule:nonzero;stroke:none"
         id="path18" /><path
         d="m 14.5313,11.6406 h 6103.95 v 4459.77 H 14.5313 Z"
         style="fill:none;stroke:none;stroke-width:9.99786;stroke-linecap:butt;stroke-linejoin:round;stroke-miterlimit:4;stroke-dasharray:none;stroke-opacity:1"
         id="path20" /><path
         d="m 117.852,37.1094 h 5949.3 v 4389.26 h -5949.3 z"
         style="fill:#ffffff;fill-opacity:1;fill-rule:nonzero;stroke:none"
         id="path22" /><path
         d="m 265.469,206.762 h 5709.84 v 4175.82 H 265.469 Z"
         style="fill:#ffffff;fill-opacity:1;fill-rule:nonzero;stroke:none"
         id="path24" /><g
         id="g26"><g
           id="g28"
           clip-path="url(#clipPath32)"><path
             d="m 3105.98,2282.34 -15.86,1.84 15.86,14.45 9.02,6.53 19.73,1.87 15.82,-1.87 -15.82,-14.38 -9.03,-6.6 -19.72,-1.84"
             style="fill:none;stroke:#000004;stroke-width:11.2268;stroke-linecap:butt;stroke-linejoin:round;stroke-miterlimit:4;stroke-dasharray:none;stroke-opacity:1"
             id="path34" /><path
             d="m 3048.63,2271.8 -11.25,12.38 11.25,9.41 14.42,11.57 14.29,4.84 28.64,7.93 28.75,5.98 28.67,1.95 28.71,-8.44 11.09,-12.26 -11.09,-9.26 -14.61,-11.72 -14.1,-4.77 -28.67,-7.96 -28.75,-5.98 -28.64,-1.99 -28.71,8.32"
             style="fill:none;stroke:#000004;stroke-width:11.2268;stroke-linecap:butt;stroke-linejoin:round;stroke-miterlimit:4;stroke-dasharray:none;stroke-opacity:1"
             id="path36" /><path
             d="m 2933.87,2200.16 -0.63,0.07 -28.08,6.88 -28.71,10.9 -6.25,3.24 -17.97,20.98 1.01,20.97 14.38,20.98 8.83,7.27 16.99,13.71 11.72,6.72 25.15,14.29 3.56,1.53 28.71,12.03 17.97,7.42 10.7,3.51 28.71,8.95 28.4,8.51 0.27,0.08 28.71,6.29 28.64,5.74 28.75,4.97 27.22,3.9 1.45,0.2 28.71,2.38 28.71,1.33 28.67,0.11 28.71,-1.32 25.55,-2.7 3.09,-0.47 28.71,-7.18 28.71,-11.18 4.14,-2.15 18.16,-20.97 -0.82,-20.98 -14.18,-21.01 -7.3,-5.98 -18.48,-15 -10.23,-5.82 -26.6,-15.16 -2.11,-0.93 -28.64,-12 -19.49,-8.04 -9.22,-3.09 -28.67,-8.94 -28.71,-8.64 -1.17,-0.31 -27.54,-6.09 -28.67,-5.78 -28.75,-5.04 -27.7,-4.07 -0.94,-0.11 -28.71,-2.46 -28.67,-1.45 -28.71,-0.2 -28.67,1.22 -28.71,2.89"
             style="fill:none;stroke:#000004;stroke-width:11.2268;stroke-linecap:butt;stroke-linejoin:round;stroke-miterlimit:4;stroke-dasharray:none;stroke-opacity:1"
             id="path38" /><path
             d="m 2905.16,2156.33 -23.13,1.95 -5.58,0.59 -28.64,4.72 -28.71,6.64 -28.67,8.95 -0.31,0.08 -28.4,16.4 -6.45,4.61 -14.88,20.98 -1.72,20.98 8.75,20.97 14.3,17.23 3.12,3.75 25.59,20.78 0.19,0.2 28.48,17.46 5.82,3.55 22.89,11.25 19.73,9.73 8.91,3.67 28.71,11.52 14.61,5.78 14.1,4.77 28.71,9.38 21.6,6.83 7.07,1.95 28.71,7.47 28.67,7.07 19.42,4.49 9.29,1.91 28.64,5.24 28.75,4.68 28.67,4.14 28.71,3.44 17.07,1.6 11.64,0.9 28.67,1.53 28.71,0.62 28.64,-0.35 28.71,-1.37 15,-1.33 13.71,-1.56 28.71,-4.96 28.67,-6.91 23.91,-7.58 4.8,-2.23 28.67,-16.95 2.5,-1.8 15.04,-20.98 1.92,-20.97 -8.48,-20.98 -10.98,-13.28 -6.44,-7.73 -22.23,-18.13 -3.55,-2.85 -25.16,-15.47 -9.02,-5.51 -19.65,-9.76 -22.81,-11.21 -5.9,-2.46 -28.71,-11.53 -17.58,-6.99 -11.13,-3.79 -28.64,-9.37 -24.45,-7.86 -4.26,-1.17 -28.67,-7.5 -28.71,-7.15 -21.95,-5.15 -6.76,-1.41 -28.67,-5.27 -28.75,-4.85 -28.64,-4.21 -28.71,-3.56 -17.22,-1.68 -11.45,-0.98 -28.71,-1.6 -28.67,-0.78 -28.71,0.2 -28.71,1.25"
             style="fill:none;stroke:#000004;stroke-width:11.2268;stroke-linecap:butt;stroke-linejoin:round;stroke-miterlimit:4;stroke-dasharray:none;stroke-opacity:1"
             id="path40" /><path
             d="m 2675.59,1988.63 -57.35,5.75 -57.38,8.59 -57.38,11.6 -64.46,17.81 -56.32,20.98 -42.97,20.98 -33.32,20.97 -25.2,21.02 -18.24,20.97 -11.8,20.98 -5.7,20.98 0.23,20.97 5.98,21.02 11.52,20.98 16.88,20.97 22.54,21.33 28.71,21.88 30.08,19.76 56.01,30.74 28.67,14.34 57.39,25.78 57.38,23.44 57.38,21.56 57.35,20.04 57.42,18.71 86.09,25.67 57.35,15.66 86.13,21.25 86.05,18.48 89.49,16.13 82.7,11.44 86.02,8.79 57.42,3.44 57.38,1.6 57.38,-0.47 73.48,-3.82 41.29,-4.07 57.42,-8 57.38,-10.9 57.39,-14.85 28.67,-9.14 42.77,-16.01 43.99,-20.98 33.79,-20.98 25.78,-20.97 18.51,-20.98 12.03,-20.98 5.75,-21.01 -0.12,-20.98 -5.82,-20.98 -11.56,-20.97 -21.68,-25.55 -17.31,-16.44 -40.04,-29.46 -28.71,-18.04 -28.67,-16.45 -57.38,-28.48 -57.39,-25.54 -28.71,-11.92 -86.09,-32.69 -57.38,-19.85 -57.39,-18.47 -57.38,-17.31 -86.09,-23.63 -86.06,-20.98 -86.09,-18.12 -86.06,-15.2 -86.09,-11.68 -68.67,-6.95 -46.13,-3.09 -57.35,-2.18 -57.38,-0.24 -57.42,1.96 -28.71,1.79"
             style="fill:none;stroke:#010005;stroke-width:11.2268;stroke-linecap:butt;stroke-linejoin:round;stroke-miterlimit:4;stroke-dasharray:none;stroke-opacity:1"
             id="path42" /><path
             d="m 5975.31,2145.82 -5.58,12.46 -1.61,20.98 7.19,18.83"
             style="fill:none;stroke:#010106;stroke-width:11.2268;stroke-linecap:butt;stroke-linejoin:round;stroke-miterlimit:4;stroke-dasharray:none;stroke-opacity:1"
             id="path44" /><path
             d="m 2589.57,1863.2 -57.38,4.26 -57.42,6.21 -79.89,11.8 -34.84,6.64 -65.94,14.37 -77.69,20.98 -64.42,20.98 -55.74,20.97 -51.87,22.35 -57.35,28.79 -28.71,16.13 -28.71,17.81 -28.67,20.35 -28.71,24.54 -16.88,16.95 -16.21,20.97 -11.25,20.98 -6.01,20.98 -0.43,20.97 5.5,21.02 11.53,20.98 17.69,20.97 23.79,20.98 29.65,20.98 48.71,28 28.71,14.89 57.35,26.29 57.42,23.98 57.38,22.42 86.02,31.68 143.51,48.48 114.77,36.44 172.11,50.47 118.94,32.11 139.34,33.63 86.09,18.44 86.02,16.29 97.85,15.59 74.37,9.29 86.06,8.09 86.09,4.73 86.06,0.97 70.31,-2.11 44.49,-2.77 57.38,-5.31 57.39,-7.23 57.38,-9.26 83.87,-17.38 59.57,-15.51 57.38,-17.38 57.42,-20.04 28.67,-10.94 57.35,-24.96 33.4,-16.09 52.73,-29.69 28.67,-18.55 28.71,-21.49 16.92,-14.22 20.39,-20.97 15.51,-20.98 10.54,-20.98 5.16,-21.01 -0.47,-20.98 -6.33,-20.98 -12.34,-20.97 -20.74,-23.01 -28.64,-23.75 -28.71,-19.57 -29.37,-17.62 -56.68,-28.94 -57.42,-26.21 -28.68,-12.27 -94.06,-37.5 -135.47,-48.67 -114.76,-38.48 -143.48,-44.68 -124.38,-36.06 -133.86,-35.19 -86.06,-20.59 -86.09,-18.59 -86.13,-16.45 -86.14,-14.06 -85.97,-11.06 -86.06,-8.2 -57.38,-3.55 -86.13,-2.31 -57.35,0.55 -57.38,2.26"
             style="fill:none;stroke:#010106;stroke-width:11.2268;stroke-linecap:butt;stroke-linejoin:round;stroke-miterlimit:4;stroke-dasharray:none;stroke-opacity:1"
             id="path46" /><path
             d="m 5975.31,1939.53 -86.09,31.37 -172.15,63.79 -86.09,31.13 -143.44,47.15 -114.77,31.09 -57.42,11.96 -86.05,13.51 -57.42,5.24 -57.35,2.53 -57.38,0.12 -57.42,-2.07 -57.35,-4.06 -57.42,-5.9 -86.05,-11.56 -86.1,-14.22 -143.47,-27.97 -114.77,-25.43 -143.44,-34.88 -114.76,-29.45 -258.28,-70.28 -237,-66.09 -250.74,-67.31 -153.08,-37.61 -105.16,-23.36 -114.77,-22.54 -103.12,-17.07 -69.06,-9.42 -86.06,-9.49 -86.09,-6.44 -86.06,-3.29 -86.09,0.04 -86.09,3.48 -57.35,4.22 -86.09,9.57 -86.13,12.97 -86.02,16.48 -57.38,12.89 -86.1,21.84 -86.09,24.65 -87.19,27.42 -121.91,41.95 -225.86,83.95 -112.11,41.95 -84.14,30.63 -114.77,38.36 -86.09,25.42 -86.13,21.61 -86.019,17.34 -57.379,9.14 -86.133,10.47 -86.02,7.11 -86.129,4.41 -143.441,4.3 -200.82,5.39"
             style="fill:none;stroke:#02010a;stroke-width:11.2268;stroke-linecap:butt;stroke-linejoin:round;stroke-miterlimit:4;stroke-dasharray:none;stroke-opacity:1"
             id="path48" /><path
             d="m 265.469,2642.85 70.043,-22.93 102.109,-33.94 200.82,-63.05 114.797,-30.74 57.352,-13.4 86.09,-16.33 57.379,-7.97 86.061,-8.2 57.42,-2.66 57.38,-0.51 57.35,1.41 57.42,3.24 86.09,7.66 86.02,10.39 114.84,17.66 114.77,20.97 114.76,23.67 172.15,39.3 200.86,50.12 573.83,150.66 172.15,41.37 114.8,24.77 114.77,21.71 98.24,15.71 73.87,9.61 86.13,8.79 86.05,5.74 86.1,2.54 86.09,-0.86 86.02,-4.34 57.42,-5 86.09,-10.43 57.35,-8.9 94.76,-18.17 89.96,-20.97 78.21,-20.98 81.4,-24.34 116.8,-38.63 141.4,-51.64 114.81,-44.14 315.59,-119.73 86.13,-28.32 86.05,-24.41 86.1,-19.73 86.05,-14.57 57.42,-6.83 86.06,-6.68 86.09,-3.95 114.77,-2.3 229.53,-3.72 86.09,-3.28"
             style="fill:none;stroke:#02010a;stroke-width:11.2268;stroke-linecap:butt;stroke-linejoin:round;stroke-miterlimit:4;stroke-dasharray:none;stroke-opacity:1"
             id="path50" /><path
             d="m 5975.31,1722.42 -143.51,29.42 -143.44,26.28 -114.81,18.13 -114.72,14.77 -86.06,8.55 -86.09,6.37 -86.13,4.06 -86.02,1.6 -86.09,-0.78 -86.06,-3.2 -86.09,-5.55 -86.13,-7.58 -86.02,-9.84 -114.8,-16.1 -114.77,-19.33 -114.8,-22.31 -143.4,-31.44 -114.77,-27.46 -172.22,-44.38 -265.86,-72.89 -309.42,-83.94 -141.99,-35.2 -114.77,-25.78 -86.09,-17.23 -86.09,-15.19 -86.06,-12.89 -86.09,-10.16 -86.06,-7.38 -86.09,-4.3 -86.09,-1.01 -86.06,2.26 -86.09,5.7 -86.06,9.07 -86.09,12.3 -88.4,15.86 -97.23,20.98 -85.11,20.97 -102.27,28.05 -117.03,34.92 -198.63,63.56 -229.53,74.45 -172.15,52.81 -114.729,32.89 -143.512,37.86 -143.438,34.29 -114.769,25.24 -143.473,29.33 -114.73,22.5"
             style="fill:none;stroke:#050417;stroke-width:11.2268;stroke-linecap:butt;stroke-linejoin:round;stroke-miterlimit:4;stroke-dasharray:none;stroke-opacity:1"
             id="path52" /><path
             d="m 265.469,2882.81 172.152,-29.18 143.399,-21.29 143.511,-17.34 114.77,-10.35 86.09,-5.63 86.019,-3.55 86.13,-1.49 86.09,0.63 86.06,2.69 86.09,4.81 86.02,6.87 86.13,8.64 96.8,12.15 75.35,10.78 114.76,19.02 114.77,21.64 114.77,24.06 143.47,32.93 143.48,35.39 286.91,74.85 208.28,54.14 164.73,39.8 114.73,25 114.84,21.88 86.02,13.86 86.13,11.41 86.05,8.67 86.1,5.67 86.09,2.34 86.02,-0.98 86.13,-4.49 86.02,-7.97 86.13,-11.36 86.09,-14.73 86.02,-17.73 86.13,-20.55 86.02,-23.01 95.43,-27.81 134.14,-42.35 258.24,-86.48 182.03,-60.04 104.92,-33.05 143.44,-42.22 143.44,-38.52 135.97,-33.08 122.31,-27.54 172.11,-36.1 143.51,-29.65"
             style="fill:none;stroke:#050417;stroke-width:11.2268;stroke-linecap:butt;stroke-linejoin:round;stroke-miterlimit:4;stroke-dasharray:none;stroke-opacity:1"
             id="path54" /><path
             d="m 5975.31,1516.84 -143.51,17.81 -114.73,12.03 -114.8,9.65 -114.73,6.83 -114.77,3.75 -114.8,0.55 -86.09,-1.76 -86.06,-3.71 -86.09,-5.62 -114.77,-10.55 -86.05,-10.04 -114.77,-16.25 -114.8,-19.41 -114.77,-22.35 -114.8,-25.04 -143.4,-34.8 -135.78,-36.05 -122.5,-34.54 -200.86,-59.8 -401.68,-122.19 -143.44,-40.9 -114.77,-30.31 -86.09,-20.9 -86.09,-18.94 -86.06,-16.72 -86.09,-14.26 -86.06,-11.44 -86.09,-8.48 -86.09,-5.119 -86.06,-1.761 -86.09,1.761 -86.06,5.349 -57.38,5.67 -86.13,11.36 -86.02,14.85 -86.09,18.04 -86.1,21.06 -86.05,23.71 -104.14,31.76 -96.72,31.87 -114.81,40 -172.14,62.5 -315.589,114.34 -172.153,58.98 -172.218,55.51 -172.11,52.23 -143.441,41.68"
             style="fill:none;stroke:#10092d;stroke-width:11.2268;stroke-linecap:butt;stroke-linejoin:round;stroke-miterlimit:4;stroke-dasharray:none;stroke-opacity:1"
             id="path56" /><path
             d="m 265.469,3104.41 172.152,-16.4 143.399,-10.51 114.839,-5.94 114.731,-3.36 114.801,-0.66 114.729,2.26 114.8,5.24 114.77,8.32 114.76,11.29 114.77,14.33 114.8,17.27 114.77,20.12 114.73,22.73 114.8,25.2 114.73,27.5 143.51,37.15 172.15,47.77 315.59,92.3 210.23,60.28 134.1,35.74 114.77,27.93 114.8,24.49 92.23,16.76 79.92,11.99 86.06,10.12 86.09,6.83 86.09,3.32 86.06,-0.27 57.38,-2.3 57.35,-4.03 57.42,-5.66 86.09,-11.72 86.06,-15.39 86.09,-18.79 86.09,-21.95 86.06,-24.81 101.33,-32.26 99.53,-34.3 135.7,-49.65 208.63,-79.57 233.4,-88.28 139.57,-50.66 157.31,-54.26 129.61,-42.5 143.47,-45.08 229.57,-69.61"
             style="fill:none;stroke:#10092d;stroke-width:11.2268;stroke-linecap:butt;stroke-linejoin:round;stroke-miterlimit:4;stroke-dasharray:none;stroke-opacity:1"
             id="path58" /><path
             d="m 5975.31,1254.92 -143.51,6.92 -114.73,3.08 -114.8,0.74 -114.73,-1.91 -114.77,-4.69 -114.8,-7.58 -114.77,-10.58 -114.76,-13.6 -114.77,-16.68 -114.76,-19.72 -114.77,-22.62 -114.8,-25.47 -114.77,-28.28 -143.44,-38.87 -143.51,-42.54 -156.29,-49.96 -130.59,-44.019 -173.63,-60.903 -543.71,-191.828 -121.29,-38.988 -108.24,-32.223 -86.06,-23.558 -86.09,-21.371 -86.13,-18.821 -86.02,-16.019 -86.09,-12.969 -86.06,-9.492 -86.09,-5.938 -57.42,-1.801 -57.35,-0.07 -57.38,1.719 -57.38,3.551 -57.42,5.39 -57.35,7.192 -57.42,9.019 -57.38,10.739 -86.06,19.378 -83.9,22.301 -59.61,17.821 -86.02,28.281 -104.41,37.847 -96.45,37.774 -114.8,47.578 -172.15,74.73 -401.682,175.9 -172.148,72.1 -200.859,80.63 -28.672,11.25"
             style="fill:none;stroke:#310a5c;stroke-width:11.2268;stroke-linecap:butt;stroke-linejoin:round;stroke-miterlimit:4;stroke-dasharray:none;stroke-opacity:1"
             id="path60" /><path
             d="m 265.469,3383.4 143.441,-3.67 143.469,-0.78 114.769,1.79 114.731,4.06 114.801,6.65 114.73,9.21 114.84,11.88 114.73,14.65 114.8,17.42 114.77,20.19 114.76,22.93 114.77,25.63 121.17,29.88 108.36,28.91 143.44,41.44 143.51,44.53 172.15,56.8 200.86,69.22 286.88,99.84 143.51,47.74 114.77,35.98 114.76,33.08 96.84,25.08 75.31,17.38 86.06,17.19 86.09,14.06 86.09,10.55 57.35,4.96 57.42,3.16 57.38,1.33 57.35,-0.54 57.42,-2.47 57.38,-4.49 57.42,-6.44 57.35,-8.4 57.42,-10.35 68.83,-14.96 74.57,-19.03 77.65,-22.93 65.86,-21.6 86.06,-31.09 86.09,-33.71 114.73,-48.32 121.6,-54.14 194.06,-89.69 286.95,-132.5 172.15,-76.53 172.15,-73.63 200.86,-82.73 57.38,-23.24"
             style="fill:none;stroke:#310a5c;stroke-width:11.2268;stroke-linecap:butt;stroke-linejoin:round;stroke-miterlimit:4;stroke-dasharray:none;stroke-opacity:1"
             id="path62" /><path
             d="m 932.582,206.762 -7.191,3.789 -28.711,15.23 -3.668,1.949 -25,13.399 -14.18,7.582 -14.531,7.809 -24.571,13.21 -4.14,2.219 -28.711,15.473 -5.981,3.277 -22.66,12.27 -16.09,8.711 -12.617,6.84 -26.133,14.14 -2.539,1.36 -28.711,15.589 -7.457,4.02 -21.25,11.531 -17.5,9.488 -11.211,6.012 -27.699,14.961 -1.011,0.508 -28.641,15.473 -9.289,5 -19.418,10.429 -19.692,10.551 -8.98,4.84 -28.711,15.277 -1.598,0.852 -27.07,14.461 -12.391,6.558 -16.32,8.629 -23.359,12.352 -5.352,2.808 -28.719,15.082 -5.89,3.079 -22.738,11.96 -17.383,9.02 -11.328,5.898 -28.672,14.844"
             style="fill:none;stroke:#751b6e;stroke-width:11.2268;stroke-linecap:butt;stroke-linejoin:round;stroke-miterlimit:4;stroke-dasharray:none;stroke-opacity:1"
             id="path64" /><path
             d="m 5975.31,922.109 -114.76,-3.48 -114.81,-5.66 -114.76,-8.047 -114.77,-10.582 -114.8,-13.25 -114.73,-15.93 -114.8,-18.789 -114.73,-21.641 -114.77,-24.46 -114.8,-27.34 -114.77,-30.039 -114.76,-32.852 -114.77,-35.391 -114.8,-37.886 -147.7,-52.27 L 4108.71,542.5 3966.8,486.879 3794.65,416.09 3622.5,342.891 3308.01,206.762"
             style="fill:none;stroke:#751b6e;stroke-width:11.2268;stroke-linecap:butt;stroke-linejoin:round;stroke-miterlimit:4;stroke-dasharray:none;stroke-opacity:1"
             id="path66" /><path
             d="m 265.469,3734.61 28.672,1.13 28.711,1.25 28.628,1.37 28.719,1.48 28.711,1.61 28.711,1.75 28.668,1.88 28.711,2.03 28.672,2.15 28.707,2.26 18.133,1.57 10.508,0.86 28.71,2.53 28.711,2.66 28.707,2.85 28.711,2.97 28.672,3.16 28.707,3.29 21.883,2.65 6.758,0.82 28.711,3.56 28.711,3.71 28.711,3.9 28.668,4.07 28.711,4.26 4.41,0.66 24.258,3.67 28.671,4.49 28.68,4.69 28.71,4.92 18.36,3.21 10.35,1.79 28.71,5.16 28.71,5.35 28.67,5.55 15.78,3.12 12.93,2.58 28.64,5.78 28.71,6.02 28.71,6.25 1.72,0.39 26.99,5.9 28.67,6.52 28.71,6.72 7.66,1.83 21.01,4.97 28.67,6.99 28.68,7.22 7.03,1.8 21.72,5.51 28.67,7.5 28.71,7.73 0.86,0.24 27.85,7.54 28.67,8 18.99,5.43 9.72,2.78 28.64,8.28 28.75,8.51 4.68,1.45 23.99,7.15 28.71,8.83 15.94,5 12.73,3.94 28.71,9.1 24.45,7.93 4.22,1.33 28.68,9.38 28.71,9.61 2.03,0.66 26.68,8.98 28.67,9.89 6.13,2.11 22.58,7.81 28.71,10.15 8.44,3.05 20.23,7.19 28.68,10.39 9.21,3.4 19.46,7.11 28.75,10.66 8.47,3.2 20.2,7.54 28.71,10.9 6.56,2.54 22.11,8.44 28.71,11.17 3.56,1.37 25.08,9.8 28.28,11.17 0.43,0.2 28.71,11.37 23.36,9.45 5.35,2.11 28.67,11.56 17.81,7.31 10.9,4.41 28.71,11.8 11.53,4.76 17.14,7.07 28.68,11.92 4.8,1.99 23.91,9.96 26.21,11.02 2.5,1.05 28.67,12.07 18.63,7.89 10.08,4.26 28.67,12.15 10.71,4.57 18,7.62 28.64,12.26 2.61,1.09 26.1,11.1 23.12,9.88 5.59,2.38 28.71,12.23 14.92,6.37"
             style="fill:none;stroke:#751b6e;stroke-width:11.2268;stroke-linecap:butt;stroke-linejoin:round;stroke-miterlimit:4;stroke-dasharray:none;stroke-opacity:1"
             id="path68" /><path
             d="m 5131.95,4382.58 11.25,-6.21 26.49,-14.77 2.19,-1.21 28.67,-16.09 6.56,-3.68 22.19,-12.5 15,-8.47 13.67,-7.7 23.48,-13.28 5.23,-2.93 28.67,-16.29 3.17,-1.79 25.54,-14.46 11.45,-6.52 17.26,-9.77 19.77,-11.21 8.87,-5.04 28.24,-15.93 0.47,-0.28 28.71,-16.25 7.93,-4.45 20.78,-11.72 16.48,-9.3 12.19,-6.83 25.24,-14.14 3.47,-1.92 28.63,-16.01 5.51,-3.05 23.21,-12.93 14.53,-8.05 14.18,-7.85 23.82,-13.12 4.89,-2.7 28.67,-15.74 4.69,-2.54 24.02,-13.16 14.38,-7.85 14.29,-7.74 24.42,-13.24 4.29,-2.31 28.67,-15.46 5.98,-3.21 22.7,-12.18 16.48,-8.79 12.27,-6.53 27.22,-14.45 1.45,-0.78 28.71,-15.24 9.45,-5 19.22,-10.11 20.63,-10.86 8.08,-4.22"
             style="fill:none;stroke:#751b6e;stroke-width:11.2268;stroke-linecap:butt;stroke-linejoin:round;stroke-miterlimit:4;stroke-dasharray:none;stroke-opacity:1"
             id="path70" /><path
             d="m 5975.31,355.309 -12.26,-1.68 -16.45,-2.18 -28.67,-4.027 -28.71,-4.18 -28.67,-4.332 -28.75,-4.5 -10.86,-1.75 -17.82,-2.859 -28.67,-4.719 -28.71,-4.883 -28.67,-5.117 -18.67,-3.402 -10.04,-1.801 -28.67,-5.348 -28.71,-5.511 -28.71,-5.7 -12.74,-2.621 -15.98,-3.238 -28.63,-5.981 -28.71,-6.128 -25.35,-5.622 -3.32,-0.75 -28.71,-6.441 -28.71,-6.641 -28.71,-6.839 -1.29,-0.348 -27.35,-6.602 -28.71,-7.109 -28.32,-7.27 -0.39,-0.07 -28.67,-7.43 -28.71,-7.648 -21.33,-5.82"
             style="fill:none;stroke:#fcac11;stroke-width:11.2268;stroke-linecap:butt;stroke-linejoin:round;stroke-miterlimit:4;stroke-dasharray:none;stroke-opacity:1"
             id="path72" /><path
             d="m 265.469,4324.22 28.672,3.98 28.711,4.14 28.628,4.26 26.059,4.02 2.66,0.43 28.711,4.46 28.711,4.65 28.668,4.8 28.711,4.96 9.34,1.68 19.332,3.4 28.707,5.2 28.641,5.35 28.71,5.54 7.5,1.49"
             style="fill:none;stroke:#fcac11;stroke-width:11.2268;stroke-linecap:butt;stroke-linejoin:round;stroke-miterlimit:4;stroke-dasharray:none;stroke-opacity:1"
             id="path74" /></g></g><path
         d="m 265.469,2294.69 v 28.04"
         style="fill:none;stroke:#000000;stroke-width:5.61341;stroke-linecap:butt;stroke-linejoin:round;stroke-miterlimit:4;stroke-dasharray:none;stroke-opacity:1"
         id="path76" /><path
         d="m 59.7305,2146.48 c 0,-2.46 4.1797,-2.73 6.3984,-2.73 h 1.1719 c 2,0 3.7187,0.27 5.75,0.27 H 212.109 c 1.442,0 2.661,-0.27 4.18,-0.27 h 0.512 c 2.73,0 6.437,0.27 6.437,2.97 0,3.2 -3.976,2.69 -7.218,2.69 H 64.6484 c -2.7695,0 -4.9179,-0.46 -4.9179,-2.93 z"
         style="fill:#000000;fill-opacity:1;fill-rule:nonzero;stroke:none"
         id="path78" /><path
         d="m 259.77,2225.98 c 4.96,0 19.492,0 32.339,6.44 v -127.93 c 0,-8.9 -0.699,-11.87 -22.929,-11.87 h -7.93 v -7.66 c 8.629,0.74 30.16,0.74 40.039,0.74 9.84,0 31.332,0 40,-0.74 v 7.66 h -7.891 c -22.269,0 -22.968,2.73 -22.968,11.87 v 138.56 c 0,5.93 0,6.4 -5.739,6.4 -15.312,-15.78 -37.07,-15.78 -44.921,-15.78 z"
         style="fill:#000000;fill-opacity:1;fill-rule:nonzero;stroke:none"
         id="path80" /><path
         d="m 370.941,2163.98 c 0,-18.51 0.938,-40.74 11.09,-59.49 10.59,-20.04 28.59,-24.96 40.778,-24.96 13.242,0 32.113,5.2 42.929,28.67 7.934,17 9.141,36.25 9.141,55.78 0,19.77 -1.207,39.54 -9.879,57.82 -11.328,23.71 -31.602,27.65 -41.949,27.65 -14.852,0 -32.891,-6.4 -43.012,-29.37 -7.891,-17.07 -9.098,-36.33 -9.098,-56.1 z m 20.469,2.97 c 0,15.78 0,32.11 1.988,45.43 4.653,29.42 23.243,31.64 29.411,31.64 8.132,0 24.421,-4.45 29.14,-28.9 2.43,-13.83 2.43,-32.58 2.43,-48.17 0,-18.51 0,-35.31 -2.699,-51.13 -3.711,-23.44 -17.77,-30.86 -28.871,-30.86 -9.688,0 -24.289,6.17 -28.668,29.88 -2.731,14.81 -2.731,37.54 -2.731,52.11 z"
         style="fill:#000000;fill-opacity:1;fill-rule:nonzero;stroke:none"
         id="path82" /><path
         d="m 836.41,2294.69 v 28.04"
         style="fill:none;stroke:#000000;stroke-width:5.61341;stroke-linecap:butt;stroke-linejoin:round;stroke-miterlimit:4;stroke-dasharray:none;stroke-opacity:1"
         id="path84" /><path
         d="m 692.461,2146.48 c 0,-2.46 4.18,-2.73 6.41,-2.73 h 1.207 c 1.992,0 3.711,0.27 5.703,0.27 h 139.02 c 1.531,0 2.738,-0.27 4.179,-0.27 h 0.551 c 2.699,0 6.449,0.27 6.449,2.97 0,3.2 -3.992,2.69 -7.191,2.69 h -151.41 c -2.731,0 -4.918,-0.46 -4.918,-2.93 z"
         style="fill:#000000;fill-opacity:1;fill-rule:nonzero;stroke:none"
         id="path86" /><path
         d="m 880.898,2122.23 c 0,-26.14 25.153,-42.7 51.133,-42.7 27.891,0 51.367,20.47 51.367,46.92 0,8.9 -2.777,20.03 -12.109,30.39 -4.687,5.19 -8.668,7.65 -24.449,17.54 17.769,9.14 29.879,21.95 29.879,38.28 0,22.73 -21.989,36.79 -44.489,36.79 -24.648,0 -44.648,-18.28 -44.648,-41.21 0,-4.49 0.469,-15.62 10.859,-27.19 2.731,-2.96 11.789,-9.14 17.969,-13.35 -14.301,-7.19 -35.512,-20.98 -35.512,-45.47 z m 12.34,0 c 0,14.37 7.934,30.15 28.91,41.75 l 30.391,-19.25 c 6.91,-4.69 18.481,-12.11 18.481,-27.15 0,-18.28 -18.481,-31.13 -38.79,-31.13 -21.21,0 -38.992,15.31 -38.992,35.78 z m 5.203,95.62 c 0,15.08 16.047,25.43 33.59,25.43 18.051,0 33.828,-12.81 33.828,-30.62 0,-14.07 -9.609,-25.94 -24.449,-34.57 l -30.629,19.76 c -11.402,7.38 -12.34,15.78 -12.34,20 z"
         style="fill:#000000;fill-opacity:1;fill-rule:nonzero;stroke:none"
         id="path88" /><path
         d="m 1407.42,2294.69 v 28.04"
         style="fill:none;stroke:#000000;stroke-width:5.61341;stroke-linecap:butt;stroke-linejoin:round;stroke-miterlimit:4;stroke-dasharray:none;stroke-opacity:1"
         id="path90" /><path
         d="m 1263.44,2146.48 c 0,-2.46 4.18,-2.73 6.4,-2.73 h 1.25 c 1.96,0 3.64,0.27 5.67,0.27 h 139.06 c 1.45,0 2.7,-0.27 4.18,-0.27 h 0.51 c 2.73,0 6.44,0.27 6.44,2.97 0,3.2 -3.98,2.69 -7.22,2.69 h -151.37 c -2.77,0 -4.92,-0.46 -4.92,-2.93 z"
         style="fill:#000000;fill-opacity:1;fill-rule:nonzero;stroke:none"
         id="path92" /><path
         d="m 1451.84,2163.01 c 0,-65.94 28.67,-83.48 51.64,-83.48 27.46,0 50.86,23.2 50.86,55.82 0,31.33 -21.96,55.08 -49.34,55.08 -16.8,0 -25.94,-12.62 -30.9,-24.45 v 5.93 c 0,62.47 30.63,71.37 43.24,71.37 5.9,0 16.29,-1.48 21.72,-9.88 -3.71,0 -13.59,0 -13.59,-11.13 0,-7.62 5.94,-11.33 11.33,-11.33 4.02,0 11.4,2.22 11.4,11.83 0,14.81 -10.86,26.68 -31.4,26.68 -31.6,0 -64.96,-31.83 -64.96,-86.44 z m 22.77,-22.23 c 0,19.3 7.89,43.99 30.12,43.99 3.98,0 15.31,0 22.97,-15.32 4.45,-9.18 4.45,-21.75 4.45,-33.86 0,-11.84 0,-24.18 -4.18,-33.09 -7.42,-14.84 -18.79,-16.05 -24.49,-16.05 -15.55,0 -22.97,14.8 -24.42,18.51 -4.45,11.6 -4.45,31.37 -4.45,35.82 z"
         style="fill:#000000;fill-opacity:1;fill-rule:nonzero;stroke:none"
         id="path94" /><path
         d="m 1978.4,2294.69 v 28.04"
         style="fill:none;stroke:#000000;stroke-width:5.61341;stroke-linecap:butt;stroke-linejoin:round;stroke-miterlimit:4;stroke-dasharray:none;stroke-opacity:1"
         id="path96" /><path
         d="m 1834.38,2146.21 c 0,-2.46 4.25,-2.73 6.44,-2.73 h 1.25 c 1.95,0 3.71,0.27 5.63,0.27 h 139.1 c 1.48,0 2.73,-0.27 4.18,-0.27 h 0.47 c 2.77,0 6.48,0.27 6.48,2.97 0,3.2 -4.02,2.69 -7.19,2.69 h -151.4 c -2.74,0 -4.96,-0.47 -4.96,-2.93 z"
         style="fill:#000000;fill-opacity:1;fill-rule:nonzero;stroke:none"
         id="path98" /><path
         d="m 2019.38,2125.43 h 65.74 v -21.48 c 0,-8.87 -0.51,-11.61 -18.79,-11.61 h -5.16 v -7.65 c 10.08,0.74 22.93,0.74 33.32,0.74 10.39,0 23.48,0 33.56,-0.74 v 7.65 h -5.16 c -18.28,0 -18.79,2.74 -18.79,11.61 v 21.48 h 24.69 v 7.66 h -24.69 v 112.38 c 0,4.92 0,6.44 -3.98,6.44 -2.19,0 -2.93,0 -4.92,-2.96 l -75.82,-115.86 z m 6.91,7.66 60.31,92.14 v -92.14 z"
         style="fill:#000000;fill-opacity:1;fill-rule:nonzero;stroke:none"
         id="path100" /><path
         d="m 2549.34,2294.69 v 28.04"
         style="fill:none;stroke:#000000;stroke-width:5.61341;stroke-linecap:butt;stroke-linejoin:round;stroke-miterlimit:4;stroke-dasharray:none;stroke-opacity:1"
         id="path102" /><path
         d="m 2405.39,2146.48 c 0,-2.46 4.22,-2.73 6.41,-2.73 h 1.25 c 1.95,0 3.71,0.27 5.66,0.27 h 139.1 c 1.45,0 2.7,-0.27 4.18,-0.27 h 0.47 c 2.7,0 6.45,0.27 6.45,2.97 0,3.2 -3.95,2.69 -7.15,2.69 h -151.41 c -2.73,0 -4.96,-0.46 -4.96,-2.93 z"
         style="fill:#000000;fill-opacity:1;fill-rule:nonzero;stroke:none"
         id="path104" /><path
         d="m 2595.82,2084.96 h 91.64 l 6.88,43.01 h -6.14 c -1.21,-7.42 -3,-18.32 -5.43,-22.03 -1.75,-1.96 -18.04,-1.96 -23.47,-1.96 h -44.46 l 26.14,25.43 c 38.59,34.07 53.36,47.43 53.36,72.15 0,28.13 -22.19,47.89 -52.31,47.89 -27.93,0 -46.21,-22.69 -46.21,-44.68 0,-13.83 12.3,-13.83 13.09,-13.83 4.18,0 12.85,2.93 12.85,13.08 0,6.41 -4.49,12.86 -13.09,12.86 -1.95,0 -2.46,0 -3.2,-0.28 5.66,16.06 18.98,25.2 33.36,25.2 22.46,0 33.01,-20 33.01,-40.24 0,-19.76 -12.31,-39.29 -25.9,-54.61 l -47.46,-52.85 c -2.66,-2.73 -2.66,-3.2 -2.66,-9.14 z"
         style="fill:#000000;fill-opacity:1;fill-rule:nonzero;stroke:none"
         id="path106" /><path
         d="m 3120.39,2294.69 v 28.04"
         style="fill:none;stroke:#000000;stroke-width:5.61341;stroke-linecap:butt;stroke-linejoin:round;stroke-miterlimit:4;stroke-dasharray:none;stroke-opacity:1"
         id="path108" /><path
         d="m 3691.37,2294.69 v 28.04"
         style="fill:none;stroke:#000000;stroke-width:5.61341;stroke-linecap:butt;stroke-linejoin:round;stroke-miterlimit:4;stroke-dasharray:none;stroke-opacity:1"
         id="path110" /><path
         d="m 3641.95,2084.96 h 91.64 l 6.96,43.01 h -6.25 c -1.21,-7.42 -2.93,-18.32 -5.39,-22.03 -1.72,-1.96 -18.01,-1.96 -23.48,-1.96 h -44.45 l 26.17,25.43 c 38.55,34.07 53.4,47.43 53.4,72.15 0,28.13 -22.27,47.89 -52.43,47.89 -27.85,0 -46.17,-22.69 -46.17,-44.68 0,-13.83 12.35,-13.83 13.09,-13.83 4.22,0 12.85,2.93 12.85,13.08 0,6.41 -4.41,12.86 -13.12,12.86 -1.92,0 -2.43,0 -3.17,-0.28 5.63,16.06 18.95,25.2 33.36,25.2 22.46,0 33.09,-20 33.09,-40.24 0,-19.76 -12.43,-39.29 -25.94,-54.61 l -47.46,-52.85 c -2.7,-2.73 -2.7,-3.2 -2.7,-9.14 z"
         style="fill:#000000;fill-opacity:1;fill-rule:nonzero;stroke:none"
         id="path112" /><path
         d="m 4262.34,2294.69 v 28.04"
         style="fill:none;stroke:#000000;stroke-width:5.61341;stroke-linecap:butt;stroke-linejoin:round;stroke-miterlimit:4;stroke-dasharray:none;stroke-opacity:1"
         id="path114" /><path
         d="m 4207.5,2125.43 h 65.74 v -21.48 c 0,-8.87 -0.54,-11.61 -18.79,-11.61 h -5.19 v -7.65 c 10.08,0.74 22.97,0.74 33.36,0.74 10.39,0 23.4,0 33.55,-0.74 v 7.65 h -5.19 c -18.28,0 -18.75,2.74 -18.75,11.61 v 21.48 h 24.65 v 7.66 h -24.65 v 112.38 c 0,4.92 0,6.44 -3.95,6.44 -2.26,0 -2.97,0 -4.92,-2.96 l -75.86,-115.86 z m 6.88,7.66 60.31,92.14 v -92.14 z"
         style="fill:#000000;fill-opacity:1;fill-rule:nonzero;stroke:none"
         id="path116" /><path
         d="m 4833.32,2294.69 v 28.04"
         style="fill:none;stroke:#000000;stroke-width:5.61341;stroke-linecap:butt;stroke-linejoin:round;stroke-miterlimit:4;stroke-dasharray:none;stroke-opacity:1"
         id="path118" /><path
         d="m 4781.95,2163.01 c 0,-65.94 28.6,-83.48 51.57,-83.48 27.46,0 50.93,23.2 50.93,55.82 0,31.33 -21.99,55.08 -49.37,55.08 -16.8,0 -25.94,-12.62 -30.9,-24.45 v 5.93 c 0,62.47 30.59,71.37 43.24,71.37 5.9,0 16.29,-1.48 21.72,-9.88 -3.71,0 -13.59,0 -13.59,-11.13 0,-7.62 5.97,-11.33 11.33,-11.33 4.02,0 11.4,2.22 11.4,11.83 0,14.81 -10.86,26.68 -31.4,26.68 -31.57,0 -64.93,-31.83 -64.93,-86.44 z m 22.74,-22.23 c 0,19.3 7.89,43.99 30.08,43.99 4.02,0 15.35,0 23.04,-15.32 4.42,-9.18 4.42,-21.75 4.42,-33.86 0,-11.84 0,-24.18 -4.18,-33.09 -7.46,-14.84 -18.79,-16.05 -24.53,-16.05 -15.51,0 -22.97,14.8 -24.38,18.51 -4.45,11.6 -4.45,31.37 -4.45,35.82 z"
         style="fill:#000000;fill-opacity:1;fill-rule:nonzero;stroke:none"
         id="path120" /><path
         d="m 5404.3,2294.69 v 28.04"
         style="fill:none;stroke:#000000;stroke-width:5.61341;stroke-linecap:butt;stroke-linejoin:round;stroke-miterlimit:4;stroke-dasharray:none;stroke-opacity:1"
         id="path122" /><path
         d="m 5352.97,2122.23 c 0,-26.14 25.15,-42.7 51.13,-42.7 27.89,0 51.37,20.47 51.37,46.92 0,8.9 -2.81,20.03 -12.15,30.39 -4.65,5.19 -8.63,7.65 -24.41,17.54 17.73,9.14 29.88,21.95 29.88,38.28 0,22.73 -21.99,36.79 -44.49,36.79 -24.69,0 -44.69,-18.28 -44.69,-41.21 0,-4.49 0.47,-15.62 10.86,-27.19 2.73,-2.96 11.8,-9.14 18.01,-13.35 -14.3,-7.19 -35.51,-20.98 -35.51,-45.47 z m 12.34,0 c 0,14.37 7.89,30.15 28.91,41.75 l 30.35,-19.25 c 6.88,-4.69 18.48,-12.11 18.48,-27.15 0,-18.28 -18.48,-31.13 -38.75,-31.13 -21.25,0 -38.99,15.31 -38.99,35.78 z m 5.16,95.62 c 0,15.08 16.05,25.43 33.63,25.43 18.01,0 33.79,-12.81 33.79,-30.62 0,-14.07 -9.61,-25.94 -24.41,-34.57 l -30.67,19.76 c -11.36,7.38 -12.34,15.78 -12.34,20 z"
         style="fill:#000000;fill-opacity:1;fill-rule:nonzero;stroke:none"
         id="path124" /><path
         d="m 5975.31,2294.69 v 28.04"
         style="fill:none;stroke:#000000;stroke-width:5.61341;stroke-linecap:butt;stroke-linejoin:round;stroke-miterlimit:4;stroke-dasharray:none;stroke-opacity:1"
         id="path126" /><path
         d="m 5873.79,2225.98 c 4.96,0 19.49,0 32.34,6.44 v -127.93 c 0,-8.9 -0.7,-11.87 -23.01,-11.87 h -7.85 v -7.66 c 8.64,0.74 30.16,0.74 40,0.74 9.85,0 31.41,0 40.04,-0.74 v 7.66 h -7.93 c -22.26,0 -22.93,2.73 -22.93,11.87 v 138.56 c 0,5.93 0,6.4 -5.74,6.4 -15.27,-15.78 -37.03,-15.78 -44.92,-15.78 z"
         style="fill:#000000;fill-opacity:1;fill-rule:nonzero;stroke:none"
         id="path128" /><path
         d="m 5984.96,2163.98 c 0,-18.51 0.94,-40.74 11.06,-59.49 10.66,-20.04 28.67,-24.96 40.78,-24.96 13.32,0 32.11,5.2 42.93,28.67 7.93,17 9.18,36.25 9.18,55.78 0,19.77 -1.25,39.54 -9.89,57.82 -11.36,23.71 -31.6,27.65 -41.99,27.65 -14.8,0 -32.81,-6.4 -42.97,-29.37 -7.89,-17.07 -9.1,-36.33 -9.1,-56.1 z m 20.47,2.97 c 0,15.78 0,32.11 1.99,45.43 4.69,29.42 23.17,31.64 29.38,31.64 8.16,0 24.45,-4.45 29.14,-28.9 2.5,-13.83 2.5,-32.58 2.5,-48.17 0,-18.51 0,-35.31 -2.74,-51.13 -3.71,-23.44 -17.77,-30.86 -28.9,-30.86 -9.61,0 -24.22,6.17 -28.68,29.88 -2.69,14.81 -2.69,37.54 -2.69,52.11 z"
         style="fill:#000000;fill-opacity:1;fill-rule:nonzero;stroke:none"
         id="path130" /><path
         d="m 3120.39,206.762 h 28.05"
         style="fill:none;stroke:#000000;stroke-width:5.61341;stroke-linecap:butt;stroke-linejoin:round;stroke-miterlimit:4;stroke-dasharray:none;stroke-opacity:1"
         id="path132" /><path
         d="m 2586.37,183.551 c 0,-2.461 4.18,-2.731 6.4,-2.731 h 1.25 c 1.96,0 3.68,0.27 5.67,0.27 h 139.1 c 1.41,0 2.66,-0.27 4.14,-0.27 h 0.51 c 2.73,0 6.44,0.27 6.44,2.969 0,3.203 -3.98,2.691 -7.22,2.691 h -151.33 c -2.81,0 -4.96,-0.429 -4.96,-2.929 z"
         style="fill:#000000;fill-opacity:1;fill-rule:nonzero;stroke:none"
         id="path134" /><path
         d="m 2774.1,201.09 c 0,-18.508 0.94,-40.738 11.06,-59.531 10.66,-20 28.67,-24.957 40.82,-24.957 13.28,0 32.07,5.238 42.93,28.668 7.89,17.031 9.14,36.289 9.14,55.82 0,19.769 -1.25,39.531 -9.93,57.82 -11.32,23.672 -31.56,27.61 -41.95,27.61 -14.8,0 -32.81,-6.399 -42.97,-29.372 -7.89,-17.027 -9.1,-36.289 -9.1,-56.058 z m 20.47,2.969 c 0,15.781 0,32.113 1.99,45.433 4.69,29.418 23.17,31.637 29.42,31.637 8.12,0 24.41,-4.488 29.1,-28.899 2.5,-13.871 2.5,-32.621 2.5,-48.171 0,-18.508 0,-35.309 -2.74,-51.129 -3.71,-23.481 -17.77,-30.86 -28.86,-30.86 -9.65,0 -24.26,6.172 -28.75,29.84 -2.66,14.852 -2.66,37.539 -2.66,52.149 z"
         style="fill:#000000;fill-opacity:1;fill-rule:nonzero;stroke:none"
         id="path136" /><path
         d="m 2908.91,135.121 c 0,-6.641 5.43,-13.051 13.12,-13.051 6.45,0 12.85,5.43 12.85,13.051 0,7.688 -5.97,12.848 -12.85,12.848 -7.69,0 -13.12,-6.168 -13.12,-12.848 z"
         style="fill:#000000;fill-opacity:1;fill-rule:nonzero;stroke:none"
         id="path138" /><path
         d="m 2966.99,159.34 c 0,-26.18 25.2,-42.738 51.1,-42.738 27.89,0 51.4,20.507 51.4,46.949 0,8.91 -2.73,20 -12.11,30.359 -4.72,5.192 -8.67,7.692 -24.45,17.57 17.77,9.141 29.88,21.961 29.88,38.29 0,22.73 -21.99,36.75 -44.45,36.75 -24.73,0 -44.69,-18.239 -44.69,-41.211 0,-4.489 0.43,-15.579 10.82,-27.149 2.74,-3 11.88,-9.18 18.05,-13.359 -14.34,-7.18 -35.55,-21.012 -35.55,-45.461 z m 12.31,0 c 0,14.332 7.93,30.109 28.94,41.75 l 30.35,-19.25 c 6.92,-4.731 18.56,-12.11 18.56,-27.192 0,-18.277 -18.56,-31.128 -38.79,-31.128 -21.25,0 -39.06,15.312 -39.06,35.82 z m 5.19,95.582 c 0,15.078 16.06,25.43 33.6,25.43 18.04,0 33.79,-12.813 33.79,-30.582 0,-14.11 -9.61,-25.938 -24.38,-34.61 l -30.7,19.762 c -11.29,7.418 -12.31,15.777 -12.31,20 z"
         style="fill:#000000;fill-opacity:1;fill-rule:nonzero;stroke:none"
         id="path140" /><path
         d="m 3120.39,728.75 h 28.05"
         style="fill:none;stroke:#000000;stroke-width:5.61341;stroke-linecap:butt;stroke-linejoin:round;stroke-miterlimit:4;stroke-dasharray:none;stroke-opacity:1"
         id="path142" /><path
         d="m 2586.37,705.551 c 0,-2.461 4.18,-2.742 6.4,-2.742 h 1.25 c 1.96,0 3.68,0.281 5.67,0.281 h 139.1 c 1.41,0 2.66,-0.281 4.14,-0.281 h 0.51 c 2.73,0 6.44,0.281 6.44,2.972 0,3.199 -3.98,2.699 -7.22,2.699 h -151.33 c -2.81,0 -4.96,-0.468 -4.96,-2.929 z"
         style="fill:#000000;fill-opacity:1;fill-rule:nonzero;stroke:none"
         id="path144" /><path
         d="m 2774.1,723.09 c 0,-18.559 0.94,-40.789 11.06,-59.539 10.66,-20.031 28.67,-24.961 40.82,-24.961 13.28,0 32.07,5.199 42.93,28.68 7.89,17.031 9.14,36.281 9.14,55.82 0,19.719 -1.25,39.492 -9.93,57.769 -11.32,23.711 -31.56,27.661 -41.95,27.661 -14.8,0 -32.81,-6.411 -42.97,-29.379 -7.89,-17.071 -9.1,-36.332 -9.1,-56.051 z m 20.47,2.961 c 0,15.789 0,32.109 1.99,45.398 4.69,29.41 23.17,31.672 29.42,31.672 8.12,0 24.41,-4.492 29.1,-28.902 2.5,-13.867 2.5,-32.617 2.5,-48.168 0,-18.551 0,-35.309 -2.74,-51.129 -3.71,-23.473 -17.77,-30.902 -28.86,-30.902 -9.65,0 -24.26,6.179 -28.75,29.89 -2.66,14.801 -2.66,37.539 -2.66,52.141 z"
         style="fill:#000000;fill-opacity:1;fill-rule:nonzero;stroke:none"
         id="path146" /><path
         d="m 2908.91,657.109 c 0,-6.679 5.43,-13.089 13.12,-13.089 6.45,0 12.85,5.429 12.85,13.089 0,7.692 -5.97,12.852 -12.85,12.852 -7.69,0 -13.12,-6.172 -13.12,-12.852 z"
         style="fill:#000000;fill-opacity:1;fill-rule:nonzero;stroke:none"
         id="path148" /><path
         d="m 2966.99,722.07 c 0,-65.941 28.6,-83.48 51.6,-83.48 27.39,0 50.9,23.25 50.9,55.82 0,31.371 -21.99,55.082 -49.41,55.082 -16.8,0 -25.94,-12.613 -30.86,-24.453 v 5.941 c 0,62.5 30.55,71.36 43.2,71.36 5.9,0 16.29,-1.481 21.76,-9.879 -3.71,0 -13.63,0 -13.63,-11.129 0,-7.621 5.97,-11.332 11.33,-11.332 4.02,0 11.44,2.23 11.44,11.84 0,14.84 -10.9,26.68 -31.44,26.68 -31.57,0 -64.89,-31.84 -64.89,-86.45 z m 22.74,-22.23 c 0,19.301 7.85,43.992 30.04,43.992 4.02,0 15.35,0 23.04,-15.312 4.42,-9.141 4.42,-21.719 4.42,-33.872 0,-11.839 0,-24.179 -4.18,-33.089 -7.46,-14.84 -18.75,-16.047 -24.46,-16.047 -15.58,0 -23,14.797 -24.45,18.508 -4.41,11.601 -4.41,31.371 -4.41,35.82 z"
         style="fill:#000000;fill-opacity:1;fill-rule:nonzero;stroke:none"
         id="path150" /><path
         d="m 3120.39,1250.7 h 28.05"
         style="fill:none;stroke:#000000;stroke-width:5.61341;stroke-linecap:butt;stroke-linejoin:round;stroke-miterlimit:4;stroke-dasharray:none;stroke-opacity:1"
         id="path152" /><path
         d="m 2586.37,1227.27 c 0,-2.47 4.18,-2.74 6.4,-2.74 h 1.25 c 1.96,0 3.68,0.27 5.67,0.27 h 139.1 c 1.41,0 2.66,-0.27 4.14,-0.27 h 0.51 c 2.73,0 6.44,0.27 6.44,2.97 0,3.2 -3.98,2.7 -7.22,2.7 h -151.33 c -2.81,0 -4.96,-0.47 -4.96,-2.93 z"
         style="fill:#000000;fill-opacity:1;fill-rule:nonzero;stroke:none"
         id="path154" /><path
         d="m 2774.1,1244.77 c 0,-18.52 0.94,-40.75 11.06,-59.5 10.66,-20.04 28.67,-24.96 40.82,-24.96 13.28,0 32.07,5.2 42.93,28.67 7.89,17 9.14,36.25 9.14,55.79 0,19.76 -1.25,39.53 -9.93,57.81 -11.32,23.71 -31.56,27.65 -41.95,27.65 -14.8,0 -32.81,-6.4 -42.97,-29.37 -7.89,-17.07 -9.1,-36.33 -9.1,-56.09 z m 20.47,2.96 c 0,15.79 0,32.11 1.99,45.43 4.69,29.42 23.17,31.64 29.42,31.64 8.12,0 24.41,-4.45 29.1,-28.9 2.5,-13.83 2.5,-32.62 2.5,-48.17 0,-18.51 0,-35.31 -2.74,-51.13 -3.71,-23.44 -17.77,-30.86 -28.86,-30.86 -9.65,0 -24.26,6.17 -28.75,29.88 -2.66,14.81 -2.66,37.54 -2.66,52.11 z"
         style="fill:#000000;fill-opacity:1;fill-rule:nonzero;stroke:none"
         id="path156" /><path
         d="m 2908.91,1178.83 c 0,-6.68 5.43,-13.09 13.12,-13.09 6.45,0 12.85,5.43 12.85,13.09 0,7.65 -5.97,12.85 -12.85,12.85 -7.69,0 -13.12,-6.17 -13.12,-12.85 z"
         style="fill:#000000;fill-opacity:1;fill-rule:nonzero;stroke:none"
         id="path158" /><path
         d="m 2963.48,1206.48 h 65.74 V 1185 c 0,-8.87 -0.51,-11.6 -18.79,-11.6 h -5.16 v -7.66 c 10.12,0.74 22.97,0.74 33.32,0.74 10.36,0 23.48,0 33.6,-0.74 v 7.66 h -5.16 c -18.32,0 -18.83,2.73 -18.83,11.6 v 21.48 h 24.73 v 7.66 h -24.73 v 112.38 c 0,4.93 0,6.45 -3.9,6.45 -2.27,0 -2.97,0 -5,-2.97 l -75.82,-115.86 z m 6.95,7.66 60.27,92.15 v -92.15 z"
         style="fill:#000000;fill-opacity:1;fill-rule:nonzero;stroke:none"
         id="path160" /><path
         d="m 3120.39,1772.7 h 28.05"
         style="fill:none;stroke:#000000;stroke-width:5.61341;stroke-linecap:butt;stroke-linejoin:round;stroke-miterlimit:4;stroke-dasharray:none;stroke-opacity:1"
         id="path162" /><path
         d="m 2586.37,1749.49 c 0,-2.46 4.18,-2.73 6.4,-2.73 h 1.25 c 1.96,0 3.68,0.27 5.67,0.27 h 139.1 c 1.41,0 2.66,-0.27 4.14,-0.27 h 0.51 c 2.73,0 6.44,0.27 6.44,2.97 0,3.2 -3.98,2.69 -7.22,2.69 h -151.33 c -2.81,0 -4.96,-0.43 -4.96,-2.93 z"
         style="fill:#000000;fill-opacity:1;fill-rule:nonzero;stroke:none"
         id="path164" /><path
         d="m 2774.1,1767.03 c 0,-18.51 0.94,-40.74 11.06,-59.53 10.66,-20 28.67,-24.96 40.82,-24.96 13.28,0 32.07,5.23 42.93,28.67 7.89,17.03 9.14,36.29 9.14,55.82 0,19.77 -1.25,39.53 -9.93,57.81 -11.32,23.68 -31.56,27.62 -41.95,27.62 -14.8,0 -32.81,-6.41 -42.97,-29.37 -7.89,-17.04 -9.1,-36.29 -9.1,-56.06 z m 20.47,2.97 c 0,15.78 0,32.11 1.99,45.43 4.69,29.41 23.17,31.64 29.42,31.64 8.12,0 24.41,-4.49 29.1,-28.91 2.5,-13.86 2.5,-32.61 2.5,-48.16 0,-18.52 0,-35.31 -2.74,-51.13 -3.71,-23.48 -17.77,-30.86 -28.86,-30.86 -9.65,0 -24.26,6.17 -28.75,29.84 -2.66,14.85 -2.66,37.54 -2.66,52.15 z"
         style="fill:#000000;fill-opacity:1;fill-rule:nonzero;stroke:none"
         id="path166" /><path
         d="m 2908.91,1701.05 c 0,-6.64 5.43,-13.04 13.12,-13.04 6.45,0 12.85,5.43 12.85,13.04 0,7.7 -5.97,12.86 -12.85,12.86 -7.69,0 -13.12,-6.18 -13.12,-12.86 z"
         style="fill:#000000;fill-opacity:1;fill-rule:nonzero;stroke:none"
         id="path168" /><path
         d="m 2968.91,1688.01 h 91.64 l 6.95,42.97 h -6.17 c -1.21,-7.43 -2.97,-18.28 -5.43,-22 -1.72,-1.95 -18.01,-1.95 -23.48,-1.95 h -44.45 l 26.17,25.43 c 38.52,34.06 53.36,47.42 53.36,72.11 0,28.13 -22.23,47.89 -52.38,47.89 -27.89,0 -46.21,-22.69 -46.21,-44.69 0,-13.82 12.38,-13.82 13.12,-13.82 4.22,0 12.85,2.96 12.85,13.08 0,6.41 -4.45,12.85 -13.08,12.85 -1.96,0 -2.5,0 -3.21,-0.27 5.67,16.05 18.99,25.23 33.36,25.23 22.43,0 33.05,-20 33.05,-40.27 0,-19.77 -12.38,-39.3 -25.94,-54.61 l -47.42,-52.81 c -2.73,-2.74 -2.73,-3.2 -2.73,-9.14 z"
         style="fill:#000000;fill-opacity:1;fill-rule:nonzero;stroke:none"
         id="path170" /><path
         d="m 3120.39,2294.69 h 28.05"
         style="fill:none;stroke:#000000;stroke-width:5.61341;stroke-linecap:butt;stroke-linejoin:round;stroke-miterlimit:4;stroke-dasharray:none;stroke-opacity:1"
         id="path172" /><path
         d="m 3120.39,2816.64 h 28.05"
         style="fill:none;stroke:#000000;stroke-width:5.61341;stroke-linecap:butt;stroke-linejoin:round;stroke-miterlimit:4;stroke-dasharray:none;stroke-opacity:1"
         id="path174" /><path
         d="m 2774.57,2810.98 c 0,-18.52 0.98,-40.75 11.13,-59.5 10.63,-20.03 28.6,-24.96 40.71,-24.96 13.32,0 32.11,5.2 42.97,28.68 7.89,16.99 9.14,36.25 9.14,55.78 0,19.76 -1.25,39.53 -9.85,57.81 -11.33,23.71 -31.6,27.66 -41.99,27.66 -14.84,0 -32.85,-6.41 -42.97,-29.38 -7.89,-17.07 -9.14,-36.33 -9.14,-56.09 z m 20.51,2.97 c 0,15.78 0,32.1 1.95,45.43 4.73,29.41 23.24,31.64 29.38,31.64 8.2,0 24.49,-4.46 29.14,-28.91 2.5,-13.83 2.5,-32.62 2.5,-48.16 0,-18.52 0,-35.32 -2.74,-51.14 -3.71,-23.43 -17.73,-30.86 -28.9,-30.86 -9.61,0 -24.18,6.17 -28.64,29.89 -2.69,14.8 -2.69,37.54 -2.69,52.11 z"
         style="fill:#000000;fill-opacity:1;fill-rule:nonzero;stroke:none"
         id="path176" /><path
         d="m 2909.38,2745.04 c 0,-6.68 5.5,-13.09 13.12,-13.09 6.41,0 12.85,5.43 12.85,13.09 0,7.66 -5.97,12.85 -12.85,12.85 -7.62,0 -13.12,-6.17 -13.12,-12.85 z"
         style="fill:#000000;fill-opacity:1;fill-rule:nonzero;stroke:none"
         id="path178" /><path
         d="m 2969.45,2731.95 h 91.57 l 6.99,42.97 h -6.21 c -1.25,-7.38 -2.93,-18.28 -5.39,-21.99 -1.76,-1.95 -18.05,-1.95 -23.48,-1.95 h -44.45 l 26.17,25.43 c 38.55,34.06 53.36,47.42 53.36,72.11 0,28.16 -22.23,47.93 -52.42,47.93 -27.89,0 -46.14,-22.7 -46.14,-44.73 0,-13.79 12.35,-13.79 13.09,-13.79 4.18,0 12.85,2.93 12.85,13.09 0,6.4 -4.45,12.85 -13.12,12.85 -1.96,0 -2.43,0 -3.17,-0.28 5.63,16.06 18.95,25.2 33.32,25.2 22.46,0 33.09,-20 33.09,-40.27 0,-19.73 -12.39,-39.26 -25.94,-54.57 l -47.42,-52.86 c -2.7,-2.73 -2.7,-3.2 -2.7,-9.14 z"
         style="fill:#000000;fill-opacity:1;fill-rule:nonzero;stroke:none"
         id="path180" /><path
         d="m 3120.39,3338.63 h 28.05"
         style="fill:none;stroke:#000000;stroke-width:5.61341;stroke-linecap:butt;stroke-linejoin:round;stroke-miterlimit:4;stroke-dasharray:none;stroke-opacity:1"
         id="path182" /><path
         d="m 2774.57,3332.7 c 0,-18.52 0.98,-40.75 11.13,-59.5 10.63,-20.04 28.6,-25 40.71,-25 13.32,0 32.11,5.24 42.97,28.68 7.89,17.03 9.14,36.28 9.14,55.82 0,19.76 -1.25,39.53 -9.85,57.81 -11.33,23.71 -31.6,27.61 -41.99,27.61 -14.84,0 -32.85,-6.4 -42.97,-29.37 -7.89,-17.03 -9.14,-36.29 -9.14,-56.05 z m 20.51,2.96 c 0,15.79 0,32.11 1.95,45.43 4.73,29.42 23.24,31.64 29.38,31.64 8.2,0 24.49,-4.49 29.14,-28.9 2.5,-13.87 2.5,-32.62 2.5,-48.17 0,-18.51 0,-35.31 -2.74,-51.13 -3.71,-23.48 -17.73,-30.86 -28.9,-30.86 -9.61,0 -24.18,6.17 -28.64,29.85 -2.69,14.84 -2.69,37.57 -2.69,52.14 z"
         style="fill:#000000;fill-opacity:1;fill-rule:nonzero;stroke:none"
         id="path184" /><path
         d="m 2909.38,3266.76 c 0,-6.68 5.5,-13.09 13.12,-13.09 6.41,0 12.85,5.43 12.85,13.09 0,7.65 -5.97,12.85 -12.85,12.85 -7.62,0 -13.12,-6.21 -13.12,-12.85 z"
         style="fill:#000000;fill-opacity:1;fill-rule:nonzero;stroke:none"
         id="path186" /><path
         d="m 2963.95,3294.41 h 65.78 v -21.48 c 0,-8.91 -0.51,-11.64 -18.79,-11.64 h -5.2 v -7.62 c 10.12,0.71 22.97,0.71 33.36,0.71 10.39,0 23.48,0 33.56,-0.71 v 7.62 h -5.16 c -18.28,0 -18.79,2.73 -18.79,11.64 v 21.48 h 24.69 v 7.62 h -24.69 v 112.38 c 0,4.97 0,6.45 -3.98,6.45 -2.19,0 -2.93,0 -4.89,-2.97 l -75.89,-115.86 z m 6.95,7.62 60.27,92.19 v -92.19 z"
         style="fill:#000000;fill-opacity:1;fill-rule:nonzero;stroke:none"
         id="path188" /><path
         d="m 3120.39,3860.62 h 28.05"
         style="fill:none;stroke:#000000;stroke-width:5.61341;stroke-linecap:butt;stroke-linejoin:round;stroke-miterlimit:4;stroke-dasharray:none;stroke-opacity:1"
         id="path190" /><path
         d="m 2774.57,3854.96 c 0,-18.55 0.98,-40.78 11.13,-59.53 10.63,-20.04 28.6,-24.96 40.71,-24.96 13.32,0 32.11,5.19 42.97,28.67 7.89,17.03 9.14,36.29 9.14,55.82 0,19.73 -1.25,39.49 -9.85,57.77 -11.33,23.72 -31.6,27.66 -41.99,27.66 -14.84,0 -32.85,-6.41 -42.97,-29.37 -7.89,-17.07 -9.14,-36.33 -9.14,-56.06 z m 20.51,2.97 c 0,15.78 0,32.11 1.95,45.39 4.73,29.41 23.24,31.68 29.38,31.68 8.2,0 24.49,-4.49 29.14,-28.91 2.5,-13.86 2.5,-32.61 2.5,-48.16 0,-18.55 0,-35.31 -2.74,-51.13 -3.71,-23.48 -17.73,-30.9 -28.9,-30.9 -9.61,0 -24.18,6.17 -28.64,29.88 -2.69,14.81 -2.69,37.54 -2.69,52.15 z"
         style="fill:#000000;fill-opacity:1;fill-rule:nonzero;stroke:none"
         id="path192" /><path
         d="m 2909.38,3788.98 c 0,-6.68 5.5,-13.08 13.12,-13.08 6.41,0 12.85,5.43 12.85,13.08 0,7.7 -5.97,12.86 -12.85,12.86 -7.62,0 -13.12,-6.18 -13.12,-12.86 z"
         style="fill:#000000;fill-opacity:1;fill-rule:nonzero;stroke:none"
         id="path194" /><path
         d="m 2967.46,3853.95 c 0,-65.94 28.63,-83.48 51.6,-83.48 27.46,0 50.9,23.24 50.9,55.82 0,31.37 -21.99,55.08 -49.41,55.08 -16.76,0 -25.9,-12.62 -30.86,-24.46 v 5.94 c 0,62.5 30.62,71.37 43.24,71.37 5.9,0 16.29,-1.49 21.72,-9.88 -3.71,0 -13.63,0 -13.63,-11.14 0,-7.61 6.01,-11.32 11.4,-11.32 3.99,0 11.37,2.22 11.37,11.83 0,14.84 -10.86,26.68 -31.37,26.68 -31.6,0 -64.96,-31.84 -64.96,-86.44 z m 22.7,-22.23 c 0,19.3 7.89,43.98 30.15,43.98 3.99,0 15.28,0 23.01,-15.31 4.38,-9.14 4.38,-21.72 4.38,-33.87 0,-11.83 0,-24.18 -4.18,-33.08 -7.39,-14.85 -18.79,-16.06 -24.46,-16.06 -15.58,0 -22.97,14.81 -24.41,18.52 -4.49,11.6 -4.49,31.37 -4.49,35.82 z"
         style="fill:#000000;fill-opacity:1;fill-rule:nonzero;stroke:none"
         id="path196" /><path
         d="m 3120.39,4382.58 h 28.05"
         style="fill:none;stroke:#000000;stroke-width:5.61341;stroke-linecap:butt;stroke-linejoin:round;stroke-miterlimit:4;stroke-dasharray:none;stroke-opacity:1"
         id="path198" /><path
         d="m 2774.57,4376.91 c 0,-18.51 0.98,-40.74 11.13,-59.49 10.63,-20.04 28.6,-24.96 40.71,-24.96 13.32,0 32.11,5.2 42.97,28.67 7.89,16.99 9.14,36.25 9.14,55.78 0,19.77 -1.25,39.54 -9.85,57.82 -11.33,23.71 -31.6,27.65 -41.99,27.65 -14.84,0 -32.85,-6.4 -42.97,-29.37 -7.89,-17.07 -9.14,-36.33 -9.14,-56.1 z m 20.51,2.97 c 0,15.78 0,32.11 1.95,45.43 4.73,29.42 23.24,31.64 29.38,31.64 8.2,0 24.49,-4.45 29.14,-28.9 2.5,-13.83 2.5,-32.62 2.5,-48.17 0,-18.51 0,-35.31 -2.74,-51.13 -3.71,-23.44 -17.73,-30.86 -28.9,-30.86 -9.61,0 -24.18,6.17 -28.64,29.88 -2.69,14.81 -2.69,37.54 -2.69,52.11 z"
         style="fill:#000000;fill-opacity:1;fill-rule:nonzero;stroke:none"
         id="path200" /><path
         d="m 2909.38,4310.98 c 0,-6.68 5.5,-13.09 13.12,-13.09 6.41,0 12.85,5.43 12.85,13.09 0,7.65 -5.97,12.85 -12.85,12.85 -7.62,0 -13.12,-6.17 -13.12,-12.85 z"
         style="fill:#000000;fill-opacity:1;fill-rule:nonzero;stroke:none"
         id="path202" /><path
         d="m 2967.46,4335.16 c 0,-26.18 25.2,-42.7 51.13,-42.7 27.93,0 51.37,20.47 51.37,46.92 0,8.9 -2.73,20.03 -12.11,30.35 -4.65,5.23 -8.63,7.69 -24.41,17.57 17.73,9.15 29.84,21.96 29.84,38.29 0,22.73 -21.99,36.79 -44.45,36.79 -24.69,0 -44.69,-18.28 -44.69,-41.25 0,-4.45 0.47,-15.58 10.86,-27.15 2.7,-2.96 11.8,-9.14 18.01,-13.36 -14.3,-7.18 -35.55,-20.97 -35.55,-45.46 z m 12.38,0 c 0,14.37 7.86,30.15 28.87,41.75 l 30.39,-19.25 c 6.88,-4.69 18.52,-12.11 18.52,-27.15 0,-18.32 -18.52,-31.17 -38.79,-31.17 -21.21,0 -38.99,15.35 -38.99,35.82 z m 5.16,95.58 c 0,15.12 16.02,25.43 33.59,25.43 18.05,0 33.83,-12.81 33.83,-30.58 0,-14.11 -9.61,-25.94 -24.45,-34.57 l -30.63,19.76 c -11.36,7.38 -12.34,15.78 -12.34,19.96 z"
         style="fill:#000000;fill-opacity:1;fill-rule:nonzero;stroke:none"
         id="path204" /><path
         d="M 3120.39,206.762 V 4382.58"
         style="fill:none;stroke:#000000;stroke-width:11.2268;stroke-linecap:square;stroke-linejoin:miter;stroke-miterlimit:4;stroke-dasharray:none;stroke-opacity:1"
         id="path206" /><path
         d="M 265.469,2294.69 H 5975.31"
         style="fill:none;stroke:#000000;stroke-width:11.2268;stroke-linecap:square;stroke-linejoin:miter;stroke-miterlimit:4;stroke-dasharray:none;stroke-opacity:1"
         id="path208" /></g></g></svg>
