<?xml version="1.0" encoding="UTF-8" standalone="no"?>
<!-- Created with Inkscape (http://www.inkscape.org/) -->

<svg
   version="1.1"
   id="svg2"
   xml:space="preserve"
   width="606.66669"
   height="293.33334"
   viewBox="0 0 606.66669 293.33334"
   sodipodi:docname="ball-beam.svg"
   inkscape:version="1.1.2 (1:1.1+202202050950+0a00cf5339)"
   xmlns:inkscape="http://www.inkscape.org/namespaces/inkscape"
   xmlns:sodipodi="http://sodipodi.sourceforge.net/DTD/sodipodi-0.dtd"
   xmlns="http://www.w3.org/2000/svg"
   xmlns:svg="http://www.w3.org/2000/svg"><defs
     id="defs6" /><sodipodi:namedview
     id="namedview4"
     pagecolor="#ffffff"
     bordercolor="#999999"
     borderopacity="1"
     inkscape:pageshadow="0"
     inkscape:pageopacity="0"
     inkscape:pagecheckerboard="0"
     showgrid="false"
     inkscape:zoom="1.0928571"
     inkscape:cx="558.16995"
     inkscape:cy="93.333336"
     inkscape:window-width="2560"
     inkscape:window-height="1413"
     inkscape:window-x="2560"
     inkscape:window-y="27"
     inkscape:window-maximized="0"
     inkscape:current-layer="g8" /><g
     id="g8"
     inkscape:groupmode="layer"
     inkscape:label="ink_ext_XXXXXX"
     transform="matrix(1.3333333,0,0,-1.3333333,0,293.33333)"><path
       d="M 0.460938,40.816 450.563,161.418 454.484,146.786 4.38281,26.1793 Z"
       style="fill:none;stroke:#000000;stroke-width:0.749999;stroke-linecap:butt;stroke-linejoin:miter;stroke-miterlimit:4;stroke-dasharray:none;stroke-opacity:1"
       id="path12" /><path
       d="m 214.211,126.598 8.343,2.233 7.129,-26.597 -8.343,-2.2379 z"
       style="fill:none;stroke:#000000;stroke-width:0.749999;stroke-linecap:butt;stroke-linejoin:miter;stroke-miterlimit:4;stroke-dasharray:none;stroke-opacity:1"
       id="path14" /><path
       d="m 228.906,130.742 c 1.567,-5.84 -1.898,-11.844 -7.742,-13.41 -5.84,-1.562 -11.844,1.902 -13.41,7.742 -1.563,5.844 1.902,11.848 7.742,13.41 5.844,1.567 11.848,-1.898 13.41,-7.742 z"
       style="fill:#fffffc;fill-opacity:1;fill-rule:nonzero;stroke:none;stroke-width:0.1"
       id="path16" /><path
       d="m 228.906,130.743 c 1.567,-5.84 -1.898,-11.845 -7.742,-13.411 -5.839,-1.562 -11.844,1.902 -13.41,7.743 -1.562,5.843 1.902,11.847 7.742,13.409 5.844,1.566 11.847,-1.898 13.41,-7.741 z"
       style="fill:none;stroke:#000000;stroke-width:0.749999;stroke-linecap:butt;stroke-linejoin:miter;stroke-miterlimit:4;stroke-dasharray:none;stroke-opacity:1"
       id="path18" /><path
       d="m 422.617,192.266 c 5.274,-19.684 -6.41,-39.918 -26.094,-45.192 -19.683,-5.273 -39.918,6.406 -45.191,26.094 -5.277,19.684 6.406,39.918 26.09,45.191 19.687,5.274 39.918,-6.406 45.195,-26.093 z"
       style="fill:#fffffc;fill-opacity:1;fill-rule:nonzero;stroke:none;stroke-width:0.1"
       id="path20" /><path
       d="m 422.618,192.266 c 5.273,-19.684 -6.411,-39.918 -26.095,-45.192 -19.683,-5.273 -39.917,6.406 -45.191,26.094 -5.278,19.683 6.406,39.918 26.089,45.191 19.688,5.273 39.919,-6.406 45.197,-26.093 z"
       style="fill:none;stroke:#000000;stroke-width:0.749999;stroke-linecap:butt;stroke-linejoin:miter;stroke-miterlimit:4;stroke-dasharray:none;stroke-opacity:1"
       id="path22" /><path
       d="m 230.027,147.887 c 8.481,-4.899 12.993,-14.575 11.293,-24.215 -1.699,-9.645 -9.25,-17.192 -18.89,-18.895 -9.645,-1.699 -19.321,2.813 -24.215,11.293"
       style="fill:none;stroke:#000000;stroke-width:0.749999;stroke-linecap:butt;stroke-linejoin:miter;stroke-miterlimit:4;stroke-dasharray:none;stroke-opacity:1"
       id="path24" /><path
       d="m 235.309,140.996 -6.149,7.375 9.461,-1.637 c -2.223,-0.972 -3.555,-3.296 -3.312,-5.738 z"
       style="fill:#000000;fill-opacity:1;fill-rule:evenodd;stroke:none;stroke-width:0.1"
       id="path26" /><path
       d="M 218.383,127.715 V 22.5469"
       style="fill:none;stroke:#000000;stroke-width:0.749999;stroke-linecap:butt;stroke-linejoin:miter;stroke-miterlimit:4;stroke-dasharray:2.25, 2.25;stroke-dashoffset:0;stroke-opacity:1"
       id="path28" /><path
       d="M 386.973,182.715 414.262,80.8711"
       style="fill:none;stroke:#000000;stroke-width:0.749999;stroke-linecap:butt;stroke-linejoin:miter;stroke-miterlimit:4;stroke-dasharray:none;stroke-opacity:1"
       id="path30" /><path
       d="M 238.168,54.7109 408.855,100.445"
       style="fill:none;stroke:#000000;stroke-width:0.749999;stroke-linecap:butt;stroke-linejoin:miter;stroke-miterlimit:4;stroke-dasharray:none;stroke-opacity:1"
       id="path32" /><path
       d="m 245.414,56.652 2.121,3.6718 -9.367,-5.6129 10.918,-0.18 z"
       style="fill:#000000;fill-opacity:1;fill-rule:evenodd;stroke:none;stroke-width:0.1"
       id="path34" /><path
       d="m 245.414,56.6523 2.122,3.6723 -9.368,-5.6141 10.918,-0.1792 z"
       style="fill:none;stroke:#000000;stroke-width:0.799999;stroke-linecap:butt;stroke-linejoin:miter;stroke-miterlimit:4;stroke-dasharray:none;stroke-opacity:1"
       id="path36" /><path
       d="m 401.613,98.5039 -2.121,-3.6719 9.363,5.613 -10.917,0.18 z"
       style="fill:#000000;fill-opacity:1;fill-rule:evenodd;stroke:none;stroke-width:0.1"
       id="path38" /><path
       d="m 401.613,98.5035 -2.121,-3.6711 9.364,5.6126 -10.918,0.18 z"
       style="fill:none;stroke:#000000;stroke-width:0.799999;stroke-linecap:butt;stroke-linejoin:miter;stroke-miterlimit:4;stroke-dasharray:none;stroke-opacity:1"
       id="path40" /><path
       d="m 218.277,128.23 c 0,-0.011 -0.011,-0.023 -0.023,-0.023 -0.012,0 -0.024,0.012 -0.024,0.023 0,0.012 0.012,0.02 0.024,0.02 0.012,0 0.023,-0.008 0.023,-0.02 z"
       style="fill:#000000;fill-opacity:1;fill-rule:nonzero;stroke:none;stroke-width:0.1"
       id="path42" /><path
       d="m 218.277,128.23 c 0,-0.011 -0.011,-0.023 -0.023,-0.023 -0.012,0 -0.024,0.012 -0.024,0.023 0,0.012 0.012,0.02 0.024,0.02 0.012,0 0.023,-0.008 0.023,-0.02 z"
       style="fill:none;stroke:#000000;stroke-width:0.749999;stroke-linecap:butt;stroke-linejoin:miter;stroke-miterlimit:4;stroke-dasharray:none;stroke-opacity:1"
       id="path44" /><path
       d="m 218.277,128.23 c 0,-0.011 -0.011,-0.023 -0.023,-0.023 -0.012,0 -0.024,0.012 -0.024,0.023 0,0.012 0.012,0.02 0.024,0.02 0.012,0 0.023,-0.008 0.023,-0.02 z"
       style="fill:#000000;fill-opacity:1;fill-rule:nonzero;stroke:none;stroke-width:0.1"
       id="path46" /><path
       d="m 218.277,128.23 c 0,-0.011 -0.011,-0.023 -0.023,-0.023 -0.012,0 -0.024,0.012 -0.024,0.023 0,0.012 0.012,0.02 0.024,0.02 0.012,0 0.023,-0.008 0.023,-0.02 z"
       style="fill:none;stroke:#000000;stroke-width:0.749999;stroke-linecap:butt;stroke-linejoin:miter;stroke-miterlimit:4;stroke-dasharray:none;stroke-opacity:1"
       id="path48" /><path
       d="M 218.254,128.23 245.066,27.898"
       style="fill:none;stroke:#000000;stroke-width:0.749999;stroke-linecap:butt;stroke-linejoin:miter;stroke-miterlimit:4;stroke-dasharray:none;stroke-opacity:1"
       id="path50" /><path
       d="M 242.422,37.4262 C 234.824,32.1328 226.641,29.402 218.371,29.4059"
       style="fill:none;stroke:#000000;stroke-width:0.749999;stroke-linecap:butt;stroke-linejoin:miter;stroke-miterlimit:4;stroke-dasharray:none;stroke-opacity:1"
       id="path52" /><path
       d="m 236.266,33.1371 -0.743,-4.1762 6.899,8.4653 -10.332,-3.5434 z"
       style="fill:#000000;fill-opacity:1;fill-rule:evenodd;stroke:none;stroke-width:0.1"
       id="path54" /><path
       d="m 236.266,33.1359 -0.743,-4.175 6.899,8.4649 -10.332,-3.5434 z"
       style="fill:none;stroke:#000000;stroke-width:0.799999;stroke-linecap:butt;stroke-linejoin:miter;stroke-miterlimit:4;stroke-dasharray:none;stroke-opacity:1"
       id="path56" /><path
       d="m 334.621,67.7461 c 0,0.1449 -0.094,0.2891 -0.289,0.2891 -0.336,0 -1.594,-1.2071 -2.074,-2.1211 -0.676,1.6879 -1.883,2.1718 -2.899,2.1718 -3.621,0 -7.386,-4.539 -7.386,-9.0308 0,-2.993 1.785,-4.9223 4.054,-4.9223 1.305,0 2.512,0.7223 3.621,1.832 -0.289,-1.0628 -1.3,-5.2148 -1.398,-5.5039 -0.242,-0.8668 -0.484,-0.9648 -2.223,-1.0121 -0.386,0 -0.675,0 -0.675,-0.6289 0,0 0,-0.3398 0.386,-0.3398 0.965,0 2.078,0.098 3.09,0.098 1.016,0 2.125,-0.098 3.188,-0.098 0.144,0 0.531,0 0.531,0.6289 0,0.3398 -0.289,0.3398 -0.82,0.3398 -1.45,0 -1.45,0.1922 -1.45,0.4813 0,0.2418 0.047,0.4371 0.098,0.675 z M 326.125,54.809 c -1.883,0 -1.98,2.3629 -1.98,2.8941 0,1.4957 0.871,4.8278 1.402,6.1328 0.965,2.2692 2.558,3.5743 3.812,3.5743 2.028,0 2.465,-2.5122 2.465,-2.7032 0,-0.1949 -1.691,-6.9531 -1.789,-7.0511 -0.48,-0.8707 -2.219,-2.8469 -3.91,-2.8469 z"
       style="fill:#000000;fill-opacity:1;fill-rule:nonzero;stroke:none;stroke-width:0.1"
       id="path58" /><path
       d="m 341.656,63.566 c 0,0.5789 0,0.5789 -0.629,0.5789 -1.398,-1.3519 -3.332,-1.3519 -4.199,-1.3519 v -0.7731 c 0.484,0 1.93,0 3.09,0.5781 V 51.641 c 0,-0.7269 0,-1.016 -2.125,-1.016 h -0.82 v -0.773 c 0.386,0 3.043,0.0968 3.816,0.0968 0.676,0 3.379,-0.0968 3.859,-0.0968 v 0.773 h -0.82 c -2.172,0 -2.172,0.2891 -2.172,1.016 z"
       style="fill:#000000;fill-opacity:1;fill-rule:nonzero;stroke:none;stroke-width:0.1"
       id="path60" /><path
       d="m 234.418,19.316 c 0,0.141 -0.094,0.282 -0.281,0.282 -0.328,0 -1.547,-1.1718 -2.016,-2.0628 -0.656,1.641 -1.828,2.1097 -2.812,2.1097 -3.516,0 -7.172,-4.407 -7.172,-8.766 0,-2.90585 1.734,-4.78476 3.937,-4.78476 1.266,0 2.438,0.70274 3.516,1.78086 -0.281,-1.03086 -1.266,-5.06289 -1.36,-5.34414 -0.234,-0.84297 -0.468,-0.93672 -2.156,-0.98398 -0.375,0 -0.656,0 -0.656,-0.608989 0,0 0,-0.328907 0.375,-0.328907 0.937,0 2.016,0.094141 3,0.094141 0.984,0 2.062,-0.094141 3.094,-0.094141 0.14,0 0.515,0 0.515,0.610156 0,0.32774 -0.281,0.32774 -0.797,0.32774 -1.406,0 -1.406,0.1871 -1.406,0.46914 0,0.23398 0.047,0.42187 0.094,0.65586 z M 226.168,6.75 c -1.828,0 -1.922,2.30117 -1.922,2.81602 0,1.45388 0.844,4.68788 1.359,5.95388 0.938,2.2031 2.485,3.468 3.704,3.468 1.968,0 2.39,-2.4367 2.39,-2.625 0,-0.1867 -1.64,-6.75001 -1.734,-6.84298 C 229.496,8.67617 227.809,6.75 226.168,6.75 Z"
       style="fill:#000000;fill-opacity:1;fill-rule:nonzero;stroke:none;stroke-width:0.1"
       id="path62" /><path
       d="m 244.812,5.73789 h -0.703 c -0.047,-0.46797 -0.281,-1.68672 -0.562,-1.875 -0.141,-0.13984 -1.735,-0.13984 -2.063,-0.13984 h -3.843 c 2.203,1.92187 2.953,2.53086 4.171,3.51484 1.547,1.21914 3,2.53203 3,4.50001 0,2.532 -2.203,4.082 -4.874,4.082 -2.579,0 -4.36,-1.832 -4.36,-3.7539 0,-1.0308 0.891,-1.1711 1.125,-1.1711 0.469,0 1.078,0.375 1.078,1.125 0,0.375 -0.14,1.125 -1.219,1.125 0.657,1.4531 2.063,1.925 3.047,1.925 2.11,0 3.188,-1.6437 3.188,-3.332 0,-1.82774 -1.313,-3.23399 -1.969,-3.98399 l -5.016,-5.01602 c -0.234,-0.18672 -0.234,-0.23398 -0.234,-0.79687 h 8.625 z"
       style="fill:#000000;fill-opacity:1;fill-rule:nonzero;stroke:none;stroke-width:0.1"
       id="path64" /><path
       d="m 198.332,144.77 c 0.426,-1.579 1.82,-2.61 3.461,-2.61 1.336,0 2.246,0.91 2.852,2.125 0.667,1.395 1.152,3.762 1.152,3.824 0,0.422 -0.305,0.422 -0.426,0.422 -0.422,0 -0.422,-0.179 -0.543,-0.726 -0.547,-2.184 -1.277,-4.793 -2.914,-4.793 -0.789,0 -1.215,0.484 -1.215,1.758 0,0.851 0.485,2.671 0.789,4.066 l 1.094,4.187 c 0.121,0.547 0.484,2 0.668,2.61 0.18,0.91 0.543,2.367 0.543,2.609 0,0.668 -0.543,1.031 -1.09,1.031 -0.183,0 -1.215,-0.062 -1.519,-1.335 -0.727,-2.852 -2.426,-9.649 -2.911,-11.653 -0.062,-0.18 -1.578,-3.273 -4.429,-3.273 -2.004,0 -2.367,1.758 -2.367,3.152 0,2.188 1.093,5.219 2.062,7.891 0.484,1.215 0.668,1.757 0.668,2.488 0,1.699 -1.215,3.156 -3.156,3.156 -3.699,0 -5.098,-5.644 -5.098,-5.949 0,-0.426 0.367,-0.426 0.426,-0.426 0.426,0 0.426,0.125 0.605,0.731 0.973,3.336 2.489,4.793 3.946,4.793 0.363,0 0.972,-0.059 0.972,-1.274 0,-0.91 -0.425,-2.062 -0.668,-2.609 -1.457,-3.883 -2.246,-6.25 -2.246,-8.133 0,-3.699 2.672,-4.672 4.735,-4.672 2.547,0 3.941,1.762 4.609,2.61 z"
       style="fill:#000000;fill-opacity:1;fill-rule:nonzero;stroke:none;stroke-width:0.1"
       id="path66" /></g></svg>
