<?xml version="1.0" encoding="UTF-8" standalone="no"?>
<!-- Created with Inkscape (http://www.inkscape.org/) -->

<svg
   version="1.1"
   id="svg2"
   xml:space="preserve"
   width="1088"
   height="458.66666"
   viewBox="0 0 1088 458.66666"
   sodipodi:docname="optimal-dist_3.svg"
   inkscape:version="1.1.2 (0a00cf5339, 2022-02-04)"
   xmlns:inkscape="http://www.inkscape.org/namespaces/inkscape"
   xmlns:sodipodi="http://sodipodi.sourceforge.net/DTD/sodipodi-0.dtd"
   xmlns="http://www.w3.org/2000/svg"
   xmlns:svg="http://www.w3.org/2000/svg"
   xmlns:ns9="http://www.iki.fi/pav/software/textext/"><defs
     id="defs6"><clipPath
       clipPathUnits="userSpaceOnUse"
       id="clipPath20"><path
         d="m 1081.25,644.41 h 6750 v 2250 h -6750 z"
         id="path18" /></clipPath><g
       id="g1794"><symbol
         overflow="visible"
         id="symbol1756"><path
           style="stroke:none;stroke-width:0"
           d=""
           id="path1754" /></symbol><symbol
         overflow="visible"
         id="symbol1760"><path
           style="stroke:none;stroke-width:0"
           d="M 2.5,-6.921875 1.15625,-5.5625 1.328125,-5.390625 2.5,-6.40625 3.640625,-5.390625 3.8125,-5.5625 Z m 0,0"
           id="path1758" /></symbol><symbol
         overflow="visible"
         id="symbol1764"><path
           style="stroke:none;stroke-width:0"
           d="m 6.84375,-3.265625 c 0.15625,0 0.34375,0 0.34375,-0.1875 C 7.1875,-3.65625 7,-3.65625 6.859375,-3.65625 h -5.96875 c -0.140625,0 -0.328125,0 -0.328125,0.203125 0,0.1875 0.1875,0.1875 0.328125,0.1875 z m 0.015625,1.9375 c 0.140625,0 0.328125,0 0.328125,-0.203125 0,-0.1875 -0.1875,-0.1875 -0.34375,-0.1875 H 0.890625 c -0.140625,0 -0.328125,0 -0.328125,0.1875 0,0.203125 0.1875,0.203125 0.328125,0.203125 z m 0,0"
           id="path1762" /></symbol><symbol
         overflow="visible"
         id="symbol1768"><path
           style="stroke:none;stroke-width:0"
           d="m 4.46875,-2 c 0,-1.1875 -0.8125,-2.1875 -1.890625,-2.1875 -0.46875,0 -0.90625,0.15625 -1.265625,0.515625 V -5.625 c 0.203125,0.0625 0.53125,0.125 0.84375,0.125 1.234375,0 1.9375,-0.90625 1.9375,-1.03125 0,-0.0625 -0.03125,-0.109375 -0.109375,-0.109375 0,0 -0.03125,0 -0.078125,0.03125 C 3.703125,-6.515625 3.21875,-6.3125 2.546875,-6.3125 2.15625,-6.3125 1.6875,-6.390625 1.21875,-6.59375 1.140625,-6.625 1.125,-6.625 1.109375,-6.625 1,-6.625 1,-6.546875 1,-6.390625 V -3.4375 c 0,0.171875 0,0.25 0.140625,0.25 0.078125,0 0.09375,-0.015625 0.140625,-0.078125 C 1.390625,-3.421875 1.75,-3.96875 2.5625,-3.96875 c 0.515625,0 0.765625,0.453125 0.84375,0.640625 0.15625,0.375 0.1875,0.75 0.1875,1.25 0,0.359375 0,0.953125 -0.25,1.375 C 3.109375,-0.3125 2.734375,-0.0625 2.28125,-0.0625 c -0.71875,0 -1.296875,-0.53125 -1.46875,-1.109375 0.03125,0 0.0625,0.015625 0.171875,0.015625 0.328125,0 0.5,-0.25 0.5,-0.484375 0,-0.25 -0.171875,-0.5 -0.5,-0.5 C 0.84375,-2.140625 0.5,-2.0625 0.5,-1.609375 0.5,-0.75 1.1875,0.21875 2.296875,0.21875 3.453125,0.21875 4.46875,-0.734375 4.46875,-2 Z m 0,0"
           id="path1766" /></symbol><symbol
         overflow="visible"
         id="symbol1772"><path
           style="stroke:none;stroke-width:0"
           d=""
           id="path1770" /></symbol><symbol
         overflow="visible"
         id="symbol1776"><path
           style="stroke:none;stroke-width:0"
           d="M 0.453125,1.21875 C 0.375,1.5625 0.34375,1.625 -0.09375,1.625 c -0.109375,0 -0.21875,0 -0.21875,0.1875 0,0.078125 0.046875,0.125 0.125,0.125 0.265625,0 0.5625,-0.03125 0.828125,-0.03125 0.34375,0 0.671875,0.03125 1,0.03125 0.046875,0 0.171875,0 0.171875,-0.203125 C 1.8125,1.625 1.71875,1.625 1.578125,1.625 c -0.5,0 -0.5,-0.0625 -0.5,-0.15625 0,-0.125 0.421875,-1.75 0.484375,-2 0.125,0.296875 0.40625,0.640625 0.921875,0.640625 1.15625,0 2.40625,-1.453125 2.40625,-2.921875 0,-0.9375 -0.578125,-1.59375 -1.328125,-1.59375 -0.5,0 -0.984375,0.359375 -1.3125,0.75 -0.09375,-0.546875 -0.53125,-0.75 -0.890625,-0.75 -0.46875,0 -0.65625,0.390625 -0.734375,0.5625 C 0.4375,-3.5 0.3125,-2.90625 0.3125,-2.875 c 0,0.109375 0.09375,0.109375 0.109375,0.109375 0.109375,0 0.109375,-0.015625 0.171875,-0.234375 0.171875,-0.703125 0.375,-1.1875 0.734375,-1.1875 0.171875,0 0.3125,0.078125 0.3125,0.453125 0,0.234375 -0.03125,0.34375 -0.078125,0.515625 z m 1.75,-4.328125 C 2.265625,-3.375 2.546875,-3.65625 2.71875,-3.8125 c 0.359375,-0.296875 0.640625,-0.375 0.8125,-0.375 0.390625,0 0.640625,0.34375 0.640625,0.9375 0,0.59375 -0.328125,1.734375 -0.515625,2.109375 -0.34375,0.703125 -0.8125,1.03125 -1.1875,1.03125 C 1.8125,-0.109375 1.6875,-0.9375 1.6875,-1 c 0,-0.015625 0,-0.03125 0.03125,-0.15625 z m 0,0"
           id="path1774" /></symbol><symbol
         overflow="visible"
         id="symbol1780"><path
           style="stroke:none;stroke-width:0"
           d="m 2.03125,-0.015625 c 0,-0.65625 -0.25,-1.046875 -0.640625,-1.046875 -0.328125,0 -0.53125,0.25 -0.53125,0.53125 C 0.859375,-0.265625 1.0625,0 1.390625,0 1.5,0 1.640625,-0.046875 1.734375,-0.125 1.765625,-0.15625 1.78125,-0.15625 1.78125,-0.15625 c 0.015625,0 0.015625,0 0.015625,0.140625 0,0.75 -0.34375,1.34375 -0.671875,1.671875 -0.109375,0.109375 -0.109375,0.125 -0.109375,0.15625 0,0.078125 0.046875,0.109375 0.09375,0.109375 0.109375,0 0.921875,-0.765625 0.921875,-1.9375 z m 0,0"
           id="path1778" /></symbol><symbol
         overflow="visible"
         id="symbol1784"><path
           style="stroke:none;stroke-width:0"
           d="m 5.15625,-3.71875 c 0.140625,0 0.5,0 0.5,-0.34375 0,-0.234375 -0.21875,-0.234375 -0.390625,-0.234375 h -2.28125 c -1.5,0 -2.609375,1.640625 -2.609375,2.828125 0,0.875 0.59375,1.578125 1.5,1.578125 1.171875,0 2.5,-1.203125 2.5,-2.734375 0,-0.171875 0,-0.65625 -0.3125,-1.09375 z M 1.890625,-0.109375 C 1.390625,-0.109375 1,-0.46875 1,-1.1875 c 0,-0.296875 0.109375,-1.109375 0.46875,-1.703125 0.421875,-0.6875 1.015625,-0.828125 1.359375,-0.828125 0.828125,0 0.90625,0.65625 0.90625,0.96875 0,0.46875 -0.203125,1.28125 -0.53125,1.796875 -0.390625,0.578125 -0.9375,0.84375 -1.3125,0.84375 z m 0,0"
           id="path1782" /></symbol><symbol
         overflow="visible"
         id="symbol1788"><path
           style="stroke:none;stroke-width:0"
           d=""
           id="path1786" /></symbol><symbol
         overflow="visible"
         id="symbol1792"><path
           style="stroke:none;stroke-width:0"
           d="m 0.515625,0.84375 c -0.046875,0.203125 -0.0625,0.25 -0.328125,0.25 -0.09375,0 -0.1875,0 -0.1875,0.15625 0,0.078125 0.0625,0.109375 0.09375,0.109375 0.171875,0 0.40625,-0.03125 0.59375,-0.03125 0.234375,0 0.5,0.03125 0.734375,0.03125 0.0625,0 0.140625,-0.03125 0.140625,-0.15625 0,-0.109375 -0.09375,-0.109375 -0.1875,-0.109375 -0.15625,0 -0.34375,0 -0.34375,-0.078125 0,-0.03125 0.0625,-0.21875 0.078125,-0.3125 0.09375,-0.375 0.1875,-0.75 0.265625,-1.046875 0.078125,0.140625 0.296875,0.40625 0.71875,0.40625 0.84375,0 1.78125,-0.9375 1.78125,-1.96875 0,-0.8125 -0.5625,-1.171875 -1.03125,-1.171875 -0.4375,0 -0.8125,0.296875 -1,0.5 -0.109375,-0.40625 -0.5,-0.5 -0.71875,-0.5 -0.265625,0 -0.4375,0.1875 -0.546875,0.375 -0.140625,0.234375 -0.25,0.65625 -0.25,0.703125 0,0.078125 0.09375,0.078125 0.125,0.078125 0.09375,0 0.09375,-0.015625 0.140625,-0.203125 0.109375,-0.40625 0.25,-0.75 0.515625,-0.75 0.1875,0 0.234375,0.15625 0.234375,0.34375 0,0.078125 -0.015625,0.15625 -0.03125,0.203125 z M 1.84375,-2.234375 C 2.25,-2.78125 2.59375,-2.875 2.8125,-2.875 c 0.28125,0 0.515625,0.203125 0.515625,0.671875 0,0.28125 -0.15625,1 -0.359375,1.40625 -0.1875,0.34375 -0.515625,0.671875 -0.875,0.671875 -0.5,0 -0.625,-0.53125 -0.625,-0.609375 0,-0.03125 0.015625,-0.078125 0.015625,-0.109375 z m 0,0"
           id="path1790" /></symbol></g></defs><sodipodi:namedview
     id="namedview4"
     pagecolor="#ffffff"
     bordercolor="#666666"
     borderopacity="1.0"
     inkscape:pageshadow="2"
     inkscape:pageopacity="0.0"
     inkscape:pagecheckerboard="0"
     showgrid="false"
     inkscape:zoom="1.2647059"
     inkscape:cx="543.99999"
     inkscape:cy="228.90697"
     inkscape:window-width="1589"
     inkscape:window-height="1082"
     inkscape:window-x="26"
     inkscape:window-y="23"
     inkscape:window-maximized="0"
     inkscape:current-layer="g8" /><g
     id="g8"
     inkscape:groupmode="layer"
     inkscape:label="ink_ext_XXXXXX"
     transform="matrix(1.3333333,0,0,-1.3333333,0,458.66667)"><g
       id="g10"
       transform="scale(0.1)"><path
         d="M 5,4.60938 H 8158.55 V 3434.9994 H 5 Z"
         style="fill:#ffffff;fill-opacity:1;fill-rule:nonzero;stroke:none"
         id="path12" /><g
         id="g14"><g
           id="g16"
           clip-path="url(#clipPath20)"><path
             d="m 1688.75,1161.91 c 2007.5,0 4015,0 6022.5,0 0,537.5 0,1075 0,1612.5 -2007.5,-537.5 -4015,-1075 -6022.5,-1612.5 z"
             style="fill:#ffffff;fill-opacity:1;fill-rule:nonzero;stroke:none"
             id="path22" /><path
             d="m 1688.75,1161.91 c 2007.5,537.5 4015,1075 6022.5,1612.5 -2007.5,0 -4015,0 -6022.5,0 0,-537.5 0,-1075 0,-1612.5 z"
             style="fill:#ffffff;fill-opacity:1;fill-rule:nonzero;stroke:none"
             id="path24" /><g
             id="g26"
             transform="scale(10)"><text
               transform="matrix(1,0,0,-1,181.068,82.3938)"
               style="font-variant:normal;font-size:24px;font-family:f-0;-inkscape-font-specification:f-0-0;writing-mode:lr-tb;fill:#000000;fill-opacity:1;fill-rule:nonzero;stroke:none"
               id="text30"><tspan
                 x="0 7.9920001 19.992001 109.51224 117.50424 129.50424 219.04823"
                 y="0"
                 sodipodi:role="line"
                 id="tspan28">-50-40-</tspan></text><text
               transform="matrix(0.999999,0,0,-1,408.103,82.3938)"
               style="font-variant:normal;font-size:24px;font-family:f-0;-inkscape-font-specification:f-0-0;writing-mode:lr-tb;fill:#000000;fill-opacity:1;fill-rule:nonzero;stroke:none"
               id="text34"><tspan
                 x="0"
                 y="0"
                 id="tspan32">3</tspan></text><text
               transform="matrix(1,0,0,-1,420.103,82.3938)"
               style="font-variant:normal;font-size:24px;font-family:f-0;-inkscape-font-specification:f-0-0;writing-mode:lr-tb;fill:#000000;fill-opacity:1;fill-rule:nonzero;stroke:none"
               id="text42"><tspan
                 x="0 89.544243 97.53624 109.53624 199.05647 207.04848 219.04848 318.23544"
                 y="0"
                 sodipodi:role="line"
                 id="tspan36">0-20-100</tspan><tspan
                 x="-300.25699 -288.25699 -281.58499 -269.58499"
                 y="-31.082001"
                 sodipodi:role="line"
                 id="tspan38">0.00</tspan><tspan
                 x="-299.72574 -287.72574 -281.05374"
                 y="-82.206596"
                 sodipodi:role="line"
                 id="tspan40">0.0</tspan></text><text
               transform="matrix(0.999999,0,0,-1,151.049,164.6)"
               style="font-variant:normal;font-size:24px;font-family:f-0;-inkscape-font-specification:f-0-0;writing-mode:lr-tb;fill:#000000;fill-opacity:1;fill-rule:nonzero;stroke:none"
               id="text46"><tspan
                 x="0"
                 y="0"
                 id="tspan44">2</tspan></text><text
               transform="matrix(1,0,0,-1,119.318,215.725)"
               style="font-variant:normal;font-size:24px;font-family:f-0;-inkscape-font-specification:f-0-0;writing-mode:lr-tb;fill:#000000;fill-opacity:1;fill-rule:nonzero;stroke:none"
               id="text50"><tspan
                 x="0 12"
                 y="0"
                 sodipodi:role="line"
                 id="tspan48">0.</tspan></text><text
               transform="matrix(1,0,0,-1,137.9899,215.725)"
               style="font-variant:normal;font-size:24px;font-family:f-1;-inkscape-font-specification:f-1-0;writing-mode:lr-tb;fill:#000000;fill-opacity:1;fill-rule:nonzero;stroke:none"
               id="text54"><tspan
                 x="0 12"
                 y="0"
                 sodipodi:role="line"
                 id="tspan52">04</tspan></text><text
               transform="matrix(0.999999,0,0,-1,119.99,266.85)"
               style="font-variant:normal;font-size:24px;font-family:f-0;-inkscape-font-specification:f-0-0;writing-mode:lr-tb;fill:#000000;fill-opacity:1;fill-rule:nonzero;stroke:none"
               id="text58"><tspan
                 x="0 12 18.672001"
                 y="0"
                 sodipodi:role="line"
                 id="tspan56">0.0</tspan></text><text
               transform="matrix(1,0,0,-1,150.662,266.85)"
               style="font-variant:normal;font-size:24px;font-family:f-0;-inkscape-font-specification:f-0-0;writing-mode:lr-tb;fill:#000000;fill-opacity:1;fill-rule:nonzero;stroke:none"
               id="text62"><tspan
                 x="0"
                 y="0"
                 id="tspan60">6</tspan></text></g><path
             d="m 1962.5,1235.98 h 3.24 l 1.1,0.04 h 12.11 l 1.09,0.03 h 11.99 l 1.09,0.04 h 10.98 l 1.1,0.04 h 10.97 l 1.1,0.04 h 9.8 l 1.09,0.04 h 9.93 l 1.09,0.04 h 9.8 l 1.14,0.04 h 8.75 l 1.09,0.04 h 8.79 l 1.05,0.04 h 8.75 l 1.14,0.04 h 7.61 l 1.14,0.04 h 8.79 l 1.05,0.03 h 7.7 l 1.05,0.04 h 6.56 l 1.14,0.04 h 7.61 l 1.18,0.04 h 6.56 l 1.05,0.04 h 6.57 l 1.13,0.04 h 6.52 l 1.1,0.04 h 6.64 l 1.09,0.04 h 6.52 l 1.14,0.04 h 5.43 l 1.13,0.04 h 6.52 l 1.1,0.04 h 5.5 l 1.14,0.03 h 5.46 l 1.1,0.04 h 5.47 l 1.05,0.04 h 5.51 l 1.05,0.04 h 5.47 l 1.14,0.04 h 4.37 l 1.1,0.04 h 5.46 l 1.14,0.04 h 4.33 l 1.14,0.04 h 4.33 l 1.1,0.04 h 5.46 l 1.14,0.04 h 4.37 l 1.1,0.03 h 4.41 l 1.05,0.04 h 4.42 l 1.05,0.04 h 4.42 l 1.05,0.04 h 3.28 l 1.14,0.04 h 4.41 l 1.05,0.04 h 4.42 l 1.05,0.04 h 3.28 l 1.14,0.04 h 4.33 l 1.14,0.04 h 3.28 l 1.05,0.04 h 4.42 l 1.09,0.04 h 3.32 l 1.05,0.03 h 3.32 l 1.1,0.04 h 3.28 l 1.05,0.04 h 3.29 l 1.13,0.04 h 4.33 l 1.14,0.04 h 3.28 l 1.05,0.04 h 2.23 l 1.05,0.04 h 3.33 l 1.13,0.04 h 3.28 l 1.05,0.04 h 3.28 l 1.14,0.04 h 3.28 l 1.05,0.03 h 2.19 l 1.1,0.04 h 3.32 l 1.09,0.04 h 3.24 l 1.09,0.04 h 2.23 l 1.1,0.04 h 3.32 l 1.09,0.04 h 2.19 l 1.05,0.04 h 3.28 l 1.14,0.04 h 2.14 l 1.14,0.04 h 3.28 l 1.05,0.04 h 2.23 l 1.05,0.04 h 2.19 l 1.13,0.03 h 3.29 l 1.13,0.04 h 2.19 l 1.09,0.04 h 2.19 l 1.05,0.04 h 2.23 l 1.05,0.04 h 2.23 l 1.05,0.04 h 2.19 l 1.1,0.04 h 2.18 l 1.14,0.04 h 2.14 l 1.14,0.04 h 2.18 l 1.14,0.04 h 2.18 l 1.1,0.04 h 2.19 l 1.09,0.03 h 2.19 l 1.05,0.04 h 2.23 l 1.05,0.04 h 2.23 l 1.05,0.04 h 2.19 l 1.13,0.04 h 2.15 l 1.14,0.04 h 2.14 l 1.14,0.04 h 1.09 l 1.1,0.04 h 2.18 l 1.14,0.04 h 2.14 l 1.14,0.04 h 1.05 l 1.09,0.04 h 2.19 l 1.14,0.03 h 2.14 l 1.14,0.04 h 1.05 l 1.1,0.04 h 2.18 l 1.14,0.04 h 2.14 l 1.14,0.04 h 1.05 l 1.09,0.04 h 2.23 l 1.1,0.04 h 1.13 l 1.05,0.04 h 2.23 l 1.05,0.04 h 1.14 l 1.05,0.04 h 2.23 l 1.05,0.03 h 1.14 l 1.09,0.04 h 1.05 l 1.14,0.04 h 2.15 l 1.13,0.04 h 1.05 l 1.14,0.04 h 2.14 l 1.14,0.04 h 1.05 l 1.1,0.04 h 1.13 l 1.09,0.04 h 2.23 l 1.05,0.04 h 1.14 l 1.09,0.04 h 1.05 l 1.14,0.04 h 1.05 l 1.1,0.03 h 2.18 l 1.14,0.04 h 1.09 l 1.05,0.04 h 1.14 l 1.05,0.04 h 1.1 l 1.13,0.04 h 2.19 l 1.09,0.04 h 1.05 l 1.14,0.04 h 1.05 l 1.1,0.04 h 1.17 l 1.05,0.04 h 1.13 l 1.1,0.04 h 1.05 l 1.14,0.03 h 1.09 l 1.05,0.04 h 1.14 l 1.05,0.04 h 2.23 l 1.05,0.04 h 1.14 l 1.09,0.04 h 1.05 l 1.14,0.04 h 1.05 l 1.13,0.04 h 1.1 l 1.05,0.04 h 1.14 l 1.09,0.04 h 1.05 l 1.14,0.04 h 1.05 l 1.1,0.04 h 1.17 l 1.05,0.03 h 1.14 l 1.09,0.04 h 1.05 l 2.19,0.08 h 1.09 l 1.14,0.04 h 1.05 l 1.14,0.04 h 1.09 l 1.05,0.04 h 1.14 l 1.05,0.04 h 1.1 l 1.13,0.04 h 1.05 l 1.14,0.04 h 1.09 l 1.05,0.04 h 1.14 l 2.14,0.07 h 1.14 l 1.05,0.04 h 1.14 l 1.13,0.04 h 1.05 l 1.14,0.04 h 1.09 l 2.19,0.08 h 1.05 l 1.1,0.04 h 1.13 l 1.05,0.04 h 1.14 l 2.14,0.08 h 1.14 l 1.05,0.03 h 1.1 l 1.13,0.04 h 1.05 l 2.23,0.08 h 1.05 l 1.14,0.04 h 1.05 l 2.23,0.08 h 1.05 l 1.14,0.04 h 1.13 l 2.19,0.08 h 1.09 l 1.05,0.03 h 1.14 l 2.15,0.08 h 1.13 l 1.05,0.04 h 1.14 l 2.14,0.08 h 1.14 l 2.15,0.08 h 1.13 l 1.05,0.04 h 1.14 l 2.14,0.08 h 1.14 l 2.15,0.07 h 1.13 l 1.09,0.04 1.13,0.04 h 1.1 l 2.19,0.08 h 1.09 l 2.19,0.08 h 1.05 l 2.23,0.08 h 1.05 l 2.23,0.07 h 1.05 l 2.19,0.08 h 1.13 l 2.15,0.08 h 1.14 l 2.14,0.08 h 1.14 l 2.15,0.08 h 1.13 l 1.09,0.04 2.23,0.07 h 1.05 l 2.19,0.08 h 1.09 l 3.33,0.12 h 1.09 l 3.24,0.12 h 1.1 l 2.18,0.07 h 1.14 l 3.28,0.12 h 1.05 l 3.28,0.12 h 1.14 l 2.18,0.08 2.23,0.08 h 1.05 l 3.29,0.11 h 1.13 l 4.33,0.16 h 1.14 l 3.28,0.12 h 1.05 l 5.47,0.19 h 1.1 l 4.41,0.16 h 1.09 l 5.47,0.19 h 1.1 l 6.6,0.24 h 1.05 l 6.56,0.23 h 1.14 l 5.47,0.2 1.13,0.04 2.19,0.07 h 1.09 l 10.94,0.39 h 1.05 l 12.03,0.43 1.18,0.04 28.39,1.02 1.18,0.04 13.08,0.47 1.1,0.07 10.93,0.4 1.14,0.07 2.14,0.08 1.18,0.04 4.33,0.16 1.1,0.08 6.6,0.23 1.05,0.08 5.51,0.19 1.05,0.08 4.42,0.16 1.05,0.08 2.23,0.07 1.09,0.04 1.14,0.04 1.09,0.08 4.34,0.16 1.13,0.07 3.28,0.12 1.05,0.08 3.32,0.12 1.1,0.07 3.28,0.12 1.05,0.08 3.29,0.12 1.13,0.08 2.19,0.07 1.09,0.08 1.09,0.04 1.14,0.04 1.05,0.08 3.28,0.12 1.14,0.07 2.14,0.08 1.14,0.08 2.15,0.08 1.13,0.08 2.19,0.07 1.09,0.08 1.05,0.04 1.14,0.08 2.14,0.08 1.14,0.08 2.19,0.07 1.09,0.08 1.05,0.04 1.14,0.08 1.13,0.04 1.05,0.04 1.14,0.07 1.05,0.04 1.1,0.08 2.18,0.08 1.14,0.08 1.09,0.04 1.05,0.08 1.14,0.03 1.05,0.08 2.23,0.08 1.05,0.08 1.14,0.04 1.09,0.08 1.05,0.04 1.14,0.07 1.05,0.04 1.1,0.08 1.13,0.04 1.05,0.08 1.14,0.04 1.09,0.08 1.05,0.03 1.14,0.08 1.13,0.04 1.05,0.08 1.14,0.04 1.05,0.08 1.1,0.04 1.13,0.07 1.05,0.04 1.14,0.08 1.09,0.04 1.05,0.08 1.14,0.04 1.05,0.08 1.1,0.03 1.13,0.08 1.05,0.04 2.23,0.16 1.05,0.04 1.14,0.07 1.05,0.04 1.1,0.08 1.13,0.04 2.19,0.16 1.09,0.04 1.05,0.07 1.14,0.04 1.13,0.08 1.05,0.08 1.14,0.04 2.15,0.16 1.13,0.03 1.05,0.08 1.14,0.04 2.14,0.16 1.14,0.04 2.18,0.15 1.1,0.04 2.19,0.16 1.09,0.04 3.24,0.23 1.1,0.04 2.18,0.16 1.14,0.04 2.14,0.15 1.18,0.08 1.05,0.04 2.23,0.16 1.05,0.03 4.42,0.32 1.05,0.04 3.28,0.23 1.14,0.04 4.33,0.31 1.09,0.04 5.47,0.39 1.14,0.04 2.15,0.16 1.17,0.08 3.28,0.23 1.05,0.04 8.75,0.62 1.14,0.04 13.08,0.94 1.13,0.08 19.69,1.4 1.1,0.12 7.65,0.55 2.27,0.16 1.05,0.11 5.51,0.39 1.05,0.12 5.47,0.39 1.14,0.12 3.28,0.23 1.05,0.12 3.28,0.23 1.14,0.12 3.28,0.24 1.05,0.11 1.13,0.08 2.19,0.16 1.14,0.11 2.14,0.16 1.14,0.12 2.15,0.15 1.13,0.12 2.19,0.16 1.09,0.11 2.19,0.16 1.05,0.12 2.23,0.15 1.05,0.12 1.14,0.08 1.09,0.12 2.19,0.15 1.05,0.12 1.1,0.08 1.13,0.12 2.19,0.15 1.13,0.12 1.05,0.08 1.14,0.11 1.09,0.08 1.05,0.12 1.14,0.08 1.05,0.12 1.1,0.07 1.13,0.12 1.05,0.08 1.14,0.12 1.09,0.07 1.05,0.12 1.14,0.08 1.05,0.12 1.1,0.07 1.13,0.12 1.05,0.08 1.14,0.12 1.09,0.07 2.19,0.24 1.05,0.08 1.1,0.11 1.13,0.08 2.19,0.24 1.13,0.08 1.05,0.11 1.14,0.08 2.14,0.24 1.14,0.07 2.15,0.24 1.13,0.08 2.19,0.23 1.09,0.08 2.19,0.23 1.05,0.08 2.23,0.23 1.05,0.08 3.28,0.35 1.14,0.08 3.28,0.35 1.09,0.08 4.42,0.47 1.09,0.08 5.47,0.59 1.05,0.07 7.7,0.82 1.05,0.08 6.6,0.71 1.14,0.11 20.78,2.23 1.05,0.16 6.61,0.7 1.13,0.12 1.05,0.15 5.47,0.59 1.1,0.15 4.41,0.47 1.05,0.16 3.29,0.35 1.13,0.16 2.19,0.23 1.09,0.16 2.19,0.23 1.05,0.16 2.23,0.23 1.05,0.16 2.27,0.23 1.05,0.16 2.23,0.23 1.05,0.16 1.14,0.12 1.05,0.15 2.23,0.24 1.05,0.15 1.14,0.12 1.09,0.16 1.05,0.11 1.14,0.16 2.15,0.23 1.13,0.16 1.05,0.12 1.14,0.15 1.09,0.12 1.05,0.16 1.14,0.12 2.15,0.31 1.13,0.12 1.05,0.15 1.14,0.12 1.13,0.15 1.05,0.12 2.23,0.31 1.05,0.12 1.14,0.16 1.05,0.11 2.23,0.32 1.05,0.11 2.23,0.32 1.05,0.11 2.19,0.32 1.1,0.11 2.18,0.32 1.14,0.11 3.28,0.47 1.05,0.12 2.23,0.31 1.09,0.16 1.14,0.12 5.43,0.78 1.13,0.11 7.61,1.1 1.14,0.11 21.87,3.13 1.14,0.2 6.56,0.93 1.05,0.2 5.47,0.78 1.1,0.19 3.32,0.47 1.09,0.2 1.09,0.16 2.23,0.31 1.05,0.19 2.19,0.32 1.1,0.19 2.18,0.31 1.14,0.2 2.14,0.31 1.14,0.2 1.05,0.15 1.1,0.2 2.18,0.31 1.14,0.2 1.09,0.15 1.05,0.2 1.14,0.15 1.05,0.2 1.1,0.15 1.13,0.2 1.05,0.16 1.14,0.19 1.13,0.16 1.05,0.19 1.14,0.16 1.09,0.2 1.05,0.15 1.14,0.2 1.05,0.15 2.23,0.39 1.05,0.16 1.14,0.19 1.09,0.16 2.19,0.39 1.05,0.16 2.23,0.39 1.05,0.16 2.23,0.39 1.05,0.15 3.32,0.59 1.1,0.15 2.19,0.39 1.13,0.2 1.05,0.2 1.14,0.15 5.47,0.98 1.09,0.15 18.55,3.32 1.18,0.2 7.61,1.37 1.14,0.23 5.43,0.98 1.13,0.23 3.28,0.59 1.05,0.23 3.29,0.59 1.13,0.23 2.19,0.39 1.09,0.24 1.05,0.19 1.18,0.2 1.09,0.23 2.19,0.39 1.05,0.24 1.1,0.19 1.13,0.24 1.05,0.19 1.14,0.24 2.14,0.39 1.14,0.23 1.05,0.2 1.1,0.23 1.13,0.2 1.05,0.23 1.14,0.2 2.14,0.47 1.14,0.19 1.05,0.24 1.1,0.19 2.18,0.47 1.14,0.2 1.09,0.23 1.05,0.19 1.18,0.24 1.09,0.23 1.05,0.2 3.32,0.7 1.1,0.2 2.19,0.47 1.09,0.19 4.34,0.94 1.13,0.19 7.65,1.64 1.1,0.2 4.37,0.94 9.89,2.11 1.05,0.27 7.7,1.64 1.05,0.27 4.42,0.94 1.09,0.28 2.19,0.46 1.13,0.28 3.24,0.7 1.1,0.27 2.18,0.47 1.14,0.28 1.09,0.23 1.05,0.27 2.19,0.47 1.1,0.28 1.13,0.23 1.05,0.27 1.14,0.24 1.09,0.27 1.05,0.24 1.14,0.27 1.05,0.23 1.1,0.28 1.13,0.23 1.05,0.28 1.14,0.23 2.14,0.55 1.14,0.23 1.13,0.27 1.05,0.24 2.19,0.55 1.1,0.23 3.32,0.82 1.09,0.23 3.24,0.83 1.1,0.23 4.41,1.09 1.05,0.24 9.89,2.46 1.13,0.27 14.22,3.56 1.05,0.31 4.42,1.09 1.05,0.32 3.28,0.82 1.14,0.31 2.14,0.54 1.18,0.32 2.15,0.54 1.13,0.32 2.19,0.54 1.09,0.32 1.05,0.27 1.14,0.31 1.05,0.28 1.09,0.31 1.14,0.27 1.05,0.31 1.14,0.28 1.09,0.31 1.05,0.27 1.14,0.32 1.05,0.27 2.23,0.62 1.05,0.28 1.14,0.31 1.09,0.27 2.19,0.63 1.05,0.27 1.09,0.31 1.18,0.32 1.05,0.31 1.1,0.27 3.32,0.94 1.09,0.27 5.47,1.57 1.05,0.27 15.32,4.38 1.17,0.31 1.05,0.31 1.1,0.35 5.46,1.56 1.14,0.36 3.28,0.93 1.05,0.35 2.23,0.63 1.05,0.35 2.19,0.63 1.1,0.35 2.18,0.62 1.14,0.35 1.09,0.32 1.05,0.35 1.14,0.31 1.05,0.35 1.13,0.31 1.14,0.36 1.05,0.31 1.13,0.35 1.1,0.31 1.05,0.35 1.14,0.32 1.09,0.35 1.05,0.31 2.19,0.7 1.1,0.32 2.18,0.7 1.14,0.31 3.28,1.06 1.05,0.31 4.42,1.41 1.09,0.31 3.24,1.05 1.14,0.35 17.5,5.63 1.13,0.39 4.33,1.41 1.14,0.39 3.28,1.05 1.09,0.39 2.23,0.71 1.05,0.39 1.14,0.35 1.09,0.39 2.19,0.7 1.05,0.39 1.1,0.35 1.13,0.39 1.05,0.36 1.14,0.39 1.09,0.35 1.05,0.39 1.14,0.35 1.05,0.39 1.1,0.35 2.18,0.78 1.14,0.36 2.14,0.78 1.14,0.35 2.15,0.78 1.13,0.35 4.37,1.56 1.14,0.35 6.56,2.35 1.05,0.35 8.75,3.13 1.14,0.43 6.56,2.34 1.09,0.43 4.42,1.56 1.09,0.43 2.19,0.78 1.05,0.43 2.23,0.78 1.05,0.43 1.14,0.39 1.09,0.43 2.19,0.78 1.05,0.43 1.13,0.39 1.1,0.43 1.05,0.39 1.14,0.43 1.09,0.39 2.19,0.86 1.05,0.4 1.1,0.42 1.17,0.4 2.19,0.85 1.09,0.4 3.24,1.28 1.09,0.39 4.42,1.72 1.05,0.39 15.36,6.02 1.13,0.43 3.28,1.29 1.05,0.47 4.42,1.72 1.05,0.46 2.23,0.86 1.05,0.47 2.19,0.86 1.1,0.47 2.18,0.86 1.14,0.47 1.09,0.43 1.05,0.47 1.14,0.43 1.05,0.47 1.1,0.43 1.13,0.46 1.05,0.43 1.14,0.47 1.13,0.43 2.19,0.94 1.09,0.43 2.19,0.94 1.05,0.43 2.23,0.93 1.05,0.43 3.28,1.41 1.14,0.43 13.08,5.63 1.17,0.46 7.62,3.29 1.1,0.5 3.32,1.41 1.09,0.51 3.24,1.4 1.13,0.51 1.1,0.47 1.05,0.51 2.23,0.94 1.05,0.5 1.14,0.47 1.05,0.51 1.1,0.47 1.13,0.51 1.09,0.46 1.14,0.51 1.09,0.47 1.05,0.51 1.14,0.47 2.14,1.01 1.14,0.47 2.19,1.02 1.09,0.47 3.24,1.52 1.1,0.47 5.46,2.54 1.14,0.47 7.65,3.55 4.42,2.03 1.05,0.55 5.51,2.54 1.05,0.55 3.29,1.52 1.13,0.55 2.19,1.01 1.09,0.55 2.19,1.01 1.05,0.55 1.1,0.51 1.13,0.55 1.05,0.5 1.14,0.55 1.09,0.51 1.09,0.54 1.14,0.51 1.09,0.55 1.05,0.51 2.19,1.09 1.1,0.51 2.18,1.09 1.14,0.51 3.28,1.64 1.05,0.51 4.42,2.19 1.09,0.5 7.66,3.83 1.13,0.55 5.47,2.73 1.05,0.59 4.42,2.19 1.09,0.58 3.24,1.64 1.13,0.59 2.15,1.09 1.14,0.59 2.14,1.09 1.14,0.59 1.05,0.55 1.1,0.58 1.13,0.55 1.05,0.58 1.14,0.55 1.13,0.59 1.05,0.54 2.19,1.18 1.09,0.54 1.14,0.59 1.05,0.55 3.28,1.75 1.14,0.55 3.28,1.76 1.05,0.55 12.03,6.44 1.18,0.59 7.61,4.1 1.14,0.62 3.28,1.76 1.05,0.63 3.28,1.75 1.14,0.63 1.09,0.58 1.05,0.63 2.19,1.17 1.1,0.63 1.13,0.58 1.05,0.63 1.14,0.58 1.09,0.63 1.05,0.58 1.18,0.63 1.09,0.62 1.05,0.59 1.14,0.63 1.05,0.58 2.23,1.25 1.05,0.59 3.28,1.87 1.14,0.59 6.56,3.75 1.05,0.58 8.75,5 1.18,0.67 5.43,3.12 1.13,0.67 3.28,1.87 1.05,0.67 3.32,1.87 1.1,0.67 1.05,0.62 1.14,0.66 1.09,0.63 1.05,0.66 2.19,1.25 1.1,0.67 1.13,0.62 2.19,1.33 1.09,0.63 1.09,0.66 1.14,0.62 2.14,1.33 1.14,0.63 2.19,1.33 1.09,0.62 4.34,2.66 1.13,0.62 15.27,9.3 1.13,0.66 2.19,1.33 1.1,0.7 3.32,2 1.09,0.7 3.24,1.99 1.1,0.71 1.13,0.66 1.05,0.7 2.23,1.33 1.05,0.7 1.14,0.67 1.05,0.7 1.1,0.66 1.13,0.71 1.05,0.66 1.14,0.71 1.09,0.66 2.19,1.41 1.13,0.66 1.05,0.7 1.14,0.67 3.28,2.11 1.05,0.66 3.28,2.11 1.14,0.66 17.5,11.25 1.13,0.71 1.05,0.74 4.42,2.81 1.05,0.74 2.23,1.41 1.05,0.74 2.19,1.41 1.13,0.74 2.15,1.41 1.14,0.74 1.09,0.7 1.05,0.74 1.14,0.71 1.05,0.74 1.1,0.7 1.13,0.74 4.33,2.9 1.14,0.74 1.09,0.74 1.09,0.7 2.19,1.49 1.14,0.7 3.28,2.23 1.05,0.7 18.6,12.62 1.17,0.74 1.05,0.74 1.1,0.78 3.32,2.23 1.09,0.78 2.19,1.48 1.05,0.79 2.23,1.48 1.05,0.78 2.23,1.49 1.05,0.78 1.14,0.74 1.05,0.78 1.1,0.74 1.13,0.78 1.05,0.75 1.14,0.78 1.09,0.74 2.19,1.56 1.05,0.74 1.1,0.79 1.17,0.74 2.15,1.56 1.13,0.74 3.28,2.35 1.05,0.74 6.61,4.69 1.09,0.74 10.94,7.81 1.05,0.82 1.13,0.78 4.42,3.13 1.05,0.82 3.28,2.34 1.14,0.82 2.18,1.56 1.1,0.82 2.19,1.57 1.09,0.82 1.05,0.78 1.14,0.82 2.15,1.56 1.13,0.82 1.05,0.78 1.14,0.82 1.09,0.78 2.19,1.65 1.05,0.78 1.13,0.82 1.14,0.78 2.19,1.64 1.09,0.78 3.24,2.46 1.1,0.78 3.32,2.46 1.09,0.78 7.66,5.75 1.09,0.78 4.34,3.28 1.13,0.86 1.05,0.82 1.14,0.82 6.6,4.92 1.05,0.86 3.28,2.46 1.14,0.86 3.28,2.46 1.05,0.86 2.23,1.64 1.05,0.86 1.14,0.82 1.09,0.86 2.19,1.64 1.05,0.86 1.1,0.82 1.13,0.86 1.09,0.82 1.1,0.86 1.13,0.82 2.19,1.72 1.09,0.82 1.05,0.86 1.14,0.82 2.15,1.72 1.13,0.82 2.19,1.72 1.09,0.82 3.24,2.58 1.1,0.82 5.46,4.29 1.14,0.82 16.4,12.89 1.14,0.9 5.43,4.3 1.13,0.9 3.28,2.58 1.05,0.89 2.19,1.72 1.13,0.9 1.14,0.86 1.05,0.86 1.14,0.9 2.14,1.72 1.14,0.9 1.05,0.85 1.1,0.9 1.13,0.86 1.05,0.9 1.14,0.86 1.09,0.9 1.05,0.86 1.14,0.9 1.05,0.86 1.09,0.89 1.14,0.86 2.19,1.8 1.09,0.86 1.05,0.9 1.14,0.86 3.28,2.69 1.05,0.86 2.27,1.8 1.05,0.86 4.42,3.59 1.05,0.86 7.7,6.29 1.05,0.86 8.75,7.19 1.1,0.94 2.18,1.79 1.14,0.9 5.46,4.49 1.14,0.94 4.33,3.59 1.14,0.94 2.14,1.8 1.14,0.94 3.28,2.69 1.05,0.94 2.23,1.8 1.05,0.93 1.14,0.9 1.05,0.94 2.23,1.8 1.05,0.93 1.14,0.9 1.13,0.94 1.05,0.9 1.14,0.94 1.09,0.89 1.05,0.94 1.14,0.9 1.05,0.94 1.13,0.9 1.1,0.93 1.05,0.9 2.23,1.88 1.05,0.9 2.19,1.87 1.1,0.9 1.13,0.94 1.05,0.89 3.28,2.82 1.14,0.9 2.18,1.87 1.1,0.9 1.05,0.94 1.18,0.93 2.14,1.88 1.14,0.9 5.47,4.68 1.09,0.9 24.06,20.63 1.1,0.97 6.6,5.63 1.05,0.98 4.42,3.75 1.09,0.97 3.24,2.82 1.1,0.97 2.18,1.88 1.14,0.97 2.18,1.88 1.14,0.97 2.14,1.88 1.14,0.98 2.15,1.87 1.13,0.98 1.05,0.94 1.14,0.97 2.14,1.88 1.14,0.97 1.05,0.94 1.1,0.98 1.13,0.94 1.05,0.97 1.14,0.94 1.09,0.98 1.05,0.93 1.14,0.98 1.05,0.94 1.1,0.97 1.13,0.94 1.05,0.98 1.14,0.94 1.09,0.97 1.09,0.94 1.14,0.98 1.09,0.93 2.19,1.96 1.05,0.93 1.13,0.98 1.1,0.94 2.19,1.95 1.09,0.94 2.19,1.95 1.05,0.94 2.23,1.95 1.05,0.94 2.23,1.95 1.05,0.94 2.19,1.95 1.13,0.94 3.29,2.93 1.13,0.94 3.24,2.93 1.1,0.94 4.41,3.9 1.05,0.94 5.47,4.88 1.14,0.94 6.56,5.86 1.05,0.94 4.42,3.9 1.13,0.98 7.66,6.84 1.09,0.93 18.55,16.6 1.18,0.98 1.09,0.98 1.05,1.01 14.22,12.7 1.14,1.01 9.84,8.79 1.05,1.02 1.18,0.98 5.46,4.88 1.1,1.01 6.52,5.86 1.1,1.02 6.6,5.86 1.05,1.01 5.51,4.89 1.09,1.01 5.47,4.89 1.14,1.01 4.33,3.91 1.09,1.01 5.47,4.89 1.14,1.01 5.47,4.88 1.09,1.02 3.24,2.93 2.27,1.95 1.05,1.02 5.51,4.88 1.05,1.02 5.47,4.88 1.14,1.02 6.56,5.85 1.05,1.02 5.47,4.88 1.13,0.98 1.14,1.01 7.61,6.84 1.14,1.02 12.03,10.74 1.05,1.01 4.42,3.91 1.13,0.98 25.16,22.46 1.09,0.94 9.84,8.78 1.14,0.94 5.47,4.88 1.09,0.94 5.47,4.89 1.05,0.93 3.28,2.93 1.14,0.94 2.14,1.95 1.18,0.98 1.05,0.94 2.23,1.95 1.05,0.94 2.23,1.95 1.05,0.94 2.19,1.95 1.1,0.94 2.18,1.95 1.14,0.94 2.14,1.95 1.14,0.94 1.05,0.98 1.1,0.93 1.13,0.98 1.05,0.94 2.23,1.95 1.05,0.94 1.14,0.98 1.05,0.93 1.1,0.98 1.17,0.94 1.05,0.97 1.1,0.94 1.13,0.98 1.05,0.94 1.14,0.97 2.14,1.88 1.14,0.97 1.05,0.94 1.1,0.98 2.18,1.87 1.14,0.98 2.14,1.87 1.14,0.98 2.15,1.88 1.13,0.97 3.28,2.81 1.05,0.98 2.19,1.88 1.13,0.93 1.14,0.98 4.33,3.75 1.14,0.98 21.83,18.75 2.27,1.87 1.05,0.9 4.42,3.75 1.05,0.9 3.28,2.81 1.14,0.9 3.28,2.81 1.05,0.9 1.1,0.94 1.13,0.9 2.19,1.87 1.09,0.9 1.05,0.94 1.14,0.9 1.05,0.93 1.09,0.9 1.14,0.94 1.05,0.9 1.14,0.94 1.13,0.89 1.05,0.94 1.14,0.9 1.09,0.94 1.05,0.9 1.14,0.93 2.15,1.8 1.13,0.94 3.28,2.69 1.05,0.94 3.29,2.7 1.13,0.93 5.47,4.5 1.05,0.93 2.23,1.8 1.09,0.9 7.7,6.29 1.05,0.86 5.51,4.49 1.05,0.86 3.29,2.69 1.13,0.86 2.19,1.8 1.09,0.86 2.19,1.8 1.05,0.86 1.1,0.89 1.13,0.86 1.09,0.9 1.13,0.86 1.1,0.9 1.05,0.86 1.14,0.9 1.09,0.86 1.05,0.89 1.14,0.86 1.05,0.9 2.23,1.72 1.05,0.9 3.28,2.58 1.14,0.9 6.56,5.15 1.05,0.9 4.42,3.44 1.09,0.86 1.14,0.86 1.09,0.82 6.52,5.15 1.14,0.82 2.14,1.72 1.14,0.82 2.15,1.72 1.13,0.82 2.19,1.72 1.09,0.82 1.05,0.86 1.14,0.82 1.05,0.86 1.09,0.82 1.14,0.86 2.19,1.64 1.13,0.86 2.19,1.64 1.09,0.86 3.24,2.46 1.1,0.86 16.4,12.31 1.1,0.78 3.32,2.46 1.13,0.78 1.05,0.82 1.14,0.78 2.14,1.64 1.14,0.78 1.05,0.82 1.1,0.78 1.13,0.82 1.05,0.79 1.14,0.82 2.14,1.56 1.14,0.82 3.28,2.34 1.05,0.82 8.75,6.25 1.17,0.78 5.43,3.91 1.14,0.74 3.28,2.35 1.05,0.74 2.23,1.56 1.05,0.74 1.14,0.78 1.05,0.75 1.13,0.78 1.1,0.74 1.05,0.78 2.23,1.49 1.05,0.78 2.19,1.48 1.1,0.78 2.18,1.49 1.18,0.74 3.28,2.23 1.05,0.78 1.09,0.74 1.14,0.7 6.52,4.45 1.1,0.71 2.18,1.48 1.14,0.71 2.14,1.48 1.14,0.7 1.05,0.75 1.09,0.7 1.14,0.74 2.19,1.41 1.09,0.74 1.09,0.7 1.14,0.71 1.09,0.74 4.34,2.81 1.13,0.74 4.33,2.81 1.14,0.67 5.47,3.51 1.09,0.67 2.19,1.4 1.05,0.67 1.1,0.7 1.13,0.67 1.05,0.7 1.14,0.66 1.09,0.71 1.09,0.66 1.14,0.66 1.09,0.71 2.19,1.33 1.05,0.7 12.03,7.3 1.14,0.63 3.28,1.99 1.05,0.63 1.1,0.66 1.13,0.62 1.05,0.67 1.14,0.62 1.09,0.67 1.09,0.62 1.14,0.67 3.28,1.87 1.05,0.67 12.03,6.87 1.14,0.59 2.14,1.25 1.14,0.58 1.05,0.63 1.1,0.58 1.13,0.63 1.05,0.58 1.14,0.63 1.13,0.59 1.05,0.62 2.19,1.17 1.09,0.63 10.94,5.86 1.14,0.54 3.28,1.76 1.05,0.55 1.09,0.58 1.14,0.55 1.05,0.59 1.14,0.54 1.09,0.59 2.19,1.09 1.13,0.59 4.34,2.19 1.13,0.58 3.28,1.64 1.05,0.51 4.42,2.19 1.05,0.51 2.23,1.09 1.05,0.51 1.14,0.55 1.05,0.5 1.1,0.55 2.18,1.02 1.14,0.54 3.28,1.53 1.13,0.5 8.75,4.07 1.05,0.46 2.19,1.02 1.1,0.47 1.13,0.51 1.05,0.47 1.14,0.5 2.14,0.94 1.14,0.51 5.47,2.34 1.09,0.51 1.05,0.43 1.18,0.47 4.33,1.87 1.1,0.43 2.18,0.94 1.14,0.43 1.09,0.47 1.05,0.43 1.14,0.47 3.28,1.29 1.05,0.47 8.75,3.43 1.14,0.39 2.14,0.86 1.18,0.43 1.05,0.39 1.09,0.43 1.14,0.39 1.05,0.43 2.23,0.78 1.05,0.43 12.03,4.3 1.14,0.35 1.05,0.39 1.14,0.36 1.09,0.39 1.05,0.35 1.14,0.39 1.05,0.35 1.13,0.39 5.47,1.76 1.14,0.39 1.09,0.31 5.47,1.76 1.05,0.31 1.14,0.35 1.09,0.32 1.05,0.35 1.14,0.31 1.05,0.35 2.23,0.63 1.05,0.35 5.47,1.56 1.13,0.31 2.19,0.63 1.1,0.27 2.18,0.63 1.14,0.27 1.09,0.31 1.05,0.28 1.14,0.31 2.15,0.54 1.13,0.32 9.8,2.46 1.14,0.23 2.14,0.55 1.14,0.23 1.13,0.28 1.05,0.23 1.14,0.28 3.28,0.7 1.05,0.27 5.47,1.17 1.13,0.2 3.29,0.7 1.09,0.2 1.05,0.23 1.14,0.2 1.05,0.23 2.23,0.39 1.05,0.24 4.42,0.78 1.09,0.19 2.23,0.39 1.05,0.16 3.28,0.59 1.14,0.15 1.05,0.2 2.23,0.31 1.05,0.2 10.98,1.56 1.05,0.12 2.19,0.31 2.23,0.23 1.09,0.16 2.23,0.23 1.05,0.16 6.57,0.7 1.13,0.08 2.19,0.23 1.09,0.08 1.05,0.12 1.14,0.08 1.05,0.12 3.28,0.23 1.14,0.12 4.33,0.31 1.1,0.04 1.17,0.08 2.15,0.15 1.13,0.04 1.05,0.08 1.14,0.04 1.09,0.08 3.24,0.11 1.1,0.08 4.41,0.16 h 1.05 l 3.29,0.12 h 1.13 l 1.05,0.03 h 1.14 l 1.09,0.04 h 3.24 l 1.1,0.04 h 3.32 l 1.13,-0.04 h 3.28 l 1.05,-0.04 h 1.14 l 1.05,-0.03 h 1.13 l 2.15,-0.08 h 1.14 l 6.56,-0.24 1.05,-0.08 2.23,-0.07 1.05,-0.08 1.14,-0.04 1.05,-0.08 1.13,-0.04 3.33,-0.23 1.09,-0.04 2.19,-0.16 1.05,-0.11 3.28,-0.24 1.14,-0.12 1.09,-0.07 1.05,-0.12 1.14,-0.08 1.05,-0.12 1.09,-0.07 8.76,-0.94 1.13,-0.16 1.05,-0.12 1.14,-0.15 1.13,-0.12 1.05,-0.16 1.14,-0.11 9.84,-1.41 1.05,-0.19 1.14,-0.16 1.05,-0.2 1.1,-0.15 2.18,-0.39 1.14,-0.16 6.56,-1.17 1.05,-0.24 2.27,-0.39 1.05,-0.23 1.14,-0.2 2.14,-0.46 1.14,-0.2 5.47,-1.17 1.09,-0.27 2.19,-0.47 1.05,-0.28 1.1,-0.23 1.13,-0.27 1.05,-0.24 2.23,-0.55 1.05,-0.23 3.29,-0.82 1.13,-0.31 1.09,-0.28 2.23,-0.54 1.05,-0.32 1.14,-0.27 2.14,-0.62 1.14,-0.28 7.61,-2.19 1.14,-0.35 2.15,-0.62 2.18,-0.71 1.14,-0.31 7.65,-2.46 1.14,-0.35 1.09,-0.39 1.05,-0.35 1.14,-0.39 1.05,-0.35 2.23,-0.79 1.05,-0.35 5.47,-1.95 1.09,-0.43 2.19,-0.78 1.14,-0.43 1.09,-0.39 4.34,-1.72 1.13,-0.39 1.05,-0.43 1.14,-0.47 1.13,-0.43 2.19,-0.86 1.09,-0.47 1.05,-0.43 1.14,-0.47 1.05,-0.43 8.75,-3.75 1.1,-0.5 1.13,-0.47 1.05,-0.51 1.14,-0.47 2.14,-1.01 1.14,-0.47 4.33,-2.03 1.14,-0.55 1.13,-0.51 1.05,-0.51 1.14,-0.54 1.09,-0.51 1.05,-0.55 1.14,-0.51 7.61,-3.82 1.14,-0.59 1.05,-0.55 1.1,-0.58 1.13,-0.55 2.19,-1.17 1.09,-0.55 4.34,-2.34 1.13,-0.63 1.05,-0.58 1.14,-0.59 1.13,-0.62 1.05,-0.59 2.23,-1.25 1.05,-0.59 5.47,-3.12 1.14,-0.67 1.09,-0.62 1.05,-0.66 1.14,-0.63 1.05,-0.66 1.1,-0.63 7.65,-4.65 1.13,-0.7 1.1,-0.66 1.05,-0.71 1.18,-0.66 3.28,-2.11 1.05,-0.66 1.1,-0.71 1.13,-0.74 3.28,-2.11 1.05,-0.74 1.14,-0.7 2.14,-1.49 1.14,-0.7 5.47,-3.71 1.05,-0.78 1.1,-0.75 1.13,-0.78 1.05,-0.74 1.14,-0.78 1.09,-0.74 6.56,-4.69 1.1,-0.82 1.13,-0.78 1.05,-0.82 1.14,-0.78 2.14,-1.64 1.14,-0.79 4.33,-3.28 1.14,-0.86 2.14,-1.64 2.19,-1.72 1.1,-0.82 4.41,-3.43 1.09,-0.86 2.23,-1.72 1.05,-0.9 1.14,-0.86 2.15,-1.8 1.13,-0.86 5.47,-4.49 1.05,-0.94 2.23,-1.79 2.19,-1.88 1.09,-0.9 6.52,-5.62 1.14,-0.98 1.13,-0.93 1.05,-0.98 1.14,-0.94 8.75,-7.81 1.09,-1.02 1.05,-0.97 1.14,-1.02 1.05,-0.98 6.56,-6.09 1.14,-1.05 1.05,-1.02 1.13,-1.05 1.1,-1.02 2.19,-2.11 1.13,-1.05 5.47,-5.28 1.05,-1.09 1.14,-1.06 8.75,-8.75 2.14,-2.18 1.14,-1.14 1.05,-1.09 7.7,-7.93 1.13,-1.17 1.05,-1.13 1.14,-1.18 1.05,-1.13 6.56,-7.03 1.14,-1.21 2.15,-2.34 2.18,-2.43 1.14,-1.17 4.33,-4.84 1.1,-1.25 2.18,-2.42 2.23,-2.5 1.05,-1.22 2.27,-2.5 3.24,-3.75 1.1,-1.28 2.18,-2.5 2.23,-2.58 1.05,-1.25 3.29,-3.87 1.13,-1.33 2.19,-2.58 1.09,-1.32 1.05,-1.29 1.14,-1.33 1.05,-1.29 5.51,-6.64 1.05,-1.37 1.18,-1.33 1.09,-1.36 1.05,-1.33 7.7,-9.57 1.05,-1.41 1.14,-1.37 1.05,-1.4 1.1,-1.37 6.6,-8.44 1.05,-1.44 1.13,-1.41 1.1,-1.44 1.05,-1.41 3.28,-4.34 1.18,-1.44 3.28,-4.34 1.05,-1.48 1.14,-1.45 3.28,-4.45 1.05,-1.44 1.09,-1.49 1.14,-1.52 2.19,-2.97 1.09,-1.52 1.05,-1.49 1.14,-1.52 1.05,-1.49 5.51,-7.61 1.05,-1.57 2.19,-3.04 1.13,-1.57 2.19,-3.12 1.1,-1.52 1.13,-1.57 1.05,-1.6 3.28,-4.69 1.14,-1.6 1.05,-1.56 7.7,-11.21 1.05,-1.64 1.1,-1.6 1.13,-1.64 1.05,-1.61 5.47,-8.2 1.13,-1.68 2.19,-3.28 2.23,-3.36 1.05,-1.64 4.42,-6.72 1.05,-1.72 1.1,-1.68 1.13,-1.72 1.05,-1.68 2.23,-3.43 1.05,-1.68 2.19,-3.44 1.1,-1.76 2.18,-3.43 1.14,-1.76 1.09,-1.72 2.19,-3.52 1.13,-1.72 2.19,-3.51 1.05,-1.8 2.23,-3.51 1.05,-1.8 1.14,-1.76 2.14,-3.59 1.14,-1.76 2.15,-3.59 1.13,-1.84 2.19,-3.59 1.09,-1.84 1.05,-1.8 2.19,-3.67 1.13,-1.8 3.29,-5.5 1.09,-1.88 2.19,-3.67 2.19,-3.75 1.13,-1.84 5.47,-9.37 1.05,-1.91 2.23,-3.76 3.28,-5.74 1.05,-1.87 1.14,-1.92 1.05,-1.95 3.28,-5.74 1.14,-1.95 1.09,-1.92 4.33,-7.81 1.18,-1.95 3.28,-5.86 1.05,-2 1.14,-1.95 2.14,-3.98 1.14,-1.96 3.28,-5.97 1.05,-2.03 2.23,-3.99 1.05,-2.03 1.14,-1.99 3.28,-6.1 1.05,-1.99 1.14,-2.03 1.09,-2.07 2.19,-4.06 1.05,-2.07 1.1,-2.03 1.17,-2.07 1.05,-2.04 6.56,-12.42 1.14,-2.11 1.05,-2.07 1.1,-2.11 1.13,-2.07 2.19,-4.22 1.09,-2.07 2.19,-4.21 1.05,-2.15 3.28,-6.33 1.14,-2.15 1.09,-2.11 4.34,-8.59 1.17,-2.15 4.33,-8.59 1.14,-2.19 1.09,-2.15 2.19,-4.38 1.05,-2.14 4.42,-8.75 1.09,-2.23 2.19,-4.38 1.05,-2.22 1.13,-2.19 1.1,-2.23 1.05,-2.18 5.47,-11.14 2.27,-4.45 1.05,-2.27 1.14,-2.22 1.09,-2.27 1.05,-2.22 1.14,-2.27 1.05,-2.23 7.7,-15.86 1.05,-2.3 2.23,-4.53 2.19,-4.61 1.09,-2.27 3.24,-6.91 1.09,-2.27 1.14,-2.3 1.05,-2.34 1.14,-2.31 3.32,-6.91 1.09,-2.35 1.05,-2.3 1.14,-2.35 1.05,-2.3 3.28,-7.03 1.14,-2.31 4.33,-9.37 1.1,-2.38 3.32,-7.04 1.09,-2.38 1.05,-2.34 1.14,-2.38 1.05,-2.35 2.23,-4.76 1.05,-2.35 1.14,-2.38 10.93,-23.83 1.14,-2.42 2.14,-4.77 1.14,-2.42 1.05,-2.38 1.1,-2.42 1.13,-2.39 2.19,-4.84 1.09,-2.38 4.34,-9.69 1.13,-2.38 7.65,-16.96 1.14,-2.46 4.33,-9.68 1.14,-2.47 2.14,-4.84 1.14,-2.46 2.18,-4.84 1.1,-2.46 2.19,-4.85 1.09,-2.46 1.05,-2.42 1.14,-2.46 1.05,-2.42 1.1,-2.46 1.13,-2.43 1.09,-2.46 1.14,-2.42 1.09,-2.46 1.05,-2.42 2.19,-4.92 1.09,-2.43 1.14,-2.46 1.05,-2.42 1.14,-2.46 1.09,-2.42 2.19,-4.92 1.05,-2.43 1.1,-2.46 1.13,-2.42 1.05,-2.46 1.14,-2.42 1.09,-2.46 1.05,-2.42 1.14,-2.46 1.05,-2.43 1.09,-2.46 1.14,-2.42 1.05,-2.46 1.14,-2.42 1.13,-2.46 2.19,-4.85 1.09,-2.46 2.19,-4.84 1.05,-2.46 3.28,-7.27 1.14,-2.46 9.84,-21.8 1.05,-2.38 3.29,-7.26 1.13,-2.39 1.05,-2.42 1.14,-2.38 1.13,-2.42 2.19,-4.77 1.09,-2.42 8.75,-19.06 1.05,-2.35 2.19,-4.76 1.1,-2.35 1.13,-2.38 8.75,-18.75 1.05,-2.3 1.14,-2.35 1.13,-2.3 1.05,-2.35 6.57,-13.82 1.13,-2.27 1.05,-2.31 1.14,-2.26 1.09,-2.31 4.37,-9.06 1.1,-2.22 2.19,-4.54 6.56,-13.35 1.05,-2.19 1.18,-2.23 4.33,-8.75 1.09,-2.15 1.14,-2.18 1.05,-2.15 1.14,-2.19 1.09,-2.15 1.05,-2.11 2.19,-4.3 1.1,-2.1 1.13,-2.15 2.19,-4.22 1.09,-2.07 1.05,-2.11 1.14,-2.07 1.05,-2.11 2.23,-4.14 1.05,-2.03 1.14,-2.07 2.14,-4.07 1.18,-2.03 2.14,-4.06 5.47,-9.96 5.47,-9.77 5.51,-9.57 3.24,-5.62 1.1,-1.84 1.13,-1.87 3.28,-5.51 1.09,-1.8 1.14,-1.83 1.09,-1.8 1.05,-1.76 1.14,-1.8 4.33,-7.03 3.28,-5.15 1.14,-1.68 1.05,-1.72 2.23,-3.36 2.19,-3.28 1.09,-1.68 1.05,-1.6 1.14,-1.64 3.28,-4.81 4.37,-6.25 4.42,-6.09 3.28,-4.45 4.33,-5.79 3.32,-4.21 4.38,-5.47 2.19,-2.66 1.05,-1.29 1.1,-1.33 2.18,-2.58 2.23,-2.5 1.09,-1.25 1.14,-1.25 3.28,-3.63 4.33,-4.69 2.19,-2.26 2.23,-2.23 1.05,-1.09 1.14,-1.06 1.09,-1.09 2.19,-2.11 4.33,-4.06 3.28,-2.93 2.27,-1.88 2.19,-1.87 2.15,-1.8 1.13,-0.86 1.05,-0.9 1.14,-0.86 1.09,-0.82 1.05,-0.86 2.19,-1.64 1.1,-0.78 1.13,-0.82 1.05,-0.78 1.14,-0.74 1.09,-0.78 2.19,-1.49 5.47,-3.51 2.14,-1.33 2.27,-1.25 3.24,-1.88 3.28,-1.75 4.42,-2.19 1.05,-0.51 1.1,-0.55 1.13,-0.46 2.19,-1.02 2.14,-0.94 1.14,-0.43 1.05,-0.47 3.28,-1.28 1.14,-0.4 1.09,-0.43 1.05,-0.39 1.18,-0.39 1.09,-0.35 1.05,-0.39 3.29,-1.05 1.13,-0.32 1.05,-0.35 3.28,-0.93 1.14,-0.28 1.05,-0.31 3.28,-0.82 1.14,-0.24 1.09,-0.27 5.47,-1.17 1.05,-0.2 1.14,-0.23 2.14,-0.39 1.18,-0.2 1.05,-0.15 1.09,-0.2 1.14,-0.15 1.05,-0.2 4.42,-0.62 1.05,-0.12 1.1,-0.16 2.18,-0.23 1.14,-0.16 2.14,-0.23 1.14,-0.08 2.14,-0.24 1.14,-0.07 1.05,-0.12 2.23,-0.16 1.05,-0.11 2.19,-0.16 1.13,-0.08 1.14,-0.04 3.28,-0.23 1.05,-0.04 1.14,-0.08 2.14,-0.08 1.14,-0.08 10.9,-0.39 h 1.13 l 2.19,-0.07 h 1.09 l 2.19,-0.08 h 1.05 l 1.13,-0.04 h 1.14 l 1.05,-0.04 h 2.23 l 1.05,-0.04 h 2.23 l 1.05,-0.04 h 2.19 l 1.1,-0.04 h 4.41 l 1.05,-0.04 h 6.61 l 1.09,-0.04 h 20.82 l 1.05,-0.03 h 228.95"
             style="fill:none;stroke:#000000;stroke-width:18.75;stroke-linecap:butt;stroke-linejoin:miter;stroke-miterlimit:10;stroke-dasharray:none;stroke-opacity:1"
             id="path64" /><path
             d="M 5666.45,1235.2 V 2602.27"
             style="fill:none;stroke:#ff0000;stroke-width:7.5;stroke-linecap:butt;stroke-linejoin:miter;stroke-miterlimit:10;stroke-dasharray:none;stroke-opacity:1"
             id="path66" /><path
             d="m 5615.04,2550.62 51.41,103.29 51.56,-103.29 z"
             style="fill:#ff0000;fill-opacity:1;fill-rule:nonzero;stroke:none"
             id="path68" /><path
             d="M 5571.56,1235.2 V 2555.59"
             style="fill:none;stroke:#000000;stroke-width:7.5;stroke-linecap:butt;stroke-linejoin:miter;stroke-miterlimit:10;stroke-dasharray:none;stroke-opacity:1"
             id="path70" /><path
             d="m 5520.16,2503.95 51.36,103.28 51.6,-103.28 z"
             style="fill:#000000;fill-opacity:1;fill-rule:nonzero;stroke:none"
             id="path72" /><path
             d="m 1962.5,1158.16 v -45"
             style="fill:none;stroke:#000000;stroke-width:7.5;stroke-linecap:butt;stroke-linejoin:miter;stroke-miterlimit:10;stroke-dasharray:none;stroke-opacity:1"
             id="path74" /><path
             d="m 3057.7,1158.16 v -45"
             style="fill:none;stroke:#000000;stroke-width:7.5;stroke-linecap:butt;stroke-linejoin:miter;stroke-miterlimit:10;stroke-dasharray:none;stroke-opacity:1"
             id="path76" /><path
             d="m 4152.93,1158.16 v -45"
             style="fill:none;stroke:#000000;stroke-width:7.5;stroke-linecap:butt;stroke-linejoin:miter;stroke-miterlimit:10;stroke-dasharray:none;stroke-opacity:1"
             id="path78" /><path
             d="m 5248.12,1158.16 v -45"
             style="fill:none;stroke:#000000;stroke-width:7.5;stroke-linecap:butt;stroke-linejoin:miter;stroke-miterlimit:10;stroke-dasharray:none;stroke-opacity:1"
             id="path80" /><path
             d="m 6343.36,1158.16 v -45"
             style="fill:none;stroke:#000000;stroke-width:7.5;stroke-linecap:butt;stroke-linejoin:miter;stroke-miterlimit:10;stroke-dasharray:none;stroke-opacity:1"
             id="path82" /><path
             d="m 7438.55,1158.16 v -45"
             style="fill:none;stroke:#000000;stroke-width:7.5;stroke-linecap:butt;stroke-linejoin:miter;stroke-miterlimit:10;stroke-dasharray:none;stroke-opacity:1"
             id="path84" /><path
             d="m 1685,1235.2 h -45"
             style="fill:none;stroke:#000000;stroke-width:7.5;stroke-linecap:butt;stroke-linejoin:miter;stroke-miterlimit:10;stroke-dasharray:none;stroke-opacity:1"
             id="path86" /><path
             d="m 1685,1746.45 h -45"
             style="fill:none;stroke:#000000;stroke-width:7.5;stroke-linecap:butt;stroke-linejoin:miter;stroke-miterlimit:10;stroke-dasharray:none;stroke-opacity:1"
             id="path88" /><path
             d="m 1685,2257.7 h -45"
             style="fill:none;stroke:#000000;stroke-width:7.5;stroke-linecap:butt;stroke-linejoin:miter;stroke-miterlimit:10;stroke-dasharray:none;stroke-opacity:1"
             id="path90" /><path
             d="m 1685,2768.95 h -45"
             style="fill:none;stroke:#000000;stroke-width:7.5;stroke-linecap:butt;stroke-linejoin:miter;stroke-miterlimit:10;stroke-dasharray:none;stroke-opacity:1"
             id="path92" /><g
             id="g94"
             transform="scale(10)"><text
               transform="matrix(0.999999,0,0,-1,207.143,244.491)"
               style="font-variant:normal;font-size:24px;font-family:f-1;-inkscape-font-specification:f-1-0;writing-mode:lr-tb;fill:#000000;fill-opacity:1;fill-rule:nonzero;stroke:none"
               id="text98"><tspan
                 x="0 18.672001 32.015999"
                 y="0"
                 sodipodi:role="line"
                 id="tspan96">Opt</tspan></text><text
               transform="matrix(1,0,0,-1,248.494,244.491)"
               style="font-variant:normal;font-size:24px;font-family:f-1;-inkscape-font-specification:f-1-0;writing-mode:lr-tb;fill:#000000;fill-opacity:1;fill-rule:nonzero;stroke:none"
               id="text102"><tspan
                 x="0"
                 y="0"
                 id="tspan100">i</tspan></text><text
               transform="matrix(0.999999,0,0,-1,255.166,244.491)"
               style="font-variant:normal;font-size:24px;font-family:f-1;-inkscape-font-specification:f-1-0;writing-mode:lr-tb;fill:#000000;fill-opacity:1;fill-rule:nonzero;stroke:none"
               id="text106"><tspan
                 x="0 19.992001 31.992001"
                 y="0"
                 sodipodi:role="line"
                 id="tspan104">mal</tspan></text><text
               transform="matrix(1,0,0,-1,301.822,244.491)"
               style="font-variant:normal;font-size:24px;font-family:f-0;-inkscape-font-specification:f-0-1;writing-mode:lr-tb;fill:#000000;fill-opacity:1;fill-rule:nonzero;stroke:none"
               id="text110"><tspan
                 x="0"
                 y="0"
                 id="tspan108">θ</tspan></text><text
               transform="matrix(0.999999,0,0,-1,321.525,244.491)"
               style="font-variant:normal;font-size:24px;font-family:f-1;-inkscape-font-specification:f-1-0;writing-mode:lr-tb;fill:#000000;fill-opacity:1;fill-rule:nonzero;stroke:none"
               id="text114"><tspan
                 x="0"
                 y="0"
                 id="tspan112">d</tspan></text><text
               transform="matrix(1,0,0,-1,334.869,244.491)"
               style="font-variant:normal;font-size:24px;font-family:f-1;-inkscape-font-specification:f-1-0;writing-mode:lr-tb;fill:#000000;fill-opacity:1;fill-rule:nonzero;stroke:none"
               id="text118"><tspan
                 x="0 6.6719999 16.128 25.464001"
                 y="0"
                 sodipodi:role="line"
                 id="tspan116">istr</tspan></text><text
               transform="matrix(0.999999,0,0,-1,369.74,244.491)"
               style="font-variant:normal;font-size:24px;font-family:f-1;-inkscape-font-specification:f-1-0;writing-mode:lr-tb;fill:#000000;fill-opacity:1;fill-rule:nonzero;stroke:none"
               id="text122"><tspan
                 x="0"
                 y="0"
                 id="tspan120">i</tspan></text><text
               transform="matrix(1,0,0,-1,376.412,244.491)"
               style="font-variant:normal;font-size:24px;font-family:f-1;-inkscape-font-specification:f-1-0;writing-mode:lr-tb;fill:#000000;fill-opacity:1;fill-rule:nonzero;stroke:none"
               id="text126"><tspan
                 x="0 13.344 26.688 36.023998"
                 y="0"
                 sodipodi:role="line"
                 id="tspan124">buti</tspan></text><text
               transform="matrix(0.999999,0,0,-1,419.107,244.491)"
               style="font-variant:normal;font-size:24px;font-family:f-1;-inkscape-font-specification:f-1-0;writing-mode:lr-tb;fill:#000000;fill-opacity:1;fill-rule:nonzero;stroke:none"
               id="text130"><tspan
                 x="0"
                 y="0"
                 id="tspan128">o</tspan></text><text
               transform="matrix(1,0,0,-1,431.107,244.491)"
               style="font-variant:normal;font-size:24px;font-family:f-1;-inkscape-font-specification:f-1-0;writing-mode:lr-tb;fill:#000000;fill-opacity:1;fill-rule:nonzero;stroke:none"
               id="text134"><tspan
                 x="0"
                 y="0"
                 id="tspan132">n</tspan></text></g><path
             d="m 1883.95,2545.39 h 150"
             style="fill:none;stroke:#000000;stroke-width:18.75;stroke-linecap:butt;stroke-linejoin:miter;stroke-miterlimit:10;stroke-dasharray:none;stroke-opacity:1"
             id="path136" /><g
             id="g138"
             transform="scale(10)"><text
               transform="matrix(0.999999,0,0,-1,207.143,211.004)"
               style="font-variant:normal;font-size:24px;font-family:f-0;-inkscape-font-specification:f-0-1;writing-mode:lr-tb;fill:#000000;fill-opacity:1;fill-rule:nonzero;stroke:none"
               id="text142"><tspan
                 x="0"
                 y="0"
                 id="tspan140">θ</tspan></text><text
               transform="matrix(1,0,0,-1,221.732,223.675)"
               style="font-variant:normal;font-size:14.4px;font-family:f-0;-inkscape-font-specification:f-0-1;writing-mode:lr-tb;fill:#000000;fill-opacity:1;fill-rule:nonzero;stroke:none"
               id="text146"><tspan
                 x="0"
                 y="0"
                 id="tspan144">⋆</tspan></text></g><path
             d="m 1883.95,2208.16 h 150"
             style="fill:none;stroke:#ff0000;stroke-width:7.5;stroke-linecap:butt;stroke-linejoin:miter;stroke-miterlimit:10;stroke-dasharray:none;stroke-opacity:1"
             id="path148" /><path
             d="m 1907.5,2156.52 51.41,103.28 51.56,-103.28 z"
             style="fill:#ff0000;fill-opacity:1;fill-rule:nonzero;stroke:none"
             id="path150" /><g
             id="g152"
             transform="scale(10)"><text
               transform="matrix(1,0,0,-1,207.143,177.05)"
               style="font-variant:normal;font-size:24px;font-family:f-0;-inkscape-font-specification:f-0-0;writing-mode:lr-tb;fill:#000000;fill-opacity:1;fill-rule:nonzero;stroke:none"
               id="text156"><tspan
                 x="0 15.984"
                 y="0"
                 sodipodi:role="line"
                 id="tspan154">E(</tspan></text><text
               transform="matrix(1,0,0,-1,232.4629,177.05)"
               style="font-variant:normal;font-size:24px;font-family:f-0;-inkscape-font-specification:f-0-1;writing-mode:lr-tb;fill:#000000;fill-opacity:1;fill-rule:nonzero;stroke:none"
               id="text160"><tspan
                 x="0"
                 y="0"
                 id="tspan158">θ</tspan></text><text
               transform="matrix(0.999999,0,0,-1,247.053,189.721)"
               style="font-variant:normal;font-size:14.4px;font-family:f-0;-inkscape-font-specification:f-0-1;writing-mode:lr-tb;fill:#000000;fill-opacity:1;fill-rule:nonzero;stroke:none"
               id="text164"><tspan
                 x="0"
                 y="0"
                 id="tspan162">⋆</tspan></text><text
               transform="matrix(1,0,0,-1,257.135,177.05)"
               style="font-variant:normal;font-size:24px;font-family:f-0;-inkscape-font-specification:f-0-0;writing-mode:lr-tb;fill:#000000;fill-opacity:1;fill-rule:nonzero;stroke:none"
               id="text168"><tspan
                 x="0"
                 y="0"
                 id="tspan166">)</tspan></text></g><path
             d="m 1883.95,1870.94 h 150"
             style="fill:none;stroke:#000000;stroke-width:7.5;stroke-linecap:butt;stroke-linejoin:miter;stroke-miterlimit:10;stroke-dasharray:none;stroke-opacity:1"
             id="path170" /><path
             d="m 1907.5,1819.34 51.41,103.28 51.56,-103.28 z"
             style="fill:#000000;fill-opacity:1;fill-rule:nonzero;stroke:none"
             id="path172" /><path
             d="M 1685,1161.91 H 7715"
             style="fill:none;stroke:#000000;stroke-width:7.5;stroke-linecap:butt;stroke-linejoin:miter;stroke-miterlimit:10;stroke-dasharray:none;stroke-opacity:1"
             id="path174" /><path
             d="m 1688.75,1158.16 v 1620"
             style="fill:none;stroke:#000000;stroke-width:7.5;stroke-linecap:butt;stroke-linejoin:miter;stroke-miterlimit:10;stroke-dasharray:none;stroke-opacity:1"
             id="path176" /></g></g><g
         id="g178"
         transform="scale(10)"><text
           transform="matrix(0.999999,0,0,-1,474.104,45.3145)"
           style="font-variant:normal;font-size:24px;font-family:f-0;-inkscape-font-specification:f-0-1;writing-mode:lr-tb;fill:#000000;fill-opacity:1;fill-rule:nonzero;stroke:none"
           id="text182"><tspan
             x="0"
             y="0"
             id="tspan180">θ</tspan></text><text
           transform="matrix(0.999999,0,0,-1,53.548421,204.9005)"
           style="font-variant:normal;font-size:24px;font-family:f-0;-inkscape-font-specification:f-0-0;writing-mode:lr-tb;fill:#000000;fill-opacity:1;fill-rule:nonzero;stroke:none"
           id="text186"><tspan
             x="0 7.3439999"
             y="0"
             sodipodi:role="line"
             id="tspan184">f(</tspan></text><text
           transform="matrix(0.999999,0,0,-1,70.228504,204.9005)"
           style="font-variant:normal;font-size:24px;font-family:f-0;-inkscape-font-specification:f-0-1;writing-mode:lr-tb;fill:#000000;fill-opacity:1;fill-rule:nonzero;stroke:none"
           id="text190"><tspan
             x="0"
             y="0"
             id="tspan188">θ</tspan></text><text
           transform="matrix(0.999999,0,0,-1,81.940592,204.9005)"
           style="font-variant:normal;font-size:24px;font-family:f-0;-inkscape-font-specification:f-0-0;writing-mode:lr-tb;fill:#000000;fill-opacity:1;fill-rule:nonzero;stroke:none"
           id="text194"><tspan
             x="0"
             y="0"
             id="tspan192">)</tspan></text></g></g><g
       transform="matrix(2.2527822,0,0,-2.2527822,651.36364,138.68541)"
       ns9:version="1.8.1"
       ns9:texconverter="pdflatex"
       ns9:pdfconverter="inkscape"
       ns9:text="$\\hat{p} = 5, \\sigma_p = 5$"
       ns9:preamble="/home/aykut/.config/inkscape/extensions/textext/default_packages.tex"
       ns9:scale="1.5"
       ns9:alignment="middle center"
       ns9:stroke-to-path="0"
       ns9:inkscapeversion="1.1.2"
       ns9:jacobian_sqrt="1.5"
       id="g1099"
       style="stroke-width:0.665842"><defs
         id="id-4b4a763f-37aa-47a7-a4ed-809e45a4458e"><g
           id="g2473"><symbol
             overflow="visible"
             id="symbol2435"><path
               style="stroke:none;stroke-width:0"
               d=""
               id="path2433" /></symbol><symbol
             overflow="visible"
             id="symbol2439"><path
               style="stroke:none;stroke-width:0"
               d="M 2.5,-6.921875 1.15625,-5.5625 1.328125,-5.390625 2.5,-6.40625 3.640625,-5.390625 3.8125,-5.5625 Z m 0,0"
               id="path2437" /></symbol><symbol
             overflow="visible"
             id="symbol2443"><path
               style="stroke:none;stroke-width:0"
               d="m 6.84375,-3.265625 c 0.15625,0 0.34375,0 0.34375,-0.1875 C 7.1875,-3.65625 7,-3.65625 6.859375,-3.65625 h -5.96875 c -0.140625,0 -0.328125,0 -0.328125,0.203125 0,0.1875 0.1875,0.1875 0.328125,0.1875 z m 0.015625,1.9375 c 0.140625,0 0.328125,0 0.328125,-0.203125 0,-0.1875 -0.1875,-0.1875 -0.34375,-0.1875 H 0.890625 c -0.140625,0 -0.328125,0 -0.328125,0.1875 0,0.203125 0.1875,0.203125 0.328125,0.203125 z m 0,0"
               id="path2441" /></symbol><symbol
             overflow="visible"
             id="symbol2447"><path
               style="stroke:none;stroke-width:0"
               d="m 4.46875,-2 c 0,-1.1875 -0.8125,-2.1875 -1.890625,-2.1875 -0.46875,0 -0.90625,0.15625 -1.265625,0.515625 V -5.625 c 0.203125,0.0625 0.53125,0.125 0.84375,0.125 1.234375,0 1.9375,-0.90625 1.9375,-1.03125 0,-0.0625 -0.03125,-0.109375 -0.109375,-0.109375 0,0 -0.03125,0 -0.078125,0.03125 C 3.703125,-6.515625 3.21875,-6.3125 2.546875,-6.3125 2.15625,-6.3125 1.6875,-6.390625 1.21875,-6.59375 1.140625,-6.625 1.125,-6.625 1.109375,-6.625 1,-6.625 1,-6.546875 1,-6.390625 V -3.4375 c 0,0.171875 0,0.25 0.140625,0.25 0.078125,0 0.09375,-0.015625 0.140625,-0.078125 C 1.390625,-3.421875 1.75,-3.96875 2.5625,-3.96875 c 0.515625,0 0.765625,0.453125 0.84375,0.640625 0.15625,0.375 0.1875,0.75 0.1875,1.25 0,0.359375 0,0.953125 -0.25,1.375 C 3.109375,-0.3125 2.734375,-0.0625 2.28125,-0.0625 c -0.71875,0 -1.296875,-0.53125 -1.46875,-1.109375 0.03125,0 0.0625,0.015625 0.171875,0.015625 0.328125,0 0.5,-0.25 0.5,-0.484375 0,-0.25 -0.171875,-0.5 -0.5,-0.5 C 0.84375,-2.140625 0.5,-2.0625 0.5,-1.609375 0.5,-0.75 1.1875,0.21875 2.296875,0.21875 3.453125,0.21875 4.46875,-0.734375 4.46875,-2 Z m 0,0"
               id="path2445" /></symbol><symbol
             overflow="visible"
             id="symbol2451"><path
               style="stroke:none;stroke-width:0"
               d=""
               id="path2449" /></symbol><symbol
             overflow="visible"
             id="symbol2455"><path
               style="stroke:none;stroke-width:0"
               d="M 0.453125,1.21875 C 0.375,1.5625 0.34375,1.625 -0.09375,1.625 c -0.109375,0 -0.21875,0 -0.21875,0.1875 0,0.078125 0.046875,0.125 0.125,0.125 0.265625,0 0.5625,-0.03125 0.828125,-0.03125 0.34375,0 0.671875,0.03125 1,0.03125 0.046875,0 0.171875,0 0.171875,-0.203125 C 1.8125,1.625 1.71875,1.625 1.578125,1.625 c -0.5,0 -0.5,-0.0625 -0.5,-0.15625 0,-0.125 0.421875,-1.75 0.484375,-2 0.125,0.296875 0.40625,0.640625 0.921875,0.640625 1.15625,0 2.40625,-1.453125 2.40625,-2.921875 0,-0.9375 -0.578125,-1.59375 -1.328125,-1.59375 -0.5,0 -0.984375,0.359375 -1.3125,0.75 -0.09375,-0.546875 -0.53125,-0.75 -0.890625,-0.75 -0.46875,0 -0.65625,0.390625 -0.734375,0.5625 C 0.4375,-3.5 0.3125,-2.90625 0.3125,-2.875 c 0,0.109375 0.09375,0.109375 0.109375,0.109375 0.109375,0 0.109375,-0.015625 0.171875,-0.234375 0.171875,-0.703125 0.375,-1.1875 0.734375,-1.1875 0.171875,0 0.3125,0.078125 0.3125,0.453125 0,0.234375 -0.03125,0.34375 -0.078125,0.515625 z m 1.75,-4.328125 C 2.265625,-3.375 2.546875,-3.65625 2.71875,-3.8125 c 0.359375,-0.296875 0.640625,-0.375 0.8125,-0.375 0.390625,0 0.640625,0.34375 0.640625,0.9375 0,0.59375 -0.328125,1.734375 -0.515625,2.109375 -0.34375,0.703125 -0.8125,1.03125 -1.1875,1.03125 C 1.8125,-0.109375 1.6875,-0.9375 1.6875,-1 c 0,-0.015625 0,-0.03125 0.03125,-0.15625 z m 0,0"
               id="path2453" /></symbol><symbol
             overflow="visible"
             id="symbol2459"><path
               style="stroke:none;stroke-width:0"
               d="m 2.03125,-0.015625 c 0,-0.65625 -0.25,-1.046875 -0.640625,-1.046875 -0.328125,0 -0.53125,0.25 -0.53125,0.53125 C 0.859375,-0.265625 1.0625,0 1.390625,0 1.5,0 1.640625,-0.046875 1.734375,-0.125 1.765625,-0.15625 1.78125,-0.15625 1.78125,-0.15625 c 0.015625,0 0.015625,0 0.015625,0.140625 0,0.75 -0.34375,1.34375 -0.671875,1.671875 -0.109375,0.109375 -0.109375,0.125 -0.109375,0.15625 0,0.078125 0.046875,0.109375 0.09375,0.109375 0.109375,0 0.921875,-0.765625 0.921875,-1.9375 z m 0,0"
               id="path2457" /></symbol><symbol
             overflow="visible"
             id="symbol2463"><path
               style="stroke:none;stroke-width:0"
               d="m 5.15625,-3.71875 c 0.140625,0 0.5,0 0.5,-0.34375 0,-0.234375 -0.21875,-0.234375 -0.390625,-0.234375 h -2.28125 c -1.5,0 -2.609375,1.640625 -2.609375,2.828125 0,0.875 0.59375,1.578125 1.5,1.578125 1.171875,0 2.5,-1.203125 2.5,-2.734375 0,-0.171875 0,-0.65625 -0.3125,-1.09375 z M 1.890625,-0.109375 C 1.390625,-0.109375 1,-0.46875 1,-1.1875 c 0,-0.296875 0.109375,-1.109375 0.46875,-1.703125 0.421875,-0.6875 1.015625,-0.828125 1.359375,-0.828125 0.828125,0 0.90625,0.65625 0.90625,0.96875 0,0.46875 -0.203125,1.28125 -0.53125,1.796875 -0.390625,0.578125 -0.9375,0.84375 -1.3125,0.84375 z m 0,0"
               id="path2461" /></symbol><symbol
             overflow="visible"
             id="symbol2467"><path
               style="stroke:none;stroke-width:0"
               d=""
               id="path2465" /></symbol><symbol
             overflow="visible"
             id="symbol2471"><path
               style="stroke:none;stroke-width:0"
               d="m 0.515625,0.84375 c -0.046875,0.203125 -0.0625,0.25 -0.328125,0.25 -0.09375,0 -0.1875,0 -0.1875,0.15625 0,0.078125 0.0625,0.109375 0.09375,0.109375 0.171875,0 0.40625,-0.03125 0.59375,-0.03125 0.234375,0 0.5,0.03125 0.734375,0.03125 0.0625,0 0.140625,-0.03125 0.140625,-0.15625 0,-0.109375 -0.09375,-0.109375 -0.1875,-0.109375 -0.15625,0 -0.34375,0 -0.34375,-0.078125 0,-0.03125 0.0625,-0.21875 0.078125,-0.3125 0.09375,-0.375 0.1875,-0.75 0.265625,-1.046875 0.078125,0.140625 0.296875,0.40625 0.71875,0.40625 0.84375,0 1.78125,-0.9375 1.78125,-1.96875 0,-0.8125 -0.5625,-1.171875 -1.03125,-1.171875 -0.4375,0 -0.8125,0.296875 -1,0.5 -0.109375,-0.40625 -0.5,-0.5 -0.71875,-0.5 -0.265625,0 -0.4375,0.1875 -0.546875,0.375 -0.140625,0.234375 -0.25,0.65625 -0.25,0.703125 0,0.078125 0.09375,0.078125 0.125,0.078125 0.09375,0 0.09375,-0.015625 0.140625,-0.203125 0.109375,-0.40625 0.25,-0.75 0.515625,-0.75 0.1875,0 0.234375,0.15625 0.234375,0.34375 0,0.078125 -0.015625,0.15625 -0.03125,0.203125 z M 1.84375,-2.234375 C 2.25,-2.78125 2.59375,-2.875 2.8125,-2.875 c 0.28125,0 0.515625,0.203125 0.515625,0.671875 0,0.28125 -0.15625,1 -0.359375,1.40625 -0.1875,0.34375 -0.515625,0.671875 -0.875,0.671875 -0.5,0 -0.625,-0.53125 -0.625,-0.609375 0,-0.03125 0.015625,-0.078125 0.015625,-0.109375 z m 0,0"
               id="path2469" /></symbol></g></defs><g
         id="id-4023f965-753f-4c6b-aafa-3e72e278257c"
         transform="translate(-258.31343,-130.17803)"
         style="stroke-width:0.665842"><g
           style="fill:#000000;fill-opacity:1;stroke-width:0.665842"
           id="id-63c10b15-12ba-408c-a6d7-d46a35361605"><g
             transform="translate(149.558,134.765)"
             id="g1063"
             style="stroke-width:0.665842"><path
               style="stroke:none;stroke-width:0"
               d="M 2.5,-6.921875 1.15625,-5.5625 1.328125,-5.390625 2.5,-6.40625 3.640625,-5.390625 3.8125,-5.5625 Z m 0,0"
               id="id-ce39c935-7568-4a51-9216-a8f7d5db3270" /></g></g><g
           style="fill:#000000;fill-opacity:1;stroke-width:0.665842"
           id="id-1e268d57-4dc7-4bf6-9070-9e72a9fad6d9"><g
             transform="translate(148.712,134.765)"
             id="g1067"
             style="stroke-width:0.665842"><path
               style="stroke:none;stroke-width:0"
               d="M 0.453125,1.21875 C 0.375,1.5625 0.34375,1.625 -0.09375,1.625 c -0.109375,0 -0.21875,0 -0.21875,0.1875 0,0.078125 0.046875,0.125 0.125,0.125 0.265625,0 0.5625,-0.03125 0.828125,-0.03125 0.34375,0 0.671875,0.03125 1,0.03125 0.046875,0 0.171875,0 0.171875,-0.203125 C 1.8125,1.625 1.71875,1.625 1.578125,1.625 c -0.5,0 -0.5,-0.0625 -0.5,-0.15625 0,-0.125 0.421875,-1.75 0.484375,-2 0.125,0.296875 0.40625,0.640625 0.921875,0.640625 1.15625,0 2.40625,-1.453125 2.40625,-2.921875 0,-0.9375 -0.578125,-1.59375 -1.328125,-1.59375 -0.5,0 -0.984375,0.359375 -1.3125,0.75 -0.09375,-0.546875 -0.53125,-0.75 -0.890625,-0.75 -0.46875,0 -0.65625,0.390625 -0.734375,0.5625 C 0.4375,-3.5 0.3125,-2.90625 0.3125,-2.875 c 0,0.109375 0.09375,0.109375 0.109375,0.109375 0.109375,0 0.109375,-0.015625 0.171875,-0.234375 0.171875,-0.703125 0.375,-1.1875 0.734375,-1.1875 0.171875,0 0.3125,0.078125 0.3125,0.453125 0,0.234375 -0.03125,0.34375 -0.078125,0.515625 z m 1.75,-4.328125 C 2.265625,-3.375 2.546875,-3.65625 2.71875,-3.8125 c 0.359375,-0.296875 0.640625,-0.375 0.8125,-0.375 0.390625,0 0.640625,0.34375 0.640625,0.9375 0,0.59375 -0.328125,1.734375 -0.515625,2.109375 -0.34375,0.703125 -0.8125,1.03125 -1.1875,1.03125 C 1.8125,-0.109375 1.6875,-0.9375 1.6875,-1 c 0,-0.015625 0,-0.03125 0.03125,-0.15625 z m 0,0"
               id="id-c51c0f51-a0fb-41f9-82d2-770c4780d8f3" /></g></g><g
           style="fill:#000000;fill-opacity:1;stroke-width:0.665842"
           id="id-1a2e8b1d-cae5-431d-b7a9-7ff10d550674"><g
             transform="translate(156.492,134.765)"
             id="g1071"
             style="stroke-width:0.665842"><path
               style="stroke:none;stroke-width:0"
               d="m 6.84375,-3.265625 c 0.15625,0 0.34375,0 0.34375,-0.1875 C 7.1875,-3.65625 7,-3.65625 6.859375,-3.65625 h -5.96875 c -0.140625,0 -0.328125,0 -0.328125,0.203125 0,0.1875 0.1875,0.1875 0.328125,0.1875 z m 0.015625,1.9375 c 0.140625,0 0.328125,0 0.328125,-0.203125 0,-0.1875 -0.1875,-0.1875 -0.34375,-0.1875 H 0.890625 c -0.140625,0 -0.328125,0 -0.328125,0.1875 0,0.203125 0.1875,0.203125 0.328125,0.203125 z m 0,0"
               id="id-022e56e1-bcbc-4f38-b112-0127eb8212df" /></g></g><g
           style="fill:#000000;fill-opacity:1;stroke-width:0.665842"
           id="id-74205896-23a5-4100-a126-04aee1b28d2d"><g
             transform="translate(167.011,134.765)"
             id="g1075"
             style="stroke-width:0.665842"><path
               style="stroke:none;stroke-width:0"
               d="m 4.46875,-2 c 0,-1.1875 -0.8125,-2.1875 -1.890625,-2.1875 -0.46875,0 -0.90625,0.15625 -1.265625,0.515625 V -5.625 c 0.203125,0.0625 0.53125,0.125 0.84375,0.125 1.234375,0 1.9375,-0.90625 1.9375,-1.03125 0,-0.0625 -0.03125,-0.109375 -0.109375,-0.109375 0,0 -0.03125,0 -0.078125,0.03125 C 3.703125,-6.515625 3.21875,-6.3125 2.546875,-6.3125 2.15625,-6.3125 1.6875,-6.390625 1.21875,-6.59375 1.140625,-6.625 1.125,-6.625 1.109375,-6.625 1,-6.625 1,-6.546875 1,-6.390625 V -3.4375 c 0,0.171875 0,0.25 0.140625,0.25 0.078125,0 0.09375,-0.015625 0.140625,-0.078125 C 1.390625,-3.421875 1.75,-3.96875 2.5625,-3.96875 c 0.515625,0 0.765625,0.453125 0.84375,0.640625 0.15625,0.375 0.1875,0.75 0.1875,1.25 0,0.359375 0,0.953125 -0.25,1.375 C 3.109375,-0.3125 2.734375,-0.0625 2.28125,-0.0625 c -0.71875,0 -1.296875,-0.53125 -1.46875,-1.109375 0.03125,0 0.0625,0.015625 0.171875,0.015625 0.328125,0 0.5,-0.25 0.5,-0.484375 0,-0.25 -0.171875,-0.5 -0.5,-0.5 C 0.84375,-2.140625 0.5,-2.0625 0.5,-1.609375 0.5,-0.75 1.1875,0.21875 2.296875,0.21875 3.453125,0.21875 4.46875,-0.734375 4.46875,-2 Z m 0,0"
               id="id-198dd6c6-d0db-49f7-a3c6-f77a2a5c861a" /></g></g><g
           style="fill:#000000;fill-opacity:1;stroke-width:0.665842"
           id="id-f483f931-4221-4573-8a75-4c650839f8cf"><g
             transform="translate(171.989,134.765)"
             id="g1079"
             style="stroke-width:0.665842"><path
               style="stroke:none;stroke-width:0"
               d="m 2.03125,-0.015625 c 0,-0.65625 -0.25,-1.046875 -0.640625,-1.046875 -0.328125,0 -0.53125,0.25 -0.53125,0.53125 C 0.859375,-0.265625 1.0625,0 1.390625,0 1.5,0 1.640625,-0.046875 1.734375,-0.125 1.765625,-0.15625 1.78125,-0.15625 1.78125,-0.15625 c 0.015625,0 0.015625,0 0.015625,0.140625 0,0.75 -0.34375,1.34375 -0.671875,1.671875 -0.109375,0.109375 -0.109375,0.125 -0.109375,0.15625 0,0.078125 0.046875,0.109375 0.09375,0.109375 0.109375,0 0.921875,-0.765625 0.921875,-1.9375 z m 0,0"
               id="id-961b65e1-3d6b-4d5c-95c1-fa323ae48537" /></g></g><g
           style="fill:#000000;fill-opacity:1;stroke-width:0.665842"
           id="id-c534b803-3d40-43f7-a948-e375c55edcb9"><g
             transform="translate(176.42,134.765)"
             id="g1083"
             style="stroke-width:0.665842"><path
               style="stroke:none;stroke-width:0"
               d="m 5.15625,-3.71875 c 0.140625,0 0.5,0 0.5,-0.34375 0,-0.234375 -0.21875,-0.234375 -0.390625,-0.234375 h -2.28125 c -1.5,0 -2.609375,1.640625 -2.609375,2.828125 0,0.875 0.59375,1.578125 1.5,1.578125 1.171875,0 2.5,-1.203125 2.5,-2.734375 0,-0.171875 0,-0.65625 -0.3125,-1.09375 z M 1.890625,-0.109375 C 1.390625,-0.109375 1,-0.46875 1,-1.1875 c 0,-0.296875 0.109375,-1.109375 0.46875,-1.703125 0.421875,-0.6875 1.015625,-0.828125 1.359375,-0.828125 0.828125,0 0.90625,0.65625 0.90625,0.96875 0,0.46875 -0.203125,1.28125 -0.53125,1.796875 -0.390625,0.578125 -0.9375,0.84375 -1.3125,0.84375 z m 0,0"
               id="id-166b705a-26f5-42a4-809d-c19bd83fd837" /></g></g><g
           style="fill:#000000;fill-opacity:1;stroke-width:0.665842"
           id="id-fd200b31-63d6-4c4a-a161-6e198cb97a1d"><g
             transform="translate(182.11,136.259)"
             id="g1087"
             style="stroke-width:0.665842"><path
               style="stroke:none;stroke-width:0"
               d="m 0.515625,0.84375 c -0.046875,0.203125 -0.0625,0.25 -0.328125,0.25 -0.09375,0 -0.1875,0 -0.1875,0.15625 0,0.078125 0.0625,0.109375 0.09375,0.109375 0.171875,0 0.40625,-0.03125 0.59375,-0.03125 0.234375,0 0.5,0.03125 0.734375,0.03125 0.0625,0 0.140625,-0.03125 0.140625,-0.15625 0,-0.109375 -0.09375,-0.109375 -0.1875,-0.109375 -0.15625,0 -0.34375,0 -0.34375,-0.078125 0,-0.03125 0.0625,-0.21875 0.078125,-0.3125 0.09375,-0.375 0.1875,-0.75 0.265625,-1.046875 0.078125,0.140625 0.296875,0.40625 0.71875,0.40625 0.84375,0 1.78125,-0.9375 1.78125,-1.96875 0,-0.8125 -0.5625,-1.171875 -1.03125,-1.171875 -0.4375,0 -0.8125,0.296875 -1,0.5 -0.109375,-0.40625 -0.5,-0.5 -0.71875,-0.5 -0.265625,0 -0.4375,0.1875 -0.546875,0.375 -0.140625,0.234375 -0.25,0.65625 -0.25,0.703125 0,0.078125 0.09375,0.078125 0.125,0.078125 0.09375,0 0.09375,-0.015625 0.140625,-0.203125 0.109375,-0.40625 0.25,-0.75 0.515625,-0.75 0.1875,0 0.234375,0.15625 0.234375,0.34375 0,0.078125 -0.015625,0.15625 -0.03125,0.203125 z M 1.84375,-2.234375 C 2.25,-2.78125 2.59375,-2.875 2.8125,-2.875 c 0.28125,0 0.515625,0.203125 0.515625,0.671875 0,0.28125 -0.15625,1 -0.359375,1.40625 -0.1875,0.34375 -0.515625,0.671875 -0.875,0.671875 -0.5,0 -0.625,-0.53125 -0.625,-0.609375 0,-0.03125 0.015625,-0.078125 0.015625,-0.109375 z m 0,0"
               id="id-d9daad6d-0e3b-4b06-9295-c3938aa9c1fe" /></g></g><g
           style="fill:#000000;fill-opacity:1;stroke-width:0.665842"
           id="id-a5f286d6-e208-495d-b082-36f1ba63096e"><g
             transform="translate(189.482,134.765)"
             id="g1091"
             style="stroke-width:0.665842"><path
               style="stroke:none;stroke-width:0"
               d="m 6.84375,-3.265625 c 0.15625,0 0.34375,0 0.34375,-0.1875 C 7.1875,-3.65625 7,-3.65625 6.859375,-3.65625 h -5.96875 c -0.140625,0 -0.328125,0 -0.328125,0.203125 0,0.1875 0.1875,0.1875 0.328125,0.1875 z m 0.015625,1.9375 c 0.140625,0 0.328125,0 0.328125,-0.203125 0,-0.1875 -0.1875,-0.1875 -0.34375,-0.1875 H 0.890625 c -0.140625,0 -0.328125,0 -0.328125,0.1875 0,0.203125 0.1875,0.203125 0.328125,0.203125 z m 0,0"
               id="id-cd86bb75-dfc9-4ead-b9b7-114f32883616" /></g></g><g
           style="fill:#000000;fill-opacity:1;stroke-width:0.665842"
           id="id-7fb275fe-629e-4bc7-b8fd-1d76687c9e84"><g
             transform="translate(200.001,134.765)"
             id="g1095"
             style="stroke-width:0.665842"><path
               style="stroke:none;stroke-width:0"
               d="m 4.46875,-2 c 0,-1.1875 -0.8125,-2.1875 -1.890625,-2.1875 -0.46875,0 -0.90625,0.15625 -1.265625,0.515625 V -5.625 c 0.203125,0.0625 0.53125,0.125 0.84375,0.125 1.234375,0 1.9375,-0.90625 1.9375,-1.03125 0,-0.0625 -0.03125,-0.109375 -0.109375,-0.109375 0,0 -0.03125,0 -0.078125,0.03125 C 3.703125,-6.515625 3.21875,-6.3125 2.546875,-6.3125 2.15625,-6.3125 1.6875,-6.390625 1.21875,-6.59375 1.140625,-6.625 1.125,-6.625 1.109375,-6.625 1,-6.625 1,-6.546875 1,-6.390625 V -3.4375 c 0,0.171875 0,0.25 0.140625,0.25 0.078125,0 0.09375,-0.015625 0.140625,-0.078125 C 1.390625,-3.421875 1.75,-3.96875 2.5625,-3.96875 c 0.515625,0 0.765625,0.453125 0.84375,0.640625 0.15625,0.375 0.1875,0.75 0.1875,1.25 0,0.359375 0,0.953125 -0.25,1.375 C 3.109375,-0.3125 2.734375,-0.0625 2.28125,-0.0625 c -0.71875,0 -1.296875,-0.53125 -1.46875,-1.109375 0.03125,0 0.0625,0.015625 0.171875,0.015625 0.328125,0 0.5,-0.25 0.5,-0.484375 0,-0.25 -0.171875,-0.5 -0.5,-0.5 C 0.84375,-2.140625 0.5,-2.0625 0.5,-1.609375 0.5,-0.75 1.1875,0.21875 2.296875,0.21875 3.453125,0.21875 4.46875,-0.734375 4.46875,-2 Z m 0,0"
               id="id-81fc54c6-8403-4881-b3da-545bb81ec1e4" /></g></g></g></g></g></svg>
