<svg class="main-svg" xmlns="http://www.w3.org/2000/svg" xmlns:xlink="http://www.w3.org/1999/xlink" width="700" height="500" style="" viewBox="0 0 700 500"><rect x="0" y="0" width="700" height="500" style="fill: rgb(255, 255, 255); fill-opacity: 1;"/><defs id="defs-cd0a93"><g class="clips"><clipPath id="clipcd0a93xyplot" class="plotclip"><rect width="565" height="364"/></clipPath><clipPath class="axesclip" id="clipcd0a93x"><rect x="85" y="0" width="565" height="500"/></clipPath><clipPath class="axesclip" id="clipcd0a93y"><rect x="0" y="60" width="700" height="364"/></clipPath><clipPath class="axesclip" id="clipcd0a93xy"><rect x="85" y="60" width="565" height="364"/></clipPath></g><g class="gradients"/></defs><g class="bglayer"><rect class="bg" x="85" y="60" width="565" height="364" style="fill: rgb(229, 236, 246); fill-opacity: 1; stroke-width: 0;"/></g><g class="layer-below"><g class="imagelayer"/><g class="shapelayer"/></g><g class="cartesianlayer"><g class="subplot xy"><g class="layer-subplot"><g class="shapelayer"/><g class="imagelayer"/></g><g class="gridlayer"><g class="x"><path class="xgrid crisp" transform="translate(217.2,0)" d="M0,60v364" style="stroke: rgb(255, 255, 255); stroke-opacity: 1; stroke-width: 1px;"/><path class="xgrid crisp" transform="translate(317.4,0)" d="M0,60v364" style="stroke: rgb(255, 255, 255); stroke-opacity: 1; stroke-width: 1px;"/><path class="xgrid crisp" transform="translate(417.6,0)" d="M0,60v364" style="stroke: rgb(255, 255, 255); stroke-opacity: 1; stroke-width: 1px;"/><path class="xgrid crisp" transform="translate(517.8,0)" d="M0,60v364" style="stroke: rgb(255, 255, 255); stroke-opacity: 1; stroke-width: 1px;"/><path class="xgrid crisp" transform="translate(618,0)" d="M0,60v364" style="stroke: rgb(255, 255, 255); stroke-opacity: 1; stroke-width: 1px;"/></g><g class="y"><path class="ygrid crisp" transform="translate(0,355.26)" d="M85,0h565" style="stroke: rgb(255, 255, 255); stroke-opacity: 1; stroke-width: 1px;"/><path class="ygrid crisp" transform="translate(0,308.47)" d="M85,0h565" style="stroke: rgb(255, 255, 255); stroke-opacity: 1; stroke-width: 1px;"/><path class="ygrid crisp" transform="translate(0,261.68)" d="M85,0h565" style="stroke: rgb(255, 255, 255); stroke-opacity: 1; stroke-width: 1px;"/><path class="ygrid crisp" transform="translate(0,214.89)" d="M85,0h565" style="stroke: rgb(255, 255, 255); stroke-opacity: 1; stroke-width: 1px;"/><path class="ygrid crisp" transform="translate(0,168.1)" d="M85,0h565" style="stroke: rgb(255, 255, 255); stroke-opacity: 1; stroke-width: 1px;"/><path class="ygrid crisp" transform="translate(0,121.31)" d="M85,0h565" style="stroke: rgb(255, 255, 255); stroke-opacity: 1; stroke-width: 1px;"/><path class="ygrid crisp" transform="translate(0,74.53)" d="M85,0h565" style="stroke: rgb(255, 255, 255); stroke-opacity: 1; stroke-width: 1px;"/></g></g><g class="zerolinelayer"><path class="xzl zl crisp" transform="translate(117,0)" d="M0,60v364" style="stroke: rgb(255, 255, 255); stroke-opacity: 1; stroke-width: 2px;"/><path class="yzl zl crisp" transform="translate(0,402.05)" d="M85,0h565" style="stroke: rgb(255, 255, 255); stroke-opacity: 1; stroke-width: 2px;"/></g><path class="xlines-below"/><path class="ylines-below"/><g class="overlines-below"/><g class="xaxislayer-below"/><g class="yaxislayer-below"/><g class="overaxes-below"/><g class="plot" transform="translate(85,60)" clip-path="url('#clipcd0a93xyplot')"><g class="scatterlayer mlayer"><g class="trace scatter trace43db37" style="stroke-miterlimit: 2; opacity: 1;"><g class="fills"/><g class="errorbars"/><g class="lines"><path class="js-line" d="M32,301.24L132.2,311.91L232.4,279.04L332.6,280.69L432.8,265.68L533,255.12" style="vector-effect: non-scaling-stroke; fill: none; stroke: rgb(51, 51, 255); stroke-opacity: 1; stroke-width: 5px; opacity: 1; stroke-dasharray: 5px, 5px;"/></g><g class="points"/><g class="text"/></g><g class="trace scatter tracec27f89" style="stroke-miterlimit: 2; opacity: 1;"><g class="fills"><g><path class="js-fill" d="M32,207.87L132.2,268.66L232.4,222.01L332.6,195.72L432.8,201.16L533,159.67L533,342.05L432.8,330.19L332.6,342.05L232.4,336.08L132.2,342.05L32,342.05Z" style="fill: rgb(51, 51, 255); fill-opacity: 0.2; stroke-width: 0;"/></g></g><g class="errorbars"/><g class="lines"><path class="js-line" d="M32,207.87L132.2,268.66L232.4,222.01L332.6,195.72L432.8,201.16L533,159.67L533,342.05L432.8,330.19L332.6,342.05L232.4,336.08L132.2,342.05L32,342.05" style="vector-effect: non-scaling-stroke; fill: none; stroke: rgb(255, 255, 255); stroke-opacity: 0; stroke-width: 2px; opacity: 1;"/></g><g class="points"><path class="point" transform="translate(32,207.87)" d="M3,0A3,3 0 1,1 0,-3A3,3 0 0,1 3,0Z" style="opacity: 1; stroke-width: 0px; fill: rgb(255, 255, 255); fill-opacity: 0;"/><path class="point" transform="translate(132.2,268.66)" d="M3,0A3,3 0 1,1 0,-3A3,3 0 0,1 3,0Z" style="opacity: 1; stroke-width: 0px; fill: rgb(255, 255, 255); fill-opacity: 0;"/><path class="point" transform="translate(232.4,222.01)" d="M3,0A3,3 0 1,1 0,-3A3,3 0 0,1 3,0Z" style="opacity: 1; stroke-width: 0px; fill: rgb(255, 255, 255); fill-opacity: 0;"/><path class="point" transform="translate(332.6,195.72)" d="M3,0A3,3 0 1,1 0,-3A3,3 0 0,1 3,0Z" style="opacity: 1; stroke-width: 0px; fill: rgb(255, 255, 255); fill-opacity: 0;"/><path class="point" transform="translate(432.8,201.16)" d="M3,0A3,3 0 1,1 0,-3A3,3 0 0,1 3,0Z" style="opacity: 1; stroke-width: 0px; fill: rgb(255, 255, 255); fill-opacity: 0;"/><path class="point" transform="translate(533,159.67)" d="M3,0A3,3 0 1,1 0,-3A3,3 0 0,1 3,0Z" style="opacity: 1; stroke-width: 0px; fill: rgb(255, 255, 255); fill-opacity: 0;"/><path class="point" transform="translate(533,342.05)" d="M3,0A3,3 0 1,1 0,-3A3,3 0 0,1 3,0Z" style="opacity: 1; stroke-width: 0px; fill: rgb(255, 255, 255); fill-opacity: 0;"/><path class="point" transform="translate(432.8,330.19)" d="M3,0A3,3 0 1,1 0,-3A3,3 0 0,1 3,0Z" style="opacity: 1; stroke-width: 0px; fill: rgb(255, 255, 255); fill-opacity: 0;"/><path class="point" transform="translate(332.6,342.05)" d="M3,0A3,3 0 1,1 0,-3A3,3 0 0,1 3,0Z" style="opacity: 1; stroke-width: 0px; fill: rgb(255, 255, 255); fill-opacity: 0;"/><path class="point" transform="translate(232.4,336.08)" d="M3,0A3,3 0 1,1 0,-3A3,3 0 0,1 3,0Z" style="opacity: 1; stroke-width: 0px; fill: rgb(255, 255, 255); fill-opacity: 0;"/><path class="point" transform="translate(132.2,342.05)" d="M3,0A3,3 0 1,1 0,-3A3,3 0 0,1 3,0Z" style="opacity: 1; stroke-width: 0px; fill: rgb(255, 255, 255); fill-opacity: 0;"/><path class="point" transform="translate(32,342.05)" d="M3,0A3,3 0 1,1 0,-3A3,3 0 0,1 3,0Z" style="opacity: 1; stroke-width: 0px; fill: rgb(255, 255, 255); fill-opacity: 0;"/></g><g class="text"/></g><g class="trace scatter trace607c86" style="stroke-miterlimit: 2; opacity: 1;"><g class="fills"/><g class="errorbars"/><g class="lines"><path class="js-line" d="M32,276.66L132.2,294.4L232.4,284.8L332.6,247.3L432.8,207.24L533,182.75" style="vector-effect: non-scaling-stroke; fill: none; stroke: rgb(0, 0, 0); stroke-opacity: 1; stroke-width: 5px; opacity: 1; stroke-dasharray: 25px, 25px;"/></g><g class="points"/><g class="text"/></g><g class="trace scatter traceacc1a3" style="stroke-miterlimit: 2; opacity: 1;"><g class="fills"><g><path class="js-fill" d="M32,180.29L132.2,232.51L232.4,199.07L332.6,123.52L432.8,52.69L533,21.95L533,342.05L32,342.05Z" style="fill: rgb(0, 0, 0); fill-opacity: 0.3; stroke-width: 0;"/></g></g><g class="errorbars"/><g class="lines"><path class="js-line" d="M32,180.29L132.2,232.51L232.4,199.07L332.6,123.52L432.8,52.69L533,21.95L533,342.05L32,342.05" style="vector-effect: non-scaling-stroke; fill: none; stroke: rgb(255, 255, 255); stroke-opacity: 0; stroke-width: 2px; opacity: 1;"/></g><g class="points"><path class="point" transform="translate(32,180.29)" d="M3,0A3,3 0 1,1 0,-3A3,3 0 0,1 3,0Z" style="opacity: 1; stroke-width: 0px; fill: rgb(255, 255, 255); fill-opacity: 0;"/><path class="point" transform="translate(132.2,232.51)" d="M3,0A3,3 0 1,1 0,-3A3,3 0 0,1 3,0Z" style="opacity: 1; stroke-width: 0px; fill: rgb(255, 255, 255); fill-opacity: 0;"/><path class="point" transform="translate(232.4,199.07)" d="M3,0A3,3 0 1,1 0,-3A3,3 0 0,1 3,0Z" style="opacity: 1; stroke-width: 0px; fill: rgb(255, 255, 255); fill-opacity: 0;"/><path class="point" transform="translate(332.6,123.52)" d="M3,0A3,3 0 1,1 0,-3A3,3 0 0,1 3,0Z" style="opacity: 1; stroke-width: 0px; fill: rgb(255, 255, 255); fill-opacity: 0;"/><path class="point" transform="translate(432.8,52.69)" d="M3,0A3,3 0 1,1 0,-3A3,3 0 0,1 3,0Z" style="opacity: 1; stroke-width: 0px; fill: rgb(255, 255, 255); fill-opacity: 0;"/><path class="point" transform="translate(533,21.95)" d="M3,0A3,3 0 1,1 0,-3A3,3 0 0,1 3,0Z" style="opacity: 1; stroke-width: 0px; fill: rgb(255, 255, 255); fill-opacity: 0;"/><path class="point" transform="translate(533,342.05)" d="M3,0A3,3 0 1,1 0,-3A3,3 0 0,1 3,0Z" style="opacity: 1; stroke-width: 0px; fill: rgb(255, 255, 255); fill-opacity: 0;"/><path class="point" transform="translate(432.8,342.05)" d="M3,0A3,3 0 1,1 0,-3A3,3 0 0,1 3,0Z" style="opacity: 1; stroke-width: 0px; fill: rgb(255, 255, 255); fill-opacity: 0;"/><path class="point" transform="translate(332.6,342.05)" d="M3,0A3,3 0 1,1 0,-3A3,3 0 0,1 3,0Z" style="opacity: 1; stroke-width: 0px; fill: rgb(255, 255, 255); fill-opacity: 0;"/><path class="point" transform="translate(232.4,342.05)" d="M3,0A3,3 0 1,1 0,-3A3,3 0 0,1 3,0Z" style="opacity: 1; stroke-width: 0px; fill: rgb(255, 255, 255); fill-opacity: 0;"/><path class="point" transform="translate(132.2,342.05)" d="M3,0A3,3 0 1,1 0,-3A3,3 0 0,1 3,0Z" style="opacity: 1; stroke-width: 0px; fill: rgb(255, 255, 255); fill-opacity: 0;"/><path class="point" transform="translate(32,342.05)" d="M3,0A3,3 0 1,1 0,-3A3,3 0 0,1 3,0Z" style="opacity: 1; stroke-width: 0px; fill: rgb(255, 255, 255); fill-opacity: 0;"/></g><g class="text"/></g></g></g><g class="overplot"/><path class="xlines-above crisp" d="M0,0" style="fill: none;"/><path class="ylines-above crisp" d="M0,0" style="fill: none;"/><g class="overlines-above"/><g class="xaxislayer-above"><g class="xtick"><text text-anchor="middle" x="0" y="448" transform="translate(117,0)" style="font-family: Arial; font-size: 23px; fill: rgb(0, 0, 0); fill-opacity: 1; white-space: pre;">0</text></g><g class="xtick"><text text-anchor="middle" x="0" y="448" transform="translate(217.2,0)" style="font-family: Arial; font-size: 23px; fill: rgb(0, 0, 0); fill-opacity: 1; white-space: pre;">10</text></g><g class="xtick"><text text-anchor="middle" x="0" y="448" transform="translate(317.4,0)" style="font-family: Arial; font-size: 23px; fill: rgb(0, 0, 0); fill-opacity: 1; white-space: pre;">20</text></g><g class="xtick"><text text-anchor="middle" x="0" y="448" transform="translate(417.6,0)" style="font-family: Arial; font-size: 23px; fill: rgb(0, 0, 0); fill-opacity: 1; white-space: pre;">30</text></g><g class="xtick"><text text-anchor="middle" x="0" y="448" transform="translate(517.8,0)" style="font-family: Arial; font-size: 23px; fill: rgb(0, 0, 0); fill-opacity: 1; white-space: pre;">40</text></g><g class="xtick"><text text-anchor="middle" x="0" y="448" transform="translate(618,0)" style="font-family: Arial; font-size: 23px; fill: rgb(0, 0, 0); fill-opacity: 1; white-space: pre;">50</text></g></g><g class="yaxislayer-above"><g class="ytick"><text text-anchor="end" x="84" y="8.049999999999999" transform="translate(0,402.05)" style="font-family: Arial; font-size: 23px; fill: rgb(0, 0, 0); fill-opacity: 1; white-space: pre;">0</text></g><g class="ytick"><text text-anchor="end" x="84" y="8.049999999999999" transform="translate(0,355.26)" style="font-family: Arial; font-size: 23px; fill: rgb(0, 0, 0); fill-opacity: 1; white-space: pre;">2k</text></g><g class="ytick"><text text-anchor="end" x="84" y="8.049999999999999" transform="translate(0,308.47)" style="font-family: Arial; font-size: 23px; fill: rgb(0, 0, 0); fill-opacity: 1; white-space: pre;">4k</text></g><g class="ytick"><text text-anchor="end" x="84" y="8.049999999999999" transform="translate(0,261.68)" style="font-family: Arial; font-size: 23px; fill: rgb(0, 0, 0); fill-opacity: 1; white-space: pre;">6k</text></g><g class="ytick"><text text-anchor="end" x="84" y="8.049999999999999" transform="translate(0,214.89)" style="font-family: Arial; font-size: 23px; fill: rgb(0, 0, 0); fill-opacity: 1; white-space: pre;">8k</text></g><g class="ytick"><text text-anchor="end" x="84" y="8.049999999999999" transform="translate(0,168.1)" style="font-family: Arial; font-size: 23px; fill: rgb(0, 0, 0); fill-opacity: 1; white-space: pre;">10k</text></g><g class="ytick"><text text-anchor="end" x="84" y="8.049999999999999" transform="translate(0,121.31)" style="font-family: Arial; font-size: 23px; fill: rgb(0, 0, 0); fill-opacity: 1; white-space: pre;">12k</text></g><g class="ytick"><text text-anchor="end" x="84" y="8.049999999999999" transform="translate(0,74.53)" style="font-family: Arial; font-size: 23px; fill: rgb(0, 0, 0); fill-opacity: 1; white-space: pre;">14k</text></g></g><g class="overaxes-above"/></g></g><g class="polarlayer"/><g class="ternarylayer"/><g class="geolayer"/><g class="funnelarealayer"/><g class="pielayer"/><g class="treemaplayer"/><g class="sunburstlayer"/><g class="glimages"/><defs id="topdefs-cd0a93"><g class="clips"/><clipPath id="legendcd0a93"><rect width="300" height="76" x="0" y="0"/></clipPath></defs><g class="layer-above"><g class="imagelayer"/><g class="shapelayer"/></g><g class="infolayer"><g class="legend" pointer-events="all" transform="translate(85,60)"><rect class="bg" shape-rendering="crispEdges" width="300" height="76" x="0" y="0" style="stroke: rgb(68, 68, 68); stroke-opacity: 1; fill: rgb(255, 255, 255); fill-opacity: 1; stroke-width: 0px;"/><g class="scrollbox" transform="" clip-path="url('#legendcd0a93')"><g class="groups"><g class="traces" transform="translate(0,21.450000000000003)" style="opacity: 1;"><text class="legendtext" text-anchor="start" x="40" y="8.97" style="font-family: Arial; font-size: 23px; fill: rgb(0, 0, 0); fill-opacity: 1; white-space: pre;">NeuralPBC Bayesian</text><g class="layers" style="opacity: 1;"><g class="legendfill"/><g class="legendlines"><path class="js-line" d="M5,0h30" style="fill: none; stroke: rgb(51, 51, 255); stroke-opacity: 1; stroke-dasharray: 5px, 5px; stroke-width: 5px;"/></g><g class="legendsymbols"><g class="legendpoints"/></g></g><rect class="legendtoggle" x="0" y="-16.450000000000003" width="294.359375" height="32.900000000000006" style="fill: rgb(0, 0, 0); fill-opacity: 0;"/></g><g class="traces" transform="translate(0,54.35000000000001)" style="opacity: 1;"><text class="legendtext" text-anchor="start" x="40" y="8.97" style="font-family: Arial; font-size: 23px; fill: rgb(0, 0, 0); fill-opacity: 1; white-space: pre;">NeuralPBC Deterministic</text><g class="layers" style="opacity: 1;"><g class="legendfill"/><g class="legendlines"><path class="js-line" d="M5,0h30" style="fill: none; stroke: rgb(0, 0, 0); stroke-opacity: 1; stroke-dasharray: 25px, 25px; stroke-width: 5px;"/></g><g class="legendsymbols"><g class="legendpoints"/></g></g><rect class="legendtoggle" x="0" y="-16.450000000000003" width="294.359375" height="32.900000000000006" style="fill: rgb(0, 0, 0); fill-opacity: 0;"/></g></g></g><rect class="scrollbar" rx="20" ry="3" width="0" height="0" x="0" y="0" style="fill: rgb(128, 139, 164); fill-opacity: 1;"/></g><g class="g-gtitle"/><g class="g-xtitle"><text class="xtitle" x="367.5" y="487.6" text-anchor="middle" style="font-family: Arial; font-size: 28px; fill: rgb(0, 0, 0); opacity: 1; font-weight: normal; white-space: pre;">Average percent error on m3, I1, I2</text></g><g class="g-ytitle" transform="translate(12.693359375,0)"><text class="ytitle" transform="rotate(-90,12.306250000000006,242)" x="12.306250000000006" y="242" text-anchor="middle" style="font-family: Arial; font-size: 28px; fill: rgb(0, 0, 0); opacity: 1; font-weight: normal; white-space: pre;">Accumulated cost</text></g></g></svg>