<?xml version="1.0" encoding="UTF-8" standalone="no"?>
<!-- Created with Inkscape (http://www.inkscape.org/) -->

<svg
   xmlns:dc="http://purl.org/dc/elements/1.1/"
   xmlns:cc="http://creativecommons.org/ns#"
   xmlns:rdf="http://www.w3.org/1999/02/22-rdf-syntax-ns#"
   xmlns:svg="http://www.w3.org/2000/svg"
   xmlns="http://www.w3.org/2000/svg"
   xmlns:xlink="http://www.w3.org/1999/xlink"
   xmlns:sodipodi="http://sodipodi.sourceforge.net/DTD/sodipodi-0.dtd"
   xmlns:inkscape="http://www.inkscape.org/namespaces/inkscape"
   width="400mm"
   height="250mm"
   viewBox="0 0 400 250"
   version="1.1"
   id="svg8"
   inkscape:version="0.92.5 (2060ec1f9f, 2020-04-08)"
   sodipodi:docname="bayes_uneven.svg">
  <defs
     id="defs2"
     style="stroke-linecap:butt;stroke-linejoin:round">
    <style
       id="style1204"
       type="text/css">
*{stroke-linecap:butt;stroke-linejoin:round;}
  </style>
    <path
       style="stroke:#000000;stroke-width:0.80000001;stroke-linecap:butt;stroke-linejoin:round"
       id="md36942f13c"
       d="M 0,0 V 3.5"
       inkscape:connector-curvature="0" />
    <path
       id="DejaVuSans-48"
       d="m 31.78125,66.40625 q -7.609375,0 -11.453125,-7.5 Q 16.5,51.421875 16.5,36.375 q 0,-14.984375 3.828125,-22.484375 3.84375,-7.5 11.453125,-7.5 7.671875,0 11.5,7.5 3.84375,7.5 3.84375,22.484375 0,15.046875 -3.84375,22.53125 -3.828125,7.5 -11.5,7.5 z m 0,7.8125 q 12.265625,0 18.734375,-9.703125 6.46875,-9.6875 6.46875,-28.140625 0,-18.40625 -6.46875,-28.109375 -6.46875,-9.6875 -18.734375,-9.6875 -12.25,0 -18.71875,9.6875 Q 6.59375,17.96875 6.59375,36.375 q 0,18.453125 6.46875,28.140625 6.46875,9.703125 18.71875,9.703125 z"
       inkscape:connector-curvature="0"
       style="stroke-linecap:butt;stroke-linejoin:round" />
    <path
       id="DejaVuSans-46"
       d="M 10.6875,12.40625 H 21 V 0 H 10.6875 Z"
       inkscape:connector-curvature="0"
       style="stroke-linecap:butt;stroke-linejoin:round" />
    <path
       id="DejaVuSans-50"
       d="M 19.1875,8.296875 H 53.609375 V 0 H 7.328125 v 8.296875 q 5.609375,5.8125 15.296875,15.59375 9.703125,9.796875 12.1875,12.640625 4.734375,5.3125 6.609375,9 1.890625,3.6875 1.890625,7.25 0,5.8125 -4.078125,9.46875 -4.078125,3.671875 -10.625,3.671875 -4.640625,0 -9.796875,-1.609375 -5.140625,-1.609375 -11,-4.890625 v 9.96875 Q 13.765625,71.78125 18.9375,73 q 5.1875,1.21875 9.484375,1.21875 11.328125,0 18.0625,-5.671875 6.734375,-5.65625 6.734375,-15.125 0,-4.5 -1.6875,-8.53125 Q 49.859375,40.875 45.40625,35.40625 44.1875,33.984375 37.640625,27.21875 31.109375,20.453125 19.1875,8.296875 Z"
       inkscape:connector-curvature="0"
       style="stroke-linecap:butt;stroke-linejoin:round" />
    <path
       id="DejaVuSans-53"
       d="m 10.796875,72.90625 h 38.71875 v -8.3125 h -29.6875 V 46.734375 q 2.140625,0.734375 4.28125,1.09375 2.15625,0.359375 4.3125,0.359375 Q 40.625,48.1875 47.75,41.5 54.890625,34.8125 54.890625,23.390625 54.890625,11.625 47.5625,5.09375 40.234375,-1.421875 26.90625,-1.421875 q -4.59375,0 -9.359375,0.78125 -4.75,0.78125 -9.828125,2.34375 V 11.625 q 4.390625,-2.390625 9.078125,-3.5625 4.6875,-1.171875 9.90625,-1.171875 8.453125,0 13.375,4.4375 4.9375,4.4375 4.9375,12.0625 0,7.609375 -4.9375,12.046875 -4.921875,4.453125 -13.375,4.453125 -3.953125,0 -7.890625,-0.875 -3.921875,-0.875 -8.015625,-2.734375 z"
       inkscape:connector-curvature="0"
       style="stroke-linecap:butt;stroke-linejoin:round" />
    <path
       id="DejaVuSans-55"
       d="m 8.203125,72.90625 h 46.875 V 68.703125 L 28.609375,0 H 18.3125 L 43.21875,64.59375 H 8.203125 Z"
       inkscape:connector-curvature="0"
       style="stroke-linecap:butt;stroke-linejoin:round" />
    <path
       id="DejaVuSans-49"
       d="m 12.40625,8.296875 h 16.109375 v 55.625 L 10.984375,60.40625 v 8.984375 l 17.4375,3.515625 H 38.28125 V 8.296875 H 54.390625 V 0 H 12.40625 Z"
       inkscape:connector-curvature="0"
       style="stroke-linecap:butt;stroke-linejoin:round" />
    <path
       id="DejaVuSans-Oblique-116"
       d="M 42.28125,54.6875 40.921875,47.703125 H 23 l -5.8125,-29.6875 q -0.296875,-1.65625 -0.4375,-2.78125 -0.140625,-1.125 -0.140625,-1.75 0,-3.125 1.875,-4.546875 1.875,-1.421875 6.03125,-1.421875 H 33.59375 L 32.078125,0 h -8.59375 q -8,0 -11.9375,3.125 Q 7.625,6.25 7.625,12.59375 q 0,1.125 0.140625,2.46875 0.140625,1.34375 0.4375,2.953125 l 5.8125,29.6875 h -7.625 L 7.8125,54.6875 h 7.46875 l 3.03125,15.53125 h 8.984375 L 24.3125,54.6875 Z"
       inkscape:connector-curvature="0"
       style="stroke-linecap:butt;stroke-linejoin:round" />
    <path
       id="DejaVuSans-91"
       d="M 8.59375,75.984375 H 29.296875 V 69 H 17.578125 V -6.203125 h 11.71875 V -13.1875 H 8.59375 Z"
       inkscape:connector-curvature="0"
       style="stroke-linecap:butt;stroke-linejoin:round" />
    <path
       id="DejaVuSans-Oblique-115"
       d="m 50,53.078125 -1.703125,-8.5 Q 44.734375,46.53125 40.765625,47.5 36.8125,48.484375 32.625,48.484375 q -7.09375,0 -11.171875,-2.421875 -4.0625,-2.40625 -4.0625,-6.5625 0,-4.828125 9.46875,-7.421875 0.734375,-0.1875 1.078125,-0.296875 l 2.875,-0.875 q 8.984375,-2.484375 11.984375,-5.21875 3,-2.734375 3,-7.46875 0,-8.703125 -6.90625,-14.171875 -6.90625,-5.46875 -18.09375,-5.46875 -4.34375,0 -9.125,0.84375 Q 6.890625,0.25 1.125,2 l 1.75,9.28125 q 4.9375,-2.546875 9.71875,-3.859375 4.796875,-1.3125 9.1875,-1.3125 6.59375,0 10.71875,2.828125 4.125,2.828125 4.125,7.171875 0,4.6875 -10.84375,7.578125 l -0.921875,0.234375 -3.078125,0.78125 Q 14.9375,26.515625 11.765625,29.46875 8.59375,32.421875 8.59375,37.015625 8.59375,45.75 15.15625,50.875 21.734375,56 33.015625,56 q 4.4375,0 8.65625,-0.734375 Q 45.90625,54.546875 50,53.078125 Z"
       inkscape:connector-curvature="0"
       style="stroke-linecap:butt;stroke-linejoin:round" />
    <path
       id="DejaVuSans-Oblique-101"
       d="m 48.09375,32.234375 q 0.15625,0.78125 0.21875,1.609375 0.07813,0.828125 0.07813,1.65625 0,5.953125 -3.5,9.421875 -3.484375,3.46875 -9.484375,3.46875 -6.6875,0 -11.828125,-4.234375 -5.125,-4.21875 -7.75,-11.984375 z m 7.8125,-7.03125 H 14.109375 Q 13.8125,23.34375 13.71875,22.265625 13.625,21.1875 13.625,20.40625 q 0,-6.78125 4.171875,-10.5 4.171875,-3.703125 11.796875,-3.703125 5.859375,0 11.078125,1.3125 5.234375,1.328125 9.71875,3.859375 L 48.6875,2.484375 q -4.84375,-1.953125 -10,-2.921875 -5.140625,-0.984375 -10.46875,-0.984375 -11.375,0 -17.5,5.4375 -6.125,5.453125 -6.125,15.46875 0,8.546875 3.046875,15.890625 3.046875,7.34375 8.96875,13.109375 3.796875,3.609375 9.046875,5.5625 Q 30.90625,56 36.8125,56 q 9.28125,0 14.765625,-5.5625 5.5,-5.5625 5.5,-14.9375 0,-2.25 -0.296875,-4.8125 Q 56.5,28.125 55.90625,25.203125 Z"
       inkscape:connector-curvature="0"
       style="stroke-linecap:butt;stroke-linejoin:round" />
    <path
       id="DejaVuSans-Oblique-99"
       d="M 53.609375,52.59375 51.8125,43.703125 q -3.234375,2.34375 -6.875,3.515625 -3.625,1.171875 -7.53125,1.171875 -4.296875,0 -8.1875,-1.515625 -3.875,-1.515625 -6.515625,-4.296875 -4.203125,-4.25 -6.5,-9.96875 -2.28125,-5.703125 -2.28125,-11.8125 0,-7.375 3.6875,-10.984375 3.6875,-3.609375 11.203125,-3.609375 3.703125,0 7.875,1.125 4.1875,1.125 8.71875,3.359375 l -1.703125,-8.875 q -3.90625,-1.609375 -8.03125,-2.421875 -4.125,-0.8125 -8.46875,-0.8125 -10.890625,0 -16.75,5.4375 -5.859375,5.453125 -5.859375,15.5625 0,8.5 3.046875,15.65625 3.046875,7.15625 9.0625,12.859375 Q 20.796875,52 26.3125,54 q 5.53125,2 12.0625,2 3.8125,0 7.5625,-0.859375 3.765625,-0.84375 7.671875,-2.546875 z"
       inkscape:connector-curvature="0"
       style="stroke-linecap:butt;stroke-linejoin:round" />
    <path
       id="DejaVuSans-Oblique-111"
       d="m 25.390625,-1.421875 q -9.625,0 -15.21875,5.9375 -5.578125,5.9375 -5.578125,16.1875 0,5.953125 1.921875,12.125 1.9375,6.1875 5.015625,10.390625 Q 16.359375,49.75 22.3125,52.875 28.265625,56 35.796875,56 q 9.328125,0 15.0625,-5.8125 5.734375,-5.796875 5.734375,-15.171875 0,-6.5 -1.90625,-12.953125 Q 52.78125,15.625 49.703125,11.375 44.921875,4.828125 38.96875,1.703125 q -5.953125,-3.125 -13.578125,-3.125 z M 13.921875,21 q 0,-7.421875 3.09375,-11.109375 3.109375,-3.6875 9.40625,-3.6875 9.03125,0 14.953125,7.875 5.9375,7.890625 5.9375,20 0,7.078125 -3.171875,10.6875 -3.171875,3.625 -9.328125,3.625 -5.078125,0 -9.03125,-2.375 Q 21.828125,43.65625 18.703125,38.8125 16.40625,35.203125 15.15625,30.5625 13.921875,25.921875 13.921875,21 Z"
       inkscape:connector-curvature="0"
       style="stroke-linecap:butt;stroke-linejoin:round" />
    <path
       id="DejaVuSans-Oblique-110"
       d="M 55.71875,33.015625 49.3125,0 h -9.03125 l 6.40625,32.671875 q 0.4375,2.296875 0.671875,4.046875 0.25,1.765625 0.25,2.78125 0,4.109375 -2.59375,6.390625 Q 42.4375,48.1875 37.796875,48.1875 30.5625,48.1875 25.34375,43.375 20.125,38.578125 18.5,30.328125 L 12.5,0 H 3.515625 l 10.59375,54.6875 h 8.984375 l -1.796875,-8.59375 q 3.75,4.734375 9.015625,7.3125 Q 35.59375,56 41.40625,56 q 7.234375,0 11.203125,-3.90625 3.984375,-3.90625 3.984375,-10.984375 0,-1.75 -0.21875,-3.75 -0.21875,-2 -0.65625,-4.34375 z"
       inkscape:connector-curvature="0"
       style="stroke-linecap:butt;stroke-linejoin:round" />
    <path
       id="DejaVuSans-Oblique-100"
       d="M 41.796875,8.203125 Q 38.1875,3.46875 33.25,1.015625 q -4.921875,-2.4375 -10.9375,-2.4375 -8.203125,0 -12.96875,5.59375 -4.75,5.59375 -4.75,15.3125 0,8.109375 2.875,15.453125 2.890625,7.34375 8.359375,13.15625 3.609375,3.859375 8.140625,5.875 Q 28.515625,56 33.5,56 q 5.265625,0 9.296875,-2.546875 4.03125,-2.53125 6.234375,-7.265625 l 5.859375,29.796875 h 9.03125 L 49.125,0 h -9.03125 z m -27.875,12.890625 q 0,-7.078125 3.1875,-11.03125 3.203125,-3.953125 8.875,-3.953125 4.1875,0 7.78125,2.015625 3.59375,2.03125 6.328125,5.984375 2.875,4.109375 4.53125,9.46875 1.671875,5.375 1.671875,10.609375 0,6.78125 -3.203125,10.578125 -3.203125,3.8125 -8.8125,3.8125 -4.25,0 -7.921875,-2 -3.65625,-2 -6.234375,-5.75 -2.84375,-4.0625 -4.53125,-9.4375 Q 13.921875,26.03125 13.921875,21.09375 Z"
       inkscape:connector-curvature="0"
       style="stroke-linecap:butt;stroke-linejoin:round" />
    <path
       id="DejaVuSans-93"
       d="M 30.421875,75.984375 V -13.1875 H 9.71875 v 6.984375 H 21.390625 V 69 H 9.71875 v 6.984375 z"
       inkscape:connector-curvature="0"
       style="stroke-linecap:butt;stroke-linejoin:round" />
    <path
       style="stroke:#000000;stroke-width:0.80000001;stroke-linecap:butt;stroke-linejoin:round"
       id="mc38233da46"
       d="M 0,0 H -3.5"
       inkscape:connector-curvature="0" />
    <path
       id="DejaVuSans-8722"
       d="M 10.59375,35.5 H 73.1875 V 27.203125 H 10.59375 Z"
       inkscape:connector-curvature="0"
       style="stroke-linecap:butt;stroke-linejoin:round" />
    <path
       id="DejaVuSans-51"
       d="M 40.578125,39.3125 Q 47.65625,37.796875 51.625,33 q 3.984375,-4.78125 3.984375,-11.8125 0,-10.78125 -7.421875,-16.703125 -7.421875,-5.90625 -21.09375,-5.90625 -4.578125,0 -9.4375,0.90625 -4.859375,0.90625 -10.03125,2.71875 v 9.515625 q 4.09375,-2.390625 8.96875,-3.609375 4.890625,-1.21875 10.21875,-1.21875 9.265625,0 14.125,3.65625 4.859375,3.65625 4.859375,10.640625 0,6.453125 -4.515625,10.078125 -4.515625,3.640625 -12.5625,3.640625 h -8.5 v 8.109375 h 8.890625 q 7.265625,0 11.125,2.90625 3.859375,2.90625 3.859375,8.375 0,5.609375 -3.984375,8.609375 -3.96875,3.015625 -11.390625,3.015625 -4.0625,0 -8.703125,-0.890625 Q 15.375,64.15625 9.8125,62.3125 v 8.78125 q 5.625,1.5625 10.53125,2.34375 4.90625,0.78125 9.25,0.78125 11.234375,0 17.765625,-5.109375 6.546875,-5.09375 6.546875,-13.78125 0,-6.0625 -3.46875,-10.234375 -3.46875,-4.171875 -9.859375,-5.78125 z"
       inkscape:connector-curvature="0"
       style="stroke-linecap:butt;stroke-linejoin:round" />
    <path
       id="DejaVuSans-775"
       d="m -29.59375,75.984375 h 8.984375 V 64.59375 H -29.59375 Z M -25,56 Z"
       inkscape:connector-curvature="0"
       style="stroke-linecap:butt;stroke-linejoin:round" />
    <path
       id="DejaVuSans-Oblique-120"
       d="M 60.015625,54.6875 34.90625,27.875 50.296875,0 h -10.3125 L 28.421875,21.6875 8.296875,0 H -2.59375 L 24.3125,28.8125 10.015625,54.6875 H 20.3125 l 10.5,-19.78125 18.3125,19.78125 z"
       inkscape:connector-curvature="0"
       style="stroke-linecap:butt;stroke-linejoin:round" />
    <path
       id="DejaVuSans-Oblique-109"
       d="M 89.796875,33.015625 83.40625,0 h -8.984375 l 6.296875,32.71875 q 0.390625,2.09375 0.578125,3.609375 Q 81.5,37.84375 81.5,38.921875 81.5,43.3125 79.046875,45.75 q -2.4375,2.4375 -6.828125,2.4375 -6.546875,0 -11.671875,-4.90625 -5.125,-4.90625 -6.640625,-12.765625 L 47.90625,0 H 38.921875 L 45.3125,32.71875 q 0.390625,1.796875 0.578125,3.328125 0.203125,1.546875 0.203125,2.765625 0,4.453125 -2.4375,6.90625 -2.4375,2.46875 -6.734375,2.46875 -6.640625,0 -11.78125,-4.90625 Q 20.015625,38.375 18.5,30.515625 L 12.5,0 H 3.515625 l 10.6875,54.6875 H 23.1875 l -1.703125,-8.5 q 3.65625,4.796875 8.5625,7.296875 Q 34.96875,56 40.578125,56 q 5.953125,0 9.78125,-3.125 3.84375,-3.125 4.625,-8.6875 4.09375,5.765625 9.484375,8.78125 Q 69.875,56 75.875,56 q 7.03125,0 10.859375,-4.046875 3.84375,-4.046875 3.84375,-11.46875 0,-1.609375 -0.203125,-3.546875 -0.1875,-1.921875 -0.578125,-3.921875 z"
       inkscape:connector-curvature="0"
       style="stroke-linecap:butt;stroke-linejoin:round" />
    <path
       id="DejaVuSans-47"
       d="M 25.390625,72.90625 H 33.6875 L 8.296875,-9.28125 H 0 Z"
       inkscape:connector-curvature="0"
       style="stroke-linecap:butt;stroke-linejoin:round" />
    <path
       id="DejaVuSans-68"
       d="M 19.671875,64.796875 V 8.109375 H 31.59375 q 15.09375,0 22.09375,6.828125 7,6.84375 7,21.59375 0,14.640625 -7,21.453125 -7,6.8125 -22.09375,6.8125 z M 9.8125,72.90625 h 20.265625 q 21.1875,0 31.09375,-8.8125 9.921875,-8.8125 9.921875,-27.5625 0,-18.859375 -9.96875,-27.703125 Q 51.171875,0 30.078125,0 H 9.8125 Z"
       inkscape:connector-curvature="0"
       style="stroke-linecap:butt;stroke-linejoin:round" />
    <path
       id="DejaVuSans-101"
       d="m 56.203125,29.59375 v -4.390625 h -41.3125 q 0.59375,-9.28125 5.59375,-14.140625 5,-4.859375 13.9375,-4.859375 5.171875,0 10.03125,1.265625 4.859375,1.265625 9.65625,3.8125 v -8.5 q -4.84375,-2.046875 -9.921875,-3.125 -5.078125,-1.078125 -10.296875,-1.078125 -13.09375,0 -20.734375,7.609375 -7.640625,7.625 -7.640625,20.625 0,13.421875 7.25,21.296875 Q 20.015625,56 32.328125,56 q 11.03125,0 17.453125,-7.109375 6.421875,-7.09375 6.421875,-19.296875 z m -8.984375,2.640625 q -0.09375,7.359375 -4.125,11.75 -4.03125,4.40625 -10.671875,4.40625 -7.515625,0 -12.03125,-4.25 -4.515625,-4.25 -5.203125,-11.96875 z"
       inkscape:connector-curvature="0"
       style="stroke-linecap:butt;stroke-linejoin:round" />
    <path
       id="DejaVuSans-115"
       d="m 44.28125,53.078125 v -8.5 Q 40.484375,46.53125 36.375,47.5 q -4.09375,0.984375 -8.5,0.984375 -6.6875,0 -10.03125,-2.046875 Q 14.5,44.390625 14.5,40.28125 q 0,-3.125 2.390625,-4.90625 2.390625,-1.78125 9.625,-3.390625 l 3.078125,-0.6875 Q 39.15625,29.25 43.1875,25.515625 47.21875,21.78125 47.21875,15.09375 q 0,-7.625 -6.03125,-12.078125 -6.03125,-4.4375 -16.578125,-4.4375 -4.390625,0 -9.15625,0.859375 Q 10.6875,0.296875 5.421875,2 v 9.28125 q 4.984375,-2.59375 9.8125,-3.890625 4.828125,-1.28125 9.578125,-1.28125 6.34375,0 9.75,2.171875 3.421875,2.171875 3.421875,6.125 0,3.65625 -2.46875,5.609375 -2.453125,1.953125 -10.8125,3.765625 l -3.125,0.734375 q -8.34375,1.75 -12.0625,5.390625 -3.703125,3.640625 -3.703125,9.984375 0,7.71875 5.46875,11.90625 Q 16.75,56 26.8125,56 q 4.96875,0 9.359375,-0.734375 4.40625,-0.71875 8.109375,-2.1875 z"
       inkscape:connector-curvature="0"
       style="stroke-linecap:butt;stroke-linejoin:round" />
    <path
       id="DejaVuSans-105"
       d="M 9.421875,54.6875 H 18.40625 V 0 H 9.421875 Z m 0,21.296875 H 18.40625 V 64.59375 H 9.421875 Z"
       inkscape:connector-curvature="0"
       style="stroke-linecap:butt;stroke-linejoin:round" />
    <path
       id="DejaVuSans-114"
       d="m 41.109375,46.296875 q -1.515625,0.875 -3.296875,1.28125 Q 36.03125,48 33.890625,48 26.265625,48 22.1875,43.046875 18.109375,38.09375 18.109375,28.8125 V 0 h -9.03125 v 54.6875 h 9.03125 v -8.5 q 2.84375,4.984375 7.375,7.390625 Q 30.03125,56 36.53125,56 q 0.921875,0 2.046875,-0.125 1.125,-0.109375 2.484375,-0.359375 z"
       inkscape:connector-curvature="0"
       style="stroke-linecap:butt;stroke-linejoin:round" />
    <path
       id="DejaVuSans-100"
       d="m 45.40625,46.390625 v 29.59375 h 8.984375 V 0 H 45.40625 v 8.203125 q -2.828125,-4.875 -7.15625,-7.25 -4.3125,-2.375 -10.375,-2.375 -9.90625,0 -16.140625,7.90625 -6.21875,7.921875 -6.21875,20.8125 0,12.890625 6.21875,20.796875 Q 17.96875,56 27.875,56 q 6.0625,0 10.375,-2.375 4.328125,-2.359375 7.15625,-7.234375 z M 14.796875,27.296875 q 0,-9.90625 4.078125,-15.546875 4.078125,-5.640625 11.203125,-5.640625 7.125,0 11.21875,5.640625 4.109375,5.640625 4.109375,15.546875 0,9.90625 -4.109375,15.546875 -4.09375,5.640625 -11.21875,5.640625 -7.125,0 -11.203125,-5.640625 -4.078125,-5.640625 -4.078125,-15.546875 z"
       inkscape:connector-curvature="0"
       style="stroke-linecap:butt;stroke-linejoin:round" />
    <path
       id="DejaVuSans-32"
       d=""
       inkscape:connector-curvature="0"
       style="stroke-linecap:butt;stroke-linejoin:round" />
    <path
       id="DejaVuSans-72"
       d="m 9.8125,72.90625 h 9.859375 V 43.015625 h 35.84375 V 72.90625 H 65.375 V 0 H 55.515625 V 34.71875 H 19.671875 V 0 H 9.8125 Z"
       inkscape:connector-curvature="0"
       style="stroke-linecap:butt;stroke-linejoin:round" />
    <path
       id="DejaVuSans-112"
       d="m 18.109375,8.203125 v -29 H 9.078125 V 54.6875 h 9.03125 v -8.296875 q 2.84375,4.875 7.15625,7.234375 Q 29.59375,56 35.59375,56 q 9.96875,0 16.1875,-7.90625 6.234375,-7.90625 6.234375,-20.796875 0,-12.890625 -6.234375,-20.8125 -6.21875,-7.90625 -16.1875,-7.90625 -6,0 -10.328125,2.375 -4.3125,2.375 -7.15625,7.25 z M 48.6875,27.296875 q 0,9.90625 -4.078125,15.546875 -4.078125,5.640625 -11.203125,5.640625 -7.140625,0 -11.21875,-5.640625 -4.078125,-5.640625 -4.078125,-15.546875 0,-9.90625 4.078125,-15.546875 4.078125,-5.640625 11.21875,-5.640625 7.125,0 11.203125,5.640625 4.078125,5.640625 4.078125,15.546875 z"
       inkscape:connector-curvature="0"
       style="stroke-linecap:butt;stroke-linejoin:round" />
    <path
       id="DejaVuSans-83"
       d="m 53.515625,70.515625 v -9.625 q -5.609375,2.6875 -10.59375,4 -4.984375,1.328125 -9.625,1.328125 -8.046875,0 -12.421875,-3.125 -4.375,-3.125 -4.375,-8.890625 0,-4.84375 2.90625,-7.3125 2.90625,-2.453125 11.015625,-3.96875 L 36.375,41.703125 Q 47.40625,39.59375 52.65625,34.296875 57.90625,29 57.90625,20.125 q 0,-10.609375 -7.109375,-16.078125 -7.09375,-5.46875 -20.8125,-5.46875 -5.171875,0 -11.015625,1.171875 Q 13.140625,0.921875 6.890625,3.21875 V 13.375 q 6,-3.359375 11.765625,-5.078125 5.765625,-1.703125 11.328125,-1.703125 8.4375,0 13.03125,3.3125 4.59375,3.328125 4.59375,9.484375 0,5.359375 -3.296875,8.390625 Q 41.015625,30.8125 33.5,32.328125 L 27.484375,33.5 q -11.03125,2.1875 -15.96875,6.875 -4.921875,4.6875 -4.921875,13.046875 0,9.671875 6.8125,15.234375 6.8125,5.5625 18.765625,5.5625 5.140625,0 10.453125,-0.9375 5.328125,-0.921875 10.890625,-2.765625 z"
       inkscape:connector-curvature="0"
       style="stroke-linecap:butt;stroke-linejoin:round" />
    <clipPath
       id="pef7363a534"
       style="stroke-linecap:butt;stroke-linejoin:round">
      <rect
         id="rect1544"
         y="74.131203"
         x="105.39"
         width="653.41803"
         height="475.6752"
         style="stroke-linecap:butt;stroke-linejoin:round" />
    </clipPath>
  </defs>
  <sodipodi:namedview
     id="base"
     pagecolor="#ffffff"
     bordercolor="#666666"
     borderopacity="1.0"
     inkscape:pageopacity="0.0"
     inkscape:pageshadow="2"
     inkscape:zoom="0.98994949"
     inkscape:cx="599.10165"
     inkscape:cy="436.11316"
     inkscape:document-units="mm"
     inkscape:current-layer="layer1"
     showgrid="false"
     inkscape:window-width="1848"
     inkscape:window-height="1016"
     inkscape:window-x="1992"
     inkscape:window-y="27"
     inkscape:window-maximized="1" />
  <metadata
     id="metadata5">
    <rdf:RDF>
      <cc:Work
         rdf:about="">
        <dc:format>image/svg+xml</dc:format>
        <dc:type
           rdf:resource="http://purl.org/dc/dcmitype/StillImage" />
        <dc:title></dc:title>
      </cc:Work>
    </rdf:RDF>
  </metadata>
  <g
     inkscape:label="Layer 1"
     inkscape:groupmode="layer"
     id="layer1"
     transform="translate(0,-47)"
     style="stroke-linecap:butt;stroke-linejoin:round">
    <g
       id="line2d_1"
       style="stroke-linecap:butt;stroke-linejoin:round"
       transform="matrix(0.35277778,0,0,0.35277778,44.806806,54.98638)">
      <defs
         id="defs1215">
        <path
           style="stroke:#000000;stroke-width:0.80000001;stroke-linecap:butt;stroke-linejoin:round"
           id="path1595"
           d="M 0,0 V 3.5"
           inkscape:connector-curvature="0" />
      </defs>
      <g
         id="g1219"
         style="stroke-linecap:butt;stroke-linejoin:round">
        <use
           id="use1217"
           y="549.8064"
           xlink:href="#md36942f13c"
           x="123.81191"
           style="stroke:#000000;stroke-width:0.80000001;stroke-linecap:butt;stroke-linejoin:round"
           width="100%"
           height="100%" />
      </g>
    </g>
    <g
       id="line2d_2"
       style="stroke-linecap:butt;stroke-linejoin:round"
       transform="matrix(0.35277778,0,0,0.35277778,44.806806,54.98638)">
      <g
         id="g1238"
         style="stroke-linecap:butt;stroke-linejoin:round">
        <use
           id="use1236"
           y="549.8064"
           xlink:href="#md36942f13c"
           x="219.69875"
           style="stroke:#000000;stroke-width:0.80000001;stroke-linecap:butt;stroke-linejoin:round"
           width="100%"
           height="100%" />
      </g>
    </g>
    <g
       id="line2d_3"
       style="stroke-linecap:butt;stroke-linejoin:round"
       transform="matrix(0.35277778,0,0,0.35277778,44.806806,54.98638)">
      <g
         id="g1257"
         style="stroke-linecap:butt;stroke-linejoin:round">
        <use
           id="use1255"
           y="549.8064"
           xlink:href="#md36942f13c"
           x="315.5856"
           style="stroke:#000000;stroke-width:0.80000001;stroke-linecap:butt;stroke-linejoin:round"
           width="100%"
           height="100%" />
      </g>
    </g>
    <g
       id="line2d_4"
       style="stroke-linecap:butt;stroke-linejoin:round"
       transform="matrix(0.35277778,0,0,0.35277778,44.806806,54.98638)">
      <g
         id="g1272"
         style="stroke-linecap:butt;stroke-linejoin:round">
        <use
           id="use1270"
           y="549.8064"
           xlink:href="#md36942f13c"
           x="411.47244"
           style="stroke:#000000;stroke-width:0.80000001;stroke-linecap:butt;stroke-linejoin:round"
           width="100%"
           height="100%" />
      </g>
    </g>
    <g
       id="line2d_5"
       style="stroke-linecap:butt;stroke-linejoin:round"
       transform="matrix(0.35277778,0,0,0.35277778,44.806806,54.98638)">
      <g
         id="g1290"
         style="stroke-linecap:butt;stroke-linejoin:round">
        <use
           id="use1288"
           y="549.8064"
           xlink:href="#md36942f13c"
           x="507.35928"
           style="stroke:#000000;stroke-width:0.80000001;stroke-linecap:butt;stroke-linejoin:round"
           width="100%"
           height="100%" />
      </g>
    </g>
    <g
       id="line2d_6"
       style="stroke-linecap:butt;stroke-linejoin:round"
       transform="matrix(0.35277778,0,0,0.35277778,44.806806,54.98638)">
      <g
         id="g1310"
         style="stroke-linecap:butt;stroke-linejoin:round">
        <use
           id="use1308"
           y="549.8064"
           xlink:href="#md36942f13c"
           x="603.24609"
           style="stroke:#000000;stroke-width:0.80000001;stroke-linecap:butt;stroke-linejoin:round"
           width="100%"
           height="100%" />
      </g>
    </g>
    <g
       id="line2d_7"
       style="stroke-linecap:butt;stroke-linejoin:round"
       transform="matrix(0.35277778,0,0,0.35277778,44.806806,54.98638)">
      <g
         id="g1327"
         style="stroke-linecap:butt;stroke-linejoin:round">
        <use
           id="use1325"
           y="549.8064"
           xlink:href="#md36942f13c"
           x="699.13293"
           style="stroke:#000000;stroke-width:0.80000001;stroke-linecap:butt;stroke-linejoin:round"
           width="100%"
           height="100%" />
      </g>
    </g>
    <g
       id="line2d_8"
       style="stroke-linecap:butt;stroke-linejoin:round"
       transform="matrix(0.35277778,0,0,0.35277778,44.806806,54.98638)">
      <defs
         id="defs1378">
        <path
           style="stroke:#000000;stroke-width:0.80000001;stroke-linecap:butt;stroke-linejoin:round"
           id="path1712"
           d="M 0,0 H -3.5"
           inkscape:connector-curvature="0" />
      </defs>
      <g
         id="g1382"
         style="stroke-linecap:butt;stroke-linejoin:round">
        <use
           id="use1380"
           y="505.14883"
           xlink:href="#mc38233da46"
           x="105.39"
           style="stroke:#000000;stroke-width:0.80000001;stroke-linecap:butt;stroke-linejoin:round"
           width="100%"
           height="100%" />
      </g>
    </g>
    <g
       id="line2d_9"
       style="stroke-linecap:butt;stroke-linejoin:round"
       transform="matrix(0.35277778,0,0,0.35277778,44.806806,54.98638)">
      <g
         id="g1398"
         style="stroke-linecap:butt;stroke-linejoin:round">
        <use
           id="use1396"
           y="405.41528"
           xlink:href="#mc38233da46"
           x="105.39"
           style="stroke:#000000;stroke-width:0.80000001;stroke-linecap:butt;stroke-linejoin:round"
           width="100%"
           height="100%" />
      </g>
    </g>
    <g
       id="line2d_10"
       style="stroke-linecap:butt;stroke-linejoin:round"
       transform="matrix(0.35277778,0,0,0.35277778,44.806806,54.98638)">
      <g
         id="g1409"
         style="stroke-linecap:butt;stroke-linejoin:round">
        <use
           id="use1407"
           y="305.68176"
           xlink:href="#mc38233da46"
           x="105.39"
           style="stroke:#000000;stroke-width:0.80000001;stroke-linecap:butt;stroke-linejoin:round"
           width="100%"
           height="100%" />
      </g>
    </g>
    <g
       id="line2d_11"
       style="stroke-linecap:butt;stroke-linejoin:round"
       transform="matrix(0.35277778,0,0,0.35277778,44.806806,54.98638)">
      <g
         id="g1420"
         style="stroke-linecap:butt;stroke-linejoin:round">
        <use
           id="use1418"
           y="205.94823"
           xlink:href="#mc38233da46"
           x="105.39"
           style="stroke:#000000;stroke-width:0.80000001;stroke-linecap:butt;stroke-linejoin:round"
           width="100%"
           height="100%" />
      </g>
    </g>
    <g
       id="line2d_12"
       style="stroke-linecap:butt;stroke-linejoin:round"
       transform="matrix(0.35277778,0,0,0.35277778,44.806806,54.98638)">
      <g
         id="g1431"
         style="stroke-linecap:butt;stroke-linejoin:round">
        <use
           id="use1429"
           y="106.2147"
           xlink:href="#mc38233da46"
           x="105.39"
           style="stroke:#000000;stroke-width:0.80000001;stroke-linecap:butt;stroke-linejoin:round"
           width="100%"
           height="100%" />
      </g>
    </g>
    <path
       inkscape:connector-curvature="0"
       clip-path="url(#pef7363a534)"
       d="m 123.81191,405.3728 1.36193,0.0399 1.36193,0.27446 1.36192,-0.59059 1.36193,0.45875 1.36193,0.13248 1.36193,-0.41603 2.72385,0.25635 2.72386,-0.25077 2.72386,0.18693 4.08578,-0.0211 1.36193,-0.28943 1.36193,0.50069 2.72385,-0.50294 1.36193,0.65621 1.36193,-0.83092 1.36193,0.6405 1.36193,-0.23875 2.72385,-0.11938 1.36193,0.27122 1.36193,-0.17374 2.72386,0.10628 4.08578,-0.2026 2.72386,0.3908 1.36193,-6.56331 1.36192,0.95818 1.36193,-5.22945 1.36193,-14.28842 1.36193,1.21298 1.36193,0.85747 1.36193,-5.22992 1.36192,-17.78564 1.36193,5.62312 1.36193,-3.4975 1.36193,-32.69292 1.36193,-3.22127 1.36192,-0.23144 1.36193,0.60138 1.36193,-25.44309 1.36193,10.11785 1.36193,0.77253 1.36192,-9.01083 1.36193,16.99286 1.36193,26.52215 1.36193,-17.576 1.36193,8.75404 1.36193,-2.2836 1.36192,21.53355 1.36193,-13.14385 1.36193,24.70279 1.36193,-28.62168 1.36193,30.10781 1.36192,4.78727 1.36193,-23.01974 1.36193,28.68258 1.36193,-38.26115 1.36193,40.86984 1.36193,-38.46157 1.36192,0.60227 1.36193,1.20484 1.36193,-1.36718 1.36193,-52.7244 1.36193,16.81281 1.36193,-37.19585 1.36192,1.69869 1.36193,-11.41847 1.36193,2.75233 1.36193,-1.57154 1.36193,19.83448 1.36192,2.94189 1.36193,29.08483 1.36193,10.50903 1.36193,43.26491 1.36193,-5.88292 1.36193,34.64813 1.36192,-6.79193 1.36193,-26.99161 1.36193,36.84864 1.36193,-3.78934 1.36193,0.92149 1.36192,2.76658 1.36193,-7.07617 1.36193,-17.58149 1.36193,8.38053 1.36193,-36.06159 1.36193,-1.95241 1.36192,0.82033 1.36193,20.35985 1.36193,-30.78787 1.36193,6.40715 1.36193,-30.6501 1.36192,10.71874 1.36193,-19.32935 1.36193,-9.69582 1.36193,9.89246 1.36193,-19.91573 1.36193,-120.82042 1.36192,180.37479 1.36193,-65.02099 1.36193,-9.72905 1.36193,18.07965 1.36193,9.80836 1.36192,-2.16192 1.36193,6.2654 1.36193,-17.62474 1.36193,32.33862 1.36193,-12.92576 1.36193,20.52508 1.36192,4.42742 1.36193,10.55639 1.36193,41.63965 1.36193,1.97431 1.36193,-19.91642 1.36193,12.8921 1.36192,4.49164 1.36193,-12.45107 1.36193,-5.38023 1.36193,-0.45321 1.36193,23.00994 1.36192,-38.83843 1.36193,-9.94985 1.36193,-41.80802 1.36193,4.17389 1.36193,61.88743 1.36192,-19.55807 1.36193,-23.53751 1.36193,6.92734 1.36193,-11.82508 1.36193,6.80814 1.36193,-14.80561 1.36192,9.10605 1.36193,-37.74974 1.36193,9.93345 1.36193,-21.24859 1.36193,24.3293 1.36193,-24.88196 1.36192,-5.94176 1.36193,-8.30882 1.36193,17.80304 1.36193,-12.21222 1.36193,4.57737 1.36192,9.46866 1.36193,51.26567 1.36193,37.70908 1.36193,-6.45007 1.36193,-13.95584 1.36192,-15.74909 1.36193,55.91956 2.72386,30.60849 1.36193,-11.77789 1.36193,-18.44598 1.36192,12.67738 1.36193,3.45348 1.36193,-9.00443 1.36193,-57.96553 1.36193,42.68841 1.36193,-65.90077 1.36192,33.40925 2.72386,-90.78491 1.36193,11.44879 1.36193,77.789 2.72385,-69.51085 1.36193,34.64573 1.36193,-29.26195 1.36193,18.17681 1.36193,65.36374 1.36192,34.5122 1.36193,-32.2236 1.36193,34.27993 1.36193,8.35363 1.36193,-9.40896 1.36192,-5.32906 1.36193,8.49471 1.36193,3.68705 1.36193,-12.00817 1.36193,-3.96498 1.36193,12.16606 1.36192,-3.27342 1.36193,-9.24871 1.36193,-30.21941 1.36193,5.06855 1.36193,-23.08928 1.36193,30.18995 1.36192,-16.09762 1.36193,-24.1382 1.36193,30.06997 1.36193,-35.15225 1.36193,-76.74484 1.36192,109.3161 1.36193,-31.34699 1.36193,-1.71735 1.36193,-11.79558 1.36193,9.93685 1.36192,-3.94085 1.36193,-14.6798 1.36193,1.66128 1.36193,-20.07673 1.36193,7.00105 1.36193,-15.33508 1.36192,0.0947 1.36193,7.81815 1.36193,2.61273 1.36193,3.2584 1.36193,2.7555 1.36193,22.29302 1.36192,-1.83304 1.36193,14.18581 1.36193,10.84941 1.36193,1.64425 1.36193,-2.26782 1.36192,29.37198 1.36193,43.00578 1.36193,0.39721 1.36193,-6.14979 1.36193,7.21687 1.36192,-2.49106 1.36193,-3.39643 1.36193,-8.16117 1.36193,-9.04706 1.36193,7.56689 1.36193,17.88782 1.36192,-9.26168 1.36193,-26.60393 1.36193,-19.406 1.36193,-1.87267 1.36193,1.53944 1.36192,-27.42766 1.36193,21.58423 1.36193,-51.89628 1.36193,-9.22311 1.36193,-48.99512 1.36193,15.01432 1.36192,36.00625 1.36193,-4.22348 1.36193,16.77391 1.36193,5.62805 1.36193,15.56135 1.36193,-30.5944 1.36192,24.99716 1.36193,16.46289 1.36193,18.48734 1.36193,12.57604 1.36193,24.05173 1.36192,-34.47713 1.36193,6.11304 1.36193,-29.45596 1.36193,10.89333 1.36193,-7.62316 1.36193,5.9274 1.36192,-24.50325 1.36193,-12.53722 1.36193,-24.00437 1.36193,-26.39376 1.36193,-44.43195 1.36193,111.84998 1.36192,3.22941 1.36193,-12.82082 1.36193,10.6348 1.36193,-42.31329 1.36193,14.63979 1.36192,46.20801 1.36193,-20.20063 1.36193,46.75392 1.36193,-21.79703 1.36193,10.11801 1.36192,-47.73694 1.36193,17.72748 1.36193,-118.12562 1.36193,176.59221 1.36193,-111.83353 1.36193,-2.98207 1.36192,-36.4874 1.36193,17.81742 1.36193,3.27687 1.36193,-25.86416 1.36193,35.20974 1.36192,17.47527 1.36193,14.10636 1.36193,-22.8204 1.36193,-13.97045 1.36193,47.8455 1.36193,-0.64349 2.72385,88.49675 1.36193,-27.00169 1.36193,-10.15997 1.36193,-13.7336 1.36192,77.14206 1.36193,111.60348 1.36193,-426.74842 1.36193,293.71269 1.36193,-139.20046 2.72385,-99.43293 1.36193,147.6315 1.36193,-28.31364 1.36193,-72.06314 1.36193,-32.03619 1.36193,-34.76474 1.36192,-6.97064 1.36193,114.50702 1.36193,34.97157 1.36193,2.39805 1.36193,-42.98083 1.36192,-32.85914 1.36193,61.92196 1.36193,85.97818 1.36193,26.97806 1.36193,6.82199 1.36192,-38.00922 1.36193,-2.38159 1.36193,16.47995 1.36193,47.82727 1.36193,-10.24286 1.36193,-8.67005 1.36193,-35.44031 1.36192,46.17598 2.72386,-74.35725 1.36193,33.98778 1.36192,-56.14579 1.36193,-20.08488 1.36193,-30.79859 1.36193,28.97721 1.36193,15.75526 1.36193,-83.90528 1.36192,14.63261 1.36193,-55.05511 1.36193,-33.12808 1.36193,-52.317504 1.36193,41.960284 1.36193,10.44434 1.36192,38.99413 1.36193,-5.34378 1.36193,60.05284 1.36193,-10.38113 1.36193,-40.16183 1.36192,44.65112 1.36193,-0.036 1.36193,17.50861 1.36193,93.83815 1.36193,27.03772 1.36193,-14.94929 1.36192,-45.63866 1.36193,-10.55433 1.36193,119.37572 2.72386,-23.05958 1.36193,-64.33757 1.36192,-9.86667 1.36193,47.70863 1.36193,37.09166 1.36193,-43.10861 1.36193,-14.11353 1.36192,-22.36011 1.36193,-16.90777 1.36193,-40.69945 1.36193,-15.96637 1.36193,-55.93942 1.36192,-13.81612 1.36193,60.54187 1.36193,-49.8693 1.36193,-14.64069 1.36193,13.32259 1.36193,-20.71986 1.36192,25.06097 1.36193,121.43091 1.36193,-16.96247 1.36193,6.25613 1.36193,-48.04642 1.36192,7.91326 1.36193,-11.72514 1.36193,124.06957 1.36193,26.29181 2.72386,-13.82945 2.72385,-0.20495 1.36193,-6.82268 1.36193,9.58935 1.36193,-12.17726 1.36193,-74.52756 1.36192,-2.21979 1.36193,-135.93012 1.36193,115.49379 1.36193,-87.99077 1.36193,-7.26564 1.36192,57.59333 1.36193,-96.92249 1.36193,0.83157 1.36193,2.52957 1.36193,3.59171 1.36193,28.15761 1.36192,32.25291 2.72386,93.73498 1.36193,3.56146 1.36193,-22.88702 1.36192,48.34075 1.36193,-11.0805 2.72386,82.03311 1.36193,-6.67051 1.36192,-13.77033 1.36193,-50.23776 1.36193,2.5875 1.36193,41.47014 1.36193,-13.40623 1.36193,-66.26657 1.36193,-36.05228 1.36192,-54.80145 1.36193,5.69464 1.36193,98.61397 1.36193,-98.25083 1.36193,-15.58792 1.36192,-42.84933 1.36193,-30.66893 1.36193,122.60507 1.36193,74.28339 1.36193,-89.4549 1.36192,11.99247 1.36193,-34.05732 1.36193,-37.20911 1.36193,140.36277 1.36193,92.58004 1.36193,-43.45649 1.36192,-11.84624 1.36193,-14.79498 1.36193,-18.22167 1.36193,88.84317 1.36193,-7.80574 1.36192,-1.11482 1.36193,-19.2691 1.36193,-15.08296 1.36193,2.6487 1.36193,23.52458 1.36193,-9.76706 1.36192,-11.19737 1.36193,-18.55609 1.36193,28.45507 1.36193,-21.48229 1.36193,1.24356 1.36193,-22.652 1.36192,18.27238 1.36193,-38.84705 1.36193,9.95087 1.36193,-12.20186 1.36193,1.90537 1.36192,-8.73024 1.36193,-13.84153 1.36193,-8.6025 1.36193,-1.72206 1.36193,-70.33327 1.36192,-10.71768 1.36193,8.82311 1.36193,31.3594 1.36193,-41.73241 1.36193,-9.10631 1.36193,21.22707 1.36192,-13.18132 1.36193,9.70343 1.36193,-0.10767 1.36193,6.37018 1.36193,41.38594 1.36192,24.82948 1.36193,41.62207 1.36193,-30.17554 1.36193,27.08606 1.36193,-3.35581 1.36193,7.57445 1.36192,19.44404 1.36193,54.68156 1.36193,2.9934 1.36193,-16.14692 1.36193,-9.11677 1.36193,6.16691 1.36192,-5.35379 1.36193,21.31048 1.36193,-0.0361 1.36193,-12.09654 1.36193,-30.3474 1.36192,15.97224 1.36193,-41.85229 1.36193,24.53292 1.36193,4.95659 1.36193,45.55223 1.36193,-39.14938 1.36192,5.69586 1.36193,24.31322 1.36193,1.34824 1.36193,4.34498 1.36193,-0.22478 1.36193,0.13703 2.72385,-0.36802 1.36193,-1.79952 1.36193,-0.73153 1.36192,-30.86231 1.36193,22.20559 1.36193,1.71187 1.36193,-2.98649 1.36193,0.75148 1.36193,-0.25108 1.36192,8.15841 1.36193,3.21806 1.36193,0.52427 1.36193,-0.14434 2.72386,0.0476 1.36192,-0.056 1.36193,-0.26278 1.36193,0.36379 1.36193,-1.8433 1.36193,2.71702 1.36192,-0.81241 1.21001,2.91463 v 0"
       style="fill:none;stroke:#000000;stroke-width:2.56818891;stroke-linecap:square;stroke-linejoin:round;stroke-miterlimit:4;stroke-dasharray:none"
       id="path1467"
       transform="matrix(0.35277778,0,0,0.35277778,44.806806,54.98638)" />
    <g
       id="line2d_14"
       style="stroke-linecap:butt;stroke-linejoin:round"
       transform="matrix(0.35277778,0,0,0.35277778,44.806806,54.98638)">
      <path
         id="path1470"
         style="fill:none;stroke:#ff0000;stroke-width:4;stroke-linecap:butt;stroke-linejoin:round;stroke-dasharray:14.8, 6.4;stroke-dashoffset:0"
         d="M 123.81191,305.68176 H 844.12 v 0"
         clip-path="url(#pef7363a534)"
         inkscape:connector-curvature="0" />
    </g>
    <g
       id="patch_3"
       style="stroke-linecap:butt;stroke-linejoin:round"
       transform="matrix(0.35277778,0,0,0.35277778,44.806806,54.98638)">
      <path
         id="path1473"
         style="fill:none;stroke:#000000;stroke-width:0.80000001;stroke-linecap:square;stroke-linejoin:miter"
         d="M 105.39,549.8064 V 74.1312"
         inkscape:connector-curvature="0" />
    </g>
    <g
       id="patch_4"
       style="stroke-linecap:butt;stroke-linejoin:round"
       transform="matrix(0.35277778,0,0,0.35277778,44.806806,54.98638)">
      <path
         id="path1476"
         style="fill:none;stroke:#000000;stroke-width:0.80000001;stroke-linecap:square;stroke-linejoin:miter"
         d="M 758.808,549.8064 V 74.1312"
         inkscape:connector-curvature="0" />
    </g>
    <g
       id="patch_5"
       style="stroke-linecap:butt;stroke-linejoin:round"
       transform="matrix(0.35277778,0,0,0.35277778,44.806806,54.98638)">
      <path
         id="path1479"
         style="fill:none;stroke:#000000;stroke-width:0.80000001;stroke-linecap:square;stroke-linejoin:miter"
         d="M 105.39,549.8064 H 758.808"
         inkscape:connector-curvature="0" />
    </g>
    <g
       id="patch_6"
       style="stroke-linecap:butt;stroke-linejoin:round"
       transform="matrix(0.35277778,0,0,0.35277778,44.806806,54.98638)">
      <path
         id="path1482"
         style="fill:none;stroke:#000000;stroke-width:0.80000001;stroke-linecap:square;stroke-linejoin:miter"
         d="M 105.39,74.1312 H 758.808"
         inkscape:connector-curvature="0" />
    </g>
    <g
       style="stroke-linecap:butt;stroke-linejoin:round"
       id="patch_7"
       transform="matrix(0.30968462,0,0,0.31689442,52.292485,203.5111)">
      <path
         inkscape:connector-curvature="0"
         d="m 122.89,130.82651 h 312.01172 q 5,0 5,-5 V 91.6312 q 0,-5 -5,-5 H 122.89 q -5,0 -5,5 v 34.19531 q 0,5 5,5 z"
         style="opacity:0.8;fill:#ffffff;stroke:#cccccc;stroke-linecap:butt;stroke-linejoin:miter"
         id="path1485" />
    </g>
    <g
       style="stroke-linecap:butt;stroke-linejoin:round"
       id="line2d_15"
       transform="matrix(0.35277778,0,0,0.35277778,47.212232,200.40248)">
      <path
         inkscape:connector-curvature="0"
         d="m 127.89,106.87729 h 50"
         style="fill:none;stroke:#ff0000;stroke-width:4;stroke-linecap:butt;stroke-linejoin:round;stroke-dasharray:14.8, 6.4;stroke-dashoffset:0"
         id="path1488" />
    </g>
    <g
       style="stroke-linecap:butt;stroke-linejoin:round"
       id="line2d_16"
       transform="matrix(0.35277778,0,0,0.35277778,44.806806,54.98638)" />
    <text
       xml:space="preserve"
       style="font-style:normal;font-variant:normal;font-weight:500;font-stretch:normal;font-size:8.46666622px;line-height:1.25;font-family:aakar;-inkscape-font-specification:'aakar, Medium';font-variant-ligatures:normal;font-variant-caps:normal;font-variant-numeric:normal;font-feature-settings:normal;text-align:start;letter-spacing:0px;word-spacing:0px;writing-mode:lr-tb;text-anchor:start;fill:#000000;fill-opacity:1;stroke:none;stroke-width:0.26458332;stroke-linecap:butt;stroke-linejoin:round"
       x="115.98961"
       y="240.36575"
       id="text2296"><tspan
         y="240.36575"
         x="115.98961"
         style="font-style:normal;font-variant:normal;font-weight:500;font-stretch:normal;font-size:8.46666622px;font-family:aakar;-inkscape-font-specification:'aakar, Medium';font-variant-ligatures:normal;font-variant-caps:normal;font-variant-numeric:normal;font-feature-settings:normal;text-align:start;writing-mode:lr-tb;text-anchor:start;stroke-width:0.26458332;stroke-linecap:butt;stroke-linejoin:round"
         id="tspan2294"
         sodipodi:role="line">Desired Hip Speed</tspan></text>
    <text
       id="text2335"
       y="96.264473"
       x="75.207481"
       style="font-style:normal;font-variant:normal;font-weight:500;font-stretch:normal;font-size:9.17222214px;line-height:1.25;font-family:aakar;-inkscape-font-specification:'aakar, Medium';font-variant-ligatures:normal;font-variant-caps:normal;font-variant-numeric:normal;font-feature-settings:normal;text-align:start;letter-spacing:0px;word-spacing:0px;writing-mode:lr-tb;text-anchor:start;fill:#000000;fill-opacity:1;stroke:none;stroke-width:0.26458332;stroke-linecap:butt;stroke-linejoin:round"
       xml:space="preserve"><tspan
         y="96.264473"
         x="75.207481"
         style="font-style:normal;font-variant:normal;font-weight:500;font-stretch:normal;font-size:9.17222214px;font-family:aakar;-inkscape-font-specification:'aakar, Medium';font-variant-ligatures:normal;font-variant-caps:normal;font-variant-numeric:normal;font-feature-settings:normal;text-align:start;writing-mode:lr-tb;text-anchor:start;stroke-width:0.26458332;stroke-linecap:butt;stroke-linejoin:round"
         id="tspan2333"
         sodipodi:role="line">3</tspan></text>
    <text
       id="text2339"
       y="131.57092"
       x="74.9832"
       style="font-style:normal;font-variant:normal;font-weight:500;font-stretch:normal;font-size:9.17222214px;line-height:1.25;font-family:aakar;-inkscape-font-specification:'aakar, Medium';font-variant-ligatures:normal;font-variant-caps:normal;font-variant-numeric:normal;font-feature-settings:normal;text-align:start;letter-spacing:0px;word-spacing:0px;writing-mode:lr-tb;text-anchor:start;fill:#000000;fill-opacity:1;stroke:none;stroke-width:0.26458332;stroke-linecap:butt;stroke-linejoin:round"
       xml:space="preserve"><tspan
         y="131.57092"
         x="74.9832"
         style="font-style:normal;font-variant:normal;font-weight:500;font-stretch:normal;font-size:9.17222214px;font-family:aakar;-inkscape-font-specification:'aakar, Medium';font-variant-ligatures:normal;font-variant-caps:normal;font-variant-numeric:normal;font-feature-settings:normal;text-align:start;writing-mode:lr-tb;text-anchor:start;stroke-width:0.26458332;stroke-linecap:butt;stroke-linejoin:round"
         id="tspan2337"
         sodipodi:role="line">2</tspan></text>
    <text
       id="text2343"
       y="166.57785"
       x="75.512367"
       style="font-style:normal;font-variant:normal;font-weight:500;font-stretch:normal;font-size:9.17222214px;line-height:1.25;font-family:aakar;-inkscape-font-specification:'aakar, Medium';font-variant-ligatures:normal;font-variant-caps:normal;font-variant-numeric:normal;font-feature-settings:normal;text-align:start;letter-spacing:0px;word-spacing:0px;writing-mode:lr-tb;text-anchor:start;fill:#000000;fill-opacity:1;stroke:none;stroke-width:0.26458332;stroke-linecap:butt;stroke-linejoin:round"
       xml:space="preserve"><tspan
         y="166.57785"
         x="75.512367"
         style="font-style:normal;font-variant:normal;font-weight:500;font-stretch:normal;font-size:9.17222214px;font-family:aakar;-inkscape-font-specification:'aakar, Medium';font-variant-ligatures:normal;font-variant-caps:normal;font-variant-numeric:normal;font-feature-settings:normal;text-align:start;writing-mode:lr-tb;text-anchor:start;stroke-width:0.26458332;stroke-linecap:butt;stroke-linejoin:round"
         id="tspan2341"
         sodipodi:role="line">1</tspan></text>
    <text
       xml:space="preserve"
       style="font-style:normal;font-variant:normal;font-weight:500;font-stretch:normal;font-size:9.17222214px;line-height:1.25;font-family:aakar;-inkscape-font-specification:'aakar, Medium';font-variant-ligatures:normal;font-variant-caps:normal;font-variant-numeric:normal;font-feature-settings:normal;text-align:start;letter-spacing:0px;word-spacing:0px;writing-mode:lr-tb;text-anchor:start;fill:#000000;fill-opacity:1;stroke:none;stroke-width:0.26458332;stroke-linecap:butt;stroke-linejoin:round"
       x="74.74279"
       y="201.57402"
       id="text2347"><tspan
         y="201.57402"
         x="74.74279"
         style="font-style:normal;font-variant:normal;font-weight:500;font-stretch:normal;font-size:9.17222214px;font-family:aakar;-inkscape-font-specification:'aakar, Medium';font-variant-ligatures:normal;font-variant-caps:normal;font-variant-numeric:normal;font-feature-settings:normal;text-align:start;writing-mode:lr-tb;text-anchor:start;stroke-width:0.26458332;stroke-linecap:butt;stroke-linejoin:round"
         id="tspan2345"
         sodipodi:role="line">0</tspan></text>
    <text
       id="text2351"
       y="237.13162"
       x="71.562416"
       style="font-style:normal;font-variant:normal;font-weight:500;font-stretch:normal;font-size:9.17222214px;line-height:1.25;font-family:aakar;-inkscape-font-specification:'aakar, Medium';font-variant-ligatures:normal;font-variant-caps:normal;font-variant-numeric:normal;font-feature-settings:normal;text-align:start;letter-spacing:0px;word-spacing:0px;writing-mode:lr-tb;text-anchor:start;fill:#000000;fill-opacity:1;stroke:none;stroke-width:0.26458332;stroke-linecap:butt;stroke-linejoin:round"
       xml:space="preserve"><tspan
         y="237.13162"
         x="71.562416"
         style="font-style:normal;font-variant:normal;font-weight:500;font-stretch:normal;font-size:9.17222214px;font-family:aakar;-inkscape-font-specification:'aakar, Medium';font-variant-ligatures:normal;font-variant-caps:normal;font-variant-numeric:normal;font-feature-settings:normal;text-align:start;writing-mode:lr-tb;text-anchor:start;stroke-width:0.26458332;stroke-linecap:butt;stroke-linejoin:round"
         id="tspan2349"
         sodipodi:role="line">-1</tspan></text>
    <text
       xml:space="preserve"
       style="font-style:normal;font-variant:normal;font-weight:500;font-stretch:normal;font-size:9.17222214px;line-height:1.25;font-family:aakar;-inkscape-font-specification:'aakar, Medium';font-variant-ligatures:normal;font-variant-caps:normal;font-variant-numeric:normal;font-feature-settings:normal;text-align:start;letter-spacing:0px;word-spacing:0px;writing-mode:lr-tb;text-anchor:start;fill:#000000;fill-opacity:1;stroke:none;stroke-width:0.26458332;stroke-linecap:butt;stroke-linejoin:round"
       x="82.602409"
       y="257.34341"
       id="text2355"><tspan
         y="257.34341"
         x="82.602409"
         style="font-style:normal;font-variant:normal;font-weight:500;font-stretch:normal;font-size:9.17222214px;font-family:aakar;-inkscape-font-specification:'aakar, Medium';font-variant-ligatures:normal;font-variant-caps:normal;font-variant-numeric:normal;font-feature-settings:normal;text-align:start;writing-mode:lr-tb;text-anchor:start;stroke-width:0.26458332;stroke-linecap:butt;stroke-linejoin:round"
         id="tspan2353"
         sodipodi:role="line">0.0</tspan></text>
    <text
       xml:space="preserve"
       style="font-style:normal;font-variant:normal;font-weight:500;font-stretch:normal;font-size:9.17222214px;line-height:1.25;font-family:aakar;-inkscape-font-specification:'aakar, Medium';font-variant-ligatures:normal;font-variant-caps:normal;font-variant-numeric:normal;font-feature-settings:normal;text-align:start;letter-spacing:0px;word-spacing:0px;writing-mode:lr-tb;text-anchor:start;fill:#000000;fill-opacity:1;stroke:none;stroke-width:0.26458332;stroke-linecap:butt;stroke-linejoin:round"
       x="117.88198"
       y="257.84567"
       id="text2359"><tspan
         y="257.84567"
         x="117.88198"
         style="font-style:normal;font-variant:normal;font-weight:500;font-stretch:normal;font-size:9.17222214px;font-family:aakar;-inkscape-font-specification:'aakar, Medium';font-variant-ligatures:normal;font-variant-caps:normal;font-variant-numeric:normal;font-feature-settings:normal;text-align:start;writing-mode:lr-tb;text-anchor:start;stroke-width:0.26458332;stroke-linecap:butt;stroke-linejoin:round"
         id="tspan2357"
         sodipodi:role="line">2.5</tspan></text>
    <text
       xml:space="preserve"
       style="font-style:normal;font-variant:normal;font-weight:500;font-stretch:normal;font-size:9.17222214px;line-height:1.25;font-family:aakar;-inkscape-font-specification:'aakar, Medium';font-variant-ligatures:normal;font-variant-caps:normal;font-variant-numeric:normal;font-feature-settings:normal;text-align:start;letter-spacing:0px;word-spacing:0px;writing-mode:lr-tb;text-anchor:start;fill:#000000;fill-opacity:1;stroke:none;stroke-width:0.26458332;stroke-linecap:butt;stroke-linejoin:round"
       x="150.50502"
       y="257.11368"
       id="text2363"><tspan
         y="257.11368"
         x="150.50502"
         style="font-style:normal;font-variant:normal;font-weight:500;font-stretch:normal;font-size:9.17222214px;font-family:aakar;-inkscape-font-specification:'aakar, Medium';font-variant-ligatures:normal;font-variant-caps:normal;font-variant-numeric:normal;font-feature-settings:normal;text-align:start;writing-mode:lr-tb;text-anchor:start;stroke-width:0.26458332;stroke-linecap:butt;stroke-linejoin:round"
         id="tspan2361"
         sodipodi:role="line">5.0</tspan></text>
    <text
       xml:space="preserve"
       style="font-style:normal;font-variant:normal;font-weight:500;font-stretch:normal;font-size:9.17222214px;line-height:1.25;font-family:aakar;-inkscape-font-specification:'aakar, Medium';font-variant-ligatures:normal;font-variant-caps:normal;font-variant-numeric:normal;font-feature-settings:normal;text-align:start;letter-spacing:0px;word-spacing:0px;writing-mode:lr-tb;text-anchor:start;fill:#000000;fill-opacity:1;stroke:none;stroke-width:0.26458332;stroke-linecap:butt;stroke-linejoin:round"
       x="184.20248"
       y="257.39178"
       id="text2367"><tspan
         y="257.39178"
         x="184.20248"
         style="font-style:normal;font-variant:normal;font-weight:500;font-stretch:normal;font-size:9.17222214px;font-family:aakar;-inkscape-font-specification:'aakar, Medium';font-variant-ligatures:normal;font-variant-caps:normal;font-variant-numeric:normal;font-feature-settings:normal;text-align:start;writing-mode:lr-tb;text-anchor:start;stroke-width:0.26458332;stroke-linecap:butt;stroke-linejoin:round"
         id="tspan2365"
         sodipodi:role="line">7.5</tspan></text>
    <text
       xml:space="preserve"
       style="font-style:normal;font-variant:normal;font-weight:500;font-stretch:normal;font-size:9.17222214px;line-height:1.25;font-family:aakar;-inkscape-font-specification:'aakar, Medium';font-variant-ligatures:normal;font-variant-caps:normal;font-variant-numeric:normal;font-feature-settings:normal;text-align:start;letter-spacing:0px;word-spacing:0px;writing-mode:lr-tb;text-anchor:start;fill:#000000;fill-opacity:1;stroke:none;stroke-width:0.26458332;stroke-linecap:butt;stroke-linejoin:round"
       x="216.80939"
       y="257.64285"
       id="text2371"><tspan
         y="257.64285"
         x="216.80939"
         style="font-style:normal;font-variant:normal;font-weight:500;font-stretch:normal;font-size:9.17222214px;font-family:aakar;-inkscape-font-specification:'aakar, Medium';font-variant-ligatures:normal;font-variant-caps:normal;font-variant-numeric:normal;font-feature-settings:normal;text-align:start;writing-mode:lr-tb;text-anchor:start;stroke-width:0.26458332;stroke-linecap:butt;stroke-linejoin:round"
         id="tspan2369"
         sodipodi:role="line">10.0</tspan></text>
    <text
       xml:space="preserve"
       style="font-style:normal;font-variant:normal;font-weight:500;font-stretch:normal;font-size:9.17222214px;line-height:1.25;font-family:aakar;-inkscape-font-specification:'aakar, Medium';font-variant-ligatures:normal;font-variant-caps:normal;font-variant-numeric:normal;font-feature-settings:normal;text-align:start;letter-spacing:0px;word-spacing:0px;writing-mode:lr-tb;text-anchor:start;fill:#000000;fill-opacity:1;stroke:none;stroke-width:0.26458332;stroke-linecap:butt;stroke-linejoin:round"
       x="250.00978"
       y="257.11905"
       id="text2375"><tspan
         y="257.11905"
         x="250.00978"
         style="font-style:normal;font-variant:normal;font-weight:500;font-stretch:normal;font-size:9.17222214px;font-family:aakar;-inkscape-font-specification:'aakar, Medium';font-variant-ligatures:normal;font-variant-caps:normal;font-variant-numeric:normal;font-feature-settings:normal;text-align:start;writing-mode:lr-tb;text-anchor:start;stroke-width:0.26458332;stroke-linecap:butt;stroke-linejoin:round"
         id="tspan2373"
         sodipodi:role="line">12.5</tspan></text>
    <text
       xml:space="preserve"
       style="font-style:normal;font-variant:normal;font-weight:500;font-stretch:normal;font-size:9.17222214px;line-height:1.25;font-family:aakar;-inkscape-font-specification:'aakar, Medium';font-variant-ligatures:normal;font-variant-caps:normal;font-variant-numeric:normal;font-feature-settings:normal;text-align:start;letter-spacing:0px;word-spacing:0px;writing-mode:lr-tb;text-anchor:start;fill:#000000;fill-opacity:1;stroke:none;stroke-width:0.26458332;stroke-linecap:butt;stroke-linejoin:round"
       x="283.28027"
       y="257.39169"
       id="text2379"><tspan
         y="257.39169"
         x="283.28027"
         style="font-style:normal;font-variant:normal;font-weight:500;font-stretch:normal;font-size:9.17222214px;font-family:aakar;-inkscape-font-specification:'aakar, Medium';font-variant-ligatures:normal;font-variant-caps:normal;font-variant-numeric:normal;font-feature-settings:normal;text-align:start;writing-mode:lr-tb;text-anchor:start;stroke-width:0.26458332;stroke-linecap:butt;stroke-linejoin:round"
         id="tspan2377"
         sodipodi:role="line">15.0</tspan></text>
    <g
       id="g2802"
       style="stroke-linecap:butt;stroke-linejoin:round"
       transform="matrix(0.58728621,0,0,0.58728621,136.85069,179.20598)">
      <g
         word-spacing="normal"
         letter-spacing="normal"
         font-size-adjust="none"
         font-stretch="normal"
         font-weight="normal"
         font-variant="normal"
         font-style="normal"
         stroke-miterlimit="10.433"
         xml:space="preserve"
         transform="matrix(0.35714286,0,0,-0.35714286,-62.5,300)"
         id="content"
         style="font-style:normal;font-variant:normal;font-weight:normal;font-stretch:normal;letter-spacing:normal;word-spacing:normal;text-anchor:start;fill:none;fill-opacity:1;fill-rule:evenodd;stroke:#000000;stroke-linecap:butt;stroke-linejoin:round;stroke-miterlimit:10.43299961;stroke-dasharray:none;stroke-dashoffset:0;stroke-opacity:1"><path
           id="path2793"
           d="m 465.79,426.12 h 4.68 c 0.99,0 1.49,0 1.49,1 0,0.55 -0.5,0.55 -1.39,0.55 h -4.39 c 1.79,7.08 2.04,8.08 2.04,8.37 0,0.85 -0.59,1.35 -1.43,1.35 -0.16,0 -1.55,-0.05 -2,-1.8 l -1.94,-7.92 h -4.69 c -1,0 -1.5,0 -1.5,-0.94 0,-0.61 0.41,-0.61 1.41,-0.61 h 4.37 c -3.58,-14.14 -3.78,-14.98 -3.78,-15.89 0,-2.69 1.89,-4.58 4.58,-4.58 5.08,0 7.92,7.27 7.92,7.67 0,0.5 -0.39,0.5 -0.59,0.5 -0.46,0 -0.5,-0.15 -0.75,-0.7 -2.14,-5.17 -4.78,-6.37 -6.47,-6.37 -1.05,0 -1.55,0.65 -1.55,2.29 0,1.19 0.09,1.55 0.3,2.39 z"
           inkscape:connector-curvature="0"
           style="fill:#000000;stroke-width:0;stroke-linecap:butt;stroke-linejoin:round" /><polygon
           id="polygon2795"
           points="481.39,395.73 481.39,441.57 486.22,441.57 486.22,443.56 479.39,443.56 479.39,393.75 486.22,393.75 486.22,395.73 "
           style="fill:#000000;stroke-width:0;stroke-linecap:butt;stroke-linejoin:round" /><path
           id="path2797"
           d="m 506.8,424.84 -0.13,-0.01 -0.13,-0.01 -0.12,-0.02 -0.13,-0.03 -0.12,-0.03 -0.11,-0.04 -0.12,-0.04 -0.11,-0.04 -0.1,-0.05 -0.11,-0.06 -0.1,-0.06 -0.09,-0.06 -0.1,-0.07 -0.09,-0.07 -0.08,-0.07 -0.08,-0.08 -0.08,-0.08 -0.07,-0.08 -0.07,-0.09 -0.06,-0.08 -0.06,-0.09 -0.06,-0.1 -0.05,-0.09 -0.04,-0.1 -0.04,-0.09 -0.04,-0.1 -0.03,-0.1 -0.02,-0.1 -0.02,-0.1 -0.02,-0.11 -0.01,-0.1 v -0.1 c 0,-0.7 0.44,-1.44 1.55,-1.44 1.09,0 2.28,0.85 2.28,2.78 0,2.25 -2.14,4.28 -5.92,4.28 -6.58,0 -8.43,-5.07 -8.43,-7.26 0,-3.89 3.69,-4.64 5.13,-4.94 2.59,-0.5 5.19,-1.05 5.19,-3.78 0,-1.3 -1.14,-5.48 -7.13,-5.48 -0.7,0 -4.53,0 -5.69,2.64 1.91,-0.25 3.15,1.25 3.15,2.64 0,1.14 -0.8,1.75 -1.85,1.75 -1.3,0 -2.78,-1.05 -2.78,-3.3 0,-2.84 2.84,-4.83 7.13,-4.83 8.06,0 10.01,6.03 10.01,8.27 0,1.79 -0.95,3.04 -1.55,3.64 -1.34,1.39 -2.79,1.64 -4.98,2.09 -1.8,0.39 -3.78,0.75 -3.78,2.99 0,1.45 1.19,4.48 5.58,4.48 1.23,0 3.73,-0.34 4.48,-2.28 z"
           inkscape:connector-curvature="0"
           style="fill:#000000;stroke-width:0;stroke-linecap:butt;stroke-linejoin:round" /><polygon
           id="polygon2799"
           points="516.64,395.73 511.81,395.73 511.81,393.75 518.64,393.75 518.64,443.56 511.81,443.56 511.81,441.57 516.64,441.57 "
           style="fill:#000000;stroke-width:0;stroke-linecap:butt;stroke-linejoin:round" /></g>    </g>
    <g
       id="g3196"
       style="stroke-linecap:butt;stroke-linejoin:round"
       transform="matrix(0,-0.66350709,0.66350709,0,-41.576556,247.62856)">
      <g
         word-spacing="normal"
         letter-spacing="normal"
         font-size-adjust="none"
         font-stretch="normal"
         font-weight="normal"
         font-variant="normal"
         font-style="normal"
         stroke-miterlimit="10.433"
         xml:space="preserve"
         transform="matrix(0.35714286,0,0,-0.35714286,-62.5,300)"
         id="g3194"
         style="font-style:normal;font-variant:normal;font-weight:normal;font-stretch:normal;letter-spacing:normal;word-spacing:normal;text-anchor:start;fill:none;fill-opacity:1;fill-rule:evenodd;stroke:#000000;stroke-linecap:butt;stroke-linejoin:round;stroke-miterlimit:10.43299961;stroke-dasharray:none;stroke-dashoffset:0;stroke-opacity:1"><path
           id="path3180"
           d="m 473.84,436.89 v 0.12 l -0.01,0.13 -0.02,0.12 -0.02,0.13 -0.03,0.12 -0.03,0.12 -0.04,0.12 -0.05,0.12 -0.05,0.11 -0.06,0.11 -0.06,0.11 -0.07,0.11 -0.07,0.11 -0.08,0.1 -0.08,0.1 -0.08,0.09 -0.09,0.09 -0.1,0.09 -0.1,0.08 -0.1,0.08 -0.11,0.07 -0.11,0.07 -0.11,0.06 -0.12,0.05 -0.12,0.05 -0.13,0.05 -0.12,0.04 -0.13,0.03 -0.14,0.02 -0.13,0.02 -0.14,0.01 -0.14,0.01 c -1.68,0 -2.68,-1.39 -2.68,-2.64 0,-1.35 1.14,-2.64 2.64,-2.64 1.68,0 2.68,1.39 2.68,2.64 z"
           inkscape:connector-curvature="0"
           style="fill:#000000;stroke-width:0;stroke-linecap:butt;stroke-linejoin:round" /><path
           id="path3182"
           d="m 472.16,421.25 0.03,0.13 0.03,0.15 0.04,0.16 0.05,0.18 0.05,0.19 0.06,0.21 0.07,0.22 0.07,0.22 0.08,0.23 0.09,0.24 0.09,0.25 0.11,0.24 0.11,0.25 0.12,0.25 0.13,0.25 0.13,0.25 0.15,0.24 0.16,0.24 0.16,0.23 0.18,0.22 0.19,0.22 0.2,0.2 0.21,0.19 0.22,0.18 0.23,0.16 0.24,0.14 0.13,0.07 0.13,0.06 0.13,0.05 0.14,0.05 0.14,0.05 0.14,0.04 0.15,0.03 0.15,0.03 0.15,0.02 0.15,0.02 0.16,0.01 h 0.16 c 0.25,0 1.44,0 2.49,-0.64 -1.39,-0.25 -2.39,-1.5 -2.39,-2.69 0,-0.79 0.54,-1.75 1.89,-1.75 1.09,0 2.69,0.89 2.69,2.89 0,2.6 -2.94,3.28 -4.63,3.28 -2.89,0 -4.64,-2.64 -5.23,-3.78 -1.25,3.28 -3.94,3.78 -5.38,3.78 -5.19,0 -8.03,-6.42 -8.03,-7.67 0,-0.5 0.5,-0.5 0.61,-0.5 0.39,0 0.55,0.11 0.64,0.55 1.69,5.28 4.98,6.53 6.67,6.53 0.96,0 2.69,-0.44 2.69,-3.33 0,-1.54 -0.84,-4.89 -2.69,-11.86 -0.8,-3.09 -2.53,-5.18 -4.73,-5.18 -0.3,0 -1.44,0 -2.49,0.65 1.25,0.24 2.35,1.28 2.35,2.69 0,1.34 -1.1,1.73 -1.85,1.73 -1.5,0 -2.75,-1.29 -2.75,-2.89 0,-2.28 2.5,-3.28 4.69,-3.28 3.3,0 5.08,3.49 5.24,3.78 0.59,-1.84 2.39,-3.78 5.37,-3.78 5.14,0 7.98,6.42 7.98,7.67 0,0.5 -0.45,0.5 -0.61,0.5 -0.43,0 -0.54,-0.2 -0.64,-0.54 -1.64,-5.33 -5.03,-6.53 -6.62,-6.53 -1.95,0 -2.75,1.59 -2.75,3.29 0,1.1 0.3,2.19 0.86,4.38 z"
           inkscape:connector-curvature="0"
           style="fill:#000000;stroke-width:0;stroke-linecap:butt;stroke-linejoin:round" /><polygon
           id="polygon3184"
           points="496.78,441.57 496.78,443.56 489.95,443.56 489.95,393.75 496.78,393.75 496.78,395.73 491.95,395.73 491.95,441.57 "
           style="fill:#000000;stroke-width:0;stroke-linecap:butt;stroke-linejoin:round" /><path
           id="path3186"
           d="m 519,428.59 -0.01,-0.07 -0.02,-0.07 -0.02,-0.07 -0.02,-0.07 -0.02,-0.08 -0.01,-0.08 -0.04,-0.15 -0.04,-0.17 -0.04,-0.16 -0.04,-0.16 -0.02,-0.07 -0.02,-0.08 -0.02,-0.08 -0.02,-0.07 -0.02,-0.07 -0.01,-0.07 -0.02,-0.07 -0.01,-0.06 -0.02,-0.06 -0.01,-0.06 -0.01,-0.05 -0.01,-0.05 -0.01,-0.04 -0.01,-0.04 v -0.04 l -0.01,-0.03 v -0.02 -0.02 c 0,-0.77 0.63,-1.11 1.17,-1.11 0.64,0 1.19,0.45 1.36,0.76 0.19,0.32 0.45,1.43 0.64,2.16 0.17,0.66 0.55,2.27 0.77,3.14 0.2,0.77 0.4,1.53 0.59,2.33 0.38,1.5 0.38,1.56 1.08,2.65 1.11,1.71 2.86,3.69 5.56,3.69 1.96,0 2.06,-1.61 2.06,-2.44 0,-2.09 -1.5,-5.95 -2.06,-7.42 -0.37,-0.98 -0.51,-1.29 -0.51,-1.89 0,-1.84 1.53,-2.98 3.31,-2.98 3.48,0 5.01,4.79 5.01,5.33 0,0.45 -0.45,0.45 -0.56,0.45 -0.48,0 -0.51,-0.2 -0.66,-0.59 -0.79,-2.79 -2.29,-4.22 -3.68,-4.22 -0.74,0 -0.88,0.48 -0.88,1.22 0,0.79 0.18,1.25 0.8,2.82 0.42,1.08 1.84,4.77 1.84,6.72 0,0.56 0,2.03 -1.28,3.03 -0.59,0.46 -1.61,0.94 -3.25,0.94 -3.12,0 -5.05,-2.05 -6.15,-3.51 -0.28,2.96 -2.77,3.51 -4.53,3.51 -2.9,0 -4.85,-1.76 -5.9,-3.16 -0.25,2.4 -2.29,3.16 -3.73,3.16 -1.5,0 -2.3,-1.08 -2.75,-1.87 -0.77,-1.29 -1.25,-3.29 -1.25,-3.46 0,-0.45 0.48,-0.45 0.59,-0.45 0.49,0 0.52,0.11 0.77,1.05 0.51,2.06 1.19,3.76 2.55,3.76 0.9,0 1.14,-0.76 1.14,-1.7 0,-0.67 -0.32,-1.95 -0.57,-2.89 -0.23,-0.95 -0.57,-2.38 -0.76,-3.14 l -1.11,-4.47 c -0.14,-0.44 -0.34,-1.31 -0.34,-1.42 0,-0.77 0.62,-1.11 1.18,-1.11 0.63,0 1.17,0.45 1.36,0.76 0.17,0.32 0.46,1.43 0.63,2.16 0.17,0.66 0.54,2.27 0.76,3.14 0.21,0.77 0.43,1.53 0.6,2.33 0.37,1.44 0.45,1.7 1.45,3.14 0.98,1.39 2.63,3.2 5.23,3.2 2.02,0 2.05,-1.78 2.05,-2.44 0,-0.87 -0.09,-1.32 -0.59,-3.28 z"
           inkscape:connector-curvature="0"
           style="fill:#000000;stroke-width:0;stroke-linecap:butt;stroke-linejoin:round" /><polyline
           id="polyline3188"
           points="504,418 539.4,418 539.4,420.04 504,420.04 "
           style="fill:#000000;fill-rule:nonzero;stroke-width:0;stroke-linecap:butt;stroke-linejoin:round" /><path
           id="path3190"
           d="m 527.18,402.13 -0.09,-0.02 -0.08,-0.02 -0.08,-0.03 -0.08,-0.03 -0.07,-0.03 -0.08,-0.03 -0.07,-0.04 -0.07,-0.04 -0.06,-0.04 -0.07,-0.05 -0.06,-0.04 -0.06,-0.05 -0.05,-0.05 -0.06,-0.05 -0.05,-0.05 -0.05,-0.06 -0.04,-0.05 -0.05,-0.06 -0.04,-0.06 -0.04,-0.06 -0.03,-0.06 -0.03,-0.06 -0.03,-0.06 -0.03,-0.07 -0.02,-0.06 -0.03,-0.06 -0.01,-0.07 -0.02,-0.06 -0.01,-0.07 -0.01,-0.06 v -0.07 -0.06 c 0,-0.81 0.7,-1.13 1.15,-1.13 0.35,0 1.67,0.22 1.67,1.99 0,2.26 -2.5,3.03 -4.62,3.03 -5.44,0 -6.42,-4 -6.42,-5.08 0,-1.3 0.73,-2.12 1.22,-2.55 0.9,-0.7 1.53,-0.82 3.94,-1.25 0.73,-0.14 2.96,-0.56 2.96,-2.29 0,-0.6 -0.39,-1.93 -1.84,-2.8 -1.36,-0.77 -3.08,-0.77 -3.49,-0.77 -1.4,0 -3.38,0.32 -4.18,1.47 1.15,0.14 1.92,1 1.92,1.99 0,0.87 -0.62,1.28 -1.36,1.28 -1.01,0 -2.03,-0.8 -2.03,-2.33 0,-2.09 2.23,-3.37 5.61,-3.37 6.42,0 7.61,4.39 7.61,5.75 0,3.2 -3.53,3.82 -4.82,4.07 -0.31,0.07 -1.18,0.21 -1.38,0.27 -1.3,0.25 -1.93,0.98 -1.93,1.75 0,0.8 0.63,1.73 1.39,2.23 0.94,0.6 2.16,0.66 2.75,0.66 0.74,0 2.55,-0.11 3.32,-1.3 z"
           inkscape:connector-curvature="0"
           style="fill:#000000;stroke-width:0;stroke-linecap:butt;stroke-linejoin:round" /><polygon
           id="polygon3192"
           points="551.08,395.73 546.25,395.73 546.25,393.75 553.08,393.75 553.08,443.56 546.25,443.56 546.25,441.57 551.08,441.57 "
           style="fill:#000000;stroke-width:0;stroke-linecap:butt;stroke-linejoin:round" /></g>    </g>
  </g>
</svg>
