<?xml version="1.0" encoding="UTF-8" standalone="no"?>
<svg
   xmlns:dc="http://purl.org/dc/elements/1.1/"
   xmlns:cc="http://creativecommons.org/ns#"
   xmlns:rdf="http://www.w3.org/1999/02/22-rdf-syntax-ns#"
   xmlns:svg="http://www.w3.org/2000/svg"
   xmlns="http://www.w3.org/2000/svg"
   xmlns:sodipodi="http://sodipodi.sourceforge.net/DTD/sodipodi-0.dtd"
   xmlns:inkscape="http://www.inkscape.org/namespaces/inkscape"
   version="1.0"
   width="1920.000000pt"
   height="995.000000pt"
   viewBox="0 0 1920.000000 995.000000"
   preserveAspectRatio="xMidYMid meet"
   id="svg10"
   sodipodi:docname="cartpole_sketch2.svg"
   inkscape:version="0.92.5 (2060ec1f9f, 2020-04-08)">
  <metadata
     id="metadata16">
    <rdf:RDF>
      <cc:Work
         rdf:about="">
        <dc:format>image/svg+xml</dc:format>
        <dc:type
           rdf:resource="http://purl.org/dc/dcmitype/StillImage" />
      </cc:Work>
    </rdf:RDF>
  </metadata>
  <defs
     id="defs14">
    <inkscape:perspective
       sodipodi:type="inkscape:persp3d"
       inkscape:vp_x="0 : 497.5 : 1"
       inkscape:vp_y="0 : 1000 : 0"
       inkscape:vp_z="1920 : 497.5 : 1"
       inkscape:persp3d-origin="960 : 331.66667 : 1"
       id="perspective826" />
  </defs>
  <sodipodi:namedview
     pagecolor="#ffffff"
     bordercolor="#666666"
     borderopacity="1"
     objecttolerance="10"
     gridtolerance="10"
     guidetolerance="10"
     inkscape:pageopacity="0"
     inkscape:pageshadow="2"
     inkscape:window-width="1920"
     inkscape:window-height="1043"
     id="namedview12"
     showgrid="false"
     inkscape:zoom="0.38338446"
     inkscape:cx="1339.5674"
     inkscape:cy="558.1815"
     inkscape:window-x="0"
     inkscape:window-y="0"
     inkscape:window-maximized="1"
     inkscape:current-layer="svg10" />
  <path
     style="fill:#000000;stroke:none;stroke-width:0.1"
     inkscape:connector-curvature="0"
     id="path2"
     d="m 20,32.2 c 0,11.7 -0.7,98.6 -1.6,193.1 -0.9,94.4 -1.4,172 -1.1,172.3 0.3,0.4 22.7,0.9 49.6,1.2 41.4,0.4 49.1,0.3 49.5,-0.9 0.8,-2.5 3.6,-384.3 2.8,-385 -0.4,-0.3 -22.9,-1 -49.9,-1.3 L 20,10.9 Z" />
  <path
     style="fill:#000000;stroke:none;stroke-width:0.1"
     inkscape:connector-curvature="0"
     id="path4"
     d="m 1815.7,12.7 c -0.5,0.9 2.3,364.2 2.9,366 0.3,1 10.1,1.3 44.9,1.3 h 44.5 v -27.8 c 0,-56.8 -3.2,-337.7 -3.8,-338.3 -1,-1 -88,-2.1 -88.5,-1.2 z" />
  <path
     style="fill:#000000;stroke:none;stroke-width:0.09448414"
     inkscape:connector-curvature="0"
     id="path6"
     d="m 629.69754,238 c 10.17707,2 20.44341,10.2 25.26413,20.1 2.94599,6.2 4.01726,16.4 2.23181,22.4 l -1.07127,3.7 42.31518,47.7 C 843.59452,495.3 1000,672.1 1000,672.9 c 0,1.5 -6.9633,10.9 -9.46289,12.8 l -2.32108,1.6 -32.76302,-36.9 C 937.50923,630.1 884.21353,569.8 837.07763,516.5 789.94173,463.1 726.64751,391.6 696.38412,357.4 l -55.08115,-62.1 -4.37436,0.7 c -13.48015,2.4 -29.90629,-7.7 -35.88755,-22 -3.12454,-7.3 -3.21381,-17.5 -0.26782,-23.7 4.5529,-9.8 16.42614,-14.9 28.9243,-12.3 z" />
  <g
     inkscape:groupmode="layer"
     id="layer1"
     inkscape:label="Layer 2">
    <rect
       style="opacity:1;vector-effect:none;fill:#1a1a1a;fill-opacity:0.45283024;stroke:none;stroke-width:0.49760136;stroke-linecap:square;stroke-linejoin:round;stroke-miterlimit:4;stroke-dasharray:none;stroke-dashoffset:19.31338501;stroke-opacity:1;paint-order:markers fill stroke"
       id="rect842"
       width="367.77701"
       height="223.01373"
       x="813.80457"
       y="566.57886"
       rx="1.2425592"
       ry="1.3451451" />
  </g>
</svg>
